<svg xmlns="http://www.w3.org/2000/svg" viewBox="0 0 512 512" height="480" width="640"><g fill-rule="evenodd" stroke-width="1pt"><path d="M-85.3 0h682.6v512H-85.3z"/><path fill="#090" d="M369.7 0h227.6v512H369.7z"/><path fill="#bf0000" d="M142.3 0H370v512H142.2z"/></g><path d="M398.4 265.2c-.2.6 1.4 1.4 1.8 1 1.7-2 4-6 4.3-8.4 0-.7-2-1.5-2.6-1-1.6 2-3.2 6-3.6 8.4zM188 387.8c-1.7 6-26.4-5.5-29-11.5 14 7.5 29.4 6 29 11.5zM110 267c1 1.4 3.2.5 1.3-1.5-1.5-1.6-1-2-2-4-1-2.3-.8-3.5-2-5-1-1.5-2.5 0-1.5 1.2 1.3 1.5 1 2.6 1.7 4 1.4 2.5 1 3.7 2.4 5.3zM143 307c4 2 7 7 7.3 11 .4 4.5 1 8.3 3 11.6-3.2-1-4.8-6-5.2-11-.4-5.3-3.2-7.5-5-11.5zM151.4 316.7c2.8 5 6.6 7 6.8 10.7.4 4.4.7 4.6 2 9-3.4-1-4.2-1.3-5-7.8-.6-4.5-4.3-7.7-3.8-12z" fill-rule="evenodd" stroke="#000" stroke-width=".97315" fill="#fff"/><path stroke-linejoin="round" d="M215.7 344c4.2 3.4 7 7.3 8.2 12.4 1.2 4.8 3 8.5 5.8 12.8-4.4-3-7.2-7.2-8.7-12.2-1-5-2.5-8.5-5.3-13zM294.4 344c-4.3 3.4-7 7.4-8.4 12.5-1.3 4.8-3.2 8.6-6 12.8 4.5-3 7.4-7.2 8.8-12.2 1.3-4.8 2.8-8.5 5.6-13zM289 344c-4.5 3.6-8.8 7.7-10 12.8-1.5 4.8-2.3 8.4-5.4 13.2 5-3 6.8-7.7 8.2-12.7 1.3-5 4.2-8.7 7.3-13.4zM237 363.6c1.6 3 3.3 7.4 6.6 6.6 0-2.3-3.5-3.8-6.6-6.6zM241.8 364.6c6.3 2.6 11.7 2 12.3 6-5.7.5-8-2-12.2-6zM272.5 364c-1.6 2.8-3.4 7-6.7 6.2 0-2 3.6-3.6 6.7-6.2zM268 365c-6.3 2.3-11.7 1.7-12.4 5.4 6 .6 8-1.7 12.5-5.5z" fill-rule="evenodd" stroke="#000" stroke-width=".97315" fill="#fff"/><path d="M274 356c0-1-.6-1.7-1.3-2l-4.3-1.3c-1.6-.4-2.5.8-2.5 1.5v3.3c0 1.2.2 1.2 1 1.4 1.2 0 2.7.3 4 1 1 .7 1.8.3 2.3-.8.3-.8.4-2.3.6-3.2zM256.6 356c0-1 .4-1.8 1-2 1.3-.6 2.6-.7 4-.6 1.4 0 1.8.3 1.8 1v3.5c0 1 0 1-.8 1.3-1 .2-2.8.3-4 1-.8.7-1.7.2-1.8-1 0-.8 0-2.4-.2-3.3zM235.7 355.7c0-1 .5-1.6 1.3-2l4.2-1.2c1.6-.4 2.5.7 2.5 1.5v3.2c0 1.2-.3 1.3-1 1.5-1.2.2-2.8.4-4 1.2-1 .5-2 0-2.4-1-.3-.8-.4-2.3-.6-3.3zM253 355.7c.2-1-.3-1.7-1-2-1.2-.5-2.5-.6-3.8-.6-1.5 0-2 .5-2 1.2v3.4c.2 1.2 0 1.3.8 1.5 1 .3 3 .3 4 1s1.8.3 2-1v-3.3zM185.5 238.5c-2-3.2-4.4 4.5-12.7 10.2-4 2.7-6.6 9.6-6.6 14.2 0 3 .4 6.2 0 9.3-.2 2-2.2 6.2-.8 7.3 3.6 2.7 8.3 8.8 10.5 11 1.8 1.6 3.4-8.6 4.8-13.2 1.6-5 1-10.7 5-15.2 3-3 10.6-6 9.8-7.4l-10-16.3z" fill-rule="evenodd" stroke="#000" stroke-width=".97315" fill="#fff"/><path d="M185.5 238.5c-2-3.2-4.4 4.5-12.7 10.2-4 2.7-6.6 9.6-6.6 14.2 0 3 .4 6.2 0 9.3-.2 2-2.2 6.2-.8 7.3 3.6 2.7 8.3 8.8 10.5 11 1.8 1.6 3.4-8.6 4.8-13.2 1.6-5 1-10.7 5-15.2 3-3 10.6-6 9.8-7.4l-10-16.3z" fill-rule="evenodd" fill="#fff"/><path d="M173.2 248c-.7 5.5 2.3 7.4 5.2 8.4 3 1 5.4 4.3 6.6 7.2M166 266c1 4.8 4.4 4.2 7.3 5.3 3 1 6 4.8 7.4 7.7" stroke="#000" stroke-width=".5838899999999999" fill="none"/><path d="M182.7 235.2l1.5-1 29 48.7-1.6 1-29-48.8z" fill-rule="evenodd" stroke="#000" stroke-width=".97315" fill="#fff"/><path d="M182.7 235.2l1.5-1 29 48.7-1.6 1-29-48.8z" fill-rule="evenodd" fill="#fff"/><path d="M185.8 233.3c0 1.8-1.5 3.3-3.3 3.3-2 0-3.4-1.5-3.4-3.3s1.6-3.4 3.5-3.4c1.8 0 3.3 1.4 3.3 3.3z" fill-rule="evenodd" stroke="#000" stroke-width=".97315" fill="#fff"/><path d="M185.8 233.3c0 1.8-1.5 3.3-3.3 3.3-2 0-3.4-1.5-3.4-3.3s1.6-3.4 3.5-3.4c1.8 0 3.3 1.4 3.3 3.3z" fill-rule="evenodd" fill="#fff"/><path d="M274.8 144.8c-1-1.7-2.3 2.3-6.5 5.2-2 1.4-3.4 5-3.4 7.3-.2 1.6 0 3.3 0 4.8-.2 1-1.2 3.3-.5 4 1.8 1.3 4.3 4.4 5.4 5.5.8 1 1.7-4.4 2.4-6.7.8-2.5.4-5.6 2.6-8 1.5-1.4 5.4-3 5-3.7l-5.2-8.2z" fill-rule="evenodd" transform="matrix(-1.945 0 0 2.014 859.49 -52.133)" stroke="#000" stroke-width=".5" fill="#fff"/><path d="M325 239.5c2-3.3 4.4 4.6 12.6 10.6 4 2.8 6.6 10 6.6 14.8 0 3.2-.4 6.5 0 9.6.2 2 2.2 6.5.8 7.6-3.6 2.8-8.3 9.2-10.5 11.4-2 1.7-3.5-9-5-13.6-1.5-5-.8-11-5-15.8-3-3.2-10.5-6.3-9.7-7.7l10-16.8z" fill-rule="evenodd" fill="#fff"/><path d="M273.4 143l.7-.4 15 25-.8.5-14.8-25z" fill-rule="evenodd" transform="matrix(-1.945 0 0 2.014 859.49 -52.133)" stroke="#000" stroke-width=".5" fill="#fff"/><path d="M268.4 149.8c-.4 2.8 1.3 3.6 2.7 4.2 1.7.5 3 2 3.6 3.5" transform="matrix(-1.945 0 0 2.014 859.49 -52.133)" stroke="#000" stroke-width=".3" fill="none"/><path d="M267.4 151.3c.6 2.4 2.2 2 3.7 2.5 1.6.6 3.2 2.3 4 3.8" transform="matrix(-1.945 0 0 2.014 864.433 -36.44)" stroke="#000" stroke-width=".3" fill="none"/><path d="M327.7 236l-1.5-1-29 50.5 1.6 1 29-50.4z" fill-rule="evenodd" fill="#fff"/><path d="M275 142c0 1-.8 1.8-1.8 1.8s-1.7-.8-1.7-1.7.8-1.6 1.7-1.6c1 0 1.8.7 1.8 1.7z" fill-rule="evenodd" transform="matrix(-1.945 0 0 2.014 859.49 -52.133)" stroke="#000" stroke-width=".5" fill="#fff"/><path d="M324.6 234c0 2 1.5 3.5 3.3 3.5 1.8 0 3.3-1.5 3.3-3.4s-1.5-3.4-3.4-3.4c-2 0-3.4 1.6-3.4 3.5z" fill-rule="evenodd" fill="#fff"/><g fill-rule="evenodd" fill="#fff"><path stroke="#000" stroke-width=".97315" d="M210.5 194h11.7v2.8h-11.7zM210.5 199.2h11.7v22.4h-11.7zM209.8 191h13c.5-4.3-4-9-6.4-9-2.6 0-6.7 4.8-6.6 9zM287.6 194h11.7v2.8h-11.7zM287.6 199.4h11.7v22.4h-11.7zM286.8 191l13 .2c.5-4.4-4-9.2-6.5-9-2.5 0-6.6 4.7-6.5 9z"/><path d="M210.5 194h11.7v2.8h-11.7zM210.5 199.2h11.7v22.4h-11.7zM209.8 191h13c.5-4.3-4-9-6.4-9-2.6 0-6.7 4.8-6.6 9zM287.6 194h11.7v2.8h-11.7zM287.6 199.4h11.7v22.4h-11.7zM286.8 191l13 .2c.5-4.4-4-9.2-6.5-9-2.5 0-6.6 4.7-6.5 9z"/></g><path fill-rule="evenodd" fill="#fff" d="M287.6 199.2h11.7v22.4h-11.7zM287.6 194h11.7v2.8h-11.7zM286.8 191l13 .2c.5-4.4-4-9.2-6.5-9-2.5 0-6.6 4.7-6.5 9zM210.5 199.2h11.7v22.4h-11.7zM210.5 194h11.7v2.8h-11.7zM209.8 191h13c.5-4.3-4-9-6.4-9-2.6 0-6.7 4.8-6.6 9z"/><g fill-rule="evenodd" fill="#fff"><path d="M200.8 225.5l7.4 8.2H301l7.6-8-23.7-.4-11.7-8-37.3-.2-10.8 8.5h-24.4z" stroke="#000" stroke-width=".97315"/><path d="M200.8 225.5l7.4 8.2H301l7.6-8-23.7-.4-11.7-8-37.3-.2-10.8 8.5h-24.4z"/></g><path d="M238.7 212.8h32c4.4-2.3 5.8-9.6 5.7-13.7 0-12-8.5-17.8-17-18.2-1.3 0-2.7-1-3-2.2-1-2.6-.7-9.4-1.6-9.3-.8 0-.6 6.7-1.3 9-.4 1.3-1.8 2.6-3.2 2.6-10.5.5-17.4 8.2-17 18 0 6.6.8 10.5 5.4 13.8z" stroke="#000" stroke-width=".97315" fill="none"/><path d="M238.7 212.8h32c4.4-2.3 5.8-9.6 5.7-13.7 0-12-8.5-17.8-17-18.2-1.3 0-2.7-1-3-2.2-1-2.6-.7-9.3-1.6-9.3-.7 0-.6 6.7-1.3 9-.4 1.3-1.8 2.6-3.2 2.6-10.5.5-17.4 8.2-17 18 0 6.6.8 10.5 5.4 13.8z" fill-rule="evenodd" fill="#fff"/><path d="M236.7 202c.8 4 2.8 3.5 2.6 1.6-.5-6.2 0-12.2 5.5-16.3 1.7-1.2-.2-2.4-1.7-1.8-4.5 2-7.3 11-6.3 16.6z" stroke="#000" stroke-width=".5838899999999999" fill="none"/><path d="M242 204.7c1 4 4.2 3.8 3.6 1.2-1.2-5-1-12.4 3.4-15.5 1.7-1.2-.2-2.4-1.7-1.8-4.6 2-6.2 10.2-5.2 16z" stroke="#000" stroke-width=".5838899999999999" fill="none"/><path d="M301.5 125.4c.4 2 1.4 1.8 1.3.8-.3-3.2 0-6.3 2.8-8.4 1-.6 0-1.2-1-1-2.2 1-3.7 5.7-3 8.6z" transform="matrix(-1.948 0 0 1.946 860.365 -41.81)" stroke="#000" stroke-width=".3" fill="none"/><path d="M302 125c.5 2 2.2 2 2 .7-.8-2.6-.7-6.3 1.6-8 1-.5 0-1-1-.8-2.2 1-3 5-2.5 8z" transform="matrix(-1.948 0 0 1.946 856.18 -38.618)" stroke="#000" stroke-width=".3" fill="none"/><g fill-rule="evenodd" fill="#fff"><path d="M186 330.2h137.6l-12.3-10h-113l-12.3 10z" stroke="#000" stroke-width=".97315"/><path d="M186 330.2h137.6l-12.3-10h-113l-12.3 10z"/></g><g fill="#fff" fill-rule="evenodd"><g stroke="#000" stroke-width=".5"><path d="M210 240h13v18h-13zM210.7 268.3h12.7v4h-12.7zM210.3 275h13v14.3h-13zM209.4 292h14.2v8h-14.2zM211.2 265h11.4l2.2-3.8H209l2.2 3.8zM226.6 251v-9.8h8c-3.2 2.6-6 5.6-8 10zM299.5 240h-13v18h13zM299.3 268.3h-12.5v4h12.5zM299.5 275h-12.7v14.3h12.7zM300.3 292h-14v8h14z" stroke-width=".97315"/><path d="M288.4 157.7h6l1-2h-8l1 2z" transform="matrix(-1.913 0 0 1.946 850.108 -41.963)"/><path d="M296.2 150.6v-5h4c-1.5 1.2-3 2.8-4 5z" transform="matrix(-1.913 0 0 1.946 849.894 -41.963)"/></g><path d="M210 240h13v18h-13zM210.7 268.3h12.7v4h-12.7zM210.3 275h13v14.3h-13zM209.4 292h14.2v8h-14.2zM211.2 265h11.4l2.2-3.8H209l2.2 3.8zM226.6 251v-9.8h8c-3.2 2.6-6 5.6-8 10zM299.5 240h-13v18h13zM299.3 268.3h-12.5v4h12.5zM299.5 275h-12.7v14.3h12.7zM300.3 292h-14v8h14zM298.2 265H287l-2.2-3.8h15.4l-2 3.8zM283 251v-9.8h-7.7c3 2.6 5.8 5.6 7.8 10z"/></g><path d="M212 255.2c0 2 2.4 1 2.4 0v-9c0-1.7 4-1.3 4-.3v9.7c0 1.6 2.6 1.4 2.6 0v-11.5c0-3.4-9-3.3-9 0v11zM289 255.5c0 2.2 2.3 1.2 2.3 0v-9c0-1.7 4-1.2 4-.2v9.8c0 1.6 2.6 1.5 2.6 0-.2-3.6 0-8.8 0-11.4 0-3.4-9-3.4-9 0v11zM212 276.6h9.3V288H212z" stroke="#000" stroke-width=".5838899999999999" fill="none"/><path fill-rule="evenodd" d="M218 281.5h3.3v2H218zM212 281.5h3.2v2h-3zM215.4 276.8h2.6v4.7h-2.6zM215.4 283.3h2.6v5h-2.6z"/><path stroke="#000" stroke-width=".5838899999999999" fill="none" d="M288.6 276.6h9.3V288h-9.4z"/><path fill-rule="evenodd" d="M294.6 281.4h3.3v2h-3.4zM288.8 281.4h3v2h-3z"/><path fill-rule="evenodd" d="M292 276.8h2.6v4.6H292zM292 283.2h2.6v5H292z"/><path fill-rule="evenodd" stroke="#000" stroke-width=".97315" fill="#fff" d="M280.2 277.4h1.6V289h-1.6z"/><path d="M249 292.5l2.6 7.6h5.7l-4.5-7.5H249zm-3 7.6l1.4 7.5h6.7l-2.4-7.4H246zm11.3 0l4.6 7.5h9.4L264 300h-6.7zm-56 17c5-4.7 8-8.7 8-14.4H222c0 3.2 1 5 3 5H237V300h-9v-40c-.5-14.3 17.2-22.6 24.4-22.5h-43V236H300v1.4h-43.4c13 0 25.3 12.3 25.4 22.6v11.4H280v-11.2c0-11.3-14-21.8-25.5-21.5-9.8.3-25 9.7-25 21.4v3.6H253l-.3 4.2 3.7 2.3 7.3 2.4v6l5 1.6.2 6 6 2.7v6.3l4 2.5v6.3l5.3 3.8h-12.7l8 9h-11.8l-6-9h-7.7l3.6 8.8h-8.2l-2-8.8h-10v9.4H201zm36-24.4v7.5h8.6l-1.8-7.4h-7z" fill-rule="evenodd" stroke="#000" stroke-width=".97315" fill="#fff"/><path d="M249 292.5l2.6 7.6h5.7l-4.5-7.5H249zm-3 7.6l1.4 7.5h6.7l-2.4-7.4H246zm11.3 0l4.6 7.5h9.4L264 300h-6.7zm-56 17c5-4.7 8-8.7 8-14.4H222c0 3.2 1 5 3 5H237V300h-9v-40c-.5-14.3 17.2-22.6 24.4-22.5h-43V236H300v1.4h-43.4c13 0 25.3 12.3 25.4 22.6v11.4H280v-11.2c0-11.3-14-21.8-25.5-21.5-9.8.3-25 9.7-25 21.4v3.6H253l-.3 4.2 3.7 2.3 7.3 2.4v6l5 1.6.2 6 6 2.7v6.3l4 2.5v6.3l5.3 3.8h-12.7l8 9h-11.8l-6-9h-7.7l3.6 8.8h-8.2l-2-8.8h-10v9.4H201zm36-24.4v7.5h8.6l-1.8-7.4h-7z" fill-rule="evenodd" fill="#fff"/><path stroke="#000" stroke-width=".38926" fill="none" d="M237.8 279.6h5.4V292h-5.4z"/><path d="M298 171.7h2.8V167c0-2 1.7-4 2.6-4 1 0 2.4 2 2.5 4v4.7h2.8V160H298v11.7z" transform="matrix(1.946 0 0 1.985 -350 -48.13)" stroke="#000" stroke-width=".3" fill="none"/><path stroke="#000" stroke-width=".38926" fill="none" d="M271.8 298.3h6.7v5h-6.7zM268 289.5h6.6v5H268zM261.5 280.7h6.6v5h-6.5zM256.3 273.3h6.6v5h-6.7z"/><path d="M252 292.8l6.6.2 12 10.6v-6.3l-4-3v-4.8l-6-3.4V281l-5.7-2v-7l-3-2.5v23.5z" stroke="#000" stroke-width=".5838899999999999" fill="none"/><path fill-rule="evenodd" fill="#fff" d="M280.2 277.4h1.6V289h-1.6z"/><g stroke-linejoin="round" fill-rule="evenodd" stroke="#000" stroke-width=".5" fill="#fff"><path d="M163.8 161c.5 9-2.3 14-7 13.3-1.4-5 1.6-8.4 7-13.3zM153.2 181c-4.3-2-1.2-18.6.4-25.6 1.3 9 3.3 21.7-.4 25.7z" stroke-width=".97315"/><path d="M154.7 182c7.2 2.4 13-5.3 14.8-14.3-6 8.2-15.6 8.2-14.8 14.2zM149.3 190.3c-5.6-1.5-2.3-19-1.2-26 1.3 7 5.2 23.6 1.3 26z" stroke-width=".97315"/><path d="M151.2 189.8c.3-6 6.4-4.4 10.5-7.6-.7 3-3.2 8.4-10.5 7.6zM144.3 198c-5.5-1.6-2.2-20.6-2.5-28.4 1.6 6.8 6.8 26.5 2.5 28.3zM147 197c4.5 1.5 10.5-1.4 11-7-4 2.8-10.2.8-11 7z" stroke-width=".97315"/><path d="M140.2 206.2c-5.4.5-3-15.7-3-30.7 2 14 7.3 27 3 30.7z" stroke-width=".97315"/><path d="M142 205.5c3.6 1.8 10-1 12-7-6.6 2.7-11 0-12 7z" stroke-width=".97315"/></g><g fill-rule="evenodd" fill="#fff"><path d="M163.8 161c.5 9-2.3 14-7 13.3-1.4-5 1.6-8.4 7-13.3zM153.2 181c-4.3-2-1.2-18.6.4-25.6 1.3 9 3.3 21.7-.4 25.7z"/><path d="M154.7 182c7.2 2.4 13-5.3 14.8-14.3-6 8.2-15.6 8.2-14.8 14.2zM149.3 190.3c-5.6-1.5-2.3-19-1.2-26 1.3 7 5.2 23.6 1.3 26z"/><path d="M151.2 189.8c.3-6 6.4-4.4 10.5-7.6-.7 3-3.2 8.4-10.5 7.6zM144.3 198c-5.5-1.6-2.2-20.6-2.5-28.4 1.6 6.8 6.8 26.5 2.5 28.3zM147 197c4.5 1.5 10.5-1.4 11-7-4 2.8-10.2.8-11 7z"/><path d="M140.2 206.2c-5.4.5-3-15.7-3-30.7 2 14 7.3 27 3 30.7z"/><path d="M142 205.5c3.6 1.8 10-1 12-7-6.6 2.7-11 0-12 7z"/></g><g stroke-linejoin="round" fill-rule="evenodd" stroke="#000" stroke-width=".5" fill="#fff"><path d="M183.8 169.4c-1 8-4.2 12.5-9 11.7-1.3-5 2.6-8 9-11.6zM171 189.6c8 1.2 11-5 16.3-12.8-7.5 5.5-16.5 6.6-16.2 12.8z" stroke-width=".97315"/><path d="M168.8 188.7c-4.3-5.2 0-11.7 3.2-17.3-.7 8.3 2 13-3.2 17.3zM167 197.4c-.6-5.2 8-6.3 12-9-1.3 2.8-3.3 10.8-12 9z" stroke-width=".97315"/><path d="M165 197.5c-6-.7-3.5-11 .8-16.6-1.8 7.7 3.2 13.2-.8 16.5z" stroke-width=".97315"/><path d="M160.5 206c-6.8-3-2.4-11.6 0-16.7-1 6.7 4.5 11.7 0 16.7z" stroke-width=".97315"/><path d="M162 205.2c3.5 4.7 10.5-1.4 12-8.5-6.2 5-10.7 4.2-12 8.5z" stroke-width=".97315"/></g><g fill-rule="evenodd" fill="#fff"><path d="M183.8 169.4c-1 8-4.2 12.5-9 11.7-1.3-5 2.6-8 9-11.6zM171 189.6c8 1.2 11-5 16.3-12.8-7.5 5.5-16.5 6.6-16.2 12.8z"/><path d="M168.8 188.7c-4.3-5.2 0-11.7 3.2-17.3-.7 8.3 2 13-3.2 17.3zM167 197.4c-.6-5.2 8-6.3 12-9-1.3 2.8-3.3 10.8-12 9z"/><path d="M165 197.5c-6-.7-3.5-11 .8-16.6-1.8 7.7 3.2 13.2-.8 16.5z"/><path d="M160.5 206c-6.8-3-2.4-11.6 0-16.7-1 6.7 4.5 11.7 0 16.7z"/><path d="M162 205.2c3.5 4.7 10.5-1.4 12-8.5-6.2 5-10.7 4.2-12 8.5z"/></g><g stroke-linejoin="round" fill-rule="evenodd" stroke="#000" stroke-width=".5" fill="#fff"><path d="M326.7 170.2c1 4 1 12.2 8.3 10.6 1-7.5-5-8-8.3-10.6z" stroke-width=".97315"/><path d="M339 189.5c-.3-7.7-8.6-6-15.8-12.3 2 6.7 9 14.8 15.8 12.3z" stroke-width=".97315"/><path d="M340.7 188.6c5-3.4 1.2-10.7-3.4-17 1.7 7-2 13.3 3.4 17zM343 197.4c-8 .6-9.4-3.4-12.5-8.4 5.4 3.4 12.6 1.2 12.4 8.4z" stroke-width=".97315"/><path d="M344.8 197.6c-3.7-3 1-9.7-.7-16.2 3 4 7.6 14 .8 16.2zM348 205.7c-7.8 2-10.3-2.3-12.3-9.3 6.4 6 10 3 12.4 9.3z" stroke-width=".97315"/><path d="M349.2 205.6c5.5 0 3-11 .3-15.8.7 6-4 12.8-.3 15.8z" stroke-width=".97315"/></g><g fill-rule="evenodd" fill="#fff"><path d="M326.7 170.2c1 4 1 12.2 8.3 10.6 1-7.5-5-8-8.3-10.6z"/><path d="M339 189.5c-.3-7.7-8.6-6-15.8-12.3 2 6.7 9 14.8 15.8 12.3z"/><path d="M340.7 188.6c5-3.4 1.2-10.7-3.4-17 1.7 7-2 13.3 3.4 17zM343 197.4c-8 .6-9.4-3.4-12.5-8.4 5.4 3.4 12.6 1.2 12.4 8.4z"/><path d="M344.8 197.6c-3.7-3 1-9.7-.7-16.2 3 4 7.6 14 .8 16.2zM348 205.7c-7.8 2-10.3-2.3-12.3-9.3 6.4 6 10 3 12.4 9.3z"/><path d="M349.2 205.6c5.5 0 3-11 .3-15.8.7 6-4 12.8-.3 15.8z"/></g><g stroke-linejoin="round" fill-rule="evenodd" stroke="#000" stroke-width=".5" fill="#fff"><path d="M346 161c1 4.6-1 13.6 6.2 13.5 3-5-3.4-10-6.3-13.4z" stroke-width=".97315"/><path d="M356.8 181.4c4.6-3.2.4-13.5-1-25-1 10.3-3.6 21.6 1 25z" stroke-width=".97315"/><path d="M354.3 182.2c.6-5.7-8.3-7-14.5-14.5 1.6 6 6.2 14.8 14.5 14.5zM360.4 191c-4.8-4.4 1-17 1.2-26.6.7 9 4.6 25-1.2 26.6zM357.7 189.7c-7 .5-9-4.7-9.7-7.6 3.8 2.8 9.7 1.5 9.7 7.7zM364.8 197.5c5.4-.2 3.4-20.8 2.6-27.2-.5 7-6.2 24.7-2.6 27.2zM362.4 197c-4.7.8-9.4-2-10.7-6.5 4 1.7 10.7.3 10.7 6.6z" stroke-width=".97315"/><path d="M369 206c6 2.4 3.8-24.4 3-30.5-.5 7.8-7.3 27.2-3 30.5z" stroke-width=".97315"/><path d="M367.7 206c-5.8 1-10-2.7-11.7-7.5 6 2.2 10.5 1.4 11.7 7.5z" stroke-width=".97315"/></g><g fill-rule="evenodd" fill="#fff"><path d="M363.6 237.7c.7-7-4.7-19.7-1-26.4.6-1-1-3.4-2-2-1.8 2.5-3.5 9.3-4.2 6.8-.8-2.7-1-7.5-3.3-8.5-1.5-.5-3.7-1-3 1.6.5 2.4 1.8 5.6.3 5.8-.8.2-3.3-3-5.5-4.7-1.6-1.2-4.2 1-1.7 3 8.2 6.5 16 9.5 20.6 24.7z" stroke="#000" stroke-width=".97315"/><path d="M363.6 237.7c.7-7-4.7-19.7-1-26.4.6-1-1-3.4-2-2-1.8 2.5-3.5 9.3-4.2 6.8-.8-2.7-1-7.5-3.3-8.5-1.5-.5-3.7-1-3 1.6.5 2.4 1.8 5.6.3 5.8-.8.2-3.3-3-5.5-4.7-1.6-1.2-4.2 1-1.7 3 8.2 6.5 16 9.5 20.6 24.7z"/></g><g fill-rule="evenodd" fill="#fff"><path d="M346 161c1 4.6-1 13.6 6.2 13.5 3-5-3.4-10-6.3-13.4z"/><path d="M356.8 181.4c4.6-3.2.4-13.5-1-25-1 10.3-3.6 21.6 1 25z"/><path d="M354.3 182.2c.6-5.7-8.3-7-14.5-14.5 1.6 6 6.2 14.8 14.5 14.5zM360.4 191c-4.8-4.4 1-17 1.2-26.6.7 9 4.6 25-1.2 26.6zM357.7 189.7c-7 .5-9-4.7-9.7-7.6 3.8 2.8 9.7 1.5 9.7 7.7zM364.8 197.5c5.4-.2 3.4-20.8 2.6-27.2-.5 7-6.2 24.7-2.6 27.2zM362.4 197c-4.7.8-9.4-2-10.7-6.5 4 1.7 10.7.3 10.7 6.6z"/><path d="M369 206c6 2.4 3.8-24.4 3-30.5-.5 7.8-7.3 27.2-3 30.5z"/><path d="M367.7 206c-5.8 1-10-2.7-11.7-7.5 6 2.2 10.5 1.4 11.7 7.5z"/></g><g fill-rule="evenodd" fill="#fff"><path d="M244.4 141c-1-1-.7-1.4.8-1.4 1.2 0 3.5.7 4.4 0 .8-.5.5-3 1-4.2 0-.7.5-1.7 1.5 0 3 4.8 7 10.6 8.6 16.3.8 3.2.4 8.4-3 11l-2.4-7c-1.2-3.3-7.4-11.3-10.8-14.6z" transform="matrix(-1.937 0 0 1.946 857.173 -41.533)" stroke="#000" stroke-width=".5"/><path d="M383.8 233c2-2 1.4-2.8-1.5-2.8-2.3-.2-7 1.4-8.6 0-1.6-1-1-6-1.7-8.2-.3-1.3-1.2-3.3-3.2-.2-6 9.5-13.2 20.8-16.3 32-1.7 6.2-1 16.2 5.7 21.5l4.7-13.6c2-6.6 14.2-22.2 20.8-28.6z"/></g><g stroke-linejoin="round" fill-rule="evenodd" stroke="#000" stroke-width=".5" fill="#fff"><path d="M390.4 216c-2.7 8.6-4.3 15.5-.4 16.4 4-.7 2.3-9 .4-16.3zM390 240c4.5 2.3 9.2-8.8 8.2-17.6-2.2 7.5-9.6 12-8 17.5zM388.5 239.7c.7-6-1.8-6-5-11.7.3 6.6 2 12 5 11.7z" stroke-width=".97315"/><path d="M390 248.6c5 1.4 10.8-10.7 10.6-19.6-2 10-13 13.8-10.7 19.6z" stroke-width=".97315"/><path d="M388.3 248.4c2-4.7-2-4.2-5-12.6-.8 8.7.5 12.7 5 12.6zM389.7 257.5c6.6 1 10-13.4 13.3-20.4-6.5 9.2-14.2 14.3-13.3 20.5z" stroke-width=".97315"/><path d="M388.2 257c2-5.4-3.5-5-6.4-13 .5 10 1.8 13.7 6.4 13zM390 266.2c4.3.3 11.8-11.3 12-18.5-3.6 8-14.8 13.2-12 18.5z" stroke-width=".97315"/><path d="M387 265c1.7-5.7-3-5.7-5.2-12-.2 9.4 1.3 12.7 5.2 12zM387.2 275c7.3 1.3 9.2-8.4 13.5-18.3-4.2 8-14 12.3-13.5 18.3z" stroke-width=".97315"/><path d="M386.6 273.6c2.4-5-3-5-6-12.6-.2 10.7 1.7 13.8 6 12.6z" stroke-width=".97315"/></g><g fill-rule="evenodd" fill="#fff"><path d="M390.4 216c-2.7 8.6-4.3 15.5-.4 16.4 4-.7 2.3-9 .4-16.3zM390 240c4.5 2.3 9.2-8.8 8.2-17.6-2.2 7.5-9.6 12-8 17.5zM388.5 239.7c.7-6-1.8-6-5-11.7.3 6.6 2 12 5 11.7z"/><path d="M390 248.6c5 1.4 10.8-10.7 10.6-19.6-2 10-13 13.8-10.7 19.6z"/><path d="M388.3 248.4c2-4.7-2-4.2-5-12.6-.8 8.7.5 12.7 5 12.6zM389.7 257.5c6.6 1 10-13.4 13.3-20.4-6.5 9.2-14.2 14.3-13.3 20.5z"/><path d="M388.2 257c2-5.4-3.5-5-6.4-13 .5 10 1.8 13.7 6.4 13zM390 266.2c4.3.3 11.8-11.3 12-18.5-3.6 8-14.8 13.2-12 18.5z"/><path d="M387 265c1.7-5.7-3-5.7-5.2-12-.2 9.4 1.3 12.7 5.2 12zM387.2 275c7.3 1.3 9.2-8.4 13.5-18.3-4.2 8-14 12.3-13.5 18.3z"/><path d="M386.6 273.6c2.4-5-3-5-6-12.6-.2 10.7 1.7 13.8 6 12.6z"/></g><g fill-rule="evenodd" fill="#fff"><path d="M256.8 167c3.3 0 4-4.8 4-6-1.6.2-4.6 3.2-4 6z" transform="matrix(-1.937 0 0 1.946 857.387 -41.81)" stroke="#000" stroke-width=".5"/><path d="M360 283c-6.5 0-7.8-9.2-7.8-11.6 3.2.6 9 6.4 7.7 11.6z"/></g><g stroke-linejoin="round" fill-rule="evenodd" stroke="#000" stroke-width=".5" fill="#fff"><path d="M372.8 241.4c-2.6 8.5-3.7 12.6 0 15.3 4.6-2.6 2-8 0-15.3zM371.4 263.6c2-6.3-3-7.8-5.5-14.8-.4 9.3 1 16 5.4 14.8z" stroke-width=".97315"/><path d="M373.3 265c3.4 1.3 7.7-6.7 5.3-14.7-2.4 7.2-8.3 9-5.3 14.7zM369.7 272c3.3-5-2-5.3-4.7-12.5 0 9.5.7 13.4 4.7 12.6z" stroke-width=".97315"/><path d="M369.7 281c2.5-5.8-3-5-6.3-12.3 0 10.7 1.6 13 6.3 12.3zM372.2 272.5c2.8 0 8.4-5 6.8-11.3-2.5 5.3-9.3 4.8-6.8 11.3zM371.4 280c4.7 1 8.2-6 7.7-11-3.6 4.5-8.6 5-7.6 11z" stroke-width=".97315"/></g><g fill-rule="evenodd" fill="#fff"><path d="M372.8 241.4c-2.6 8.5-3.7 12.6 0 15.3 4.6-2.6 2-8 0-15.3zM371.4 263.6c2-6.3-3-7.8-5.5-14.8-.4 9.3 1 16 5.4 14.8z"/><path d="M373.3 265c3.4 1.3 7.7-6.7 5.3-14.7-2.4 7.2-8.3 9-5.3 14.7zM369.7 272c3.3-5-2-5.3-4.7-12.5 0 9.5.7 13.4 4.7 12.6z"/><path d="M369.7 281c2.5-5.8-3-5-6.3-12.3 0 10.7 1.6 13 6.3 12.3zM372.2 272.5c2.8 0 8.4-5 6.8-11.3-2.5 5.3-9.3 4.8-6.8 11.3zM371.4 280c4.7 1 8.2-6 7.7-11-3.6 4.5-8.6 5-7.6 11z"/></g><g fill-rule="evenodd" fill="#fff"><path d="M235.6 159c-.3-.3-1 0-1 1 .3 1.3 2 7.7 5.3 10 2.2 1.6 14 4.2 19.5 5.3 3 .6 5.5 2 7.5 4.5-.8-3-1.5-5.4-2.5-8.2-1-2.5-3.7-5.2-6.5-5.4-5.2 0-12-.6-16.7-2.7-2.6-1-4-2.5-5.7-4.4z" transform="matrix(-1.937 0 0 1.946 857.173 -41.533)" stroke="#000" stroke-width=".5"/><path d="M400.8 268c.5-.7 2.2 0 1.8 2-.4 2.3-4 15-10.2 19.2-4.4 3.2-27.5 8.3-38 10.5-5.7 1-10.5 4-14.3 8.6 1.6-6 3-10.5 5-16 2-4.7 7-10 12.5-10.3 10-.3 23-1.2 32.4-5.3 4.7-2 7.6-4.8 10.8-8.7z"/></g><g stroke-linejoin="round" fill-rule="evenodd" stroke="#000" stroke-width=".5" fill="#fff"><path d="M386.6 297.7c1-4.3-.3-5.6 1-12.3-6.5 8.6-4 12.6-1 12.3z" stroke-width=".97315"/><path d="M387.3 298.7c4.2 1.2 15-8.4 15.4-15.5-3 5-17.7 10.6-15.4 15.5zM380.4 305c3-1.6 2-8.2-.5-10.4-.6 6.4-4.6 10.3.4 10.4z" stroke-width=".97315"/><path d="M383.4 306.8c5 1.6 10.8-7.6 15-11.6-4.8 4-19.2 6-15 11.6zM376.4 311.4c3.6-2.3.2-7 0-16-3.6 6.6-4.3 15.5 0 16z" stroke-width=".97315"/><path d="M377 313.7c2 2.5 15.3-6 18.7-12-11.5 8.4-21.6 7.3-18.6 12zM375.7 321.3c3.3-2.4-2.8-8.7-4-17.2 0 10.4-1.4 18.3 4 17.3z" stroke-width=".97315"/><path d="M379.3 318.5c1.7 2.6 12-4.4 16.3-12-6.8 6-18.2 7.5-16.3 12zM369 330c3.6-.6 3-10 .2-17.7-3.2 9.3-4.6 18.6-.3 17.7z" stroke-width=".97315"/><path d="M378.2 325c1.2 1.4 16.3-9 16-13.4-4.7 6.8-20.6 8.2-16 13.3zM360.6 338.8c5.2-2 2.7-10.4 3.8-19.3-4 8.7-8.8 17.5-3.8 19.3z" stroke-width=".97315"/><path d="M370.2 331.6c.8 2.8 13-2.4 19-11-7 5.6-21 6.4-19 11z" stroke-width=".97315"/><path d="M362.3 340c2.6 4.5 18-3.5 20-11-4.8 6.4-22 5.5-20 11z" stroke-width=".97315"/><path d="M369.3 343.6c2.8.3 9.3-5 11-8-5 2.7-12.2 6.3-11 8z" stroke-width=".97315"/></g><g stroke-linejoin="round" fill-rule="evenodd" stroke="#000" stroke-width=".5" fill="#fff"><path d="M346.3 310.8c3.3.5 7.7-5.7 4.8-11.8-1.4 6-11 10.6-4.7 11.8z" stroke-width=".97315"/><path d="M353.4 307c2.6 1.6 9-5.4 8.3-10-3.6 6-11 7.6-8.3 10z" stroke-width=".97315"/><path d="M345.8 317.3c2.5 2.4 14.8-10 18.5-15.7-10.7 9-21.5 11.3-18.5 15.7zM343 324.8c2 3 10-6 15.2-13.4-6.5 6.5-17.7 9.4-15.3 13.4z" stroke-width=".97315"/><path d="M343.7 317.7c2-5.3-1.3-6.2-2.8-12.7-3 3.6-2.7 13.7 2.7 12.7zM340.5 325c4-1-2.5-8-3.8-12.7-.6 8.8-.5 13.3 3.8 12.7zM336.6 331.3c3.7-1.3-2-4.6-2.7-12-2 2.7-3 13 2.6 12z" stroke-width=".97315"/><path d="M331 333c2.4-1.4 1.5-7.4-2-8.2-1 4.7-1 8.2 2 8z" stroke-width=".97315"/></g><g fill-rule="evenodd" fill="#fff"><path d="M346.3 310.8c3.3.5 7.7-5.7 4.8-11.8-1.4 6-11 10.6-4.7 11.8z"/><path d="M353.4 307c2.6 1.6 9-5.4 8.3-10-3.6 6-11 7.6-8.3 10z"/><path d="M345.8 317.3c2.5 2.4 14.8-10 18.5-15.7-10.7 9-21.5 11.3-18.5 15.7zM343 324.8c2 3 10-6 15.2-13.4-6.5 6.5-17.7 9.4-15.3 13.4z"/><path d="M343.7 317.7c2-5.3-1.3-6.2-2.8-12.7-3 3.6-2.7 13.7 2.7 12.7zM340.5 325c4-1-2.5-8-3.8-12.7-.6 8.8-.5 13.3 3.8 12.7zM336.6 331.3c3.7-1.3-2-4.6-2.7-12-2 2.7-3 13 2.6 12z"/><path d="M331 333c2.4-1.4 1.5-7.4-2-8.2-1 4.7-1 8.2 2 8z"/></g><g fill-rule="evenodd" fill="#fff"><path d="M386.6 297.7c1-4.3-.3-5.6 1-12.3-6.5 8.6-4 12.6-1 12.3z"/><path d="M387.3 298.7c4.2 1.2 15-8.4 15.4-15.5-3 5-17.7 10.6-15.4 15.5zM380.4 305c3-1.6 2-8.2-.5-10.4-.6 6.4-4.6 10.3.4 10.4z"/><path d="M383.4 306.8c5 1.6 10.8-7.6 15-11.6-4.8 4-19.2 6-15 11.6zM376.4 311.4c3.6-2.3.2-7 0-16-3.6 6.6-4.3 15.5 0 16z"/><path d="M377 313.7c2 2.5 15.3-6 18.7-12-11.5 8.4-21.6 7.3-18.6 12zM375.7 321.3c3.3-2.4-2.8-8.7-4-17.2 0 10.4-1.4 18.3 4 17.3z"/><path d="M379.3 318.5c1.7 2.6 12-4.4 16.3-12-6.8 6-18.2 7.5-16.3 12zM369 330c3.6-.6 3-10 .2-17.7-3.2 9.3-4.6 18.6-.3 17.7z"/><path d="M378.2 325c1.2 1.4 16.3-9 16-13.4-4.7 6.8-20.6 8.2-16 13.3zM360.6 338.8c5.2-2 2.7-10.4 3.8-19.3-4 8.7-8.8 17.5-3.8 19.3z"/><path d="M370.2 331.6c.8 2.8 13-2.4 19-11-7 5.6-21 6.4-19 11z"/><path d="M362.3 340c2.6 4.5 18-3.5 20-11-4.8 6.4-22 5.5-20 11z"/><path d="M369.3 343.6c2.8.3 9.3-5 11-8-5 2.7-12.2 6.3-11 8z"/></g><g fill-rule="evenodd" fill="#fff"><path d="M235.8 159.5c-.3-.3-.8-.7-.7.2 1.5 7.4 2 9.5 8.5 12 6.6 2.5 9 1.7 14.6 1.6 3 0 6.6 1.4 8.7 3.6 1 1 1.7 1.3 1.3 0-.4-1.3-.7-3-1.4-4.4-1.3-3-4.8-5.8-8.3-7-5-1.7-10-.8-15.2-2-2.5-1-5-2.3-7.2-4z" transform="matrix(-1.705 -.923 -.918 1.714 926.17 287.993)" stroke="#000" stroke-width=".5"/><path d="M377.5 343.7c1 0 2.2-.4 1 1-9.2 11.4-12 14.5-25.3 13-13.6-2-16.8-5.5-26.3-11-5.2-3-12.6-3.6-18.2-1.7-2.6 1-4.2 1-2.3-1 2-2 4-4.4 6.4-6.2 5-4 13.5-5.6 20.5-4.3 10 1.5 18 8 28 10.3 5 1 10.6 1 16 0z"/></g><g fill-rule="evenodd" fill="#fff"><path d="M287.7 208.4c.8 0 1.4 1.8 1.8.7.8-1.8.3-3.3-.6-3-1 0-2.7 2.3-1.3 2.4z" transform="matrix(-1.924 0 0 1.946 853.242 -41.856)" stroke="#000" stroke-width=".5"/><path d="M300 363.8c-1.8.2-3 3.5-3.7 1.3-1.4-3.6-.4-6.5 1.2-6.2 2 .6 5 4.8 2.4 5z"/></g><g stroke-linejoin="round" fill-rule="evenodd" stroke="#000" stroke-width=".5" fill="#fff"><path d="M318.5 349c4.8 1.2 6-4.4 6.6-8.4-4.3 1-8.8 3.5-6.5 8.3zM316.6 354c.8 3.7 10.3-.3 12-5.6-6.6 4-13.2-.4-12 5.5z" stroke-width=".97315"/><path d="M313.2 353.7c4.3.7 2-6 1.7-12.7-2.5 5.4-6 12-1.8 12.7z" stroke-width=".973145"/><path d="M307.8 360c4.7.6 1.7-8.4.4-14.5-1.5 5.6-5 14-.4 14.5z" stroke-width=".973155"/><path d="M310.6 360.2c.6 5.2 10.2-.6 16-3.7-7.6 1-16.8-1.3-16 3.7zM305.3 367.4c.5 5 10.2-.6 15.8-3.8-7.3 1.2-16.6-1.2-15.7 3.8z" stroke-width=".973155"/><path d="M302.8 367.2c4.4 0 1.2-9.6 0-15.7-1.6 5.7-4.6 15.5 0 15.7zM299 373.4c.5 5 9.4 0 14.8-3.5-7.5 1.6-15.7-1.6-15 3.4z" stroke-width=".973155"/></g><g fill-rule="evenodd" fill="#fff"><path d="M318.5 349c4.8 1.2 6-4.4 6.6-8.4-4.3 1-8.8 3.5-6.5 8.3zM316.6 354c.8 3.7 10.3-.3 12-5.6-6.6 4-13.2-.4-12 5.5z"/><path d="M313.2 353.7c4.3.7 2-6 1.7-12.7-2.5 5.4-6 12-1.8 12.7zM307.8 360c4.7.6 1.7-8.4.4-14.5-1.5 5.6-5 14-.4 14.5z"/><path d="M310.6 360.2c.6 5.2 10.2-.6 16-3.7-7.6 1-16.8-1.3-16 3.7zM305.3 367.4c.5 5 10.2-.6 15.8-3.8-7.3 1.2-16.6-1.2-15.7 3.8z"/><path d="M302.8 367.2c4.4 0 1.2-9.6 0-15.7-1.6 5.7-4.6 15.5 0 15.7zM299 373.4c.5 5 9.4 0 14.8-3.5-7.5 1.6-15.7-1.6-15 3.4z"/></g><g stroke-linejoin="round" fill-rule="evenodd" stroke="#000" stroke-width=".5" fill="#fff"><path d="M348.7 364.8c2.7 4.4 12.5-3.2 17.8-7-7.7 2.3-19.6 1.4-17.8 7z" stroke-width=".97315"/><path d="M338.7 369.4c1 5 17.5 1 19.8-3-7.5 3.4-20.7-1.4-19.8 3z" stroke-width=".97315"/><path d="M331 373.3c.5 2.7 13 1.7 19.5-.5-7 1-20.8-4-19.5.5z" stroke-width=".97315"/><path d="M324.4 376.6c0 2.5 14.7 4 19.6-.2-9.8 1.5-20.6-6-19.6.2z" stroke-width=".97315"/><path d="M312.8 379c-.6 3.5 15.4 2.7 20.4 1-8.6-.7-19.6-6.3-20.4-1z" stroke-width=".97315"/><path d="M312.6 375.7c3.6 3.3 12.8-11.4 15.8-18-7 7.5-20 15-15.8 18z" stroke-width=".97315"/><path d="M323 373.2c4.3 3 8.3-7.5 10.4-15.2-4 6.6-14.5 11-10.4 15.2z" stroke-width=".97315"/><path d="M331.3 370.4c4.3 2.8 6.7-6.6 7.8-12.5-3 5-11.8 8-7.7 12.4z" stroke-width=".97315"/><path d="M339.4 365.4c4.2 2.8 9.6-5 8.4-13-1.7 8.2-12.6 8.6-8.4 13zM323 387.5c2.2 5.4 24.4-4.7 28-11.4-7 6.2-30 5.3-28 11.5z" stroke-width=".97315"/></g><g fill-rule="evenodd" fill="#fff"><path d="M348.7 364.8c2.7 4.4 12.5-3.2 17.8-7-7.7 2.3-19.6 1.4-17.8 7z"/><path d="M338.7 369.4c1 5 17.5 1 19.8-3-7.5 3.4-20.7-1.4-19.8 3z"/><path d="M331 373.3c.5 2.7 13 1.7 19.5-.5-7 1-20.8-4-19.5.5z"/><path d="M324.4 376.6c0 2.5 14.7 4 19.6-.2-9.8 1.5-20.6-6-19.6.2z"/><path d="M312.8 379c-.6 3.5 15.4 2.7 20.4 1-8.6-.7-19.6-6.3-20.4-1z"/><path d="M312.6 375.7c3.6 3.3 12.8-11.4 15.8-18-7 7.5-20 15-15.8 18z"/><path d="M323 373.2c4.3 3 8.3-7.5 10.4-15.2-4 6.6-14.5 11-10.4 15.2z"/><path d="M331.3 370.4c4.3 2.8 6.7-6.6 7.8-12.5-3 5-11.8 8-7.7 12.4z"/><path d="M339.4 365.4c4.2 2.8 9.6-5 8.4-13-1.7 8.2-12.6 8.6-8.4 13zM323 387.5c2.2 5.4 24.4-4.7 28-11.4-7 6.2-30 5.3-28 11.5z"/></g><g fill-rule="evenodd" fill="#fff"><path d="M366.6 143.7c.4-3.6-2.4-10-.4-13.6.3-.4-.6-1.6-1-1-1 1.4-2 5-2.3 3.6-.4-1.4-.5-4-1.8-4.4-.8-.3-2-.5-1.6.8.3 1.2 1 2.8.2 3-.4 0-1.7-1.7-2.8-2.5-1-.7-2.2.4-1 1.5 4.3 3.3 8.3 5 10.6 12.7z" transform="matrix(-1.91 0 0 1.946 846.858 -41.507)" stroke="#000" stroke-width=".5"/><path d="M146.2 238.2c-.7-7 4.6-19.7 1-26.5-.7-1 1-3.4 2-2 1.7 2.5 3.3 9.3 4 6.8.8-2.7 1-7.6 3.3-8.5 1.6-.6 3.8-1 3.2 1.5-.6 2.4-2 5.6-.5 5.8 1 0 3.3-3.2 5.4-4.7 1.7-1.4 4.2.7 1.7 2.8-8 6.6-15.6 9.5-20 24.8z"/></g><g fill-rule="evenodd" fill="#fff"><path d="M132 343.3c-1-.2-2.2-.5-1 1 9.2 11.4 12 14.5 25.4 13 13.6-2 17-5.6 26.4-11 5-3 12.6-3.6 18.2-1.7 2.6.8 4.2 1 2.3-1-2-2-4-4.5-6.4-6.2-5.2-4-13.8-5.6-20.8-4.4-10 1.6-18.2 8-28 10.3-5.2 1.2-10.8 1-16.2 0z" stroke="#000" stroke-width=".97315"/><path d="M132 343.3c-1-.2-2.2-.5-1 1 9.2 11.4 12 14.5 25.4 13 13.6-2 17-5.6 26.4-11 5-3 12.6-3.6 18.2-1.7 2.6.8 4.2 1 2.3-1-2-2-4-4.5-6.4-6.2-5.2-4-13.8-5.6-20.8-4.4-10 1.6-18.2 8-28 10.3-5.2 1.2-10.8 1-16.2 0z"/></g><g fill-rule="evenodd" fill="#fff"><path d="M210 363.7c1.6.2 2.7 3.5 3.5 1.3 1.5-3.7.5-6.6-1.2-6.3-2 .5-5 4.8-2.4 5z" stroke="#000" stroke-width=".97315"/><path d="M210 363.7c1.6.2 2.7 3.5 3.5 1.3 1.5-3.7.5-6.6-1.2-6.3-2 .5-5 4.8-2.4 5z"/></g><g fill-rule="evenodd" stroke="#000" stroke-width=".5" fill="#fff"><path d="M206 366.8c4.7 1 4.6-10 0-14.8 2 7.2-3.6 13.7 0 14.8z" stroke-width=".97315"/><path d="M204.2 366.7c.4 5.3-13-.7-16.3-4.8 7.7 3.2 16 .5 16.2 4.7z" stroke-width=".973145"/><path d="M198.4 359c.5 5.3-11.5.8-15-3.2 7.8 2.5 14.5-1 15 3.3zM200.6 360c4.7 1 4-10.6-.6-14.5 2.2 7.6-3 13.3.6 14.4zM195.8 353c4.6 1 2-9-1.5-13 .6 7.3-1.7 12.3 1.5 13zM193.3 352.8c.5 5.3-8.8 1.3-12.4-3.7 7.7 2.6 11.8-.4 12.3 3.8zM190.8 348.8c3-2-.2-8-6-7.5.6 3.4 2.6 9.5 6 7.5z" stroke-width=".97315"/><path d="M213.5 372.7c.3 5.3-13 2.6-17-3 8.3 1.6 16.6-1.3 17 3z" stroke-width=".973145"/></g><g fill-rule="evenodd" fill="#fff"><g stroke="#000" stroke-width=".5"><path d="M125.6 232.6c-2-2-1.4-2.8 1.6-2.8 2.3-.2 7 1.4 8.6 0 1.6-1 1-6 1.7-8.3.3-1.2 1.2-3.2 3.2 0 6 9.3 13.3 20.7 16.4 31.8 1.8 6.3.2 16-5.5 22.5.2-5.6-2-9.3-4.4-14-3-6-14.7-22.7-21.4-29.2z" stroke-width=".97315"/><path d="M150 282.4c6.5 0 7.6-8.7 7.6-11-3.2.5-9 5.8-7.6 11z" stroke-width=".97315"/></g><path d="M125.6 232.6c-2-2-1.4-2.8 1.6-2.8 2.3-.2 7 1.4 8.6 0 1.6-1 1-6 1.7-8.3.3-1.2 1.2-3.2 3.2 0 6 9.3 13.3 20.7 16.4 31.8 1.8 6.3.2 16-5.5 22.5.2-5.6-2-9.3-4.4-14-3-6-14.7-22.7-21.4-29.2z"/><path d="M150 282.4c6.5 0 7.6-8.7 7.6-11-3.2.5-9 5.8-7.6 11z"/></g><g fill-rule="evenodd" fill="#fff"><path d="M206 366.8c4.7 1 4.6-10 0-14.8 2 7.2-3.6 13.7 0 14.8zM204.2 366.7c.4 5.3-13-.7-16.3-4.8 7.7 3.2 16 .5 16.2 4.7zM198.4 359c.5 5.3-11.5.8-15-3.2 7.8 2.5 14.5-1 15 3.3zM200.6 360c4.7 1 4-10.6-.6-14.5 2.2 7.6-3 13.3.6 14.4zM195.8 353c4.6 1 2-9-1.5-13 .6 7.3-1.7 12.3 1.5 13zM193.3 352.8c.5 5.3-8.8 1.3-12.4-3.7 7.7 2.6 11.8-.4 12.3 3.8zM190.8 348.8c3-2-.2-8-6-7.5.6 3.4 2.6 9.5 6 7.5zM213.5 372.7c.3 5.3-13 2.6-17-3 8.3 1.6 16.6-1.3 17 3z"/></g><g stroke-linejoin="round" fill-rule="evenodd" stroke="#000" stroke-width=".5" fill="#fff"><path d="M160.8 363.2c.5 5.3-14-.5-17.6-5.5 7.8 2.6 17 1.3 17.6 5.5zM169.7 365.5c3-2.2-3.2-7.8-8-9 .5 3.4 4.6 11 8 9zM170.6 369c.3 5-15.5 2.3-19.7-2 13.6 2.4 19.2-2 19.6 2z" stroke-width=".97315"/><path d="M178 372.3c1.8 4.4-13.4 3.3-18.8.8 8.7 0 17.6-3.8 18.8-.7z" stroke-width=".973145"/><path d="M185.2 375.5c1.6 4-12.4 4-19.3 1.7 9 0 17.5-5.6 19.2-1.7zM195.4 377.6c2.5 4.7-12.4 5-17.2 2.8 8.6-1 15-6.5 17.2-2.8z" stroke-width=".973145"/><path d="M178 369.6c-4.7 3-4.5-5.8-8.2-12 6 5.5 11.4 9.2 8.2 12zM186.4 372.8c-4 3.5-7-8.6-10.8-15.3 6 6.4 14.4 12.4 10.8 15.3zM197.5 376.2c-3.4 3.8-13-11.5-16.6-19.5 5.2 6.2 19 16.2 16.5 19.5z" stroke-width=".97315"/></g><g fill-rule="evenodd" fill="#fff"><path d="M160.8 363.2c.5 5.3-14-.5-17.6-5.5 7.8 2.6 17 1.3 17.6 5.5zM169.7 365.5c3-2.2-3.2-7.8-8-9 .5 3.4 4.6 11 8 9zM170.6 369c.3 5-15.5 2.3-19.7-2 13.6 2.4 19.2-2 19.6 2z"/><path d="M178 372.3c1.8 4.4-13.4 3.3-18.8.8 8.7 0 17.6-3.8 18.8-.7z"/><path d="M185.2 375.5c1.6 4-12.4 4-19.3 1.7 9 0 17.5-5.6 19.2-1.7zM195.4 377.6c2.5 4.7-12.4 5-17.2 2.8 8.6-1 15-6.5 17.2-2.8zM178 369.6c-4.7 3-4.5-5.8-8.2-12 6 5.5 11.4 9.2 8.2 12z"/><path d="M186.4 372.8c-4 3.5-7-8.6-10.8-15.3 6 6.4 14.4 12.4 10.8 15.3zM197.5 376.2c-3.4 3.8-13-11.5-16.6-19.5 5.2 6.2 19 16.2 16.5 19.5z"/></g><path d="M188 387.8c-1.7 6-26.4-5.5-29-11.5 14 7.5 29.4 6 29 11.5z" fill-rule="evenodd" fill="#fff"/><g fill-rule="evenodd" fill="#fff"><path d="M108.6 267.6c-.6-.7-2.2 0-1.8 1.8.4 2.5 4 15 10.2 19.4 4.4 3 27.6 8.3 38 10.4 6 1.2 10.8 4 14.6 8.7-1.6-6-3-10.6-5-16-2-5-7-10-12.5-10.4-10-.4-23-1.2-32.4-5.3-5-2-8-4.8-11-8.7z" stroke="#000" stroke-width=".97315"/><path d="M108.6 267.6c-.6-.7-2.2 0-1.8 1.8.4 2.5 4 15 10.2 19.4 4.4 3 27.6 8.3 38 10.4 6 1.2 10.8 4 14.6 8.7-1.6-6-3-10.6-5-16-2-5-7-10-12.5-10.4-10-.4-23-1.2-32.4-5.3-5-2-8-4.8-11-8.7z"/></g><g stroke-linejoin="round" fill-rule="evenodd" stroke="#000" stroke-width=".5" fill="#fff"><path d="M166.3 317.3c3.2 2.3 6.7-6 2.6-14-.2 7.6-6.3 10.2-2.7 14z" stroke-width=".973155"/><path d="M169.3 325c4.4 1.3 5.8-6.5 3-12.7.4 6.7-7 10.7-3 12.7z" stroke-width=".973155"/><path d="M172.7 331c4.2 2.2 5.8-5.6 2.8-11.4.3 7.4-6 9.6-2.8 11.5z" stroke-width=".973155"/><path d="M171 331.6c-1.8 5-11.5-4.3-13-9.4 6 6 14 5.3 13 9.4z" stroke-width=".973145"/><path d="M166.5 324c-2 5-14.2-8-17-14.2 6.2 6 18.4 10.6 17 14z" stroke-width=".973145"/><path d="M164 316.4c-1.8 5.7-15.2-9.5-19-15 6.4 6 20.5 10.8 19 15z" stroke-width=".973145"/><path d="M163.7 310.7c4.6-1-.3-4.8-6-11-.3 6.6.8 11.2 6 11zM155.7 307c2-2.2-2-3.2-6.8-8.7-.8 3.7 4.4 10.5 6.7 8.7z" stroke-width=".97315"/><path d="M178.4 331.7c2.6 1.5 4.4-3.7 1.2-8.5-.8 5.2-3.5 6.6-1.2 8.5z" stroke-width=".973155"/></g><g fill-rule="evenodd" fill="#fff"><path d="M166.3 317.3c3.2 2.3 6.7-6 2.6-14-.2 7.6-6.3 10.2-2.7 14z"/><path d="M169.3 325c4.4 1.3 5.8-6.5 3-12.7.4 6.7-7 10.7-3 12.7z"/><path d="M172.7 331c4.2 2.2 5.8-5.6 2.8-11.4.3 7.4-6 9.6-2.8 11.5z"/><path d="M171 331.6c-1.8 5-11.5-4.3-13-9.4 6 6 14 5.3 13 9.4z"/><path d="M166.5 324c-2 5-14.2-8-17-14.2 6.2 6 18.4 10.6 17 14z"/><path d="M164 316.4c-1.8 5.7-15.2-9.5-19-15 6.4 6 20.5 10.8 19 15zM163.7 310.7c4.6-1-.3-4.8-6-11-.3 6.6.8 11.2 6 11z"/><path d="M155.7 307c2-2.2-2-3.2-6.8-8.7-.8 3.7 4.4 10.5 6.7 8.7zM178.4 331.7c2.6 1.5 4.4-3.7 1.2-8.5-.8 5.2-3.5 6.6-1.2 8.5z"/></g><g stroke-linejoin="round" fill-rule="evenodd" stroke="#000" stroke-width=".5" fill="#fff"><path d="M122.7 298.6c-5.4 3.2-14-9.8-16.4-15.2 4.8 6.2 17.4 11.8 16.4 15.2z" stroke-width=".973145"/><path d="M127.4 306c-3 3.5-12.5-5.6-15.8-10.2 5 4.4 17 5 15.8 10.3z" stroke-width=".973145"/><path d="M132.5 313c-1 4.5-14.8-5.7-18-10.6 6 5.6 19 5 18 10.6z" stroke-width=".973145"/><path d="M130.4 318c-2 4-13.4-6.2-16-11.5 6.8 6 17.7 7.3 16 11.4z" stroke-width=".973145"/><path d="M124.6 298c3.6-4 2-5.6-.5-11.5-1.3 6-3.5 8.5.6 11.4zM129.3 305c6.5.2 0-7.6-1.4-14.2.4 7.5-1.8 13.4 1.3 14.2z" stroke-width=".973155"/><path d="M133.4 311.2c4.5-1 3.2-7.3-.2-15 .7 8.3-3.8 13 .2 15z" stroke-width=".973155"/><path d="M132 323.7c-1.8 5-14.5-6.6-16.5-11 6.4 5.4 17.6 7.2 16.4 11z" stroke-width=".973145"/><path d="M139.5 331.5c-2 5-15.2-5-19.3-10.7 8 6.3 20.3 5.7 19.3 10.7z" stroke-width=".973145"/><path d="M147.3 339.4c-2.2 7-16-4-20.2-9.6 9 6.7 21.4 4.6 20.3 9.6z" stroke-width=".973145"/><path d="M134.2 321.5c3.8 2 5.3-8.8 3.2-16.4 0 8.4-7.6 14.5-3.2 16.5z" stroke-width=".973155"/><path d="M140.7 330c4.5 1.3 3-10.2-.8-17.7-.6 7.4-4 14.4.7 17.7zM148.7 338c5 .2 1.6-10-2.6-15.7.8 7.5-1.5 14.8 2.7 15.7z" stroke-width=".973155"/><path d="M139.8 342.3c-1.5 2.6-5.2-2.2-11.4-5.7 5.5 1.5 12 3.3 11.4 5.7z" stroke-width=".973145"/></g><g fill-rule="evenodd" fill="#fff"><path d="M122.7 298.6c-5.4 3.2-14-9.8-16.4-15.2 4.8 6.2 17.4 11.8 16.4 15.2z"/><path d="M127.4 306c-3 3.5-12.5-5.6-15.8-10.2 5 4.4 17 5 15.8 10.3z"/><path d="M132.5 313c-1 4.5-14.8-5.7-18-10.6 6 5.6 19 5 18 10.6z"/><path d="M130.4 318c-2 4-13.4-6.2-16-11.5 6.8 6 17.7 7.3 16 11.4zM124.6 298c3.6-4 2-5.6-.5-11.5-1.3 6-3.5 8.5.6 11.4zM129.3 305c6.5.2 0-7.6-1.4-14.2.4 7.5-1.8 13.4 1.3 14.2z"/><path d="M133.4 311.2c4.5-1 3.2-7.3-.2-15 .7 8.3-3.8 13 .2 15zM132 323.7c-1.8 5-14.5-6.6-16.5-11 6.4 5.4 17.6 7.2 16.4 11z"/><path d="M139.5 331.5c-2 5-15.2-5-19.3-10.7 8 6.3 20.3 5.7 19.3 10.7z"/><path d="M147.3 339.4c-2.2 7-16-4-20.2-9.6 9 6.7 21.4 4.6 20.3 9.6zM134.2 321.5c3.8 2 5.3-8.8 3.2-16.4 0 8.4-7.6 14.5-3.2 16.5z"/><path d="M140.7 330c4.5 1.3 3-10.2-.8-17.7-.6 7.4-4 14.4.7 17.7zM148.7 338c5 .2 1.6-10-2.6-15.7.8 7.5-1.5 14.8 2.7 15.7zM139.8 342.3c-1.5 2.6-5.2-2.2-11.4-5.7 5.5 1.5 12 3.3 11.4 5.7z"/></g><g stroke-linejoin="round" fill-rule="evenodd" stroke="#000" stroke-width=".5" fill="#fff"><path d="M137 256.4c4.6-3.5 1-10 0-16.3-1.6 6-5.6 13.7 0 16.4zM136.7 265c-7-.7-6-10-6.2-15.8 2 8 8 9.3 6.2 16zM138 264c6-.4 5.6-7.3 6-14.2-3.2 6.4-6.8 7.4-6 14z" stroke-width=".97315"/><path d="M137.6 272.4c-4.6.4-7-4.2-8-11.4 4.3 6.6 8.3 4.6 8 11.4zM139.3 272c6 .6 5-6.4 4.8-11.5-1.7 5-6.6 6.4-4.7 11.4z" stroke-width=".97315"/><path d="M130 269c.4 4.5 3.3 12.3 8 10.6 2-5.6-4-6.8-8-10.7z" stroke-width=".97315"/><path d="M139.4 280c-2-4 4.7-6 6.2-11.2.8 7.5 0 12.4-6.2 11.3z" stroke-width=".97315"/></g><g fill-rule="evenodd" fill="#fff"><path d="M137 256.4c4.6-3.5 1-10 0-16.3-1.6 6-5.6 13.7 0 16.4zM136.7 265c-7-.7-6-10-6.2-15.8 2 8 8 9.3 6.2 16zM138 264c6-.4 5.6-7.3 6-14.2-3.2 6.4-6.8 7.4-6 14z"/><path d="M137.6 272.4c-4.6.4-7-4.2-8-11.4 4.3 6.6 8.3 4.6 8 11.4zM139.3 272c6 .6 5-6.4 4.8-11.5-1.7 5-6.6 6.4-4.7 11.4z"/><path d="M130 269c.4 4.5 3.3 12.3 8 10.6 2-5.6-4-6.8-8-10.7z"/><path d="M139.4 280c-2-4 4.7-6 6.2-11.2.8 7.5 0 12.4-6.2 11.3z"/></g><g stroke-linejoin="round" fill-rule="evenodd" stroke="#000" stroke-width=".5" fill="#fff"><path d="M120 232.5c3.7-4 .4-10.4-.7-16.7-1.5 6-4.2 13.8.7 16.7zM120 240c-6.7.7-8.3-12.7-9-18.5 2.2 8 9.7 11.6 9 18.5zM121.2 240c4.7-2.5 3.6-7.7 5-11.6-3 4.8-6 5.5-5 11.5z" stroke-width=".97315"/><path d="M120 248.7c-7 .5-11-14.3-11.3-20 2.2 7.8 12 12 11.2 20zM121.2 248.4c6.5-1.5 5.7-5.6 4.8-12.4-2 6.8-5.7 5.4-4.8 12.4z" stroke-width=".97315"/><path d="M119.8 257.2c-7.5 1.3-7-10.7-13-19.4 5.2 6.5 14.6 14.6 13 19.4zM121.6 256.8c5.7.2 6.2-8.4 6-12-1.4 3.5-8 7-6 12z" stroke-width=".97315"/><path d="M108 248c3 9.2 7 18.4 11.8 17.7 2.4-5.2-4.7-6-11.8-17.7z" stroke-width=".97315"/><path d="M121.6 264.4c-2-4 4.8-6 6.2-11.2.8 7.4 0 12.3-6.2 11.2zM110 258.5c4 8.3 6 18 11.4 16.5 2-6.5-6-7.8-11.4-16.5z" stroke-width=".97315"/><path d="M122.6 273.4c-2.4-4.4 4.4-6 6-12 1 8 0 13.6-6 12z" stroke-width=".97315"/></g><g fill-rule="evenodd" fill="#fff"><path d="M120 232.5c3.7-4 .4-10.4-.7-16.7-1.5 6-4.2 13.8.7 16.7zM120 240c-6.7.7-8.3-12.7-9-18.5 2.2 8 9.7 11.6 9 18.5zM121.2 240c4.7-2.5 3.6-7.7 5-11.6-3 4.8-6 5.5-5 11.5z"/><path d="M120 248.7c-7 .5-11-14.3-11.3-20 2.2 7.8 12 12 11.2 20zM121.2 248.4c6.5-1.5 5.7-5.6 4.8-12.4-2 6.8-5.7 5.4-4.8 12.4z"/><path d="M119.8 257.2c-7.5 1.3-7-10.7-13-19.4 5.2 6.5 14.6 14.6 13 19.4zM121.6 256.8c5.7.2 6.2-8.4 6-12-1.4 3.5-8 7-6 12z"/><path d="M108 248c3 9.2 7 18.4 11.8 17.7 2.4-5.2-4.7-6-11.8-17.7z"/><path d="M121.6 264.4c-2-4 4.8-6 6.2-11.2.8 7.4 0 12.3-6.2 11.2zM110 258.5c4 8.3 6 18 11.4 16.5 2-6.5-6-7.8-11.4-16.5z"/><path d="M122.6 273.4c-2.4-4.4 4.4-6 6-12 1 8 0 13.6-6 12z"/></g><path d="M134.2 217.2c4 1 8.2-3.4 6.8-10-4.6 1-6.7 5.2-6.8 10zM121.5 214c.3 1.7 2.6 2 2-.7-.6-2.2-.7-3.8 0-5.6.8-2.2.5-6 0-7.5-.8-1.7-3-.7-2 .6 1 1.5 1 4.6.3 6-1 2.2-.7 5-.3 7z" fill-rule="evenodd" stroke="#000" stroke-width=".97315" fill="#fff"/><path d="M134.2 217.2c4 1 8.2-3.4 6.8-10-4.6 1-6.7 5.2-6.8 10zM121.5 214c.3 1.7 2.6 2 2-.7-.6-2.2-.7-3.8 0-5.6.8-2.2.5-6 0-7.5-.8-1.7-3-.7-2 .6 1 1.5 1 4.6.3 6-1 2.2-.7 5-.3 7z" fill-rule="evenodd" fill="#fff"/><path d="M135.3 206.7c-.4 3-3 3.2-2.2-1 .7-3.4.8-6 0-8.6-.8-3.4-.5-9.2.2-11.7.7-2.6 3.2-1 2.2 1-1.2 2.3-1.2 7.2-.5 9.5 1 3.3.7 7.8.3 11zM154 236c-1.7 2.4-4 1-2.8-2.5 1.2-2.6 1.4-5.7 2.7-7.5 1.7-2.8 4.8-5.2 6.6-7 1.8-1.7 3.3 0 1.6 1.6-2 2-4.2 4.6-5.4 6.5-2.3 3.8-1.3 6.8-3 9z" fill-rule="evenodd" stroke="#000" stroke-width=".97315" fill="#fff"/><g fill-rule="evenodd" fill="#fff"><path d="M242.5 131.6c.2 1 1.5 1 1.2-.4-.3-1-1-2.2-.6-3 .5-1.2.7-3.2.3-4-.3-.8-1.5-.3-1 .4.6.8 0 3-.2 3.7-.4 1 .3 2.3.5 3.3z" transform="matrix(-2.453 -.98 -1.138 2.52 903.448 145.415)" stroke="#000" stroke-width=".4"/><path d="M158.7 239.8c-1.6 2.3-4.7 1-2.3-2.2 2-2.6 4.8-4.6 5-7.2 0-3.3 2-8.3 3.8-10 2-1.8 4 .7 2 2-2.2 1.3-3.6 7.2-3.5 9.4 0 3.3-3.4 5.6-5 8z"/></g><path d="M154 236c-1.7 2.4-4 1-2.8-2.5 1.2-2.6 1.4-5.7 2.7-7.5 1.7-2.8 4.8-5.2 6.6-7 1.8-1.7 3.3 0 1.6 1.6-2 2-4.2 4.6-5.4 6.5-2.3 3.8-1.3 6.8-3 9z" fill-rule="evenodd" fill="#fff"/><g fill-rule="evenodd" fill="#fff"><path d="M242.2 131.8c0 .8 1.3 1 1.2-.2 0-1.2-1.8-2.3-.7-4 .5-1 .5-2.6.2-3.4-.4-1-1.7-.3-1.2.3.5.8 0 2.3-.5 3-1.2 2.2 1 3.3 1 4.3z" transform="matrix(1.946 0 0 4.087 -343.233 -314.153)" stroke="#000" stroke-width=".3"/><path d="M128.2 224.4c-.2 3.2 2.4 4 2.3-.6 0-5-3.6-9.3-1.4-16.7 1.2-3.5 1.2-10 .5-13.7-.6-3.4-3-1.2-2 1.6 1 3-.3 9-1 12-2.5 9 2 13.3 1.7 17.4z"/></g><path d="M135.3 206.7c-.4 3-3 3.2-2.2-1 .7-3.4.8-6 0-8.6-.8-3.4-.5-9.2.2-11.7.7-2.6 3.2-1 2.2 1-1.2 2.3-1.2 7.2-.5 9.5 1 3.3.7 7.8.3 11zM110 267c1 1.4 3.2.5 1.3-1.5-1.5-1.6-1-2-2-4-1-2.3-.8-3.5-2-5-1-1.5-2.5 0-1.5 1.2 1.3 1.5 1 2.6 1.7 4 1.4 2.5 1 3.7 2.4 5.3zM143 307c4 2 7 7 7.3 11 .4 4.5 1 8.3 3 11.6-3.2-1-4.8-6-5.2-11-.4-5.3-3.2-7.5-5-11.5zM151.4 316.7c2.8 5 6.6 7 6.8 10.7.4 4.4.7 4.6 2 9-3.4-1-4.2-1.3-5-7.8-.6-4.5-4.3-7.7-3.8-12z" fill-rule="evenodd" fill="#fff"/><path d="M301.5 401.7c0 2 .3 3.4 1.5 5-6.7-2.7-16-1.3-22.5 1.7-2.8 1.4-6.3-1.5-3-4.3 4.8-3.8 16-1.6 24-2.3zm-93.7 0c0 1.7 0 3.3-.8 5 7.3-3 15-.6 22.3 2.4 5 2 5.4-1.5 4.5-2.7-1.5-2.2-4.4-4.6-8.2-4.7h-17.8zm6-35.4c-2-1-4.2 0-6.3 2.2-7 7-15.4 13.6-22 18.8-2.5 2.2-5 6 5.6 10 .4 0 8.2 3 13 3.2 2 0 2 3 1.7 3.7-.8 1.6-.2 2.2-2 3.7-1.7 1.4.3 3.4 1.7 2 6-5 15.7-1.8 25 1.2 2.2.7 6.3.5 6.2-2.6 0-3.3 2.5-5.6 4-5.7 3.8.5 22.6.8 28.4 0 3.4-.4 3.6 4.7 5.4 6.7 1.3 1.3 6 1.7 9.4.2 6.5-3 16.4-3 20.5-.2 1.6 1.2 3 .2 2-1-1.2-1.8-1.2-2.6-1.8-4-1.5-3-.3-4 1.3-4 18-2.4 23.8-8.6 18.3-13.6-7-6.2-15-12.5-21.8-20-1.8-1.8-3-2.6-7-1-11.7 5.4-26.6 9.3-41.2 9.6-13.6 0-32.3-6.2-40-9.5z" fill-rule="evenodd" fill-opacity=".2" stroke="#000" stroke-width=".97315"/><path d="M301.5 401.7c0 2 .3 3.4 1.5 5-6.7-2.7-16-1.3-22.5 1.7-2.8 1.4-6.3-1.5-3-4.3 4.8-3.8 16-1.6 24-2.3zm-93.7 0c0 1.7 0 3.3-.8 5 7.3-3 15-.6 22.3 2.4 5 2 5.4-1.5 4.5-2.7-1.5-2.2-4.4-4.6-8.2-4.7h-17.8zm6-35.4c-2-1-4.2 0-6.3 2.2-7 7-15.4 13.6-22 18.8-2.5 2.2-5 6 5.6 10 .4 0 8.2 3 13 3.2 2 0 2 3 1.7 3.7-.8 1.6-.2 2.2-2 3.7-1.7 1.4.3 3.4 1.7 2 6-5 15.7-1.8 25 1.2 2.2.7 6.3.5 6.2-2.6 0-3.3 2.5-5.6 4-5.7 3.8.5 22.6.8 28.4 0 3.4-.4 3.6 4.7 5.4 6.7 1.3 1.3 6 1.7 9.4.2 6.5-3 16.4-3 20.5-.2 1.6 1.2 3 .2 2-1-1.2-1.8-1.2-2.6-1.8-4-1.5-3-.3-4 1.3-4 18-2.4 23.8-8.6 18.3-13.6-7-6.2-15-12.5-21.8-20-1.8-1.8-3-2.6-7-1-11.7 5.4-26.6 9.3-41.2 9.6-13.6 0-32.3-6.2-40-9.5z" fill-rule="evenodd" fill="#fff"/><g fill-rule="evenodd" fill="#fff"><path d="M338.6 332c.8 2.8 12-2.3 17.7-13.5-7.4 8-19.5 8-17.7 13.5z" stroke="#000" stroke-width=".97315"/><path d="M338.6 332c.8 2.8 12-2.3 17.7-13.5-7.4 8-19.5 8-17.7 13.5z"/></g><g fill-rule="evenodd" fill="#fff"><path d="M253.4 179c1.7 2.4 4 4.3 4 6.4.3 2.3.5 2.4 1 4.7-1.6-.3-2-.5-2.5-4-.4-2.5-2.8-5-2.5-7z" transform="matrix(-2.018 0 0 1.844 868.637 -14.906)" stroke="#000" stroke-width=".5"/><path d="M357.3 315c-3.4 4.7-8 8-8.2 12-.2 4.2-.6 4.4-1.8 8.7 3.4-1 4.2-1 5-7.6.7-4.5 5.6-9 5-13z"/></g><g fill-rule="evenodd" fill="#fff"><path d="M254.4 180.3c2 1 2.5 2.6 2.6 4.7 0 2.4.6 4.2 1.6 6-2 .2-2.4-3.2-2.7-5.8-.3-2.7-.8-3-1.6-5z" transform="matrix(-2.04 0 0 1.946 881.502 -42.498)" stroke="#000" stroke-width=".5"/><path d="M362.8 308.4c-4 2-5 5.2-5.2 9.2 0 4.6-1.3 8.2-3.5 11.5 4.4.7 5.2-6 5.7-11 .5-5.2 1.4-5.6 3-9.6z"/></g><g fill-rule="evenodd" fill="#fff"><path d="M242.2 131.4c.2 1 1.4 1 1-.3-.2-1-.3-1.8 0-2.7.5-1.2.4-3 0-4-.3-.7-1.5-.2-1 .4.5.8.6 2.4.2 3-.5 1.3-.4 2.7-.2 3.7z" transform="matrix(2.082 0 0 3.04 -129.796 -193.086)" stroke="#000" stroke-width=".4"/><path d="M374.5 206.5c.3 3 2.8 3.2 2-1-.5-3.4-.6-6 0-8.7 1-3.4.7-9.3 0-11.7-.7-2.5-3-1-2 1 1 2.4 1 7.3.3 9.5-1 3.4-.7 8-.3 11z"/></g><g fill-rule="evenodd" fill="#fff"><path d="M242.2 131.8c0 .8 1.3 1 1.2-.2 0-1.2-1.8-2.3-.7-4 .5-1 .5-2.6.2-3.4-.4-1-1.7-.3-1.2.3.5.8 0 2.3-.5 3-1.2 2.2 1 3.3 1 4.3z" transform="matrix(-1.916 0 0 4.087 845.476 -314.367)" stroke="#000" stroke-width=".3"/><path d="M381.4 224.2c.2 3.2-2.3 4-2.2-.6 0-5 3.5-9.3 1.4-16.7-1-3.7-1-10.4-.4-14 .5-3.4 3-1 2 1.6-1 3.2.2 9.2 1 12.3 2.4 8.7-2 13-1.8 17.2z"/></g><g fill-rule="evenodd" fill="#fff"><path d="M242.2 131.4c.2 1 1.4 1 1-.3-.2-1-.3-1.8 0-2.7.5-1.2.4-3 0-4-.3-.7-1.5-.2-1 .4.5.8.6 2.4.2 3-.5 1.3-.4 2.7-.2 3.7z" transform="matrix(-1.916 0 0 1.946 852.132 -42.178)" stroke="#000" stroke-width=".5"/><path d="M388 213.6c-.3 2-2.5 2-2-.6.7-2 .8-3.8 0-5.5-.7-2.2-.4-6 .2-7.5.7-1.7 3-.7 2 .6-1 1.5-1 4.6-.4 6 1 2.2.7 5 .3 7z"/></g><g fill-rule="evenodd" fill="#fff"><path d="M374.2 217.3c-3.3 1.4-7.6-8-4.4-9.8 2.5-.6 8 8 4.4 9.8z" stroke="#000" stroke-width=".973145"/><path d="M374.2 217.3c-3.3 1.4-7.6-8-4.4-9.8 2.5-.6 8 8 4.4 9.8z"/></g><g fill-rule="evenodd" fill="#fff"><path d="M242.2 131.7c.2 1 1.3 1 1.3-.5 0-1 .5-2 .3-3s-1-2.3-1.2-3c-.4-1-1.2-.5-.8.2.3 1 .7 2 .8 3 .2 1.5-.6 2.3-.4 3.3z" transform="matrix(2.367 -.98 1.098 2.52 -362.4 141.044)" stroke="#000" stroke-width=".4"/><path d="M355.6 236c1.5 2.3 3.8 1 2.5-2.6-1-2.6-1.2-5.7-2.4-7.5-1.8-3-4.8-5.3-6.5-7-1.7-1.8-3 0-1.5 1.5 2 2 4 4.6 5.3 6.5 2.2 3.7 1.2 6.7 2.8 9z"/></g><g fill-rule="evenodd" fill="#fff"><path d="M242.5 131.6c.2 1 1.5 1 1.2-.4-.3-1-1-2.2-.6-3 .5-1.2.7-3.2.3-4-.3-.8-1.5-.3-1 .4.6.8 0 3-.2 3.7-.4 1 .3 2.3.5 3.3z" transform="matrix(2.367 -.98 1.098 2.52 -367.113 144.086)" stroke="#000" stroke-width=".4"/><path d="M351.5 238.5c1.5 2.2 4.5 1 2.2-2.3-2-2.5-4.6-4.5-4.8-7.2-.3-3.3-2-8.3-3.8-10-1.8-1.8-3.8.8-2 2 2.2 1.4 3.5 7.2 3.5 9.5 0 3.2 3.2 5.6 4.8 8z"/></g><path stroke-linejoin="round" d="M220.8 344c4.5 3.5 8.8 7.6 10 12.7 1.4 4.8 2.2 8.4 5.2 13-4.7-3-6.6-7.5-8-12.5-1.3-5-4-8.6-7.2-13.3z" fill-rule="evenodd" stroke="#000" stroke-width=".97315" fill="#fff"/><path d="M220.8 344c4.5 3.5 8.8 7.6 10 12.7 1.4 4.8 2.2 8.4 5.2 13-4.7-3-6.6-7.5-8-12.5-1.3-5-4-8.6-7.2-13.3zM215.7 344c4.2 3.4 7 7.3 8.2 12.4 1.2 4.8 3 8.5 5.8 12.8-4.4-3-7.2-7.2-8.7-12.2-1-5-2.5-8.5-5.3-13zM294.4 344c-4.3 3.4-7 7.4-8.4 12.5-1.3 4.8-3.2 8.6-6 12.8 4.5-3 7.4-7.2 8.8-12.2 1.3-4.8 2.8-8.5 5.6-13zM289 344c-4.5 3.6-8.8 7.7-10 12.8-1.5 4.8-2.3 8.4-5.4 13.2 5-3 6.8-7.7 8.2-12.7 1.3-5 4.2-8.7 7.3-13.4zM274 356c0-1-.6-1.7-1.3-2l-4.3-1.3c-1.6-.4-2.5.8-2.5 1.5v3.3c0 1.2.2 1.2 1 1.4 1.2 0 2.7.3 4 1 1 .7 1.8.3 2.3-.8.3-.8.4-2.3.6-3.2zM256.6 356c0-1 .4-1.8 1-2 1.3-.6 2.6-.7 4-.6 1.4 0 1.8.3 1.8 1v3.5c0 1 0 1-.8 1.3-1 .2-2.8.3-4 1-.8.7-1.7.2-1.8-1 0-.8 0-2.4-.2-3.3zM235.7 355.7c0-1 .5-1.6 1.3-2l4.2-1.2c1.6-.4 2.5.7 2.5 1.5v3.2c0 1.2-.3 1.3-1 1.5-1.2.2-2.8.4-4 1.2-1 .5-2 0-2.4-1-.3-.8-.4-2.3-.6-3.3zM253 355.7c.2-1-.3-1.7-1-2-1.2-.5-2.5-.6-3.8-.6-1.5 0-2 .5-2 1.2v3.4c.2 1.2 0 1.3.8 1.5 1 .3 3 .3 4 1s1.8.3 2-1v-3.3zM237 363.6c1.6 3 3.3 7.4 6.6 6.6 0-2.3-3.5-3.8-6.6-6.6zM241.8 364.6c6.3 2.6 11.7 2 12.3 6-5.7.5-8-2-12.2-6zM272.5 364c-1.6 2.8-3.4 7-6.7 6.2 0-2 3.6-3.6 6.7-6.2zM268 365c-6.3 2.3-11.7 1.7-12.4 5.4 6 .6 8-1.7 12.5-5.5z" fill-rule="evenodd" fill="#fff"/><path d="M286.8 302.6h13.6c0 5 3 10.6 7.3 13.8h-26c4-3.7 5-8 5-13.8z" fill-opacity=".5" fill-rule="evenodd" stroke="#000" stroke-width=".97315" fill="#fff"/><path d="M286.8 302.6h13.6c0 5 3 10.6 7.3 13.8h-26c4-3.7 5-8 5-13.8z" fill-rule="evenodd" fill="#fff"/><path d="M189.7 385.8c-.8.5-.7 2.2.7 2.8 13.6 5 26.8 14 64.5 13.6 38-.4 51.4-9.2 63.6-13.3 1.7-.7 3.2-2 1-3.7-6.7-5.6-14.2-10-19-17-1-1.3-3.3-.6-4.8 0-14.5 5-28 8.7-42 8.6-13.6 0-27.8-3.8-40.6-9-1.2-.6-3.3 0-4.2 1-6 5.8-12.4 11.5-19.3 16.8z" stroke="#000" stroke-width=".5838899999999999" fill="none"/><path d="M208 376.4c-1.6-1-2.4.3-1.2 1.7 1.5 1.8 4 2.8 6.4 3.5 1.5.4 4.6 0 6 0 1.4.2 2 2.7 4.2 2.6 2.3 0 3.7-6 3.8-9 0-2-2.7-.6-2.4.2.7 2-.6 6.3-2 6.3-1 0-2-2.2-3.6-2.4l-4.3.2c-3.7 0-5.2-1.8-7-2.8z" fill-rule="evenodd"/><path d="M211 374.8c2 1 3.7-.8 4.8.5 2.8 3 6.4-1.6 2.2-1.4-1.7 0-2-1.4-5-1-1.5 0-3 1.3-2 1.8zM211.5 388.8c-1.5-.7-2 .8-1 1.7 1 1 6.3 1.6 7.6.7 2.2-1.7.7-6-.3-7-.5-.8-2.3-.8-1.6 1 .4 1 1.7 3.2.6 4.2-1 1-3.6 0-5-.6zM223.2 390c.4-.8-.5-2.3-2-.5-1.4 1.3-.4 7 3.8 8 4 1 7-.4 7.6-2.6.4-1.5-1.8-2.8-.7-4 .8-1 2.7 0 3.5-1.7.4-1 .5-2.7-2-4-1-.5-3 .8-3 1.7.2 1.2 2 .4 1.4 1.5-.6.8-3 .5-3.6 2.4-.4 1.2 2.6 3.4 1 4-1.4.5-3.3.8-5.2-.2-1.2-.6-1.7-3.2-1-4.7zM208.7 382.2c-1 0-2.3.8-2.4 2 0 1 .7 2.5 2 1.4 1.4-1 .3-1.5.6-1 .6.5-.4.6-1.6 2.2-.8 1.3-2.6 1-3.6.6-1.6-.8-1-1.3-2.7-2-1.6-1-2.7 1-1 2 1.8 1 4.8 3 7.7 1.5 1.8-1 3.8-2 3.7-4.2 0-1.4-.7-3-2.7-2.6zM303.3 381.4c-1.4-1-.5-2.7 1.4-2 1.7.6 4.5 2.6 4.7 5 .2 3-4.4 5-6 5-3-.3-2.6-2.7-.4-2.5 1.8 0 4-.6 4-2.4 0-1.5-2.8-2.5-3.7-3.2zM293.5 374.5c-1.8-1.7 2-3.6 3-1.5 1.3 2.7 3 5.4 4.3 8.3 1 2.5-.3 2.8-1.2 1.5-1.4-2.3-3.5-5.5-6-8.3zM285 379.7c1.8-.8 1.8 1.6 1 2-1 .7-2.8-1-1-2zM290.5 377.7c2-.8 1.8 1.5 1 2-1 .7-2.7-1.2-1-2z" fill-rule="evenodd"/><path d="M232.5 381c-2.8-1.8.6-4.5 2.5-2.5 2.8 3 5.4 9 7.5 11.4 2 2.3.4-6.3 1-9 .4-1.3 1.5-1 1.5.3 0 3.5-.5 10.6.4 11 1.7 1 1.4 2.7 2.8 2.4 1.5-.3 1.3-.7 2.7-.8 1.2 0 1.3 1.3 3 1 1 0 1.2-1.2 2.4-1.3 1 0 .6 2.4 0 2.8-1.3.6-4.8-.7-6-.6-1.2 0-3.4 1-4.8.6-1.7-.7-1.4-2.8-2.5-2.5-1.3.4-1 3-4.2 3.6-1.5.4-2-1-1.2-2 1.4-1.4 4-2.5 3.7-4-1.3-3.7-5.2-8.4-8.8-10.6zM257 381.5c1.2 4.4 1.2 10.3 2 14.4.3 1.5 1.8 0 1.7-1.2-.6-4.3-1-9.6-2-13.8-.4-1.4-2.3-1-1.8.5zM260.6 382.6c-.3-1.8 1.4-2 1.7-1 1 3.7.8 12 2.6 12 3 .5 7.3 0 11-1 2-.3 2.4-1.7 2.3-2.2-.3-2.2 1.7-2 2.3.3.2 1.2-.3 3.4-2.6 4-4.5.7-10.8 2-14.3 1.3-3-.6-2-8.7-3-13.4z" fill-rule="evenodd"/><path d="M265.7 385.8c0-2.3 1.8-2.7 1.8-.7 0 5 5.6 3.7 6.8 2 1-1.5.3-2-.6-3.7-1-2 1.2-2.6 2-.8 1 1.3 1.4 5.3 0 6.3-1.7 1.4-6.5 2-8.6.5-1-.7-1.4-2.2-1.3-3.5zM263.2 379.6c.3 1.5 4.4 1 4.2-.2 0-1-4.4-.7-4.2.2zM268.5 380.8c.2 1.5 2.8 1 2.7 0 0-1.3-2.8-1.5-2.7 0zM276.5 379c-1.3-2 1.3-2 2-.6 2.4 3.3 3.8 8.7 6 12.3 1 1.7 2 .2 2.2-.2 0-.5-.7-1-.8-2.6-.2-1.3 2.2-2.7 4-1.6 1.5 1 .2 2 1 2.5.7.5 2.6.2 3-.2.7-1.3-.5-.5-1.6-1.3-1.3-1-.5-5 2.2-3.3 1.6 1 2 4 1.5 5.6-.4 1.5-3 2-4.6 1.7-1.6-.5-3-2.5-2.6-2 .8 1.4-.2 2.7-1 3.2-2 1.3-3.3 2-4.7 0-2.5-4-3.8-10.2-6.5-13.7z" fill-rule="evenodd"/><path d="M205.6 121.3c0-2.3 3.4-2.4 3 .6-.5 3.8 7.3 13.5 8 19.5.4 4-2.4 7.6-5.2 9.8-3.4 2.6-8.6 2.3-11 .8-1.6-1-3-5.2-1.8-6.8.4-.6 2.2 6 6 6 5.4 0 9.7-4 9.8-7.6.3-6.2-8.7-16-8.8-22.3zM221.2 136.6c1-.7 2.3 2 1.3 2.8-.8.5-2.4-2-1.3-2.8zM223.5 131c-.4.2-1.3 0-1-.4 1.2-1.8 4-4.5 5.8-5.4.6-.3 1.6.7 1.2 1.2-1 1.7-4 3.6-6 4.6zM244 114.7c.6-1 3.5-2.2 4.3-3 .7-.6 1 .8.7 1.4-.5 1-3 2.8-4.2 3-.6 0-1-.6-.7-1.3zM251 115c.7-1.7 2.8-4.5 4.2-5.4.7-.4 2 0 1.8.6-.5 1.5-3 4.2-4.8 5.5-.5.4-1.3-.2-1-.6zM245 119.6c-.4.2 0 1 .3 1.2 1 .3 2.5.4 3.2 0 1-.7.5-4.6-1-2.5-.8 1.3-1.5 1-2.4 1.3zM233.2 128.7c-2.2-1.6.6-4 2.8-2.4 4.4 3.3-6.5 16-12.4 22-1 1-2-2-.7-3 4.2-3.7 8-8 11-12.5.4-.8 1-2.7-.8-4zM258 118c.3-1.7-2.5 0-2.6-2.2 0-1 3-2 4.5-.6 2 2.2.4 6-3.3 6.3-3 0-8.2 4.3-7.4 5.2 1 1 9 2 13.5 1 3-.3 2.3 2.3-.7 2.6-2.7.4-5 0-7.7 1-3 .8-4.5 5-6.2 6.6-.3 0-1.4-1.5-1-2 1.3-2 3.3-5 5.5-6 1.4-.5-3.8-.7-5.5-1.2-1.3-.4-1-2-.4-3 .6-1.4 5.6-6.4 7.5-6.3 2 0 4-.4 4-1.6zM266.4 118.3c1-.8 1.4-2.2 2.3-3 .6-.5 1.4 0 1.3 1.4-.2 1-1.5 2-2.4 2.6-.8.6-1.6-.6-1.2-1zM277 114.5c1.3 0 1.6 2.5 0 3-.8.3-1.6-2.8 0-3zM273.4 122.8c0 2.2 1 2 3.3 2 2 0 4 0 4-2 0-2.2-1.3-4-1.6-2.6-.2 1.4-.5 3.6-1.3 2.6-.7-.8-.4-1-1.7.4-.7.7-.8-.4-1.2-1-.3-.5-1.4.2-1.4.6z" fill-rule="evenodd" stroke="#000" stroke-width=".97315" fill="#fff"/><path d="M258.4 134.4c-.5 3 0 7.3 1.5 7.3 1.8 0 5.8-6.6 7.7-10 1-2 3-2.3 2.2-.3-1.3 3-1.2 9.8 0 11.7.4 1.2 4.7-.8 5.4-2.3 1.2-2.8.2-7.8.7-11 .3-2 2-2.3 2-.4-.2 3.3-.5 9.4-.3 12.2.2 1.6 4.8 4 5.5-1 .4-3 2-6 0-9.3-1.3-2 1.8-1.8 3.5 1 1 2-1 5.3-1 7.8.2 3.8-2.8 6-5 6-2 0-3.2-2.3-4.8-2.3-1.8 0-3.7 2.7-5 2.6-5.8-.3-2.8-8.6-4.5-8.7-2-.2-4.2 8-6.6 7.8-2.4-.3-5-6.7-4-9.5 1-2.6 2.7-3.2 2.4-1.6zM286 121.3c-3-1.7 0-6 1.4-4.5 2.6 3 5.3 10.6 7 11.2 1.3.4 1.2-5.5 2-8.2.6-2 3-1.3 2.5 1.2-.2.8-3.2 10.5-3 10.8 2 4.2 4 8.3 5.4 12.7.5 2-1.7.7-2 .3-1.5-2.2-4-10.6-4-10.2-1.2 6-1.5 7.6-2.7 12.6-.4 1.6-2.8 1.3-2.2-1.5.5-2.3 3.8-13.7 3.7-14-2.7-4.7-5-8.4-8.3-10.4z" fill-rule="evenodd" stroke="#000" stroke-width=".97315" fill="#fff"/><path d="M291 148.4c-1 0-2 1.7 1.8 2.4 5 1 10.7-.8 12.5-5.8 2-6 3.3-11.7 4.3-14 1.3-2.4 3-2.2 1.7-5.8-1-2.7-2.5-2-2.8-.5-1 4-4.3 16.2-5.4 18.5-2 4.2-6 5.8-12 5.2z" fill-rule="evenodd" stroke="#000" stroke-width=".97315" fill="#fff"/><path d="M301.2 128.6c-.6-1.2-1.8-.3-1.6 1 0 1.2 1 1.8 2 1.8 1.2 0 3.5 0 3.5-1.8 0-1.3-1-2.4-1.7-1-.7 1.3-1.6 1.2-2 0zM302.5 123.7c-.4.2 0 1.7.4 1.7 1.6 0 4-.6 5.2-1.5.4-.4.3-1.2-.3-1.2-1.7 0-4.3 0-5.5 1zM316.7 127.3c1.3-2 4.6-2 3.4.7-.7 1.8-9 18-10.2 20-1.3 2.3-2.3 1.2-1.4-.6 1.2-2.3 8-19.5 8.3-20z" fill-rule="evenodd" stroke="#000" stroke-width=".97315" fill="#fff"/><path d="M304.2 151.4c-.4-1.3-2.4-3.2-2.2.2.4 6.3 9 4.3 11.6 2 2.4-2 .3 7 3.4 8 1.8.7 5-1.7 6.6-3.8 4.4-5.7 7.3-14 11.5-19.6 1.7-2.2-.8-3.8-1.8-2-3.7 6.2-8.3 18.8-13.3 22-4.2 2.7-3-3.3-3-5-.3-1.4-2-3.3-4-1.5-1.6 1-4 2-6 2-1.2-.2-2.3-.2-2.8-2.3z" fill-rule="evenodd" stroke="#000" stroke-width=".97315" fill="#fff"/><path d="M319.5 139.8c0-.4-1.8-.5-1.8 1.3 0 1.4 1.7 1.8 2 1.6 2.5-1.8-.6-1-.2-2.8zM315.8 147c-.5.2-1 1.8.2 2 1 0 5.3-.5 6.4-.4.8 0 1-1.5-.6-1.4-2 0-4.4-.4-6 0zM343.4 145.3c1.7-6.5 6 1 2.2 4.6-5.6 5.4-7.3 16-16.2 17.5-2.4.5-6.7-1-8-2-.4-.3.4-2.6 2-1.5 2 1.7 6.6 2 9 .2 5-5 9-11.6 11-19zM250.6 159.5c-.5.5-1.7.4-1.8 1-.5 2.4 0 3.7-.5 6-.5 2.2-2 2.3-2 .5.2-2.4 2-5.7.7-6-1 0-1.6-1.3-.6-2 1.7-1.2 2.7-1 4-.6.3 0 .5.7.2 1z" fill-rule="evenodd" stroke="#000" stroke-width=".97315" fill="#fff"/><path d="M249.3 156.3c-2.4 2-4.5 3-6.7 5.6-1 1-1 2.4-1.4 3.8-.5 1.4-2.2 1.7-2.8 1.4-1-.6-.7-3.3-1.7-1.8-1 1.3-1.4 3-2.6 3-1 0-3.2-2.2-2-2.3 3.6-.3 3.5-3.2 5-3.4 1.4-.2 1.5 2.4 2.5 2 .7-.5 1-3.6 2-4.4 2.4-2.5 4.4-4 7-5.7 1.2-1 2 .8.8 1.8zM258 164.2c-2 .4-1.7 3-1 3.2.8.4 2.2.6 2.8-2.2.2-1.2.4 5.7 3 3 1.4-1.6 5 .3 6.5-1.7 1-1.3 1.4-2.3.5-4.2-.2-.6-1.7-.3-1.6 1 0 1.3-1 3-2 2.6-.7-.2.2-3-.4-4-.3-.3-.8-.3-1 .2-.6.6.3 3.4-1.2 3.7-2 .4-1-2-1.7-2.3-2.7-1.3-3 .3-4 .5zM272.6 159.6c1.4-.4 1-.4 3.2-2.2.8-.6 1 1.2 1 2-.3 1.2-1.8.4-2.2 1.5-.7 1.3-.4 4.7-.7 6-.2.7-1.3.7-1.4 0-.4-1.5.2-3.2 0-5.3 0-.7-1-1.8 0-2zM266 152c-.2 1.6-.2 2.8-.2 4 0 .7 1.6 0 1.6 0 0-1.3.3-3 0-3.6-.3-.3-1.2-.6-1.3-.3z" fill-rule="evenodd" stroke="#000" stroke-width=".97315" fill="#fff"/><path d="M205.6 121.3c0-2.3 3.4-2.4 3 .6-.5 3.8 7.3 13.5 8 19.5.4 4-2.4 7.6-5.2 9.8-3.4 2.6-8.6 2.3-11 .8-1.6-1-3-5.2-1.8-6.8.4-.6 2.2 6 6 6 5.4 0 9.7-4 9.8-7.6.3-6.2-8.7-16-8.8-22.3z" fill-rule="evenodd" fill="#fff"/><path d="M215 120c.6 0 2.4 2.4 2.3 3 0 .4-2 0-2.6-.4-.4-.4-.2-2.7.2-2.6zm-9 17c-1.5 1 .4 2.7 1.7 2 4.6-3 11.6-6.3 13-12.2.5-2 2.4-5.2 4.2-6 1.6-.5 4 3.3 5.8.3 1-1.6 4.3 1.2 5-.6 1-2.2.6-3.4.7-5.6 0-1.3-1.2-1.8-2 .5-.3 1 0 2-.2 2.6-.2.3-1 .6-1.4.3-.6-.3-.3-1.2-1.3-1.5-.3-.2-1-.4-1.2 0-1.2 2.2-1.8 4-3.5 2-1.5-2-2.2-5.3-3.3-.8-.4 1.6-2.8 4-4.2 4-1.8 0-1.4-4.8-5.3-4-2 .4-2 4.2-1.6 5.7.5 2 6.4.5 6 1.8-1 4.6-7 8.8-12.5 11.5z" fill-rule="evenodd" stroke="#000" stroke-width=".97315" fill="#fff"/><g stroke-linejoin="round" fill-rule="evenodd" stroke="#000" stroke-width=".5" fill="#fff"><path d="M169.2 158.5c-.3.8.7 2.8 1.8 3 1 0 1.5-2.3 1.2-3-.3-.5-3-.5-3 0zM174.6 166.5c-.7-.7-2.6 1.2-1 2.5.8.7 4 1.7 5 .2 1-2-1.3-9-.2-9.8.8-.8 4.6 4.7 6.5 5 4.3.7 3.2-7.5 8-7 3.2.5 3.5-3.5 3-6-.3-2.5-4.2-6-6-7.5-2.4-2-3.4 1.3-2 2.5 2 1.5 5.3 4.6 6 6.6 0 1-2.5 3-3.4 2.5-2.2-1.2-4.3-6.4-6.2-7.5-.6-.4-2.3.5-1.5 2 .8 1.8 4.6 4.5 5 6.3 0 1.7-1.8 5.3-3 5.3-1.5 0-5-4.4-6-6.4-.7-1-2.6-1-2.8.4-.3 2 .3 6.4.8 9 .4 2.6-1.5 2.8-2.4 2zM168 152.5c-.6.6 1.2 1.8 1.6 1.5.7-.6 3.5-3.7 3-4.8-.5-1-4.3-3.2-5-2-1 1.7 3.6 2.6 3 3-.5.3-1.8 1.2-2.7 2.3zM174.7 138.7s1.2 4 2.2 2.4c.7-1-2.3-2.3-2.3-2.3zM176.7 145.2c-.5.2-1.7 1.2-1 1.7 1.4.6 4.8 1.2 4-1.2-.4-1.4 5.2 0 4-4-.5-1-2.2-2.5-3-2.7-.6 0-2.4 1-1.2 1.5.8.4 3.3 2 2.3 2.8-1 1-1.7-.4-3-.2-.7.2-.3 2-.6 2.6-.2.3-1.2-.6-1.5-.4zM185.6 129.8c-.7.3-2 2.2-2 3 0 .6.5 1.2 1 1 .6-.3 1.7-2.2 1.8-3 0-.5-.4-1.3-.8-1zM190.2 129.3c-1.4-1.7 1.5-4.2 2.7-.8.7 2 9 12.8 10.5 16.5 1.2 2.4 0 3.4-1.5 1.7-4-5.3-7.5-12-11.8-17.4zM198.6 129.5c1.5-1.6 4.4-4.8 3.6-6.6-.6-1.7-2.4-1.5-2.7-1.2-1.8 2 1.3 1.6.8 2.3-1 1.8-1.8 2.8-2.2 4.4 0 .4.3 1.4.6 1z" stroke-width=".97315"/></g><g fill-rule="evenodd" fill="#fff"><path d="M169.2 158.5c-.3.8.7 2.8 1.8 3 1 0 1.5-2.3 1.2-3-.3-.5-3-.5-3 0zM174.6 166.5c-.7-.7-2.6 1.2-1 2.5.8.7 4 1.7 5 .2 1-2-1.3-9-.2-9.8.8-.8 4.6 4.7 6.5 5 4.3.7 3.2-7.5 8-7 3.2.5 3.5-3.5 3-6-.3-2.5-4.2-6-6-7.5-2.4-2-3.4 1.3-2 2.5 2 1.5 5.3 4.6 6 6.6 0 1-2.5 3-3.4 2.5-2.2-1.2-4.3-6.4-6.2-7.5-.6-.4-2.3.5-1.5 2 .8 1.8 4.6 4.5 5 6.3 0 1.7-1.8 5.3-3 5.3-1.5 0-5-4.4-6-6.4-.7-1-2.6-1-2.8.4-.3 2 .3 6.4.8 9 .4 2.6-1.5 2.8-2.4 2zM168 152.5c-.6.6 1.2 1.8 1.6 1.5.7-.6 3.5-3.7 3-4.8-.5-1-4.3-3.2-5-2-1 1.7 3.6 2.6 3 3-.5.3-1.8 1.2-2.7 2.3zM174.7 138.7s1.2 4 2.2 2.4c.7-1-2.3-2.3-2.3-2.3zM176.7 145.2c-.5.2-1.7 1.2-1 1.7 1.4.6 4.8 1.2 4-1.2-.4-1.4 5.2 0 4-4-.5-1-2.2-2.5-3-2.7-.6 0-2.4 1-1.2 1.5.8.4 3.3 2 2.3 2.8-1 1-1.7-.4-3-.2-.7.2-.3 2-.6 2.6-.2.3-1.2-.6-1.5-.4zM185.6 129.8c-.7.3-2 2.2-2 3 0 .6.5 1.2 1 1 .6-.3 1.7-2.2 1.8-3 0-.5-.4-1.3-.8-1zM190.2 129.3c-1.4-1.7 1.5-4.2 2.7-.8.7 2 9 12.8 10.5 16.5 1.2 2.4 0 3.4-1.5 1.7-4-5.3-7.5-12-11.8-17.4zM198.6 129.5c1.5-1.6 4.4-4.8 3.6-6.6-.6-1.7-2.4-1.5-2.7-1.2-1.8 2 1.3 1.6.8 2.3-1 1.8-1.8 2.8-2.2 4.4 0 .4.3 1.4.6 1z"/></g><path d="M304.2 151.4c-.4-1.3-2.4-3.2-2.2.2.4 6.3 9 4.3 11.6 2 2.4-2 .3 7 3.4 8 1.8.7 5-1.7 6.6-3.8 4.4-5.7 7.3-14 11.5-19.6 1.7-2.2-.8-3.8-1.8-2-3.7 6.2-8.3 18.8-13.3 22-4.2 2.7-3-3.3-3-5-.3-1.4-2-3.3-4-1.5-1.6 1-4 2-6 2-1.2-.2-2.3-.2-2.8-2.3zM221.2 136.6c1-.7 2.3 2 1.3 2.8-.8.5-2.4-2-1.3-2.8z" fill-rule="evenodd" fill="#fff"/><path d="M325.3 134.8c-1-1 1-5 2.5-3.4 3.8 4.5 5.6 19 6.7 29.8 0 0-1.7 1.5-1.7 1.2 0-5.7-2.3-23.4-7.5-27.6z" fill-rule="evenodd" stroke="#000" stroke-width=".97315" fill="#fff"/><path d="M223.5 131c-.4.2-1.3 0-1-.4 1.2-1.8 4-4.5 5.8-5.4.6-.3 1.6.7 1.2 1.2-1 1.7-4 3.6-6 4.6zM325.3 134.8c-1-1 1-5 2.5-3.4 3.8 4.5 5.6 19 6.7 29.8 0 0-1.7 1.5-1.7 1.2 0-5.7-2.3-23.4-7.5-27.6z" fill-rule="evenodd" fill="#fff"/><path d="M327.7 160c.7-2 10-17.4 11.2-20.8.5-1.7 3.2 2.8.6 5.2-2.3 2-9 13-10.3 17-.6 1.7-2.3 1-1.6-1.3z" fill-rule="evenodd" stroke="#000" stroke-width=".97315" fill="#fff"/><path d="M258 118c.3-1.7-2.5 0-2.6-2.2 0-1 3-2 4.5-.6 2 2.2.4 6-3.3 6.3-3 0-8.2 4.3-7.4 5.2 1 1 9 2 13.5 1 3-.3 2.3 2.3-.7 2.6-2.7.4-5 0-7.7 1-3 .8-4.5 5-6.2 6.6-.3 0-1.4-1.5-1-2 1.3-2 3.3-5 5.5-6 1.4-.5-3.8-.7-5.5-1.2-1.3-.4-1-2-.4-3 .6-1.4 5.6-6.4 7.5-6.3 2 0 4-.4 4-1.6zM233.2 128.7c-2.2-1.6.6-4 2.8-2.4 4.4 3.3-6.5 16-12.4 22-1 1-2-2-.7-3 4.2-3.7 8-8 11-12.5.4-.8 1-2.7-.8-4z" fill-rule="evenodd" fill="#fff"/><path d="M238.8 120.7c-1.2-3 2-4 2.4-2 2 9.5 7.3 16.6 11.3 23 1.2 2 .2 3.2-2.7 1.4-2-1.3-4-6.3-5-6.5-1.8-.3-6 8-14.8 5.7-2.2-.6-2-7.3-2-10.3-.2-1.5 1.3-1.8 1.4 0 0 2.8 0 8.5 3.5 8.7 2.7 0 9-4 10.4-7 1-3.3-3.2-9.8-4.6-13z" fill-rule="evenodd" stroke="#000" stroke-width=".97315" fill="#fff"/><path d="M215 120c.6 0 2.4 2.4 2.3 3 0 .4-2 0-2.6-.4-.4-.4-.2-2.7.2-2.6zm-9 17c-1.5 1 .4 2.7 1.7 2 4.6-3 11.6-6.3 13-12.2.5-2 2.4-5.2 4.2-6 1.6-.5 4 3.3 5.8.3 1-1.6 4.3 1.2 5-.6 1-2.2.6-3.4.7-5.6 0-1.3-1.2-1.8-2 .5-.3 1 0 2-.2 2.6-.2.3-1 .6-1.4.3-.6-.3-.3-1.2-1.3-1.5-.3-.2-1-.4-1.2 0-1.2 2.2-1.8 4-3.5 2-1.5-2-2.2-5.3-3.3-.8-.4 1.6-2.8 4-4.2 4-1.8 0-1.4-4.8-5.3-4-2 .4-2 4.2-1.6 5.7.5 2 6.4.5 6 1.8-1 4.6-7 8.8-12.5 11.5zM238.8 120.7c-1.2-3 2-4 2.4-2 2 9.5 7.3 16.6 11.3 23 1.2 2 .2 3.2-2.7 1.4-2-1.3-4-6.3-5-6.5-1.8-.3-6 8-14.8 5.7-2.2-.6-2-7.3-2-10.3-.2-1.5 1.3-1.8 1.4 0 0 2.8 0 8.5 3.5 8.7 2.7 0 9-4 10.4-7 1-3.3-3.2-9.8-4.6-13zM244 114.7c.6-1 3.5-2.2 4.3-3 .7-.6 1 .8.7 1.4-.5 1-3 2.8-4.2 3-.6 0-1-.6-.7-1.3zM251 115c.7-1.7 2.8-4.5 4.2-5.4.7-.4 2 0 1.8.6-.5 1.5-3 4.2-4.8 5.5-.5.4-1.3-.2-1-.6zM245 119.6c-.4.2 0 1 .3 1.2 1 .3 2.5.4 3.2 0 1-.7.5-4.6-1-2.5-.8 1.3-1.5 1-2.4 1.3zM266.4 118.3c1-.8 1.4-2.2 2.3-3 .6-.5 1.4 0 1.3 1.4-.2 1-1.5 2-2.4 2.6-.8.6-1.6-.6-1.2-1zM277 114.5c1.3 0 1.6 2.5 0 3-.8.3-1.6-2.8 0-3zM273.4 122.8c0 2.2 1 2 3.3 2 2 0 4 0 4-2 0-2.2-1.3-4-1.6-2.6-.2 1.4-.5 3.6-1.3 2.6-.7-.8-.4-1-1.7.4-.7.7-.8-.4-1.2-1-.3-.5-1.4.2-1.4.6zM258.4 134.4c-.5 3 0 7.3 1.5 7.3 1.8 0 5.8-6.6 7.7-10 1-2 3-2.3 2.2-.3-1.3 3-1.2 9.8 0 11.7.4 1.2 4.7-.8 5.4-2.3 1.2-2.8.2-7.8.7-11 .3-2 2-2.3 2-.4-.2 3.3-.5 9.4-.3 12.2.2 1.6 4.8 4 5.5-1 .4-3 2-6 0-9.3-1.3-2 1.8-1.8 3.5 1 1 2-1 5.3-1 7.8.2 3.8-2.8 6-5 6-2 0-3.2-2.3-4.8-2.3-1.8 0-3.7 2.7-5 2.6-5.8-.3-2.8-8.6-4.5-8.7-2-.2-4.2 8-6.6 7.8-2.4-.3-5-6.7-4-9.5 1-2.6 2.7-3.2 2.4-1.6zM286 121.3c-3-1.7 0-6 1.4-4.5 2.6 3 5.3 10.6 7 11.2 1.3.4 1.2-5.5 2-8.2.6-2 3-1.3 2.5 1.2-.2.8-3.2 10.5-3 10.8 2 4.2 4 8.3 5.4 12.7.5 2-1.7.7-2 .3-1.5-2.2-4-10.6-4-10.2-1.2 6-1.5 7.6-2.7 12.6-.4 1.6-2.8 1.3-2.2-1.5.5-2.3 3.8-13.7 3.7-14-2.7-4.7-5-8.4-8.3-10.4z" fill-rule="evenodd" fill="#fff"/><path d="M291 148.4c-1 0-2 1.7 1.8 2.4 5 1 10.7-.8 12.5-5.8 2-6 3.3-11.7 4.3-14 1.3-2.4 3-2.2 1.7-5.8-1-2.7-2.5-2-2.8-.5-1 4-4.3 16.2-5.4 18.5-2 4.2-6 5.8-12 5.2z" fill-rule="evenodd" fill="#fff"/><path d="M301.2 128.6c-.6-1.2-1.8-.3-1.6 1 0 1.2 1 1.8 2 1.8 1.2 0 3.5 0 3.5-1.8 0-1.3-1-2.4-1.7-1-.7 1.3-1.6 1.2-2 0zM302.5 123.7c-.4.2 0 1.7.4 1.7 1.6 0 4-.6 5.2-1.5.4-.4.3-1.2-.3-1.2-1.7 0-4.3 0-5.5 1zM316.7 127.3c1.3-2 4.6-2 3.4.7-.7 1.8-9 18-10.2 20-1.3 2.3-2.3 1.2-1.4-.6 1.2-2.3 8-19.5 8.3-20zM319.5 139.8c0-.4-1.8-.5-1.8 1.3 0 1.4 1.7 1.8 2 1.6 2.5-1.8-.6-1-.2-2.8z" fill-rule="evenodd" fill="#fff"/><path d="M327.7 160c.7-2 10-17.4 11.2-20.8.5-1.7 3.2 2.8.6 5.2-2.3 2-9 13-10.3 17-.6 1.7-2.3 1-1.6-1.3z" fill-rule="evenodd" stroke="#000" stroke-width=".97315" fill="#fff"/><path d="M315.8 147c-.5.2-1 1.8.2 2 1 0 5.3-.5 6.4-.4.8 0 1-1.5-.6-1.4-2 0-4.4-.4-6 0zM327.7 160c.7-2 10-17.4 11.2-20.8.5-1.7 3.2 2.8.6 5.2-2.3 2-9 13-10.3 17-.6 1.7-2.3 1-1.6-1.3z" fill-rule="evenodd" fill="#fff"/><path d="M343.4 145.3c1.7-6.5 6 1 2.2 4.6-5.6 5.4-7.3 16-16.2 17.5-2.4.5-6.7-1-8-2-.4-.3.4-2.6 2-1.5 2 1.7 6.6 2 9 .2 5-5 9-11.6 11-19z" fill-rule="evenodd" stroke="#000" stroke-width=".97315" fill="#fff"/><path d="M343.4 145.3c1.7-6.5 6 1 2.2 4.6-5.6 5.4-7.3 16-16.2 17.5-2.4.5-6.7-1-8-2-.4-.3.4-2.6 2-1.5 2 1.7 6.6 2 9 .2 5-5 9-11.6 11-19zM258 164.2c-2 .4-1.7 3-1 3.2.8.4 2.2.6 2.8-2.2.2-1.2.4 5.7 3 3 1.4-1.6 5 .3 6.5-1.7 1-1.3 1.4-2.3.5-4.2-.2-.6-1.7-.3-1.6 1 0 1.3-1 3-2 2.6-.7-.2.2-3-.4-4-.3-.3-.8-.3-1 .2-.6.6.3 3.4-1.2 3.7-2 .4-1-2-1.7-2.3-2.7-1.3-3 .3-4 .5zM272.6 159.6c1.4-.4 1-.4 3.2-2.2.8-.6 1 1.2 1 2-.3 1.2-1.8.4-2.2 1.5-.7 1.3-.4 4.7-.7 6-.2.7-1.3.7-1.4 0-.4-1.5.2-3.2 0-5.3 0-.7-1-1.8 0-2zM266 152c-.2 1.6-.2 2.8-.2 4 0 .7 1.6 0 1.6 0 0-1.3.3-3 0-3.6-.3-.3-1.2-.6-1.3-.3zM249.3 156.3c-2.4 2-4.5 3-6.7 5.6-1 1-1 2.4-1.4 3.8-.5 1.4-2.2 1.7-2.8 1.4-1-.6-.7-3.3-1.7-1.8-1 1.3-1.4 3-2.6 3-1 0-3.2-2.2-2-2.3 3.6-.3 3.5-3.2 5-3.4 1.4-.2 1.5 2.4 2.5 2 .7-.5 1-3.6 2-4.4 2.4-2.5 4.4-4 7-5.7 1.2-1 2 .8.8 1.8z" fill-rule="evenodd" fill="#fff"/><path d="M250.6 159.5c-.5.5-1.7.4-1.8 1-.5 2.4 0 3.7-.5 6-.5 2.2-2 2.3-2 .5.2-2.4 2-5.7.7-6-1 0-1.6-1.3-.6-2 1.7-1.2 2.7-1 4-.6.3 0 .5.7.2 1z" fill-rule="evenodd" fill="#fff"/><g fill-rule="evenodd" stroke="#000" stroke-width=".5" fill="#fff"><path d="M238 347.5c1 1.8 2 1.7 2 0l-1.4-8c-.3-2.3-2.6-1.8-2 .5.8 2.6.6 5.4 1.5 7.5zM245 347.6c0 1 1.5.8 1.5 0 0-2.2-.3-5.4.3-6.5.5-.8 2.6 0 4.4-.3.8 0 .6-2.2-1-2-1.8 0-6.6-.5-7 1.2-.3 3 2-.2 2 7.6zM259.2 338.6c1.2 1 1 2-.4 1.6-1.7-.4-3-.2-3 .7 0 .8 1 1 2 2s-.7 1-2 3c-1 2 1.2 2 3.7 1.5.7-.2 1.5 1 0 1.8-1.2.6-4.4 1.4-5.2-1-1.5-4 2.5-4.5.8-5.5-.8-.6-1-1.4-1-2.6.4-2.5 4.2-2.2 5.2-1.6zM264.5 347.4c1.6-2.8 2.6-5 3-7.3.4-2 2-2.3 2.3-.4.4 2.4 1.8 4.8 3.5 7 1 1.4-1 2.6-1.8 1.5-1.4-1.7-1.5-4.2-2.3-4.2-1 0-2 2.8-3.2 5-.3.5-2 0-1.5-1.4z" stroke-width=".97315"/></g><g fill-rule="evenodd" fill="#fff"><path d="M238 347.5c1 1.8 2 1.7 2 0l-1.4-8c-.3-2.3-2.6-1.8-2 .5.8 2.6.6 5.4 1.5 7.5zM245 347.6c0 1 1.5.8 1.5 0 0-2.2-.3-5.4.3-6.5.5-.8 2.6 0 4.4-.3.8 0 .6-2.2-1-2-1.8 0-6.6-.5-7 1.2-.3 3 2-.2 2 7.6zM259.2 338.6c1.2 1 1 2-.4 1.6-1.7-.4-3-.2-3 .7 0 .8 1 1 2 2s-.7 1-2 3c-1 2 1.2 2 3.7 1.5.7-.2 1.5 1 0 1.8-1.2.6-4.4 1.4-5.2-1-1.5-4 2.5-4.5.8-5.5-.8-.6-1-1.4-1-2.6.4-2.5 4.2-2.2 5.2-1.6zM264.5 347.4c1.6-2.8 2.6-5 3-7.3.4-2 2-2.3 2.3-.4.4 2.4 1.8 4.8 3.5 7 1 1.4-1 2.6-1.8 1.5-1.4-1.7-1.5-4.2-2.3-4.2-1 0-2 2.8-3.2 5-.3.5-2 0-1.5-1.4z"/></g><path d="M398.4 265.2c-.2.6 1.4 1.4 1.8 1 1.7-2 4-6 4.3-8.4 0-.7-2-1.5-2.6-1-1.6 2-3.2 6-3.6 8.4z" fill-rule="evenodd" fill="#fff"/></svg>