<svg xmlns="http://www.w3.org/2000/svg" height="480" width="640"><path d="M0 0v480L640 0H0z" fill-rule="evenodd" fill="#ffca00"/><path d="M0 480h640V0L0 480z" fill-rule="evenodd" fill="#ff6500"/><g stroke="#000"><path stroke-linejoin="round" d="M222.4 340.6s-18.3-.7-26 8.6c-7.5 9.3-36.6 35.2-39 37-1 .8-24.5 5.5-24.5 5.5 11.4-11.4 24.2-15.6 34.7-35.6-5.2 10-9.2 14.5-15.4 20-5.3-2.4-19 8.3-30.7 13.4.2-.4 12.7-10.5 19.5-23.4-3.8 3.4-12.6 11.8-16.5 15.2-9 1-13.3 11-16.8 12.4-21.5 7-15 2.7-20 7.4-2 3.8-6.2 7-8.7 7-20.2 2-20.8 8.8-31 12.6-6.7 2-11 0-14.6-2.6 5-1.8 11.3-1.4 15-5.4 0 0 18.6-22 35.5-24.5 9.6-1.5 11-7.2 11-7.2s-28.6 8-33.4 12.2c-4.6 1.3-12.3 2.4-19.2 1.7 12.7-4.7 20.5-11 24-15 2-2.2 14-2.3 14-2.3s20-8.6 20.3-8.6 15.2-8.6 15.2-8.6-17.8 4.6-18.2 4.6-20.7.8-20.7.6c5.5-7 25-7.4 27.7-9 6.5-6.5 26.8-4 27.6-5 1-.7-21.2-7.5-30.5-5.6-9.3 2-23.4-9.6-23.4-9.6s19.4-3 25.7-.3 29.2 8.6 30.4 7.5c1.3-1 26.2-10 29-6.7-2.4-5.3-5.5-5-5.4-9.7l14 .7s7-9.4 6.8-9.8c-6.5-2.5-8-9-8-9 8.4 1.3 11.2.2 11.2.4s7.4-8.2 7.4-8.2l5-8 3.8-17.2c-7.7 4-22.3-.2-22-.5 15.8-5.5 20.6-13.6 28-14-3.2-15.8 6-21 6-21 0 .3 6.3-13.6 6.3-13.6s-6.7-2.3-19.4 0c12-14.3 31-9 31-9 4-12.7 16-8 16-8.5-3-7 6.2-10.4 12.2-10.2-.8-5-6.3-10.5-8.4-14.7 10 6.4 20.5 4 25.7 13.3 3.2.2 6.4.6 9.5 1l10.7 1.8 11 1c2-5.3-4.8-4.6-3.2-17.6 13 6.4 12 19 22 26.2 8-.5 10.6 2.3 14.5 6 4.6-1 10.3 1 13.2 5.7 0-5 1.3-12 7.6-3l11.6-.5s-15.3-22-28.7-9.7c4-13.5 17.7-12.2 17.7-12.2s-3.6-6.2-3.4-13c-7.3-3-9.6-15.4-9.8-15.2-.3.2-12.6 2.5-18 17-10.6-11.3 3.6-25.5 4.4-28 1.5-5.4 3-10.8 4.3-16.2-1.2-5.3-.7-8 4-12-3-3.5-1.6-6.7 2.2-8.8-1.3-2.3-.2-4.6.4-6.8l51.4-3 11.6 16 2 8.6-4.6 11.3 13.3 15.8 4.8 5 10.2 6s9.5 4 9.7 4.2c0 .2 11.3 3 11.7 3 .4.3 9.3 5.4 10.7 5.8s28.7 0 28.7 0l15.2-1.3-.2 25c-2.7.5-5.3 1-8 1.8-3.4 3-4.4 4.7-10.3 9-8.2 2-14 1.7-14.3 1.7-.2 0-8.2-2-8.4-2.3-.2-.2-9-3-9-3l-14-3.3c-5.7-1-8 2.8-8.4 3.5-.4.6-2.7 28-2.7 28l-5 12.6c0 .3-4.5 8.4-8 11.2-.6 3.4-1.2 7-9.2 13-1.7 5.2-.4 10.4 5.4 11.4l8.5 3.4 12.6 3 14 3-10 21.6-24.4-4-16.5-4.2c-.3 0-18-9.5-18-9.5l-5.6-13c0-.4-5.2-11-5-11.5.2-.6.2-6.7.2-7 0-.2-17-3.5-17-3.5l-18-2-19.5-5.2-15-4.4-9.6-3.4-10.6-.8s-14 2-14 2.3c0 .2-12.5 3.6-12.5 3.8l-8 18.7-4 14.3 6 11 2 30.5-5.4 11.4 3.8 8.4L258 369l4.4 8.6-27.6 8.8-3.6-14.3s-9.4-23.2-9.2-23.4c.2-.2.4-7.8.4-8z" fill-rule="evenodd" stroke-linecap="round" stroke-width="1.0066579999999998" fill="#fff"/><path stroke-linejoin="round" d="M250.3 307c5.7 1.7 5.8-9.6 10.4-13.8 3.6-15 23.3-14.6 29.5-4.4-20.8-1.6-12.8 10-19.2 15.2 16.4-7.8 31.5-6.4 35 4.4-6.7 12.6-13 24.2-19.5 36.7-10.5 5.4-15.2-1.8-26.7-8.4-2.7-.4-5.4-1-8-1.3-.3-9-1.2-19.2-1.5-28.3zM263 377.5s28-1 28.2 12.6c2.6 7.8 10.7 7.2-1.7 27.7.5-26.3-16.4-27-28.2-26.4 14.7 2 17.4 24.2 11 32.7-17-.6-31-4.3-47.6-5-5.8-6.3-12.7-21.4 9.8-32.2l28.6-9.3zM450.7 302.8l8-3s24.8-30.2 44-13.5c-13.2 2-24 17.7-24 17.7 7.2-5.2 34-3.6 31 19.8-28.5 8.5-29.4 23.5-27.7 41.3-19-.2-40-10-40.8-40.6 2.5-7.3 7-14.3 9.5-21.6zM553 175.6c0 10.3-8.4 18.7-18.7 18.7s-18.7-8.4-18.7-18.7S524 157 534.3 157 553 165 553 175.5z" fill-rule="evenodd" stroke-linecap="round" stroke-width="1.0066579999999998" fill="#fff"/><path stroke-linejoin="round" d="M508 209.7c7 5.3 15.2 7.2 30.4 9 8-4.7 22.7-4.5 23.8-15 8-2.7 9.7-12.3 3.2-15-.3-2.8 0-13.7-12-14 1.5 4 3 15.2 3 15.2-6.4-.8-10.7 10.2-10.7 9.8 0-.3 3.5-17.5-13.5-18 5.8 9.7-1.7 17.5-1.7 17.5-1.8-2.2-1.8-6-5-7.3-8.6-3.6-10.2-14-9.8-19.4-4.4 3.7-7.8 7.5-7.6 12.4.2 8.2-.2 16 0 24.7z" fill-rule="evenodd" stroke-linecap="round" stroke-width="1.0066579999999998" fill="#fff"/><path d="M533 110c14.4-2 27.3-5.7 35.8-12 2.8-2 26 1.8 37.8-5.4-18-1-30-3.6-33.2-2.5-10 3-33.7 9.6-35.5 8.8-.3 1.6-3.2 9-5 11.2z" fill-rule="evenodd" stroke-linecap="round" stroke-width="1.0066579999999998" fill="#fff"/><path stroke-linejoin="round" d="M538 98.6c10.2-2.4 12.6-7.4 18.7-11 9.3-3.8 14.5-4 23.8-13.5-24.2 3.4-27 4.2-27 4.2-5 3-11.8 7.8-17.3 15 1.7 1.6 1.6 3.4 1.7 5.4z" fill-rule="evenodd" stroke-linecap="round" stroke-width="1.0066579999999998" fill="#fff"/><path stroke-linejoin="round" d="M536.2 93s9.4-10.6 9.5-15c.4-1.6 4.8-4 6.5-10 1-16 2.5-16.4 2.5-16.4 7.6-4.2 6-13.5 9.5-20.4 0 0-11 12.4-17.3 19.2-1.8 3.6-2.2 12.8-2.3 12.8-1.8 4-6.3 4.7-9.8 11.5-2 5.3-.4 10-3.3 16.8 2 0 3 .5 4.5 1.5zM515.4 340.4c0 14-11.3 25.2-25.3 25.2s-25-11.3-25-25.2S476 315 490 315s25.4 11.4 25.4 25.4z" fill-rule="evenodd" stroke-linecap="round" stroke-width="1.0066579999999998" fill="#fff"/><path stroke-linejoin="round" d="M270.8 425.8c0 12.7-10.3 23-23 23s-23-10.3-23-23 10.4-23 23-23 23 10.3 23 23z" fill-rule="evenodd" stroke-linecap="round" stroke-width=".99078" fill="#fff"/><path stroke-linejoin="round" d="M312.3 325.6c0 11-9 19.8-19.8 19.8s-19.8-8.8-19.8-19.8 8.8-19.7 19.8-19.7 19.8 8.7 19.8 19.6zM222 348.6c-7.3.5-14.6 3-14.3 3 .2.4 7.7 4.4 6.7 5.6-1 1.3-11.2 12.6-10.6 12.6 7.6 2.2 17.8-2.5 17.8-2.5s-4.2 6.7-5 8.7c7-3.7 13.3 1 15-2.5l-9.7-25zM372 283c-4.2 2.6-18.8-.4-18.8-.4 4.3 4.4 7 7.6 17 8.6-7.2 3.2-11.8 7.7-20 10.5 13 5.5 21.6-3.6 21.6-3.2s2.5 6 .5 13.8c5-1.3 6.3-6.5 10-5.4-3-7.7-7-16.5-10.2-24zM453.2 216.2c-.4 2.4-1 6.7-10.7 11.7 6.4 2.7 17.2-3.4 17.2-3s-8.8 15.5 6.3 22c-.4-11.7 1.6-21 1.6-21s5.6 7.5 9.6 16.5c6.5-7-2.3-20.2-2.3-20.2-7.3-1.7-15-4.4-21.8-6zM462.4 147s19.5 13.2 19.6 15c0 1.8-1.8 9-8 12.4 15 1.8 16.7-7.8 16.7-7.8s-3 10.8-.6 14c8.4-5 8.2-13.3 8.2-13.3s5.6 8.4 4.3 13c1.8-1 11.4-11 2.7-16 2-6.4 2.8-10.6-4.6-13.5-.8-4 1.3-5.3 2-8 0 0-7.3-2-8 4.2-.8 1.2-23.4-13.3-23.7-13.4l-8.6 13.4z" fill-rule="evenodd" stroke-linecap="round" stroke-width="1.0066579999999998" fill="#fff"/><path stroke-linejoin="round" d="M467.6 139s18 9.6 19.3 12" fill-rule="evenodd" fill-opacity=".3" stroke-linecap="round" stroke-width="1.0066579999999998" fill="#fff"/><path stroke-linejoin="round" d="M530.7 91.5c-2.4 0-12-3-18.2 1.6-3-4.5-6-8-15-6.2 0-4-1.6-3.6-3.8-5-2.3-5-6-7-13-4-6.3-6.3-16.3-6.5-23.3-1.6-10.6-3.2-24.7.5-51 .2-1.8 0-10.8 3.2-5.2 10.8-11-6.8-15.4 5.6-4.6 7.6 2.7 2.6 5.6 8.3 5.6 8.3s-19-13.5-29.4 1.7c-3.3 15.3 13 4.3 21 10 5 4.4 9.5 9 14.4 13.2 8-1.8 15-1.8 23-2.2-7.3 2-13.4 1.3-20.7 3.4 1.8 2.4 4.7 3.2 11 3L408 137c8.3 6.3 18.7 2 26.6 3.2-5 7.5-15.3 15.5-28.4 12 5.6 8.8 16.8 7.7 28.2-4 9.5 1.7 15.7 3 28-1.2.5-.8 9.4-14 9-15.3 1.7.5 26.4 9.3 28 12 0-3.3 4.8-6.8-24-14.8-5.4-4.5 14-10 14-10l-.4 8c5.4-3.4 5.7-4.7 7-6.7 2-1.3 6.2 2.6 6.2 2.6l.3 7c2.4-1 3.7-1 5.4-3.4s4.7 2.7 4.7 2.7c5 .5 13.3-1.8 17.5-8.7-2-7-1-9 2.7-10.4 6-10 7.5-18.7-2.3-18.7z" fill-rule="evenodd" stroke-linecap="round" stroke-width="1.0066579999999998" fill="#fff"/><path stroke-linejoin="round" d="M494.5 147s-3 4-2.5 11.3" fill-rule="evenodd" fill-opacity=".3" stroke-linecap="round" stroke-width="1.0066579999999998" fill="#fff"/><path stroke-linejoin="round" d="M406.6 139.7s7.8 12 10.5 12.6c2.7.7 21 19.4 22 20.2 1.2.5 11.5.2 11.5.2-7.6-6.5-14-13.3-20.8-20l-10.7-5.4-5.6-7.7c-1.8-.5-3.7-1.4-5.4-2.8l-1.4 3z" fill-rule="evenodd" stroke-linecap="round" stroke-width="1.0066579999999998" fill="#fff"/><path stroke-linejoin="round" d="M482 162c3.4-.8 8.2 2 8.6 4.5 1.8-1 6-1 7.5.4.8-1 3.8-3.8 7-2.6M494.6 147s2.5 2.2 6 1.2" fill-rule="evenodd" fill-opacity=".3" stroke-linecap="round" stroke-width="1.0066579999999998" fill="#fff"/><path stroke-linejoin="round" d="M535.8 156.7c4.2-.6 38.5-20.6 46.8 4.7-3-21.4-18.6-21-18.6-21s-.7-10.2-15-8.6c9.3 7 1.4 12.6.7 13.6-2.5-6.6-3.6-10-11-13 3 11.7-3.4 13.2-5 18.8-3.4-2.4-6-6.8-8-10-2.6 7.6-.3 12.2 2.7 16.2 2.7-.6 5.2-.8 7.4-.7z" fill-rule="evenodd" stroke-linecap="round" stroke-width="1.0066579999999998" fill="#fff"/><path stroke-linejoin="round" d="M530.2 120.7c1.4 2.4 7 9.3-2.8 22.6l-4.8-7s-8.3 5.5-7.3 24c-3-7.4-7.8-16.8 1.8-31-6.8 11.2-9 12.4-14.4 12.3 8.2-5.8 10-12 10-12 1.6.4 10.7 0 17.6-9z" fill-rule="evenodd" stroke-linecap="round" stroke-width="1.0066579999999998" fill="#fff"/><path d="M524 90.5c1.8 6.8-3.2 11.5-7 15 8.3 16.5-18.5 15.2-8.8 0" fill-rule="evenodd" stroke-linecap="round" stroke-width="1.0066579999999998" fill="#fff"/><path d="M498 107.8s-2 2.6-.5 6M486.5 108c2.4.6 4.4 3.7.5 6-1.5 1-9.3-2.7-13.3 5" fill-rule="evenodd" fill-opacity=".3" stroke-linecap="round" stroke-width="1.0066579999999998" fill="#fff"/><path d="M413.3 92.8c-3-.3-4.7 1.3-1 5M416.3 82c-3.7-1.6-5.4 2.2-1 5.3M426.8 82.3c-3.2-3-6 2.3-.8 4.3M442.7 82.3c-3.3-2.8-4.4 1.3-3.4 2.7" fill-rule="evenodd" stroke-linecap="round" stroke-width="1.0066579999999998" fill="#fff"/><path d="M462.5 125.6c0 8.6-7 15.5-15.6 15.5s-15.6-6.8-15.6-15.4 7-15.6 15.5-15.6 15.5 7 15.5 15.6z" fill-rule="evenodd" fill-opacity=".3" stroke-linecap="round" stroke-width="1.0066579999999998" fill="#fff"/><path stroke-linejoin="round" d="M461.6 130.7c-.4-1-10-10.4-13-9-2.5 0-10 16.5-9.7 17.2 7.7 5.4 19.8.5 22.6-8.3z" fill-rule="evenodd" fill-opacity=".3" stroke-linecap="round" stroke-width="1.0066579999999998" fill="#fff"/><path stroke-linejoin="round" d="M456.5 125.7c-1.2-.8-2-1.4-3 0-1 1.6-6.8 15.4-6.8 15.4M474.2 94.5c-10.4-5.8-29.7 2.8-16.8 9-11-3.5-10.5 6-10.5 6M452 84.7c4-6 9.8-8.2 13.5-.5 5 6.6 14.3 1.7 14.3 1.7" fill-rule="evenodd" fill-opacity=".3" stroke-linecap="round" stroke-width="1.0066579999999998" fill="#fff"/><path d="M423.6 89.8s-4.6 2.2-.3 5.5M447 87s-4.4.7-3 5.5" fill-rule="evenodd" stroke-linecap="round" stroke-width="1.0066579999999998" fill="#fff"/><path d="M442 95.3s-4.5 0-3 5M437 103.4c-.2.2-5.6-2.3-2.8 4.6" fill-rule="evenodd" fill-opacity=".3" stroke-linecap="round" stroke-width="1.0066579999999998" fill="#fff"/><path stroke-linejoin="round" d="M457.6 76.2c-19.4-11.8-40-35.6-68.3-26.6 28.7 5 46.2 21 46.8 26 10.7-1 13.6-.6 21.6.6z" fill-rule="evenodd" stroke-linecap="round" stroke-width="1.0066579999999998" fill="#fff"/><path stroke-linejoin="round" d="M429.3 75.7c-2.5-3-12.3-20.7-32-20.4 15 7.8 24 18.4 25 21 2.8 0 4.8-.4 7-.6z" fill-rule="evenodd" stroke-linecap="round" stroke-width="1.0066579999999998" fill="#fff"/><path d="M412.3 76.5s2.3-16.5 5.5-18.5c3.3-2-10.8-4.5-10.6 10-12-9.7-23-8-25-7.3-1.7.6-27.7-.6-30.8 5.2 19.2-.5 24.7.7 26.4 2.7 11.8-3 18.4-1.3 26.3 8 3.7-.6 8.3 0 8.3-.2z" fill-rule="evenodd" stroke-linecap="round" stroke-width="1.0066579999999998" fill="#fff"/><path stroke-linejoin="round" d="M393.8 85.2c-4.7-4.7-8.7-7.6-23-8.8-2-.3-7.5-1.4-11-2.6 9.2-6.3 36.7 2.6 39.8 6.7-1 2.8.2 4.7 1.7 6.6-2.5-1.5-4.8-2-7.5-1.8z" fill-rule="evenodd" stroke-linecap="round" stroke-width="1.0066579999999998" fill="#fff"/><path d="M403.7 77s-7-6.5-12.6-6.4c3.3 2 7 7.4 9 9.4 1.6-1.8 1.2-1.7 3.7-3z" fill-rule="evenodd" stroke-linecap="round" stroke-width="1.0066579999999998" fill="#fff"/><path stroke-linejoin="round" d="M389.2 71c-.2 0-12 7.3 1.2 17-.8 6 6.5 7 6.5 7l5.3 8c-11.6-7.7-21.4-5.8-25-2.6-7-10.3-19-12-23.4-13.3-5.6-1-20.7-2.3-21.7 11.4-14.6-14.3 8.4-20.4 12.4-20 4-.7 26 3.6 27.4 6.4-1.2-13 10.7-20 17.2-14zM432.7 118.4s-38.8-7.2-51.4 1.4c-12.6 8.7-14.3 21.4-32.7 23.4-18.3 2-20.3 5.4-27 15 10-3.3 32-10.3 47.2-7.2 6.2-7 9.7-10.3 9.2-10.5 4.7-15.5 37.6-21.5 53.2-16 .3-3.8 2-5.6 1.5-6zM374 112.6l-58 1.7c-5.2 1.6-11.6 6-12.5 7.2-1 1.3 2.5-13.6 10-13 10 1 37 0 37 0 8-3 17-6.2 22.5-4-2 4.8 1 8 1 8z" fill-rule="evenodd" stroke-linecap="round" stroke-width="1.0066579999999998" fill="#fff"/><path d="M479.8 95.6s-16-4.8-11.8 11.6c6.5 8.2 15.7-4 15.6-5.2" fill-rule="evenodd" fill-opacity=".3" stroke-linecap="round" stroke-width="1.0066579999999998" fill="#fff"/><path stroke-linejoin="round" d="M436 114.2c-3.4-5.8-25.5-13.7-33-11 12 5.7 29.4 11.4 30.4 14.6 1.5-2.6 2.7-3.6 2.7-3.6z" fill-rule="evenodd" fill-opacity=".3" stroke-linecap="round" stroke-width="1.0066579999999998" fill="#fff"/><path d="M510.6 94s-13.3 3.8-18.3.8-17.3-7.4-11.8-17" fill-rule="evenodd" fill-opacity=".3" stroke-linecap="round" stroke-width="1.0066579999999998" fill="#fff"/><path stroke-linejoin="round" d="M375.2 98s-34-.8-39.5 9.3c22-5 38.3-4.4 38.3-4.4l3-3-1.8-2z" fill-rule="evenodd" stroke-linecap="round" stroke-width="1.0066579999999998" fill="#fff"/><path d="M437 90s-7.8.3-4 5.8" fill-rule="evenodd" stroke-linecap="round" stroke-width="1.0066579999999998" fill="#fff"/><path stroke-linejoin="round" d="M508.3 191.5s11.3-.4 12.6-2M556.4 190s4.7 3.4 9-1.3M534.4 190.8s3.2 6 11.4 3.4M516.3 203.6s-2.5 6 9.5 5.5c3 2 1 8 1 8M532.3 175s6.7-.4 8 2.6M534.8 166.4s2.3.2 3 3c.8 2.7 3.5 1.3 5 0M503.8 340.2c-6-5.6-18.6-5.7-12.6 8.2 2-6.4 6-8.8 12.6-8.2zM501.3 348.5c-1.6-1.2-2.5 1.2-2 1.7M505.6 307.7s-9-1-5.5 9.5M478.7 284s-1.2 10.6 7.2 11.8M466.3 350s-8-3.4-10.3 7.3M459 300s0 9 4 12.3M455.6 322.4c-.2 0-13.2 5-13.2 12M245.7 426.6c0-.2 8.4-8.8 10.2 1-.3 3.6-2 7-2 7M253 428.7s-4.6-.3-5.2 2.6M273.6 402.6c0-.2-10.6-3.3-12 5M219 408.2s8.8-5 13.6.5M291.3 390.4c0-.2-8 0-9.3 5.4" fill-rule="evenodd" stroke-linecap="round" stroke-width="1.0066579999999998" fill="#fff"/><path stroke-linejoin="round" d="M409.3 156c-1 1-.8 1-1.8 1.2-1 .3-2 .4-3 .4-.8-.3-1.7-1-2.5-1.6-.7-1-1-1.6-1.4-2.5 0-.6-.3-1.5-.5-2l1.4 2.4 1 3.4c.3 1.3.4 2.5.4 4-.2 1.4-.6 2.8-1.2 3.8-1 .4-1.3.6-2.5.8-1 0-1.5-.2-2.5-.6-.5-.7-1.5-1.7-2-2.5-.4-1.2-.6-2.2-.7-3.4l-1.2-2c-.2-.8-.6-1.2-.8-2-.3-.7-1-1.4-1-2" stroke-linecap="round" stroke-width="1.0066579999999998" fill="none"/><path stroke-linejoin="round" d="M261.4 391.3s-6 4.7-5 8.7M293.5 320.6s-9.5 2.3-4.7 10.7M293.4 325s-2 6.7 1.3 9.2M298.7 325.4c.2.4-1.3 7.2-3.3 8.3M288 299.3s-.5 5.7 2 6.7M270.6 282s-2.3 7 6.4 9.2M254.7 304.4c0 .3 2.3 11 7 10.7M272.6 325.5s-11.8-6.6-13 10.8" fill-rule="evenodd" stroke-linecap="round" stroke-width="1.0066579999999998" fill="#fff"/><path d="M477.4 97c1.2-1 5.2-2.4 6.3 3.6 1 6-7 5.4-7.2 4.4-2.2-1-2.3-5.6 1-8zM494.6 83s-10.5-1.3-9.5 7.5c6.2 5.4 11 0 12-3 .4-2 .3-3.8-2.4-4.5z" fill-rule="evenodd" stroke-linecap="round" stroke-width="1.0066579999999998"/><path stroke-linejoin="round" d="M350.4 113.4s1.2 9.4-6.3 7.2 11.7 4.7-3 7.6c-3 4.3-2.6 5-2.6 5s8-.8 3 9.8c-1.8 5.7 3-12.4 18-3.2-7-6.7-2-6.6 7.7-6.3-13.2-2-12.5-14.5 7-8.5 0-1.8-3.6-7.3 2.8-10.4 12.6-3.4-26-.6-26.4-1.2z" stroke-linecap="round" stroke-width="1.0066579999999998" fill="none"/><path stroke-linejoin="round" d="M347.3 121c2 1 10.2 16.4 15.8-8-2.4-.5-12.5.4-12.5.4.2 3.7-.5 6-3.2 7.6z" stroke-width="1.0066579999999998" fill="none"/><path stroke-linejoin="round" d="M344.6 127.3c-.5 1-1.2 3-1.5 4 0 1 0 1.7.2 2.3 0 1 .4 1.7.8 2.5.4.6.5.8 1.2 1 .5.2 2.7.2 3.4.3h2.3c1 0 2 0 3-.4.7-.3 1.2-.5 1.5-1 .7-.4.7-.7 1-1.4l1-1.5c.3-.4.4-.6.4-1.2V130c0-1-.2-1.7-.3-2.5 0-.4-.3-.7-.7-.5-1.4.5-3-.6-4.5-.6-1.6-.2-2.4-.6-4-.8-.5 0-3.5 1-4 1.7zM491 186.4c-.5 0-.2 0 1 .6l2 1 1.2 1.5.8 2.2c0 1 0 1.7-.4 2-.4 1-1 1-1.4 1.7l-2.3 1-2.5 1c-1 .4-1.8.4-3 .5l-4.6-.3c1 0 4 0 4.8-.2 1 0 1.8 0 2.5.6l2.2 1c.6 0 1.7.2 2.3.5.3.6 1 .8.6 1.4-.4.5-1.3.8-2 1-.6.3-4.7 1-5.2 1.4l4.5-.6c1.2 0 2-.2 3 0 .8 0 1.5.5 2.3.8.6.7 1.2 1 1.7 1.8.6.6.8 1 .8 2-.3.6.2 2 0 2.8l-.8 2.7" stroke-width="1.0066579999999998" fill="none"/><path stroke-linejoin="round" d="M474.3 186.6h.3c-.6 0-.3 0 .8.2.7.5 2 .7 3 1l2 1c.5.4 1.3 1 1.7 1.5 1 .3 1 .8 1.8 1.2l.6 2.5c0 1-.5 1.3-1 2-.5.4-.8 1-1.7 1.3-.8.3-1.8.6-3 .8-1.8.4-3.5.8-5.2 1h-1.8c1 0 2.4.2 3 .5 1.3 0 2.8 0 3.7.4 2 0 3.7.5 5.6.5.3.6.6 1 .8 2-.5.2-1 1-1.3 1.3-.6.4-1.2.8-2.2 1-1 .4-2.4.4-3.7.4H471s-1.6-.2-.7-.2c.8.4 2.5.8 3.6 1 .7.3 1.2.7 1.6 1.3l1.6 1.4c.3.5.4 1 .4 1.8 0 1.3-.5 1.3-1.4 2-1 .7-1.8 1-3 1h-3c-.8 0-5.5-3-6-3 .7.2 5.3 3.2 5.7 4v2.8c0 1 0 1.7-.6 2.2 0 .8-.2.7-1 .7l1-.7c0 .8-.2.7-1 .7" stroke-width="1.0066579999999998" fill="none"/><path stroke-linejoin="round" d="M484.6 202.8h1c.7.4.7 1 1.6 1.2l2 1c.4.5.5.8.5 1.7 0 1 .2 2.3-.2 2.8-.4.4-1.7.4-2.3.6-.8.4-1.6 1-2.3 1-1 .2-2.6 0-3.3.6l-2.6.2c-.6 0-1 0-1.4-.2 1 .3 2.4.7 3.5 1.2 1 .3 1.6.7 2.3 1.2.8.6 1.3 1 1.5 2 .4.5.4 1.2.4 2.3l-.6 2.3c-.5.6-1 .7-1.7 1.2l-1 .2M466.4 186.4l2 1c1.2.3 2 .8 3 1 .3.6 1 1 1 1.7.8 1 1 1.5 1 2.6 0 1 0 1.3-1 1.6-.8.2-1.6.4-2.5.4-1 0-1.8.3-2.6.4-.6.3-1.8.2-2.7.2l-3.3.3h4.2c1.2.3 2.4.3 3 1 1 .3 1.4 1 2.3 1.4.3.5.8.8 1 1.5-.2.8-.6 1-1.5 1.2-.6.3-1.8.2-2.7.2-.6-.4-2-.3-3-.3h-2l3.2 1c.7.3 2 .6 2.4 1 .4.6 1 1 1.2 1.5.5.4.6 1 .3 1.6-.2 1-.5 1.6-1 2-.6.5-1.2 1-2.2 1.5-1.5.6-2.8.8-4.5.8h-2.7c-1-.4-2-.5-2.8-.7-1-.2-2-2-3.2-2 .7 0 1.7 2 2 2.4.2.6 0 1.8 0 2.7-.2.5-.2 1.6-.5 2.2 0 .7 0 1.7-.3 2l.4-2c0 .7 0 1.7-.3 2" stroke-width="1.0066579999999998" fill="none"/><path stroke-linejoin="round" d="M455 181.3s.7.5 1 1l1.6 2.3.8 2.2c.4.7.5 1.6.6 2.5 0 1 0 1.8-.6 2.4-.2 1-.7 1.2-1.4 1.5-.7.3-1.4.4-2.5.4h-3 4.6c1.6 0 2.5.2 3.2.8 1 .2 1.6.7 2 1.2.8.5 1.4.7 1.7 1.5v2.7c0 1.2-.3 1.2-1.3 1.4h-3l-2.6-.3c-.5 0-1.3-.7-2-1 .6.6.5 1.8.5 3 .2.6.2 1.5.2 2.5s-.3 1.4-1 2h-7.4c-1.4 0-2.6-.3-4-.4.5.3.5 1 .6 2 .2.5 0 1.2 0 2-.2.8-.4 1.4-.8 2-.2 0-.3 1-.5 1" stroke-width="1.0066579999999998" fill="none"/><path stroke-linejoin="round" d="M445 178.7l1 .8c.7.5 1 1 1.6 1.8 0 .8.4 1.5.6 2.3 0 1.2-.2 1.6-.6 2.4-.8.5-1.8 1-3 1-.6.3-1.5.4-2.4.4-.5.2-.5.4-1.3.5 1.2-.2 1.3-.3 2.7-.3 1 0 2 0 2.6.2 1 0 1.6 0 2 .7 1 .2 1.3.6 1.7 1.2.6.3 1 .7 1.2 1.5 0 1 0 1.8-.4 2.5-.3.7-.7 1-1.4 1.6-.5.5-1.3.6-2 .8h-3c-.7 0 2.6 0 4 .2.8.2 1.3.5 2 1 .6.3 1.4.3 2 1 .6.2 1 .7 1.7 1 .3.5.2.4.5.3" stroke-width="1.0066579999999998" fill="none"/><path stroke-linejoin="round" d="M436.7 175.2c1 .5 1.5 2.2 1.7 3.3.2 1 0 1.8-.4 2.8-1 1-1 1.2-2.5 1.4-1.2.4-2.4.3-3.5.7l-2.2.8h-3c-.8.5.8 0 1 0 1.7 0 3.4 0 4.8-.2h6c1 0 1.2.5 1.6 1.4.4.5.6 1.4.6 2.5 0 1-.2 1.4-.8 2.3-.6.7-1 1-1.8 1.6-1 .4-2.4.6-3.7.8-1.6 0-3.3 0-4.7.2-1 0-5.4.3-5 .6.6-.5 3.8-.4 5-.4 1.5-.3 3-.6 4.5-.6 1-.3 2-.4 3.2-.5 1 .2 2 .3 2.5.8.6.5 1.4 1 1.8 1.6.8.3 1 .8 1.7 1.2.2 1 .4 1.4.4 2.5-.4.8-.6 1.5-1 2-1 .8-2 1.5-3.2 2-1 .4-2 .5-3.3.6-1 0-1.8 0-2.6.2H426c2-.2 8 0 9 0 1.4 0 2.7 0 4 .2.6.3 1.3.5 1.8 1 .7.3 1.3 1.5 1.3 2.7" stroke-width="1.0066579999999998" fill="none"/><path stroke-linejoin="round" d="M427.3 170.3l1.3 2.6c.2.8.2 1.8.2 2.8 0 1.3-.3 1.8-1 3-1 .6-1.8 1.3-3 1.7-1.2.2-2 0-3.2 0-.7-.3-1.3-.5-1.8-1-.8 0 .4 0 .8.2.6.4 1.5.6 2.4 1 1.2.5 1.7 1 2.5 1.8.7.6 1 .8 1 2 .5.5.5 1.3.2 2-.6.3-1.3 1-1.8 1.6-1 .4-1.4.7-2.6.7-1 0-1.7-.4-2.6-.4-.5-.4-.3-.3.4 0 .6.3 1.8 1 2.2 1.6.7.4 1 1 1.2 2 .4 1 .7 1.6 1.3 2.2v2.7c-.2.6-.4 1.2-1 1.7-.2.8-.7 1.2-1 2-.8.5-1.8 1.5-2.4 2-1 .4-3 .6-4 .6" stroke-width="1.0066579999999998" fill="none"/><path stroke-linejoin="round" d="M436.5 300.5c.3.7.7 1.5.8 2.2l.2 2.3c-.3.6-.4 1.4-.8 1.8-.2.8-.8 1-1.4 1.5-.8.3-1.4.6-2.5.6-1 0-2-.2-2.8-.3-1-.4-3-1.2-2.4-.7.8.2 2 .8 2.6 1 .8.7 1.5 1 2.2 2 .7.4 1 .7 1 1.6-.8.2-2 .7-3 .8-1 0-2 0-2.7-.2-.6-.3-1.2-.6-2-.8l2 .8c-.6-.3-1.2-.6-2-.8l-2.8-1.2c.4.6 3.6 1.8 4 2.6l.5 2.6c0 1.3 0 2.6-.4 3.5 0 .8-.5 1-1 1.8h-.3M433.7 312.8h.2c-.7 0-.4 0 .7.4 1 .7 1.4 1 2.2 2.2.3 1 .6 1 .7 2 .4.6.2 1.5 0 2l-1.4 1.5-1.4 1.4c-.8 0-1 .3-2 .4" stroke-linecap="round" stroke-width="1.0066579999999998" fill="none"/><path stroke-linejoin="round" d="M436.7 307v.2c0-.6 0-.2.6 1 1 .5 1 1 1.3 2.3.2 1 0 2 0 2.7-.7.3-1.5 1-2.4 1" stroke-width="1.0066579999999998" fill="none"/><path stroke-linejoin="round" d="M446.5 311.8h-.2c.6 0 .3 0-.8.2-.8.2-2 .2-2.8.2-.8-.3-1.5-.4-2.3-.8-.7-.2-.8-.4-1.6-.5M442.2 320h-.2-.8c-1-.6-2.3-1.6-3.2-2" fill-rule="evenodd" stroke-width="1.0066579999999998" fill="#fff"/><path stroke-linejoin="round" d="M508 192.6l-4.6.4h-3c-1-.3-2-.4-3-.4-.8 0-.5-.5-1.3-.5" fill-rule="evenodd" stroke-linecap="round" stroke-width="1.0066579999999998" fill="#fff"/><path stroke-linejoin="round" d="M505 200.7l2.8-.2-4 .2c-1 .2-2 .2-3 .2-.5 0-2 0-2.5.3h-3l-1-.2" fill-rule="evenodd" stroke-width="1.0066579999999998" fill="#fff"/><path stroke-linejoin="round" d="M425.5 297.4c0 .4 1 2 1 3s0 1.4-.6 2c-1 .4-1.6.7-2.8.8h-3.7c-1 0-6.3-1.2-6.6-1.5.8 0 4.3 1.5 5.5 1.5 1 0 1.8.2 3 .6l2.5.8c.6.3 1.6.4 2 .8 1 .3 1 .8 1.3 1.8 0 1-.3 1.6-1 2-.5.6-1.3 1-2.3 1.5-1 .5-2 .6-3.4.6h-3c-.6-.2-1.5-.3-2-.6l2 .6c-.6-.2-1.5-.3-2-.6h-.3c.7.3 1 1 1.2 1.7l.2 2.8c-.2.8-.5 1.4-.8 2-.5 1-.8 1.4-1.4 2 0 .5-.4.8-.6.5" stroke-linecap="round" stroke-width="1.0066579999999998" fill="none"/><path stroke-linejoin="round" d="M414.6 293l.4 1.2c.5.5.6 1.3 1 2 0 1-.2 2-.3 2.7-.4.5-.7 1-1.5 1.3-.4.6-1 .7-2 .8-.6.4-1.7.3-2.3 0-.8 0-1.6-.3-2-.7-1-.2-1.5-.5-2-1-.7-.2-.6-.6-.2 0 .7.5.7 1 1 2 0 1 .3 1.6.3 2.7.3.8.4 1.6 0 2.2-.4.8-1 1-1.4 1.7-1 0-2 .3-3.2.3-.7-.5-2-1-2.5-1.5-.8-.3-1.4-.7-2-1.2-.5-.3-2.7-2-3-2.6.5.5 3 2.4 3.3 3 .5.4 1 1 1.4 1.2.6.4 1 1.2 1.7 1.7.4.7.7 1 .8 2v3c0 1.3-.2 1.4-.8 2.2-.2.4-.3 0-.5.4" stroke-width="1.0066579999999998" fill="none"/><path stroke-linejoin="round" d="M407 307v.2c0-.6-.2-.2.7 1 .7.2 1.5.7 2.2 1 .5.3 1.3.3 2 1 .8 0 2 .5 3 .5" fill-rule="evenodd" stroke-linecap="round" stroke-width="1.0066579999999998" fill="#fff"/><path stroke-linejoin="round" d="M406.2 287.8c.3.3 1.7 2 2 3 0 1.3-.2 1.6-1 2-.6.4-1.2.5-2.4.5-1-.2-1.7-1-2.8-1.4-.6-.7-1.3-1-2-1.3-1-.4-1-.6 0 .2 1 .4 1.7 1 2.4 1.3.8.6 1 .7 1.6 2 .2 1 .6 2 .6 3.3.5.7.5 1.4 0 2-.5.4-.7.5-1.6.5-.6-.4-1-.8-1.6-1l-1.3-1.4-1.5-1.4c-1-.4-1.3-.8-2-1.2-.8-1 0 0 .4.4l1 2.4v3c0 1 0 1.8-.3 2.4-1 0-2 0-2.7-.3-.6-.3-1.6-.6-2.2-1-1-.4-1.6-1-2-1.7l-1-2-1-1c.4.7.8 1.7 1.7 2.4.6 1 1.2 1.2 1.5 2.2.4.5.5 1.5.6 2.4 0 1 0 2-.2 2.6-.2 1-.5 1.4-1 2-.2.7-.5 1.3-1 2" stroke-linecap="round" stroke-width="1.0066579999999998" fill="none"/><path stroke-linejoin="round" d="M410.3 284.6v.2c0-.3-.7 1.7-1.6 2.2-1 .2-1.5.4-2.6.4h-3l-2.5-.8c-.6-.6-1.3-.8-2-1.4l-1.5-1.8c-.3-.4 0 0 1 .7.8 1 1 1.2 1.3 2.2.3.6.2 1.8.2 2.6 0 1.2 0 1.6-1 2-.6.3-1.4.3-2.5.3-.5-.4-1.3-.7-2-1.3-.6-.4-1.3-1.3-1.8-2l-2.3-2.4c.4.3 2 2.3 2.8 2.7.4.8 1 1 1.4 1.7.4.7.7 1.4 1.2 1.8 0 .8.3 1.6.4 2.5 0 1-.2 1.5-.8 2-.8.8-1 .8-1.8.4l-2-1.4c-.8-.2-1.5-.5-2-1-.7-.3-1.2-1-1.7-1.3-.4-.6-1-1.2-1.5-1.6l1.5 1.7c-.4-.6-1-1.2-1.5-1.6l-3.5-4.2c.5.5 4.5 5 4.7 5.7.7.5 1 1.2 1.3 2.3l.2 2.4c-.6.6-.7 1-1.7 1.3h-2.8c-1.2 0-1.5-.3-2.5-.7-.8-.4-1.2-.7-1.6-1.4-.5-.4-1-1-1.5-1.2l-1-1c-.2-.2-.2-.5-.5-.7" stroke-width="1.0066579999999998" fill="none"/><path stroke-linejoin="round" d="M412 280.8h-2.5c-1.4-.2-3-.3-3.7-1-1-.3-1.2-.8-1.8-1.4-.6-.7-1.3-1.4-1.8-2.4-.4-1-.6-1.7-.6-3V270c0-.5.3-3.7 0-4 0 1-.5 4.3-.5 5.5v2.6c-.5.7-1 1.5-2 2.4-1 1-2 1.7-3.6 2-1 .4-1.4.2-2-.8-.8-.6-1-1.5-1.2-2.7-.4-1.2-.2-2.4 0-3.5l-.2-3.8.2 1.5c0 1.2 0 2-.7 3-.4 1-1 1.7-1.8 2.5-.7.7-1.3 1-2.2 1.3-1 0-2 0-2.5-.4-.8-1-2-2.2-2.7-3.5v-8c.4.7.4 3.3.4 4.4 0 1-.5 1.6-.8 2.7-.8.8-1.3 1.4-2.3 2-1 .7-2 1-3.3 1.3-1.3 0-1.3 0-1.8-1.2-.7-.6-1-1.5-1-2.6l-.7-2.8c-.3-.8-.3-2.7-.5-3.3v2.3c0 1 .4 1.7.4 2.8 0 1 0 1.8-.5 2.5l-.4 3" stroke-linecap="round" stroke-width="1.0066579999999998" fill="none"/><path stroke-linejoin="round" d="M397 277.8c.2.4.5 1.8.5 3 0 1 0 1.4-.6 2.3-.7 1-1 1-2.4 1-1 0-2-.2-2.4-.7-.8-.3-1.2-.7-1.7-1.4-.5-.8-1.2-2-1.6-2.4-.3-.7-.7-2.6-1-3.2-.2-1 .5 1.6 1 2.2.4 1 1 1.8 1.3 2.7.2.7.2 1.5.2 2.4l-1.2 1.7c-.7.2-1.4.4-2.4.4-1-.2-1.6-.5-2.2-.8l-1.8-1c-.4-.7-1.3-1.5-1.7-2.3-.5-.7-.6-1.8-1-2.5 0-1-.3-2-.6-2.6 0-1-.3-1.8-1-2.3 0-.5-.3-.4-.4-.8" stroke-width="1.0066579999999998" fill="none"/><path stroke-linejoin="round" d="M381.7 282.7l.4 3c0 1 0 1.4-.5 2-.4.7-.7 1.3-.8 2.2-.5.3-.8 1-1.4 1.3-.3.5-.7.4-1.4.4-.4 0-1.6 0-2.2-.2M380.5 280.5c-.2 1-.6 2-1 2.8l-1.4 2c-.6.2-1.3.3-2.4.3-.5-.4-1.3-.7-1.8-1l-1-.4M407.5 137.4v.2c0-.5 0-.3-.4.6-.8 1-1.2 1.3-2.4 1.6-1.2.7-3 1-4.7 1-1.5.3-3 .2-4.4.4-.4-.6-1.3-1.2-1.8-1.8l-1.2-1.8c-.4-1-1-2-1.3-3l-.8-3c0-1-.3-1.5-.4-2.4-.6-.2 0 .2.3.8.6 1 .8 1.8.8 3 .3 1 .3 2.2.3 3.3 0 1.2 0 2-.4 2.7-.8.7-1.3 1-2.3 1-1.3.3-2.7.2-4 .2-1 0-1.4-.5-2.4-.6-.4-.4-1.3-1-1.8-1.2-.4-.5-.8-.6-1-1" stroke-width="1.0066579999999998" fill="none"/><path stroke-linejoin="round" d="M391 138.6l.8 1c0-.6 0-.3.4.8.4 1.2 0 1.7-.6 2.7l-2.7 2.5c-1 .5-1.8 1-3 1.3-1.3 0-2.8.2-3.8 0-.8-.5-1.8-1.2-2.3-2-.7-.5-1-1-1.3-1.7-.2-.6-.4-1.5-.8-2-.2-.5 0 .2 0 1 .2.8 0 .4 0 1.3v2.8c-.3 1.4-1 3-1.2 4.2-.4.7-.8 1-1.6 1.3-1 .5-1.8 1-3 1.4-.4.4-1.2.3-2.3.3-1-.4-1.2-.6-2-1.4-.5-.5-.6-.8-1-1M363 150.4v.2c0-.6.2-.2-.7 1l-1.6 1.7c-.5 1-1.5 1.8-2 2.7-.7.4-2 .7-3 1-1.3 0-2.5.2-3.6.4l-4.8.2c-1 0-2-.2-2.7-.4-.6-.6-.7-1-.8-2.3-.3-1-.2-1.8-.6-2.3 0-.5-.2-.8-.5-1" stroke-width="1.0066579999999998" fill="none"/><path stroke-linejoin="round" d="M404 146v.2c0-.6 0-.3-.4.8l-1.6 2.2-2.5 2.3c-1.2 1-2.2 1.3-3.7 1.6-1.3.3-2.2 0-3.4-.7-1-1-1-1.3-1.7-2.5 0-1-.2-1.8-.6-2.6 0-.8-.3-1.5-.7-2 0-.8.3.4.4.7.2.5.3 1.6.6 2.2v3c.3 1 0 1.8 0 2.7-.3 1-.5 2-1.2 2.6-.7.3-1.8.4-3 .4-1.4 0-3 0-4-.6l-2-2c-.6-1-1-1.4-1.3-2.3l-1.3-2c0-.8 0 0 .4.2l1 2.3c.4.7 1 1.4 1 2.4.6.6 1 1.4 1 2.4.4.6.3 2 .3 3 0 .8-.3 1-1.3 1.3-1 .2-2 0-3-.6-.6-.3-1-.6-1.5-1.4-.8-.6-1.4-1.3-2-2.2l-1.5-1.6c-.5-.7-1-1.2-1.4-2.3l-.8-1c.5.6.7 1 1 2 .3 1.2.6 1.7.6 3v2.8c0 1-.6.8-1.5 1-1.2 0-2 0-2.7-.4-1-.3-1.5-.5-2-1-1-.2-1.4-.6-2-1l-1.5-1.8c-.3-1-.8-1.3-1.2-1.8-.2-.3-.2-1-.3-1l1 2.2.2 2.8c-.4 1-.7 1.6-1 2.7L359 165c-.7.5-1.3 1-2.2 1.4-1.2.5-2.4.8-4 .8-1 .3-1.7 0-2.6 0-.6-.3-1.4-.6-1.8-1.2-.5-.3-.7-.5-1-1.3-.8-.5-1-1.3-1.5-2.4l-.8-2.4c-.4-.8-.6-1.8-1-2.4 0-.5-.2-.4-.3-.8" stroke-width="1.0066579999999998" fill="none"/><path stroke-linejoin="round" d="M395 163.7v.2c0-.6 0-.3-.2.8-.7 1-1.5 2-2.4 2.2-.6.3-1.7.2-2.3 0-.8-.5-1.5-1-2-1.8-.7-1-1.6-2-2.2-3-.5-.7-1-1.2-1-2-.5-.7-.8-1.7-1-2.4 0-.6 0-.3-.3-.8l1 2.6c.3 1.3.6 2 .3 3.3-.2 1.2-.4 2.2-.8 3.4l-1 3c-.2.7-.6 1.4-1 2-.5.4-1.3.5-2 .7h-3c-1 0-1.7-.3-2.6-.5-1-.5-1.2-.7-2-1.4-.4-.6-1-1-1.3-2l-1.5-1.4c-.7-.6-1-1-1.5-2-.2-1-.4-1.6-.4-2.7 0-.7.3 1 .6 2 .3.6.5 1.7.8 2.6v3.3c0 1 0 1.8-.2 2.7 0 1-.4 1.4-.8 2-.6.4-1.2 1-2 1-.7.6-2 1-3 1-1 .4-2 .5-3.2.5-1 0-1.7 0-2.2-.6-.5-.5-1.3-1.6-1.8-2-.3-.8-.7-1-1.5-2-.3-.7-.7-1.7-1.2-2.3 0-1-.5-2-.7-2.7 0-.3-.3-.7-.4-1" stroke-width="1.0066579999999998" fill="none"/><path stroke-linejoin="round" d="M416.8 162l-.3 2c-.5 1.2-1.2 2.2-2 3-1 .6-1.4 1-2.5 1-.5.4-1 .2-1.5-.2-1-.4-1.6-1-2.6-1.4-1-.6-1.5-1-2.4-1.4-.4-.7-1-1.5-1.6-2 0-.3-1.3-2.3-1-1.7l1.8 2.8c.5.8 1 2.2 1.7 2.8l2 2.5c.5 1 1 2 1 3 .3.6.4 1.7.4 2.7 0 1-.2 1.6-.3 2.6l-.8 2c-1.3 0-2.3 0-3.2-.5-.6-.4-1-1-1.6-2-.4-1-1-2-1.6-3-.7-1.2-1.3-3-2-4 0-1-.4-1.8-.5-3 0-.4-.2-.5-.3-1l.2 3c0 1.3 0 2.4-.5 3-.4 1.2-1 2-1.6 2.8-1 .5-1.7 1.2-2.8 1.6-1.2.4-2 .6-3.5.6l-3.8-.7c-1.4 0-2.3-.2-2.8-1-.8-.8-1.6-1.7-2.3-2.8-.7-.4-.4-.4-.8-.8.4.6.3.6.5 1.6.4.8.4 1.5.4 2.5-.3.8-.8 1.7-1.5 2.4-.7 1-1 1-2 1.5h-3c-1 0-2 0-2.8-.2-.8-.2-2-.6-2.8-1-.6-.4-3.3-2.7-3.7-3.2" stroke-linecap="round" stroke-width="1.0066579999999998" fill="none"/><path stroke-linejoin="round" d="M366.8 175.8h.2c-.6 0-.2 0 .6 1l1.6 3.5.5 3.7c0 1.4 0 2.8-.5 4-1.3 1.4-1.8 2-3.6 2-1.8.5-2.2 0-3-1.5l-1.3-3.3c-.3-.8-1-1.8-1.7-3l-1.2-2.3c-.3-1-.6-2-1-2.6-.2-1.5-.3-.6.2 0 0 1.3.7 5-.3 5.5-.7.2-1.4 0-2.5 0" stroke-width="1.0066579999999998" fill="none"/><path stroke-linejoin="round" d="M420 165v1.4c0-.6 0-.3.2 1 0 1.4.4 2.7.8 3.7v3c-.3 1-.5 1.5-1.2 2.4-.5.6-.7.8-1.7.8-.5.4-2 .2-3 .2-1-.3-2.4-.4-3.2-1-.7-.5-1.3-.8-1.7-1.5.4 0 .3.5.3.2M405 179v.3-.4.3-.4c0 1.8-.7 2.6-1.8 4.2-.7.8-1.5 1.6-2.6 2.2-1.7 1-3.3 1-5.2 1.2-1.4 0-2 0-2.6-.8-1-.7-2-1.7-2.3-3-.7-.8-1-2-1.6-3-.3-1-.8-2-1-3.2-.4-1 0 .7 0 1.4 0 1.7-.2 3-.5 4.3-.5 1.3-1 2.3-1.7 3.3-.8 1.3-1.8 1.7-3 2.7-2 .4-3.8.4-5.8.2-1.2-.4-2.2-.7-3.2-1.5-1-.3-2.2-.8-2.7-1.4l-1.2-.5c.2 1-.8 4.3-1 5.3-.3 1-.4 1.7-1.2 2.3-.8.7-1.5 2.4-2.7 3-1 0-2 .6-3 .7-.7.4-1.6.2-2.3.4" stroke-linecap="round" stroke-width="1.0066579999999998" fill="none"/><path stroke-linejoin="round" d="M419 177.8c.2.5.6 2.2.6 3.3v3.6c0 1-.3 2-.5 3 0 1-.6 1.5-1.3 2-1 .7-1.8 1-3 1.3-1 0-1.5-.3-2.5-1-1.2-1-2-1.6-3-2.8l-2-2.2-1-3c-.3-.4-.5-1-1-1.5.4.7 1 1.2 1.5 2.2.6 1.2 1 2.4 1.4 3.5.5 1 1 2 1.5 2.5.5 1 .7 1.4 1 2.4 0 1.4.3 2.5.3 3.8-.5 1.2-1 2-2 2.7-1.2.7-2.4 1-4 1.2-1.7 0-3.3 0-4.7-.6-.4-.6-1.7-1.7-2.5-2.6-.7-1-1.4-2-2-3.3-.4-.8-.8-1.6-1-2.5 0-.7-.2-1.7-.5-2.3-.3-1.5-.2 1-.2 1.5v3.7c-.4 1.7-1.5 3.2-2.7 4.7-1.3 1.2-2.5 2.2-4.4 2.3-1.8 0-3 0-4.5-.8l-2.3-3c-.7-1-1.3-1.8-1.7-3 0-.7-.2-1.7-.4-2.6v-1l-.2 2c.2 1.3.2 2.6.2 4-.4 1.6-.5 2.2-2.2 2.3-1.3 0-1.6-.4-2.5-1-1-.6-2-1.5-3-2-.7-.8-1-1.2-1.8-1.8" stroke-linecap="round" stroke-width="1.0066579999999998" fill="none"/><path stroke-linejoin="round" d="M411 193.6h.2c-.6 0-.3 0 .8.6l1.6 2.2c.6.8 1.2 2 1.6 2.7.5.8 1 1.3 1 2 0 1.4.2 2.4.3 3.6 0 1.3-.2 1.8-.6 2.7-.8.4-1.7 1-2.8 1.4l-3.3.2c-1.2 0-2-.2-3-.3-.8-.3-2-.8-2.6-1.2-.7-.7-1.5-1.8-2.2-2.7-.5-.7-.7-1.4-1-2.2 0-1-.2-2-.7-3 0-.6-.3-1.4-.4 0-.2.4 0 1.5 0 2.4l-1 3c-1 .7-1.4 1.7-2.6 2-1.3 1-3 1-4.5 1.3-1.3 0-2.7.2-3.7-.2l-2.3-1c-1-.8-1.8-1.5-2.4-2.4-.8-1-.8-1.6-1.3-2.8 0-1.2-.3-2-.4-3l-.7-1c0 1.5.2 2.7.6 4v2.8c0 1 0 1.7-.5 2.5-.7.6-1 1-2 1.3-1 .2-2 .2-3 .2-1-.2-1.7-.8-2.5-1-.5-.6-1-1-1.7-2s-.8-1-.8-2.3c.2-1 .4-2 .4-3.3 0-1.2 0-2 .3-2.7v-1.5" stroke-width="1.0066579999999998" fill="none"/><path stroke-linejoin="round" d="M371.5 204.2h-.2c.6 0 .2 0-.4 1l-1.3 2.5c-.3.8-.6 1.2-1.3 1.6-.2.8-.8 1-1.4 1.5l-2 .8 2-.8-2 .8" stroke-width="1.0066579999999998" fill="none"/><path stroke-linejoin="round" d="M436 216.3c-.2 0 1-.6 1-.6.6 0-1 .5-2 1.2-.7.2-2 0-3 0-.8 0-2-.4-2.6-1l-1-3.2c-.4-1-.5-2-.7-3l-.8-3c-.5-1-.8-2.2-1-3.4-.4-1-.6-2-.7-3-.5-.2-.5-1-.6-1.5" stroke-linecap="round" stroke-width="1.0066579999999998" fill="none"/><path stroke-linejoin="round" d="M428.5 214l-.8 1.7c-1.3 1.5-2.8 2.8-4.3 4-1.2.6-2.2 1.5-3.6 1.7-.6-.6-1-2-1-3l-1.5-5.8c-.5-1-1-2-1.2-3-.3-.6-.4-1.5-.5-2 0 1.5 1 3 1.2 4.6.2 1.3.4 2.7.4 4v3.6c0 1.2-.5 2.4-1.3 3.2l-2-.8-3-1.8-3-3.7c-.4-1.3-.7-2.4-.8-3.7l-1-3.7c-.2-.6-.5-.7-.8-1-.2 1.3-.7 2-1.2 3.3l-2 1.8c-1.3 1.2-2.7 2.4-4 3.3-1.4.8-2.5 1-4 1.2-1.5 0-2-.3-3-1-1.8-1.2-3-2.7-4.4-4.2-1-1.2-1.5-1.7-1.6-3.3 0-1-.2-1.5-.4-2.4 0 .3 0 .3.2.3" stroke-width="1.0066579999999998" fill="none"/><path stroke-linejoin="round" d="M390 216.7c0 .4 0 2.3-.3 3-.2 1-.5 1.3-1.2 1.7-.5.4-1.5.7-2 1-1 0-2 .3-3 .4h-3c-1 0-1.8 0-2.2-.6-.7-.5-1.3-1.5-1.7-2.2-.3-1.2-.4-2-.2-3l.2-4v-4.2" stroke-linecap="round" stroke-width="1.0066579999999998" fill="none"/><path stroke-linejoin="round" d="M376.8 220.4v.2c0-.6 0-.3-.2.8-.2.8-.7 1-1.2 1.6-1 .2-1.3 0-2.5-.4-.8-.6-1-1-1.5-1.6-.2-.7-.7-1.3-1.2-1.7 0-.4 0-.3-.2-.6" stroke-width="1.0066579999999998" fill="none"/><path stroke-linejoin="round" d="M370.4 218.6s0 .8.5 1.3c.3.8.8 1.7 1 2.8v3.3c0 1.3 0 2.7-.7 3.6-.4.6-1.6 1-2.6 1.6-1 .5-2.3.6-3.5.6-1.5-.3-2.7-.8-4-1.6l-3.8-2c-.6-.6-1-.8-1.6-1.5-.6-.4-1-1-1.7-1.4-.3-.6-1-1-1.5-1.7-.5-.3-1-1-1.2-1.4" stroke-width="1.0066579999999998" fill="none"/><path stroke-linejoin="round" d="M434 230.2s-2 1.7-2.6 2c-.8.6-2 1-3.3 1.6-1.5.5-2.7 1-4.4 1-.4-.8-1.7-1.7-2.4-2.6-.4-.7-1-2-1.7-2.8-.3-1.2-.8-2.4-1.2-3.5-.3-1.2-.7-1.8-.8-3-.3-.5-.6-2-.7-1.2.7.7.7 1.8 1 2.8 0 1.3.3 2.5.3 3.7-.2.8-.3 1.4-1 2-.4.4-.7.5-1.5.5-.6.3-1.2 0-2 0-1.2-.3-1.4-.5-2-1.2-.5-.5-1-1.3-1.8-2l-1.2-2c-.3-1-.5-1.7-.6-2.8l-.3-3c0-.8 0-2.5-.2-3-.2 1.3-.4 2.8-.4 4.2l-.3 3c-.5 1-1 2-2 3-1.4.8-2.5 1-4 1.3l-4.5-.2c-1-.4-2-1-3-2l-3-2.6c-.3-.7-.8-1-1.3-1.6-.4-.6-.5-.5 0-.2.6.5 1.5 1.3 2 2 .3.7.7 2 1.2 2.7 0 1 0 1.6.2 2.6-.2 1-1 1.3-2 1.6-1.3 0-2.3 0-3.2-.4-1-.4-1.7-.7-2.2-1.3-.5-.4-1.3-1-1.6-1.5L381 225l-1.3-2 .6.8 1.6 2.3c.3 1 .7 1.6.7 2.7 0 1 0 2-.2 2.7-.2.8-.6 1.3-1.4 1.6-.5.3-1.8.2-2.7.2l-2.7-1c-.5-.6-1.5-1.3-2-2l-1.5-2c.6.6 1 1.3 1.5 2 .4.6.8 1.6 1 2.4.5 1 .6 2 1 3l-.3 3c0 1 0 1.8-.4 2.4-.3 1-.7 1.3-1.7 2-.8.2-1.2.4-2.3.5l-1.6-1.7c-.2-.6-.6-1.5-1-2-.4-.7-.8-1-1.2-2-.6-.5-1.4-1.5-1.8-2.5-.6-.8-1-3-1.3-4-.2 0 .4.6.4 2v6.5c0 .8 0 1.7-.5 2.2-.5 1-1.4 1.6-2.6 2-.6-.6-1-.7-2-1l-2.4-1c-1-.7-1.4-.8-2-1.8-.7-.6-1.3-1.7-1.7-2.5-.3-.7-.3-1.6-.3-2.6 0-1.2.2-2 .6-3 .2-.8.8-1.4 1.4-1.8.6-.6 1.2-1 2-1.3.2-.6.7-.6 0-.7v.6c.2-.6.7-.6 0-.7" stroke-linecap="round" stroke-width="1.0066579999999998" fill="none"/><path stroke-linejoin="round" d="M432.2 245.3l-1.2.8c-1.3.5-2.7.2-4 0-1.4-.2-2.4-.3-3-1l-2.2-2.4c-.3-.6-.5-1.3-.6-2.2 0-1-.2-2.2-.4-3.3V234l-.2-2.6s0 .5.4 1c0 1.3 0 2.5-.2 3.7 0 1-.5 1.8-.8 2.5-.6.8-1 1-2 1.3-.5.4-1.7.5-2.7.6-1.3 0-2-.3-2.7-1-1-.8-1.6-1.7-2.2-3-.4-1-.7-2-.7-3.4 0-1 0-2.6-.4-3.2 0-.6.2-2 0-2.2 0 1-.2 3 0 4.2 0 1.3 0 2.6-.2 4-.4 1-.7 1.8-1.7 2.3-.6.8-1.4 1-2.5 1.4-1.5 0-3.2 0-4.7-.2l-2-1c-.7-.3-1.5-.6-2.2-1.3-.7-1-1.3-1.7-1.6-2.7-1-1.3-1.7-2.6-2.2-4" stroke-linecap="round" stroke-width="1.0066579999999998" fill="none"/><path stroke-linejoin="round" d="M427.5 256.8h-.2c.6 0 .3 0-.8.2-1 .3-2 0-3-.2-.8-.3-1.5-.8-2-1.3-.6-.8-1-1-1.3-2.2-.4-1.4-.5-2.6-.5-4 0-1.3.4-2 .7-3.2.3-1 .8-2.8.8-4 0 1.3-.8 3.4-.8 4.7v3.3c-.4 1-.4 2-1 2.7-.5 1-1 1.2-2.3 1.4-1 0-1-.3-1.8-1.3-1-1.3-1.6-3-2-4.7v-3.3c0-1.4 0-2.6.2-4 0-.7.2-.8.2.2l.2 4.3c-.3 1.2-.7 2.2-1.2 3-1 .2-1.6.5-2.7.5-1.2 0-2 0-2.7-.4-.5-1-1.6-2-2-3-.3-1.2-.6-2-.7-3.4-.2-.5-.3-1.6-.4-2.2.2 1.3.2 2.7.2 4 0 1.4 0 2.7-.6 3.4-.6.7-1.3.8-2.3 1-1 0-2 0-3-.2-1 0-2.2 0-3-.4-.8-.4-1-.7-2-1.3-.3-.6-1.2-1.4-1.6-2.4 0-1.2 0-2 .6-2.8 0-1 .3-1.4.8-2.2.4-1 .8-1.4 1.2-2 .4-.3-1 1-1.6 2l-2.5 2.4c-1 .7-1.6 1.2-3 1.3-1 0-1.7-.3-2.5-.7-.6-.6-1-.7-1.2-1.6-.4-1-.6-2.3-1-3 0-1.2 0-2.2-.3-3.3l-.2-1.6c0 1.8 0 2.8.2 4.5v3.4c0 1 0 1.7-.4 2.5-.8 0-1.2.3-2.3.3l-2.3-.8-1.4-1.5 1.4 1.5-2.2-2" stroke-width="1.0066579999999998" fill="none"/><path stroke-linejoin="round" d="M420.5 268.5c-1.8 0-4-1-6-1-1-.2-2.2-.3-2.7-1-.5-.6-.8-1.4-1-2.6 0-1.5 0-2.4.8-3.6.5-1 1.4-2 1.8-2.6.6-.8 1.2-1.8 1.6-2.7l1-1.3c.5 0-2 1.4-3.8 2.7-1.4.6-2.6.8-4.3.8l-4.2-1c-.8-.8-.8-2-.8-3.3V249c0-.8 0-1-.2-1.4 0 1.2-.3 1.7-.4 2.8 0 1.4-.4 2.5-.8 3.7-.6 1-1.2 2.4-2 3-.5 1-1.4 1.4-2 2-1.5.2-2.7 0-4-.3-1.5-.5-1.8-1-2.3-2.4-.4-1.6-.4-3.2-.4-5 0-1.2.2-2.4.5-3.6v-3.5l.4-1.5" stroke-linecap="round" stroke-width="1.0066579999999998" fill="none"/><path stroke-linejoin="round" d="M412 267.4c-.5 0-2.2.4-3.3.4-.8.3-2 .2-3.3.2-1-.3-1.7-.3-2.2-1-.7-.5-1-1-1.6-1.5l-1-1.8c-.2-1-.5-2-.5-3.3 0-1 0-1.8-.3-2.4v-.4M399.7 258v3.3c0 1 0 2-.4 2.8 0 1-.4 2-.8 2.8-.5 1-1.2 1.2-2 1.6-1 0-1.3.2-2-.2-.8-.2-1.7-.7-2.3-1.2-1-.5-2-1-2.7-1.7-1-.6-1.5-1.2-2-1.8-.5-.8-.7-2-1-2.7 0-1 0-1.7.3-2.4.4-.7.8-1 1.3-1.6.6-.5 1.8-1.4 2.5-1.7" stroke-linecap="round" stroke-width="1.0066579999999998" fill="none"/><path stroke-linejoin="round" d="M386.4 261h-.2c.7 0 .3 0-1 1-1 .6-1.5 1-2.5 1.3-1.3.3-2 .4-3.6.4-1.3 0-2.6 0-3.8-.2-1 0-2 0-2.5-.2-.2-.7-.6-1.3-1-1.8-.2-.8-.2-1.7-.2-2.7.4-.6.6-1.8 1-2.2.5-1 1-1.3 1.7-2l1.8-1c.8-.4 1.2-.7 2-1.5 1-.7 1.2-1.2 2-1.8l1.5-1.4c.3-1 .8-1.4.8-2.5v-3.8" stroke-width="1.0066579999999998" fill="none"/><path stroke-linejoin="round" d="M363.8 273.2c-.2 0-1-1.3-1.5-2-1.4-1.4-2.6-2-2.7-4 .5-.7 1.3-1.2 2.3-1.7.4-.5 1-1 1.7-1.2.8-.2 1.8-.2 3-.2h2.6c1 0 1.5-.3 2.6-.3.3-.4.7-.2-.3-.2-.7.3-1.5.4-2.7.4-1-.5-1.4-.7-2.4-1-.5-.4-1.2-.5-1.6-1-1-.6-1.2-1-1.5-2.2 0-1 0-1.4.4-2.2.2-1.2.8-2 1.4-2.7.6-.8 1-1 2.2-1h3l2.3.5c-1-.3-2-1.3-3-2.2-.8-1-.8-1.3-1.4-2.3-.3-1.3-.7-2-.8-3.3v-3c.2-1 .5-1.6.8-2.3" stroke-linecap="round" stroke-width="1.0066579999999998" fill="none"/><path stroke-linejoin="round" d="M360.5 244l-1.3 2c-.2 1-.4 1.5-.4 2.6-.2 1 0 1.3.2 2.2.6.4 1 1 1.7 1.7 1 .4 1.2.8 1.6 1.6.6.5 1.4 1.4 1.7 2-1 0-2-1-3-1.3-.7-.3-2-.6-2.6-1H355c-1 0-1.4.4-2 .8-.5.7-.8 1.2-1 2.2v2.5c.5.5 1 1.2 1.7 1.6l2.3 1.5c1 .5 2 1 2.8 1.6.7 0 1.5.4 2 .7.6 0 1.2.2.3.2-.5-.4-1.5-.5-2.2-.7-1 0-2-.5-3-.6-1 0-1.5 0-2 .6-.7.3-1 .8-1.5 1.2-.4.8-.6 1.3-.6 2.5l.6 1.8c0 .4.5 1 .8 1.4l-.7-1.4" stroke-width="1.0066579999999998" fill="none"/><path stroke-linejoin="round" d="M351.7 223l-3.5 1-1.8 1-1.5 1.5-1 1.8c-.4.7-.6 1.3-.7 2.3 0 1.4.5 2 1 3.3.7 1 1.3 2.4 2.3 3l2.4 1.6c.7 0 1.7.6 2.3 1 1 0 1.6.4 2.2.8H352c-1 0-2 .2-2.6.6-.7.3-1 .8-1.6 1.2-.2 1-.6 1.2-.8 2.3-.4.7-.2 1.8 0 2.6.4.8.8 2.2 1.2 2.8.4 1.5.8 2.7 1.8 4 .2.4 1.5 1.2 2 1.4-.7-.4-2.3-2-3.2-2.7-.5-.7-1-1.2-2-1.5-1-.4-2-.7-3.3-.8-1 0-1.7 0-2.5.4-.5.5-1.2.7-1.6 1.2-.6.5-1 1-1.2 2 0 1 .3 1.5.8 2.3.5 1 .8 1.4 1.4 1.8.6.7 1.3 1 2.3 1.6.8.6 1.5.7 2.4 1.2 1 .3 1.8.7 3 1.3 1 .4 3.8 2.4 4.6 2.7.2.3-2.7-1.7-3.6-2.2l-2.2-.8c-1-.5-1.7-1-2.7-1-.8-.5-2-.7-2.8-1h-3.4c-1 0-1 0-1.3.5l-1.6 2c-.5.5-1 1-1.3 1.7-.3.6-.7 1.5-.8 2.2-.3.8-.5 1.3-.5 2.4" stroke-width="1.0066579999999998" fill="none"/><path stroke-linejoin="round" d="M334 261.8l.3.3c0 .6-.2 0-.6-1.2-.7-.8-1.5-2-2.5-2.8-1.3-1-2.6-2-4-2.5-1.3-.6-2.6-1.2-4-1.6-1-.4-2.4-.3-3.6-.3-1.2 0-1.4.3-2.3.6-.4.5-1 1-1.2 1.8 0 .7-.3 1.7-.5 2.4l-.2 2.8c0 1 .2 2.3-.3 2.6l.7-3.8c0-1.2-.4-1.6-.8-2.6-1-1-1.8-2-2.6-3-.7-.8-1.6-2-2.4-2.6-.7-.4-1.4-1-2-1.2-1-.4-1.6-.8-2.7-.8-.5.5-1 1-1.7 1.2-.6.4-1 1-1.2 1.7-.4.5-.5 1.4-.6 2.4-.3 1-.4 1.7-.4 2.8-.3.3-.4.8-.4 1.4 0-1 .4-1.7.4-3-.2-1-.6-2-.8-3.3 0-1.6-.3-2.4-.8-3.2-1-.8-1.7-2-3-2.7-1-.4-1.7-.7-3-.7-1 0-1.6.3-2.4.6-.3.6-.4 1.3-.4 2.4 0 1 .2 1.6.6 2.2 0 1 .5 1.6.6 2.7.3.5.2 1.5.2 2.2 0-1-.8-2-1-2.8l-.8-3c-.5-1.3-1.2-2.3-2-3.6-.6-.4-1-1-2-1.7-.8-.8-1.5-1.3-2.6-1.4h-2.8c-1 .2-1 .5-1.7 1-.2 1-.7 1.8-1 2.5 0 1 0 2 .2 3 .5.4.8 1 1 1.7.4.6.8 2.6.8 3.6l-1.4-4.6c-.2-.8-.7-1.8-1-2.6-.4-1.2-1-1.8-1.5-2.7-.6-1-1.4-1.6-2.3-2-1-1-1.2-1-2.4-1.2-1 .3-1.3.7-2.3 1-.4.2-1 .5-1.4 1 0 .7-.4 1.3-.7 2-.2.6-.3 1.6-.3 2.6.4.5.8 1.3 1 2 .7.7 1 1.4 1.5 2.3.3 1 1.7 3 2 3.7 0 0-1-1.6-1.6-2-1-1.2-1.3-2-1.7-3.2-.6-.6-1.2-1.6-1.7-2-.6-.8-1.6-1.6-2.6-2.3-1-.7-1.4-.7-2.7-.7-1.3-.2-2.2 0-3 .4-.6.7-2 1.7-2.5 2l-1.4 2c-.3.6-.5 1.3-.6 2.2 0 1 .5 1.3 1 2.3.5.4 1.3 1.5 1.8 2 .4.4 3 2.6 2 2.6-.3-.6-1.5-2-2.2-2.4l-1.8-2c-1-.2-1.5-.6-2.5-.7-1-.3-1.8-.5-3-.5-1 0-1.5.6-2.2 1-.4.6-.8 1-1 2-.5.4-.4 1.3-.4 2.3l1 2c.6.7 1 1.6 1.8 2.3 1 .8 1.6 1 2.5 1.3 1 0 1.5.3 2.7.3.7 0-.4 0-.7.4M247.8 264.7l-.2-.2c.5.5.3.3-.8-.6-1.2-.7-2.6-1-4-1l-3.6 1-1.8 1.8c-.3.7-.5 1.3-.2 2.4.5 1 .8 1.5 1.6 2.5.6.4 1 .7 2 1 1.4.2 3 .7 4.6.8l5.2.4c1.4 0-3.5-.3-4-.3-1.5 0-3 0-4.3.2-1.3.2-2.5.5-3.7 1-1 .7-.8 1-.8 2.4l1 1.8c.7.6 1.2 1.2 2 1.5 1 .5 2.3 1 3.5 1.2 1 .2 4.5 0 3.2-.2-.6.5-5 .7-6.2 1-1.3.4-2.6 1.2-3.7 1.5-.2 1-.4 1.6-.2 2.5.4.7.8 1.4 1.4 2 .5.5.8.8 1.7 1 .8.5 2.3.7 3.4 1 .8 0 1 0 1.4-.3" stroke-width="1.0066579999999998" fill="none"/><path stroke-linejoin="round" d="M339.2 251.7l-.8-1.3c-1-1.2-3-2.6-4.3-4-1.4-.5-2.5-1.2-4-1.3-1.3 0-1.7 0-2 1-.5.7-.7 1.4-.8 2.4-.5 1-.5 2-.5 3.3-.3.6-.2 1.7-.6 2.2v.7c-.4-.7 0-2 .3-3l.2-3.5c-.4-2-.6-2.4-2-4-1.4-1.4-2.4-2.2-4-3.4-1-.2-2.2-.6-3.4-.6l-2.3 1.6c-.7 1-1 1.6-1 3 0 1 .5 1.7 1 2.8.3.7.6 1.6.8 2.6.4 1 .5 2.4 1 3 .2 1.2.2.8-.2 0 0-1.3-.5-2.6-1-3.6-.4-1.5-.8-2-1.6-3.3-.8-1.2-1.2-1.7-2.5-1.8-1-.3-2-.3-3 0-.6.4-.8.7-1 1.8l-.2 3.4c0 .3 1-4.2.7-5.4-.7-1.4-1.6-2.5-2.8-3.7-1.3-1.4-2.4-2.8-4-3.7-1-.4-1.7 0-2.5.7-1 .7-1.7 1.6-2 2.3-.2.8-.5 1.3-1 2.2-.8 1-1.4 4.5-1.6 3.8-.2-1 .2-4 .4-5 .2-1.4.3-2.6-.2-3.7-.8-1-1.5-2-2.6-2.4-.7-1-1.3-1-2.5-1-.8.4-2 1-3 1.7-.5.6-.8 1-1 1.6l-.8 2.7c-.2 1-.6 1.7-.6 3-.4 1.2-.2-1-.2-1.8-.3-1-.2-2.3-.6-3-.6-1-.8-1.3-1.8-2-1-.6-1.6-1-3-1-.5.5-1.2.8-1.8 1.3l-1.8 2.7c-.2 1-.2 1.8-.2 2.8 0 1 .2 1.4.2.2V239c-.2-1.2-.4-1.7-1.4-2-.7-.5-1.7-.5-3-.5-.7.3-1 .7-1 1.7-.6.7-.7 1-.7 2-.3.6-.2 1.8-.2 2.7-.3.3-.3 1.2-.3 0s-.4-2.3-.7-3l-2.2-1.4c-1 0-2 0-3 .2-.7.4-.6 1-1.3 1.6-.2 1-.5 1.2-.6 2.3-.3.8-.2 1.5 0 2.4 0 .7.5 1.5.3 2l-2-2.7c-.8-.6-1-1-2-1l-2.5-.2c-.5.5-1 1-1.7 1.3-.4.7-.7.8-1 1.8-.2.7 0 2 0 2.6.6.3.8.7 1.3 1l1.5 1.6c.2.5.3.3-.4.2-.7-.7-1.5-1-2.7-1.6-1.3-.2-2.2 0-3.5.2-.6 1-1 1.6-1 3 0 1 .7 2.6 1.3 3" stroke-width="1.0066579999999998" fill="none"/><path stroke-linejoin="round" d="M346.8 237.3h-1.2c-1.5 0-3-.4-4.6-.4-1.5 0-2.6 0-3.8.5-1.2.4-1.5 1-2.3 1.7-.6 1-1.2 1.7-1.5 2.8-.4 1-.8 1.7-.8 3 .2 1.4 0-1.2 0-2 .3-1.8.2-3.6-.2-5.5-.4-1.3-1-2.4-1.5-3.7-.4-.8-1-1.5-2-1.8-.8-.2-2-.2-2.7 0-.5.4-1.3 1.3-1.8 2l-1.7 2.5c-.5 1-1 2-1.2 2.7 0 .6-.2 1.2-.4 1.6-.4-.8-1-1-2-1.6-1-1-2.3-1.8-3.3-2.3-1-.6-2-1.3-3-1.7-.6-.5-1.7-.7-2.6-.8-1 0-2.4-.2-3 .2-1 .2-1.2.7-1.5 1.4l-2.2 2.6c0-1.2 1-3.5.6-4.6-.5-1-1-1.5-1.2-2.4-.6-.7-1-1.5-1.6-2-.3-.8-.8-1-1.2-1.7-1-.5-1-1-2.3-1-1 0-1.8.3-2.5.5-.8.2-1.4.5-2 1-.8.5-1 .8-1.7 1.5-.6.3-1.2 1-1.5 1.8-.6.7 0 1 0 2" stroke-width="1.0066579999999998" fill="none"/><path stroke-linejoin="round" d="M343.3 228v-.3c0 .6 0 .3-.6-.8-.4-.8-1-1.3-1.7-2-.7-1-1-1-2.4-1-1 0-2 0-2.7.3-1 .3-1.3 1-2 1.8-.5 1-1.2 1.6-1.5 2.3-.4 1-.8 1.4-1 2.3-.6.4-.6.8-1.3 1l-1.4-1.6c-1-.3-2-1.2-3-2l-3-1.5c-1-.3-1.4-.4-2.6-.4-1.3.2-2 .5-3 1-.8.5-1.4 1.2-2 1.8-.8.5-3.8 4.8-4.5 5.4-.8.7 2.5-3.3 3.2-4.4.3-1.2.7-2 .7-3.3-.3-1.7-.4-3.2-1.7-4.3-1-.4-2-.6-3.4-.6-1 0-1.4.4-2.5.6-.7.4-1.5.6-2 1.2-.8.4-1 1-2 1.3-.4.6-1 .8-1.4 1.4-.3.2-1.4 1.3-1.5 1.6" stroke-width="1.0066579999999998" fill="none"/><path stroke-linejoin="round" d="M336.5 223.2h-.2c.6 0 .3 0-.8-.6l-1.6-1.4c-1.3-.3-2.2-.8-3.4-1-1-.5-2.2-1-3-1H325c-.3.7-.8 1-1 1.8-.4.6-.6 1.5-1 2 0 .8-.4 2.3-1 2.6.6-.8 1.4-3 1.7-4.4-.4-1.5-1-3-1.7-4.3l-2.6-3c-1-.2-2-.2-3-.2-1.3 0-1.7 0-2.3.8-.5.5-1 1.3-1.6 1.7-.6.8-1 1-1.4 2.2-.4.8-.6 1.4-.8 2.3l.8-2.3c-.4.8-.6 1.4-.8 2.3v.2c.2-1 .8-1.7.8-3 0-1 0-2.2-.2-3-.3-.8-.7-1.3-1.4-1.8-1-1-1.8-1.6-3-2-.8-.5-1.8-.6-2.8-.2-1 .4-1.4.7-1.8 1.4-1 .3-1 .7-1 1.8 0 1-.2 2 0 3 0 1 .4 1.8.8 2.8.4.6 1 1 1.2 1.8.3 0 1.2 1.5 1.2 1.7" stroke-width="1.0066579999999998" fill="none"/><path stroke-linejoin="round" d="M335.5 222.4c0-.5-.4-2.8-.4-4V216c0-1 0-2.5-.4-2.2v3.5c-.2.8-.3 1.4-1 1.8-.6.6-1.6.5-2.8.5-1 0-2.2 0-2.8-.6l-2.5-1-1.8-1.3c-.3-1-.7-1-.8-2.3-.6-1 .5-3.6.2-4 0 1.2-4 2.8-5 3.2-1.2.4-2 .4-3.3.4-1 0-1.8 0-2.4-.2l-2-1.6-2.7-2-2-2.3c-.3-1-1-2-1.3-2.8l-.2-2.6v2.8c-.5 1-1 2-2 2.7-1 .6-2 1.2-3.2 1.3l-2.2-1c-1-.2-1.3-.5-2-1.2-.6-1-1.3-2-1.4-3.2-.3-.6 0-1 .2-1.8 0-.5 0-.3.2-.7M273.6 198c0 1-2 2.6-2.3 3.6-.3 1-1 1.6-1.4 2.4-1 .6-2 .8-3 1.2-1.5 0-2.7.4-4.2.4-1.3 0-3.2.4-3.8-.4-1-1-2.5-2-3.2-3-.7-.7.5-2.4.3-2.8M228 218c-.4 1.3-1 5.4-2.5 8-.7.8-1.6 1.2-2.6 1.5-1.3.3-2.2.7-3.6.8-1 .4-1.5.4-2.4.2-.6 0 0-1.2-.5-1.3.7.4 0 2 .7 3 0 1 .3 1.3.4 2.4 0 1.2 0 2.4-.2 3.5 0 1.2-.3 2-.4 3-.7 1 0 0-.8.6-1 .2-1.8.6-3 .8l-2.6.5c-1 .6-.6.4 0 1.3.8.6 1 .8 1.3 2 0 .5-.5 3-1 4 0 1-.5 1.7-.6 2.7l-.8 3.7-.8 2.7-1.7 2.4c-.4.4-2 1-2.5 1.5-.2.6 1.2.6 1.6 1.2.8.6 1 1 1.4 2.2 0 1.2.4 1.8.6 2.7-.2 1-.5 2-1 2.6-.4 1.2-.8 1.8-1.5 2.3-.6.6-1.5 1-2.4 1.2-.6.5-1.6.7-2.6.8-.3.3-2 1.6-2.5 1.8M300.8 217h-2c-1-.7-2-.5-3.3-.5-1 .2-1.8.4-2.3 1-.5 1-.8 1.6-.8 3 0 1 .4 2 .6 2.7.4.5.5 1.4.8 2 0 .5.5 2 .5 2.4l-1.7-4.8c-.2-1.4-.4-2-1.4-2.8-1.4-1.2-2-1.8-3.7-2-1 0-2 .8-3 1.3-.5.7-1.6 1.4-2.3 2-1 .8-1.7 1.4-2 2.7v2.7l.7 2.2c.2 1 .5 2.2.6 3.4.2.2.2 1.3.2 1-.5-.6-.8-1.5-1-2.4l-1.3-2.7c-1-.8-1.2-1-2.4-1.2-1 0-2 .2-2.6.3-.4.4-1.2.7-1.6 1.2-.6.7-1.2 1.4-1.5 2.5 0 1 0 1.8.2 2.6v2.5-2.4 2.5" stroke-width="1.0066579999999998" fill="none"/><path stroke-linejoin="round" d="M299.3 208.3h-.2c.7 0 .4 0-.7-.4-.5-.5-1.4-.6-2-1h-3.5c-1.2 0-1.4.5-1.6 1.7-.3 1-.2 2-.2 3s-.3 2-.4 3c-.2.5 0 4 0 4.4-.3-1-1-4.5-1.5-5.4-.6-1.5-1.5-2.7-2.7-4-1-1-1.5-.7-2.7 0-1.2 0-1.4.3-2 .7-.7.5-1.3 1-1.7 2-.7.4-1 1-1.3 2 0 .8.3 1.7.6 2.4.2.4 2 4.3 2.3 4.6.2.4-1.8-3.2-2.5-3.8-.6-.7-1.3-.6-2.5-.6-1.7 0-3 .3-4.3 1l-1.5 2c0 .8-.3 1.6-.4 2.6.2 1 .5 1.4 1 2.3.2.3 1.6 2 1.7 2.6-.8-.4-3-1.7-4.3-1.7-1.2 0-1.7.4-2.3 1.3-.4 1-.4 2-.4 3.3l-.2 2.8.4 5.4c0-.8-.8-5.6-1.2-6.2-.4-1-1-2.2-2-2.8-.7-.4-1.4-.2-2 .2l-1.5 2.2c-.3 1-.6 1.3-.6 2.5 0 .8 1.4 4.6 1.5 5.4 0 .4-1.4-3.3-1.4-3.5l-1.4-3c-.7-.5-1-1-1.8-1.5-.7-.5-1.3-1-2-1.2-1-.3-2-.4-3-.4-1 .4-1.3.7-2 1.6-.2 1-.4 2-.4 3v3c.3 1 .6 1.6 1.3 2.2l2.4 3.3c1 .8-1.2-2-1.7-2.3-1-.4-1.3-.7-2.3-.8-.5-.3-1.7-.2-2.6-.2-1 .3-2.4.5-3 1-1.2.4-2.2.5-2.5 1.4 0 1.3 0 2 .5 3 .5.8.8 1.6 1.4 2.2.3.6.8 1 1.5 1.2.4.5 2.4 1.6 3 2.2-.7-.3-2.8-.6-3.6-.4l-2.3 1.7c-1 .7-.8 1-.8 2.4 0 1 .2 1.5.5 2.2l1 2c0 .3 4.8 3.5 4.8 3.8M293.6 205.8h-.2c.6 0 .3 0-.8.7-1 .3-1.8.4-2.7.2-1.3-.2-2.5-.2-3.7-.2-.4-.3-1-.2-1.3-.7-.8-.3-1.2-.6-1.4-1.4-.5-.8-1-2-1.2-2.8l-1.2-2.5c0 1.4.2 2.4.4 3.6v3c-.5 1-.5 1.5-1.7 1.7-1 0-2-.2-2.7-.4-1.6-.5-3.4-1-5-1.2-.6-1-1.4-1.2-2.6-2.4" stroke-width="1.0066579999999998" fill="none"/><path stroke-linejoin="round" d="M272 205c-1 .3-2 0-2.7.8-.5.7-1 1-1.2 2-.6 1-.7 2.7-.7 4.4.2 1.2 1 2.3 1.6 3 .3.7 1 2 1.7 2.8.6 1.2-.4-.3-1.2-.7-1-1-2.2-2.2-3.7-2.5-1.5-.3-2.8-.5-4.3 0-1 .6-1.2 1-1.4 2.3-.2.7 0 2 0 2.7v3.3c.4 1 .3 2 .5 3 .4.6.7 2.8 1 3.3-.3-1.3-1-4.6-1.6-5.7-.6-.7-1.4-1.2-2-1.6-.8-.3-1.6-.5-2.6-.6-1-.3-2-.3-3 0-1 .4-1.5.7-2 1.6 0 .8-.4 1.8-.7 2.7v5M259 205.2c0-.3-2.4 1-2.6 1.7-1 .6-1.5 1.3-3 1.4-1.3.2-2.5.7-4 .7H244" stroke-width="1.0066579999999998" fill="none"/><path stroke-linejoin="round" d="M252 208.7v.2c0-.7.2-.3-.5.7-.8 1-1 1.7-.8 3l.2 3.4 1.7 4.6c.5 1 .4.4-.6.4-1-.4-1.8-.4-3-.4-1 0-2 0-3 .2-.8.5-1.5.8-2.5 1.2l-2 1.4c-.2.7-.2 1.7-.2 2.7 0 1 .3 1.6.6 2 .5 1 1 1.7 2 2.6.4.4 1 1 1.8 1.4.6.2 2 1 2.4 1.5l-4.3-3c-2-1-4-1.7-6.2-2-1.3 0-2.2.7-3 1.5-.6.8-1 1.2-1.7 1.6-.5.8-1.2.7-1.3 1.8-.3 1 0 1.6.2 2.7l1 3 1.7 1.8c.8.7 1.3 1.2 2 1.4.6.5 2 1 2.6 1.3-.5.4-2 .7-2.7 1-1 .7-1.5 1.3-2 1.8-.2.8-.3 1.6-.3 2.7l-.2 2.2c.5.6 1 1.7 1.8 2.3.5.6 1.2 1 1.8 1.4.4 0 .7.3 1 .5l-1-.6c.4 0 2.2.4 2.6.6" stroke-width="1.0066579999999998" fill="none"/><path stroke-linejoin="round" d="M243.7 209l-1.2 1c-1 1-1 1.5-1.4 2.8 0 1.3 0 2 1 3l1.7 2.3c.7.8 1 1.4 1.5 2.2-.5-.6-1.3-1.3-2-2.3-.6-.6-1.2-1.5-2-2-1.4-.6-2-.7-3-.5-1 .6-2 1-2.7 1.8-.8.7-1.6 1-2 1.8-.7.6-.8 1-.8 2.2 0 1.3.3 1.8.6 3 .5 1 1 2 1.4 2.5.3.3 1.4 1.7 1.6 1.5-.6-.3-2-1.5-2.8-1.7-.8.3-2.4.2-3.5.2-1.2 0-2 0-2.8.4-1 .4-1.8.8-2.7 1.5-1 .4-1.7.8-1.8 2 0 1 .6 1.2 1.4 2 1 1 1.8 2 3 2.8.5.7 1.7 1.7 2.2 2.2.6.3 3.6.2 2.5.2-1 .3-4.8 1-5.6 1.5-.8.8-1 1.6-1 3 0 1.3.3 2.3.5 3.5.5 1 .7 2 1.3 2.7.4.6 1.4 1.6 2 2l3.3 1.4 2.3.7h-3.7c-1 .2-1.7.3-2.2.8-1 .3-1 .7-1.6 1.2 0 1 0 1.8.6 2.5 0 1 .6 1.7 1.2 2.2.5.8 1.2 1.4 1.8 1.8 1 .8 1.2 1 2 1.3 1 0 1.8.4 2.7.6.6.3 1.8.5 2.4 1l-2.3-1c.6.3 1.8.5 2.4 1l1 .2c-1 .2-2.4.2-3.5.7-1.5.4-3 .7-3.5 1.6-1 .4-1 1-1.3 1.8 0 1.2 0 1.6.2 2.5.5.6 1 1 1.7 1.5s1.8 1.5 2.7 1.8c1 .6 1.7 1 2.5 1.3l-3 .2c-.8.4-1.3.4-1.7 1-.7.5-1.2 1-1.3 2-.2 1 0 1.5.5 2.5l2 1.6 3 1h.3c-.6.4-1.6.4-2.5.4-1 0-1.5.4-2.2 1-.7.6-1 .8-1 2s0 1.7.6 2.3c.4 1 1 1.4 1.7 2 .7.4 1.8.6 3 .6 1 0 2.3 0 3.5.2.6 0 4.6.7 4.7.6" stroke-width="1.0066579999999998" fill="none"/><path stroke-linejoin="round" d="M225 241.2s-.5.6-.7 1.2c-1 .8-1 1.5-2.3 1.7-.8.3-1.5.2-2.4 0l-1.6-1.4c-.5-.6-1.3-2-1.8-2.4M226.7 248.4c0 .3-1 2-1.2 2.6-.7.8-2 2-3 2.7-1 .2-1.5.5-2.7.6-1 .3-2.2.2-3.3.2-1-.2-1.5-.6-2.4-1-.3-.5-2.7-2.5-3.4-3" stroke-width="1.0066579999999998" fill="none"/><path stroke-linejoin="round" d="M225.5 251c0 .4-.4 4.8-1 6.8l-1.8 2.8c-.7 1-1 1.7-2.3 2.3-1.3.4-2.7.5-4.3.5-1-.2-2-1-3.3-1.2-.8-.5-1.8-1-2.5-1.7-.7-.6-1.6-1-2-2M229.4 269h-.2c.6 0 .3 0-.8.2-1.4.2-2.3 0-3.5-.4-1-.3-2-1-3-1.8-.8-.8-1.6-1.6-2.2-2 0-.7-.4-1.3-.8-1.7 0 1 0 2 .2 3 0 1-.2 2-.4 3-.3 1-.8 1.5-1.7 2.4-1 .2-2.2.4-3.5.4-1.5 0-2.8-.2-4-.3l-2.2-1" stroke-width="1.0066579999999998" fill="none"/><path stroke-linejoin="round" d="M229 269.2c-.6 2.3-3.2 3.5-3.7 4-1 .4-2 .7-3.4.7-1.3 0-1.5 0-2.2-.7-1.2-.4-1.5-.7-2-1.4 0-.4 0-.3-.2-.3M231.7 281.3l-.2.2c.4-.5.2-.3-.2.8-.7 1.2-1.5 1.4-2.7 2-1-.3-1.5-.7-2.7-1.4-1-.7-2-1.7-2.7-2.7-.6-1.4-1-2.6-1-4-.3-.8-.4-1.5-1-2v4.3c-.2 1-.2 1.7-.5 2.7 0 1.2-.4 2-.8 3-.7 1-2 1.4-3.5 1.5-1.2.3-2.7.2-4 .2-1 0-1.8-.3-2.7-.6-1-.6-1.4-.8-2.3-2-1-1-2-2.3-2.6-3.3-.4-1-1-4.5-1.2-5.8v3.4c-.2 1.8-.3 3.6-.3 5.5v3.4c-.3 1.4-.4 2-1.3 3L200 291c-.5.6-1 1-2 1.3-.8.5-1.6.7-2.5 1-.5 0-1 .2-1.2 0" stroke-width="1.0066579999999998" fill="none"/><path stroke-linejoin="round" d="M232.3 290c-.5.8-1.4 2.3-2.3 2.5-.8.5-2.2.4-3.6.4-1-.3-2-.2-2.5-1-1.7-1-3-2.2-4.4-3.6l-1.4-2.2c-.5-.2 0 .5.2.8.7 1 1.2 2.2 1.4 3.5.3 1 .3 2.3 0 3-.2 1-.5 2-1.4 2.7-.4.5-1 .4-2 .4-1.4-.2-2.4-.7-3.7-1.2-1.4-1-2-1-2.7-2.5l-.6-4.8c0-.5 0-2.8-.3-3l-1 4.5c-.3 1.3-.4 1.7-1.7 1.8-.6.3-1.6 0-2.6 0-.8-.3-1.2-.4-1.7-.8l-.6-.8M235 292.5h-.3c.6 0 .3 0-.4 1-.4.8-.6 1.7-.8 2.5 0 1 .4 1.4.8 2 1.2.8 1.4 1 3 1.3 1.5.3 6.4 0 8 .2 1.3.2-3.5 1-4 1-.8.4-1.7.6-2.5 1.2-1 1-2 1.6-2.6 2-.2 1-.4 1.6-.4 2.7.2.7.6 1.4 1 2 .7 1 1 1.3 2 1.7 1.7.2 3.3.3 5 .3 1.6-.4 4.5-1 5.6-1.7.3 0-1.2.4-1.4.5-.7.4-1.3 1-2.2 1.7-1 .4-1 1-1.6 1.7-.6.6-.8 1.2-1.3 1.8-.2 1-.2 1.4.3 2.2.8 1 1 1.5 2 1.7l2 1.5c.4.2 3.4.3 3.2.6-1 .2-4.7.5-5.3 1-1 .2-1 .6-1.3 1.6 0 1 .2 1.4.8 2.2.3.6 1 1 1.6 1.5.5.4 4 1 4.7 1.7 1 .3-3-.3-3.6-.3-.6.3-1.7.2-2.6.2-.4.5-1 1-1.3 1.7-.3.6 0 1.4 0 2 .6.7 1.3 2 1.7 2.5.6.5.8 1 1.8 1.3.4.4 4.2 1.8 4.8 2M243.3 332.2v.2c0-.6 0-.3-1 .4-.5.6-1.3 1.3-1.6 1.8-.2 1 0 1.4.4 2.3.6.3 1.3 1.2 1.7 2 1 .8 1.6 1.3 2 2 .7.2 3 1 3.5 1.5-1 0-4-1-5-1-1.4 0-2 0-3 .5-.3.6-.7 1-1 1.8-.2.8-.5 1.4-.6 2.3-.3 1 0 1.4.4 2 .7.7 1 1 2 1.4.5.5 1.2.8 2.3.8.5.2 2.7 0 3.3 0-.7.5-3 1-3.7 1.2-.7.3-1.5.6-2 1-.4.7-.7 1-.7 2.3.3.8.8 1.6 1.8 2.4 1 1.2 1 1.4 2.3 1.8 1 .5 5.5 0 6.6 0-1 .2-5.6 1.5-6.7 2.2-.7.5-.7 1 0 1.8.5 1 1 1.4 2 1.7l2.7-.2h5.5c-.8.3-5 1-6 1-1 .4-1.5.4-1.7 1.4 0 1 0 1.7.4 2 .5 1 .8 1 2 1 .6.5 1.5 0 2.3 0h7M257 379.2c.6 0-6.3-9-9.2-8-1.3.3-2 .3-2.6 1.3-.8.7-1.5 2-2 3v3c.3 1 .8 1.8 1 2.8.2.4.5 1.4.2 1.8l-.7-2c-.2-1.5-.3-3.2-.6-4.6l-2-2h-3.2c-.7.8-1 1.3-1.8 1.8-.7.2-2.4.3-3.3.4" stroke-width="1.0066579999999998" fill="none"/><path stroke-linejoin="round" d="M218.8 295l.8 1 1.4 1.2c1 .7 1.8 1 3 1.3 1.4.4 2.7.6 4 .8 1 0 2.3 0 3.3-.2h2.8l1-.4M235.8 306.4v.2l.2 1c0 1-.2 1.4-.6 2-1 .8-2 1-3 1.3-1.6 0-3-.4-4.2-1-1-.7-1.4-1.3-2-2.5-.7-2-1.2-3.6-1.3-5.8 0-1.2 0-2-.7-2.6-.3-.2-.3.6-.6 1 0 1.3-.6 2-1.2 3.2-.8.7-1.6 1.5-2.7 2.2-1 .3-1.4.4-2.4.2l-2-2.2c-.3-1-1-2-1.5-3.3-.5-1-1-2-1-3.2-.5-1-.5-1-.7.2-.6 1.3-.8 2.2-1.5 3.3-.8.7-1.6 1.3-2.8 1.6-1.5.2-2.4 0-3.7-.3-1-.3-1.5-.8-2-1.6-.7-.5-1-1-1-2-.5-.6-1-2-1.3-3-.4-.5-.7-1.5-.8-2.3-.3-.2-.5-.6-.6-1" stroke-width="1.0066579999999998" fill="none"/><path stroke-linejoin="round" d="M242.8 310.3c0 .4-.4 3-1 4-.5 1-.7 1.5-2 1.5-1.2-.2-2.2-.8-3.2-1.6-1-1-1.7-2-2.3-3-.6-.6-.5-1-.4 0 .6.6.5.6.5 1.8v3c0 1 0 1.8-.4 2.5-.3 1-.7 1.6-1.7 2.4-1.2.2-1.4-.2-2.3-1-1-.3-1.5-.7-2.2-1.3-.6-.6-1.2-1.3-1.6-2-.2-1-.3-1.7-.3-2.7 0-1 .8-3.5.8-4.5-.2-1.3-1 1-1.7 1.8-.4 1-1 1.8-1.7 2.3-1 .8-2.2 1-3.5 1.4-1.2 0-2.2-.2-3.3-.4-.7-1-1-1.5-1.4-2.4 0-1.3.3-2.2.5-3.3.2-1.2.5-3 .5-4 0-1.2-.2 1-.5 1.6-.2 1.2-.5 1.3-1.4 2-1 .2-2 .3-3.2.3-1.2 0-2.3 0-3.5.3-.7-.3-1-1.4-1.6-2.3-.3-.8-.4-1.5-.4-2.6 0-1-.2-1.7-.4-2.5-.6 1-1 1-2.2 1.2-.6 0-1.4 0-1.8-.2-.4-.7-1-1.3-1.2-2l1.2 2c-.4-.7-2-2.7-2-3.3" stroke-width="1.0066579999999998" fill="none"/><path stroke-linejoin="round" d="M244.4 318l-.2 2c-.4.8-.5 1.5-.7 2.6 0 1 0 1.7-.4 2.4-.3.7-1 1-1.5 1.5-1.4 0-1.8-.2-3-.8l-2.3-2c-.6-1-1.2-1.6-2-2.5l-.6-.8c-.4-.8.5.5.7 1.6.3 1 .4 2 .4 3.2 0 1.4-.2 2.4-.4 3.7-.5 1-.5 1.3-1.8 1.4-1.3 0-2.6 0-4-.2-1-.2-2-.6-3.2-1.3-.2-.8-.4-1.7-.4-2.7 0-1.3.2-2.3.3-3.5l1-3c.4-.5.6-1 .7-1.7-.2 1.4-1 2.3-1.3 3.4-.6 1.2-1.6 2.4-2.2 3.6-.8.8-1 1-1.8 1.5-1-.2-1.4-.5-2-.8-.5-.6-1-1-1.3-2-.7-.8-.8-1.2-.8-2.5v-2.5c0-.3-1-3.8-1.4-4M216 314.8c-.2.2-1.5.6-2.5.6h-3.7c-1.2 0-1-.5-1.4-1.4-.4-1-.6-2-.6-3-.2-1-.7-1.2-1-2-.4.4-.5 0-1.5 0l-4 1c-1 0-2.3.3-3.6.3-1 0-2 0-2.6-.6-.3-.7-.3-1.6-.3-2.7 0-1 0-2.2.4-3 .5-.8 1-1.6 1.7-2.3l1.5-1.4c.4-.6 1-1 1.2-1.6.5-.5.7-1 1-1.7" stroke-width="1.0066579999999998" fill="none"/><path stroke-linejoin="round" d="M188.5 302.2c.4 0 3 .7 3.7 1.2 1 .5 1.4 1.2 2 1.8l1 2.3v2.8l-1 2.5c-.4.6-.8 1-1.6 1.4-1 .8-2.7 1.5-4 2l-3 .3c-1 0-2 .6-3 .6s-2.5 0-3.2.3c-.3 0 0 0-.4-.2M217.6 323l-1.3 1-1.2 2.3-.5 2.6v2.8l.2 2.6v5.8-3 3M220 326c0 .3-.2 3.6 0 4.4 0 1.2.4 2 .8 2.8.7.5 1.5 1.7 2.3 2.5.7.6 1.3 1 2.3 1.2 1.2 0 2 .3 3 0 1-.2 2-1 3-1.3l1.4-3 .4-2c.5.4 1.3 1.4 1.7 2 1 .4 1.7 1 2.5 2 .7.8 2 .5 3.2.6" stroke-width="1.0066579999999998" fill="none"/><path stroke-linejoin="round" d="M222.5 340.8s2.4 3 3.2 3c1 .3 2 .4 3 .5 1.4 0 2.3-.4 3.4-1 1-.8.7-2 .7-3.5v-3c0-1-.3-1.6-.4-2.4.2 1.4.8 2.5 1.2 3.7.5 1 2 4.7 3.3 5 .6.7 1.2.3 1.8-.6 1-.7 1.4-4 2-4.7v-1" stroke-linecap="round" stroke-width="1.0066579999999998" fill="none"/><path stroke-linejoin="round" d="M222 348.5s1.6 1.4 2.7 2c1 1 1.3 1 2.7 1 1 0 1.3-.8 2-1.5 1-1 1.3-2 1-3.3 0-1-.3-3-.6-2.5l1.3 2c.5.7.8 1 1.7 1.3.5.5 1.3.8 2.2.8.4.4 1 .3 1.4-.2.7-.2 1.2-.5 1.6-1l.8-1.5" stroke-width="1.0066579999999998" fill="none"/><path stroke-linejoin="round" d="M237.6 347.7v.2c0-.6 0-.3.2.8l.2 3.4c-.3 1.3-.5 2-1.2 3-.7.2-2 0-3 0-1-.7-4.3-3-4.8-4-.3-.2 2.7 2 3 2.7.5.6 1 1 1 2 .3.5.4 1.8.3 2.2-.2 1-.6 1-1.4 1.4-1 .2-2 .2-3 .2s-1.4-.4-2.2-.6l-.3-.2" stroke-linecap="round" stroke-width="1.0066579999999998" fill="none"/><path stroke-linejoin="round" d="M241.5 356.7V357.6l-.6 2.5c-.3 1-.8 1.2-1.6 1.8-1 .3-2 .3-2.6 0-1.3-.7-2-1.2-3-2.2l1 1.2c.7.6 1 1 1.2 2.3.2 1.2.3 1.7-.4 2.4-.5.7-1.3 1-2.5 1.4h-2.8c-1 0-1-.4-1.4-1M244.5 363v3c-1 1.2-1 1.3-2.4 1.8l-3.6.2c-.8-.3-1.5-1-2-2-.8-.5-.3.4 0 1 .4 1 .8 1.8 1 3 0 1 .5 1-.4 1.2-1 .3-2 .5-3.3.5-1-.2-2 0-2.6-.4" stroke-width="1.0066579999999998" fill="none"/><path stroke-linejoin="round" d="M237.4 369.7c0 .4.5 1 1 1.6.4.8 1 1.2 1.6 1.6l2 1c1.2 0 1.7-.3 2.5-.5 1.3-.4 1.3-.6 2-1.4.3-.6.6-1 .7-2 .3-.6.2-1.6 0-2.2 0-1-.5-1.5-.8-2.3-.3 0-.4-.8-.6-1M209.4 315.6s0 .2-.2.2c.5-.5.3-.2-.8.4-1 .3-1.4.6-2 1.3-.8.5-1.5 1-1.7 2v3c-.2.6-.2 2-.2 3s0 2-.2 3c0 .7.5 1.6.3 2.3 0-1-.5-2-.5-3-.3-.7-.7-2-1.2-2.4-.5-.5-1-.7-2.2-1-1-.3-1.8-.2-2.5.4-.3.5-1 1.3-1.3 2.3-.2 1.2-.6 1.8-.6 3 0 1-.3 1.7 0 2.6v6.2c0 1.5-.4-.2-.7-.7-.2-1-.5-1.7-1-2.3-.6-.7-1.4-1-2.5-1-1 0-1.6 0-1.8.8-.3.6-.4 2-.4 2.8v5.7c-.2-1-.6-1.5-1.3-2.4-.7-.8-1.3-1-2.6-1.2-1.4-.4-2-.2-3 .4-1 1-1.8 1.3-2 2.4-.4.5-.4 1.5-.5 2.3v3c0 .6-1-.6-1.5-1.4-.7-.8-1-1-2.2-1-.8.3-2.4 1-3 1.5-.6.4-.5 1-.5 2v3c0 .6-1 .6-1.6 0-.8-.2-1.8-.8-2.7-1-.8-.3-1.4-.3-2 0-.4 1-.7 1.8-.7 3-.3.8-.4 1.4-.4 2.4" stroke-width="1.0066579999999998" fill="none"/><path stroke-linejoin="round" d="M214.5 322.4l2.7-1c.5 0-2.6 1-3.7 1.4-.8.3-1.7 1.2-2.5 2-1.7 1.5-3.7 3.8-5.3 5.6-1.5 1.4-2.5 2.5-3.5 4-2 1.7-3.5 3.2-5.3 5.2-2 1.4-3.8 2.7-5.6 4.2-1.8 1-3.4 1.7-5.3 2.5l-4.8 2c-1 .7-1.4 1-2.5 1.5-1.6 1-3.4 1.6-4.7 2.4-.6.4-1 1-2 1.5-.7.7-1.5 1-2.5 1.6l-3.7 1.2-3.6 1.5c-3.8 1.3-7.6 2.8-11.5 3.4-1 .4-2.2.8-3.3.8-1.5.6-3.4.6-5 1-1 0-2.4.5-3.3.7l-2.8.7c-1 0-2.2.4-3 .6l-2.3.8-3 2.5M185 316.8c.2.4.5 1.7.5 2.7-.2 1-.4 2.2-.8 3-.4.8-1.6 1.6-2.3 2.3l-2.4.6c-1 0-3.5 2.4-4.7 2.5H173c-.4-.2-.5 0-1-.2.8.5.6.7.7 1.7 0 1 .8 2.2.6 3.2-.2 1.2-1.3 2.7-2 3.2-1.2.5-2 1-3.2 1.3l-2.8.2c-.6 0-1.2 0-1.6-.2M196 310.5v1.2c.2 1.4.4 2.3 1.3 3.3.7 1 1.8 1.6 3 2.3h3c.7-.2 2.3 0 3 0M198.3 317.3s.5-.2.5 0c.5-.7-.4 0-1.5.8-1.2 1-1.7 1.6-2 3.2 0 1 .2 1.5.6 2.2 0 1 .6 1.8 1.3 2.3.3 0 .2 0 .2-.3" stroke-width="1.0066579999999998" fill="none"/><path stroke-linejoin="round" d="M185 322.2s1 .5 1.3 1l3.7 2.6c1.2.5 2.4.2 3.7-.4.8-.2 1.4-.5 2-1.2l.2-.2M188.7 325.5c-.5 1-1.3 1.5-1.4 2.6 0 1.2.2 2 .4 2.8.4.7 1 1.8 1.5 2.4.3.6.7 1 1.2 1.5-.4-1-1.3-1.8-2.3-2.7-.2-.4-.7-.6-1-.2-1 0-2 .3-2.5.6-1.2.4-2.2 1-3 1.4-.7.8-.7 1.2-.7 2.5l-.2 4c.3 0 .4.3.4 1-.2-1-.7-2.3-1.2-3-.5-.7-1-.8-2-.8-1 .2-1 .7-1.7 1.2-.5 1-1 1.2-1.4 2.3-.5 1.2-.6 2-.6 3.5.3 0 .6 2 .6 1.8" stroke-width="1.0066579999999998" fill="none"/><path stroke-linejoin="round" d="M179.5 325.5v.2c0-.6 0-.3-.6.6-.4 1-.5 1.5-.5 2.6.2 1 .6 1.7.8 2.8.8 1 1 1.4 2 1.8.4.3.7.4 1 .2M173.8 332.8h-.2v1.4c0 1 0 2 .2 3 .2.7 1.4 1 2 1.5M163.2 338l.4-.5c0-.6-.4.3-.8 1.4-1 1-1.7 2-3 3.2-1 .4-2 1.2-3.2 2-1.3.8-2.6 1.2-3.8 2-1.4.5-3 1-4.5 1.3-1.4.5-3 1-4.5 1l-3.3 1c-1.3.3-2.7.8-4 1.3-.8.3-1.4.5-2 1-1.4.4-2.6 1.2-3.8 1.8-.5.6-1.7 1.3-2.5 2-1.2.8-2.6 2-4 2.5-1.4 1-3 2-4.6 2.4-1.3.6-2.6 1-3.8 1.8l-3 2.3c-.5 1-1.3 1.6-2.2 2.2-.6 1.3-1.7 2.2-2.6 3l-1.6 1.5c-.7.7-1.3 1.3-2 1.7-.5.6-.8 1-1.7 1.3-.6.6-1.3.7 0 .8 1-.3 2.6-.3 4-.3 1-.3 2.6-.4 4-.6 1 0 2.4-.3 3.8-.3 1.5.2 3.7-.4 5.3-1l4-2.3c.7-.5 1.3-.7 2.2-1.2l2.2-.8M168.7 336.5c0 .2 0 1.4.2 2 .3 1.3.8 2.3 1.7 3 .8.5 2.2.4 3.4.4M164.4 337.5c-.2 0 0 .5-.4 1 0 1 0 2.2.4 3 1.4.5 2.3.8 4 1 1-.2 1.4-.4 2-.7.8 0 0 .5-.7 1-.8 1-1.2 1.6-.8 3 .3.8 3.6 2 4.2 2.4" stroke-width="1.0066579999999998" fill="none"/><path stroke-linejoin="round" d="M160 341.8c0 1 0 1.5.5 2.2.6.5 1.4.5 2.5.5 1.8 0 3.5-.5 5.3-.5 1 0-.7.2-1 .3-1 .3-1.6.4-2.3 1-1 .4-1.6 1-2.6 1.8-.4.7-.6 1.5-.2 2.2.4.6 1 1 1.6 1.4.8.6 1 1 2 1h.4" stroke-width="1.0066579999999998" fill="none"/><path stroke-linejoin="round" d="M157.4 343.7c0 .3-.6 1-.6 2s.4 1.4 1 1.8c.6.5 1.5.4 2.5.4h1.2c-.5.3-1.5.4-2 .8-.6.4-1 .8-1.2 1.8 0 1-.2 1.6 0 2.7l1.2 2.2c.4.6 2.4 1.8 3.2 2M151.7 347c-.2.8 0 1.5 0 2.4l1.5 1.6c.5.5 2.4.2 3.4.2s1.4.2.3.2c-.7.5-2.3 1.2-2.6 2.3-.3.5-.2 1.6 0 2.2 0 1 .4 1.3.6 2.2.6.5.8.8 1.6 1.2l-1.6-1.2c.6.5.8.8 1.6 1.2v.2c0-.3 0-.5-.4-.6" stroke-linecap="round" stroke-width="1.0066579999999998" fill="none"/><path stroke-linejoin="round" d="M145 348.4c-.4.8-.7 1-.4 2 .5.7 1 1.5 1.8 2 1.2 1 7.6-.4 8.6-.3.2.4-7.8 1.7-8.4 3.5-.2.7-.3 2 0 3 0 1 .3 1.4.6 2 .3.7.5 1 1.3 1.3-.3 0-.2 0-.2-.2" stroke-linecap="round" stroke-width="1.0066579999999998" fill="none"/><path stroke-linejoin="round" d="M137.2 351c-.3 1 0 1.3.4 2 .5.8 1.4 1.7 2 2.2.5.2 7.2-.3 7-.3-.7 0-6.8 1.7-8 2.3-.4 1-.4 1.5-.4 2.7 0 1 .2 1.5 1 1.8.6.3 1.8.4 2.5.4l1.5.3" stroke-linecap="round" stroke-width="1.0066579999999998" fill="none"/><path stroke-linejoin="round" d="M131.5 353.3c0 .3-.3 1.3-.2 2 .3.7 0 1 .6 1.4 0 1 .4 1.7 1.3 2 1 0 2 0 2.5-.6.8-.2 1.3-.5 2-1l-2 1c.8-.2 1.3-.5 2-1l3.8-1c-.6.5-4.6 2-5.4 2.4-.6.5-1 .6-1.2 1.6-.2 1-.2 1.6 0 2.4l1.4 1.5" stroke-linecap="round" stroke-width="1.0066579999999998" fill="none"/><path stroke-linejoin="round" d="M127.2 356c0 .3-.6 1.3-.6 2 0 1.2.4 1.4 1 2.2h3c.7 0 3-.8 4-.8-1 .2-3.3 1.4-3.7 2-.7.2-.7.6-.7 1.2-.3.6-.2 1.6 0 2l1.2 1.7" stroke-width="1.0066579999999998" fill="none"/><path stroke-linejoin="round" d="M122 359l.3 2.2 2.2 1.6c1 0 5.2-1.8 6.3-1.8.8 0-4 2.2-4.2 2.3-.4.6-.7 1-.8 2-.4.6 0 1.6 0 2.3.3.5.6.7 1.2 1-.3 0-.2 0-.2-.2" stroke-width="1.0066579999999998" fill="none"/><path stroke-linejoin="round" d="M116.8 361.6l-.2 1c-.4.6 0 1 .4 1.5.6 1 1.5 1 2.4 1.3 1 .2 2 .2 3 .2.7 0 3.6-2 4-2.2-.7.2-4 2.4-5 2.6-1 .5-1.4 1-1.8 2 0 1 .4 1.4 1 2.2.3.8 2 0 2.7.4" stroke-width="1.0066579999999998" fill="none"/><path stroke-linejoin="round" d="M113 365c0-.5 0-.2-.7 1-.2 1-.3 1.4.4 2 .5.7.8 1 1.8 1.2.3 0 5.4-2.7 6-2.7-1 .6-6.6 3.8-7 4.7-.4.8-.4 1.5-.4 2.5M107.6 370.2c0 1 0 2 .4 2.5 0 1 2 1 2.8 1.3" stroke-width="1.0066579999999998" fill="none"/></g></svg>