<!DOCTYPE svg [
	<!ENTITY ns_flows "http://ns.adobe.com/Flows/1.0/">
]><svg version="1.2" baseProfile="tiny" xmlns="http://www.w3.org/2000/svg" width="640" height="480" viewBox="65.5 0.938 640 480"><path fill="#FFF" d="M356 244.6h1l-1.4-.6v.7h.5zM410 246.3v-.6s-.2 0-.2.2l.2.4zM418.3 263.5l.4-.8h-1.8c-.4-.2-.8-.2-1-.2 0 0 .3.3.3.6.6 0 1.2 0 2 .5zM408.5 243.8v.5-.5zM421 259.5l.7-.8.7-.8c-.6 0-1.3.3-1.6.3l-4.7 1.5-.8.5c1.3.2 2.8.6 3.7 1l.3.4s0-.2.2-.3l1.5-2zM411 249.2v.2l.3.7-.3-.8zM355.3 253c0 .2 0 .4.2.6 0-.7.3-1.3.4-1.6-.4 0-.7 0-1 .3 0 .2 0 .4.2.6zM410.7 242l-.5 1.3h.3l1.3 2c-.2-1.4-.6-3-1-3.8v.4zM407 255.4c1.2-1.8 1.5-3 2-6 0-.4-.3-1.4-.7-2l-.2 3v1c0 1.2-.4 2.5-1 4zM348.7 228.7c.2.4.3 1 .6 1l.4.3v-.5l-1-.8zM358 260h.2zM354.7 248.6s0-.3.5-.8c-.4-.2-.6-.5-.7-.8 0 .2-.2.4-.4.6l.7 1zM415 263.7h-2.2.4l1 .7.8-.7z"/><path fill="#FFF" d="M705.5 292.6V189.3h-265V1h-110v188.3h-265v103.3h265V482h110V292.5h265zm-359-84c.8-.6 1.6-1 2.6-1.4l3-1c.4-.3 2.5-1 2.8-1-1.2-2.4-.7-3 1.6-4.3 5-3.2 11-4.6 17-4.5 0-1.6 0-2 1-3 .7-.6 1.6-.8 3-1 4.4-.2 10.4-.3 14.8 0 1 .2 2.2.5 3 1 1.2 1.2.4 2.7.7 3l6 .6 6.3 1.5c1.2.3 6 2.7 6.8 4 .6.6.3 1.3 0 2 0 .3-.2.4-.3.6l5.8 2.2c1.5.6 4 2 4.8 3.2l-4.8-.4c.6 1 2.5 3.6 2.7 4.4-3.8-2.6-4.3-3-9.3-4-2-.6-3.8-1-5.2-2-.7-.3-1.4-.8-1.8-1.4-.4-.4-.4-.7-.2-1.2 0-.4.5-1 .5-1.2l-5-1.6c-4.2-1.2-9.3.3-11.8-.4-2.8-.7-1.3-2.7-1.3-4.3h-9l.5 2.8c0 1-.8 1.4-1.7 1.6-2.6.7-6.4-.8-12 .4-2.2.5-3 1-4.7 1.6.5 1.2 1 1.7.3 2.5-2.6 3-8.7 3-12 5-1.2.4-2.4 1-3.3 1.8-.3 0-.7.5-1 .6.7-1.2 1.2-2.2 2-3.3l.7-1-4.7.4c.7-.8 1-1.3 2-2zm57.7 8.7V247.7c0 2.6 0 5.3-1.8 7.4-.4.5-.8 1-1.3 1.3l-1.4 1c-.5 0-1 .4-1.7.5-.7.2-1.5.2-2.6.3h-6-.4c-.6 0-1.2 0-1.7.2-.7.3-1.3.8-1.7 1.5 0 .2-.2.3-.5.5l-.5.5-.6-1-.7-.7c-1-1-1.7-1-3.2-1h-4c-2.3 0-3.6 0-4.2-.2-1.4-.2-3.4-1-4.2-2.2l-1-1c-1.4-2.2-1.4-4-1.4-7V245v-28l-2.4-2.4-1.2-1.3-.8-.8c-.2-.2-.4-.4-.5-.8l-.3-.8 50-.2-5.6 6-.2.2v.3zm20.3 18c0-.2.3-.3.4-.5l.4-.6c.4-.5.7-1 1-1.2l.8.4c-.2 1.3-.6 2.5-1.3 3.6l.8-.7s1.4-1 2-1h.5v.8l-.2.2-.4.5c-.2 0-.4.3-.6.4l-4 4-1.2 1.3.4-.2 1.2-.7c1.2-1 2.5-1.8 4-2.6l.7-.4v.8c.2.6-.3 1-.7 1.3 0 0-.2 0-.2.2l-1 1c-.2 0-.4.3-.7.6.6-.2 1-.5 1.5-.5H428.4l.4.2v.5c-.2.3-.6.5-1 .7-.7.5-2 1.4-3 2.5l4-1-.2.8s0 .2-.3.3h.2l.2.3c.2.2 0 .4 0 .6l-.5.8-.5.5c.3 0 .6 0 1 .6l.5.4-.5.3-1 .2H426c0 .2 0 .3-.3.5l-.8.6h4.2v.7c-.2.6-.8.7-1.2.7h-.3c-.2 0-.3 0-.4.2l-.2.3c0 .4-.6.5-1.5.8h-.3-.2c1.2 0 2.5-.3 3-.3h.3l.7.5-.3.4c-.2.3-.6.4-1 .4l-3 .8h-.3l-1.8.5v.2l-.5.4c-.2 0-.4 0-.6.2h1c.6 0 .8 0 .8.3v-.2l1-1-.7 2.6-.5 2.6c.2 0 .7-.4 1-.6l1-.5 1.4-.5h1.3c-2 1.6-3 3-3.8 5.5-.8 2.2-2 4.3-3.8 6-.5.4-1 1-1.8 1.3-.2 0-1.2.2-1.5 0-.5 0-1-.4-1-.4l-1.2 2c-.3.5-.5.8-.8 1-.3.5-.5.8-.8 1-1 1.3-2 2.6-4.4 3-1 0-2.2 0-3.2-.2-1-.3-1.7-.5-2.6-1-.7-.5-1.6-1-1.7-2v-1.2c0-.4.5-1.4.5-1.4-.6-.3-6.5-2-7-2h-.4l-2 .7 1 .2 2.3.5 1 .2-2.3 1.2 1.2 2.3-.8-.2c-.6 0-2-.6-3.3-1h-.2c0 .2-.3.5-.6.7l2.7 1.2c.3 0 .6.2.7.6.2.4-.2.8-.4 1-.5.3-1.5-.3-2-.5l-3.8-2.2c-.5 0-1-.4-1.8-.8l-.8.2h-.2-2c-.2 0-.3 0-.5.2-1.6 1-3.3 1.8-5 2.7-.5.2-1.7.7-2.3.5-.5-.2-1-1.2.2-1.6l2.7-1.2-.2-.3v-.2h-.6c-1 .5-2.7 1-3.3 1l-.8.3 1-2.3-2.3-1.3 1-.2c1 0 1.6-.3 2.3-.5l1-.4-1.5-.7h-.3c-1.5.3-5.4 1.5-6.4 2 .4 1.3 2 2.7-1.2 4.5-.8.5-1.5.7-2.5 1-2.4.6-5 0-6.8-1.7l-.8-.8c-1.3-1.6-2-2.5-3-4.3-.6.3-.5 1-2.2.3-.6-.2-1.5-1-2-1.4-1.4-1.6-3-3.8-3.6-6-.6-1.8-1.6-3.5-3-4.8l-1-.8c.8 0 2.2.2 2.8.5.7.2 1.4.6 2 1l-.4-2.6-.7-2.5c.2 0 .3.2.4.3l1.3 1.4c1.3 1.7 2.5 2.6 3.7 4.7l.6 1c.8-.6 1.3-.8 2.6-.2.8.4 1.5 1 2 1.7l3 4.3c.3 0 1-.6 1.3-.8 1.6-.8 3.2-1.3 5-2l4-.8c-.4 0-1.4.2-4 1l-.7-1.5c-1 .4-1.2 1.2-1.2 1.2-1 1.5-5 0-5 0-1.3-.3-1-.6-1-.6.2 0 .3-.2.5-.3l1-.8c-.7-.6-1.2-1.3-1.6-2-.3.2-.5.4-1 .5-3 .4-5-3.7-5-3.7 0-.8.4-.3 1 0H353.8l-.5-1c-.7 0-1.5-.5-2-1.3-.7-.8-.6-1-1-1.2H349s-.3-.2-.2-.4l.4-.3c-.2 0-.3-.3-.3-.6-1-.2-1.4-.8-1.4-1.6 0-.4.2-.7.4-1-.7-.2-1.5-.7-1.5-.7-2-1.6-2.4-2.7-2.4-2.7 0-.3 2-.2 2-.2 2.2 0 2.7.4 2.7.4h.2c0-.2.2-.4.5-.5-.2 0-.5-.3-1-1 0 0-1 .5-3.2 0 0 0-1.3-.3-3-2.3-.6-1 1.3.4 2.5-.3 0 0-1-.3-2-3 0 0-.7-1.3-.2-1.3 0 0 .2.3.5.3 0 0 3.6.2 5 2.5 0 0-.2-1 .4-.5l.6.4c0-.5 0-1-.2-1.6h-.3c-2.4.2-4.6-2.5-4.6-2.5 3-1 4-.6 4.2-.5l.2-.4c-1 0-1.7.2-1.7.2-1.5.2-2.8-1.3-2.8-1.3-2-2.7-1.5-3.6-1.5-3.6l.4.2c.6.6 1.7.7 1.7.7-3.2-2-1-6.4-1-6.4.3-.5.4.5.4.5.6 1.2 1.8 2 1.8 2 .7.8.7 1.2.7 1.2.3-1.5.7-1 .7-1l.8 1.2-.2-1c.2-2.2.5-2.6.6-2.7-.4-.7-.6-1.6-.5-2.2 0-3 .7-3 .7-3 .3 0 .4 1 .7 1.5v-.2c0-1 .8-1.7 1.7-1.7.4 0 .6 0 1 .2h-.2c-1-2.8 2-6.4 2-6.4l.8 3c2.2-2.2 4-2.6 4-2.6v1.7c1.5 0 2-.4 2-.4-.2 2.2-3 4.5-3 4.5-1 .6-2.3.4-2.3.4-.8 0-1.3.4-1.7.8l.3.3 1.3.6v.2c.4 0 1-1.2 1.4-1.2 0 0 .5.3-.4 3.3-.2.6-1 1.8-2.3 2.2v.4c.6 0 1.2-1.3 1.6-1.3 0 0 .3.2 0 1.7l.5.5c.2-.7.3-1.8.3-3 0 0 0-.7 1.8-2.5 0 0 .8-.3 1-.8 0 0 .5-.3.6 1.7 0 0 2 0 2.4-1.4 0 0 0-.2.4-.2 0 0 .5 0-.4 3l1-.2s.6 0 .6.4c0 0-.5.3-1.3 1.6 0 0-1.5 1.8-3.3 1.7 0 0-1.3-.6-2.4 0l1 1.4c.6-.2 1.6-.3 2.5.4.5.2 1.8-.4 2-.2 0 0 .2.5-1.8 2.2h.2c.3.4 1.4 0 1.6.3 0 0 0 .6-2.3 1.6-.7.4-2.6.6-3.5-1l-.7 2.2c.7-.8 1.5-1.3 1.5-1.3 1 1.7.8 2.7.8 2.7l3-.7c0 1.3-1.3 3.2-1.3 3.2 2 .6 2.6-.3 2.6-.3-.7 3.7-4 3.5-4.7 3.4.5.2 1 .5 1.6 1 .5.6 0 .5 1.6 2 0 0 .3.4-2.4.7 0 .2 0 .3-.2.5 0 0 0-.2 2-.7 0 0 1.2-.5 1 0l-1 1.7s-.6 2.6-3 2.3c0 0-.3-.2-1-.3 1.6 1 2 1.7 2 1.7 2.2-3 3.4-2.6 3.4-2.6 0 .5-.6 1.5-.6 1.5-.2 1.2 0 2 0 2v.4c1.5-.7 2-.6 2-.6-1 4.2-2.8 3.2-3.2 3.5-.7.5-.3 1.6-.3 1.6v.5c1.2 0 1.6.3 1.6.3-.3-1.2-1.4-1.3-1.4-1.3-.2-.4.3-.4.3-.4h.5c1.7.4 2.7 1 3.3 1.6.3-.5.8-1 1.4-1 .5 0 1 .3 1 .6 0 0-.3-.7 0-1 0 0 2 .5 3.4 3.2 0 0 1-2 1.6-2 0 0 .8 2.2-.2 5.3l2.8-.4c6.5-1 13.7-1 20.3-.4 1 0 2 .3 2.7.4v-.5h.5l.5-.7c.6-1 1.2-2 1.7-3.4 0-.3 0-.6.2-1 0-.3.2-1 .7-1h.4l.2.3v.3l.2-.5v-.3c.2-.3.3-1 1-1h.4v.6h.4l.7-.2-.2 1c1.5-2.6 2-3.5 3.2-7.6 0-.4.3-.8.6-1l-.2-.2-.3-1.5v-.3-2c0-.6.2-1 .4-1.2v-.8c.4-1.5.8-3 1.3-4 .7-1.4 1.2-1.7 1.6-1.8l.5.2-.4-.3c.3-.3.6-1 1.2-1.2h.3l-.7-.8-.4-.4-.3-.3c-.3-.5-1.3-1-2-1.5-1.6-1-1.7-1.4-1.7-1.6l-.2-1 3.8 2c-.5-.7-1-1.2-1.5-1.6l-.8-.8c-.4-.2-1-.7-.7-1.2l.3-.5 1.8 1c-.8-.8-1.7-2-1.8-2.4v-1l.7.5 1.5 1.3.2.2 1 1 .6.7-.6-1-.8-.7-.2-.3-1-1-1-1c-.6-.6-1.2-1.2-2-1.7-.2-.3-.6-.6-.5-1v-.7l.6.2.8.5c-.2-.2-.4-.5-.4-1v-1l.8.7 1.6 1.3-.3-.7c0-.2-1-1-1.3-1.2-.2 0-.3 0-.4-.2-.7-.6-2-1.7-1.6-2.4v-.3h.7c.3 0 .5 0 .6.2.4 0 .6.3 1 .4l.4.3c0-.8-.2-1.6-.3-2.3v-.2-1l.2-.3.4-.4v-.5l.2-.6.6.5c.3 0 .4.2.6.6l.5 1c0-.3-.2-.5-.4-1l-.6-1.2c0-.2-.2-.5 0-1l.3-.3.7.6c.7.5 1 .7 1.7 1.7 1.4 2 2 3.7 2.5 5l.5 1.5.4-1.8c0-.3.2-.5.3-.8l.3-.7.3-.8c0-.2.2-.6.7-.7l.7-.2v.7l-.3 1.5-.5 3c.6-1.5 1.7-3.7 2.6-4l.8-.4c.2-.3.4-.6.7-.7l1-.3-.3 1-.4 1-.3.6c.3-.2.6-.4 1-.4h.6l-.2.6-.8 1.7c-.4.8-.8 1.5-1 2.3l-.7 2c0-.3.2-.5.4-.7 0-.2 3.4-4.4 4.6-4.4h.8l-.3.8-.7 1-1.7 2c1-.7 1.8-1.5 2.4-1.5H425.3l-2.5 3.5-.4.5-1 1c.3 0 .5-.3.6-.5 0 0 1.5-2 2.4-2h.2l.6.2-.3.6c0-.3.4-.5.8-.6h1l-2 3-.8 1.2-.7 1c-.2.3-.7 1.3-1 2.3 1-1.3 2-2.4 3.5-3.4 0 0 1.5-1 2.4-1h.8l.4.6-.6.3c-.2 0-.3.2-.5.3l-.4.3-.2.2-.4.4-.3.5-3 4c-.5.5-1 1-1.4 1.8l2-2.2z"/><path fill="#FFF" d="M410.8 269.3c1-1.3 2-3 2.8-4.2l-3.3.2c.5 0 1 .3 1.5.6l.6.4-.6.4-.6.2h-1.4c-.2-.2-.4-.2-.5-.2-1.7-.2-3.2 0-5 0h.4c2.5 1 3.8 1.5 6 2.7zM425.4 247.2l-.8.5h.8l.2-.2 1.4-1.2h-.2l-.4.3-1 .6z"/><path fill="#002D62" d="M65.5 1h265v188.3h-265z"/><path fill="#CE1126" d="M65.5 292.6h265V482h-265z"/><path fill="#002D62" d="M440.6 292.6h265V482h-265z"/><path fill="#CE1126" d="M440.6 1h265v188.3h-265z"/><path fill="#FFF" d="M369.2 230.6h-2.6v8h2.6v-8zM383.5 225.2v-4.6h-2.2V218h2.2v-2.2h2.6v2h2.3v2.8H386v1l1 1.5 1.2-.5.4.5v-10.8h-8V226l.5.6M402.8 238.5v-8h-2.3v8M386.7 257.2c.6-.2 1.2-.3 2-.3v-6h-.2c0 .3-.2.5-.4.7 0 .3-.6.7-1.4.7h-.7l-.2-.2c0 .4-.2.8-.5 1.2-.3.4-.8.6-1.5.7h-.2c-.3 0-1 0-1.3-.4 0 0 0-.2-.2-.3l-.3.6v-3.2h-.3c-.2 0-.5.4-.7.6v5.5c1.4 0 2.4 0 3.7 1.4l.3.4c.5-.7 1.3-1.3 2-1.6z"/><path d="M383.4 259.3c-1-1-1.7-1-3.2-1H376c-2.2 0-3.5 0-4.2-.2-1.4-.2-3.3-1-4-2.2h-.3c0-.3-.3-.5-.7-1-1.5-2.2-1.5-4-1.5-7V245v-28l-2.4-2.4c-.5-.4-1-.8-1.3-1.3l-.8-.8c-.3-.2-.5-.4-.7-.8l-.2-.8.3.7c0 .4.3.6.5.8l.8.8c.4.5.8 1 1.3 1.3 0 0 1.4 1.7 2.2 2.4v31c0 2.8 0 4.6 1.5 6.7l.8 1c1 1.2 3 2 4.3 2.4.6.2 2 .3 4.2.3H380c1.6 0 2.3 0 3.3 1l.7.8.5 1-.5-1-.6-.7zM392.4 258.3h-3-.5 6.5-3zM402.8 230.6v8zM386.7 257.2c-.7.3-1.5 1-2 1.6.6-.7 1.3-1.3 2-1.6.6-.2 1.3-.3 2-.3-.8 0-1.4 0-2 .2z"/><path fill="#002D62" d="M400.4 238.5v7c0 4.4-3 7.8-7 7.8-1.8 0-3.6-.8-4.8-2.2v6h5.6c1.7 0 2.8 0 3.4-.3.5 0 1-.3 1.5-.5l1.3-.8 1-1c1.6-1.8 1.6-4 1.6-6.6v-9.4h-2.6z"/><path fill="#CE1126" d="M376.2 253.3c-3.8 0-7-3.5-7-7.7v-7h-2.6v9.5c0 2.7 0 4.2 1.3 6 .2.4.3.6.5.7l.2.3c.6.7 2.3 1.5 3.4 1.8h8.7v-5.4c-1.2 1.2-2.8 2-4.5 2zM388.6 223l1 1.7 5-8.5v-.4c0-.2.3-.2.5-.2 0-.3 0-.5-.2-.7v-.2l2.5-2.6h-8.7V223zM401.4 220.3l-.8-.2v10.6h2.2V218v-.7-.2l-1.4 3.3z"/><path fill="#CE1126" d="M397.3 212.2l-.7 3.7-.5-.2-.3.2c.2 0 .2.3 0 .5h-.2l-5.2 9 .8 1.2 7.7-9.8v-.5h.5c0-.4 0-.6-.2-.8l3-2.4-1.3 3.6c-.4-.2-.7-.3-1-.2.2.2.3.4.2.6h-.4l-.6.7v2.2l1-1v-.3l-.2-.2 3-2c0-.3.2-.5.6-1h.2l3.4-3.6h-9.7z"/><path fill="#002D62" d="M375 214.8l-.5.8h.5v.5l5.7 10V212h-8.3l2.5 2.6zM369 220.5v-.4c-.2 0-.4 0-.6.2l-1.7-3.4 3.2 2h-.2v.4l1 1V218l-.6-.6h-.4v-.6h-.7l-1.2-3.6 3 2.4h-.2l-.2.8h.5v.5l8.4 10.6 1-.6-6.2-10.4c-.2 0-.3 0-.4-.2v-.5c0-.2 0-.2-.3-.2h-.5l-.7-3.6h-9.8l.2.2 1.2 1.3 2.3 2.4.2.2v14.4h2.7v-10z"/><path d="M410 210.8h-50l.3 1 .6.7.7.8 1.2 1.3 2.3 2.4v31c0 2.8 0 4.6 1.5 6.7l.7 1h.2c.8 1.2 2.7 2 4 2.4.8.2 2 .3 4.4.3h4.2c1.5 0 2.2 0 3.2 1l.6.8.5 1 .6-.5c.4-.2.5-.3.6-.5.4-.7 1-1.2 1.7-1.5.5-.2 1-.3 1.6-.3h6.4c1 0 2 0 2.5-.2.5 0 1-.4 1.6-.6.5-.2 1-.5 1.5-1 .6-.3 1-.7 1.4-1.2 2-2 1.8-4.8 1.8-7.4v-30-.5-.3h.2l5.7-6.2zm-6.6 5c-.4.5-.5.7-.5 1V248c0 2.6 0 4.8-1.7 6.6l-1 1-1.2.8-1.4.5c-.6.2-1.7.2-3.4.2h-5.6c-.6 0-1.3 0-1.8.2-.8.3-1.5 1-2 1.6l-.4-.4c-1.3-1.3-2.3-1.5-3.7-1.5H376c-2 0-3.4 0-4-.3-1-.2-2.7-1-3.3-1.7 0-.2 0-.2-.2-.3-.2 0-.3-.3-.6-.7-1.4-1.8-1.4-3.3-1.4-6v-3-6.5-8-14.3h-.3c-.3-.3-2-2-2.4-2.6l-1.3-1.2-.2-.2H407l-3.4 3.5-.2.2z"/><path fill="#EAC102" d="M385.3 219.7h2v-1h-2v-2h-1v2H382v1h2.3v5h.3l.7-4.2"/><path d="M382 219.7v-1h2.3v-2h1v2h2v1h-2v.8-.2l.8 1.2v-1h2.3V218H386v-2.2h-2.5v2h-2.2v2.8h2.2v4.6l.8-.5v-5M371.6 217.8l7.7 9.8L371 217"/><path fill="#002D62" d="M372.4 221.5v.4l1.7 1.7"/><path d="M379.3 227.6l-7.7-9.8 7.6 10M372.4 222v-.5l1.7 2.2 4.4 4.4-7.7-10v2.2"/><path fill="#FFF" d="M379 245.6c.3 0 .6 0 1-.2l-3.4-6v1.8l-5.4-5v3.7c3 3 5.2 4.6 5.2 4.6.5 4.3 2.5 4.4 4 3.8 0 0 0-.2.2-.2V247c-1.2.2-1.6-1.4-1.6-1.4z"/><path d="M370.2 219.7l8.2 8.4-4.3-4.3-1.6-1.8-1.7-1.8-1-1M380.5 248.4v-.2.2z"/><path fill="#002D62" d="M376.6 241.2v-1.8l-4.3-7.7 2-1-1-2 2.5.8v-1.2l-4.7-4.8.2 12.7M380.7 247l-.8-1.6c-.4 0-.7 0-1 .2 0 0 .4 1.6 1.7 1.4v-.2z"/><path fill="#CE1126" d="M376.4 244.6s-2.3-1.7-5-4.7v5.6c0 3 2 5.7 4.8 5.7 1.8 0 3.4-1.2 4.3-3-1.6.7-3.6.6-4-3.7z"/><path d="M380.4 249.6l.2-1.4v.2c-1 1.7-2.6 3-4.4 3-2.7 0-5-2.7-5-5.8v-22.2l4.6 4.8v-1l1 1.8.6-.2-8-8s-.2 0-.3-.2l.2 10v15c0 4.2 3.2 7.7 7 7.7 1.7 0 3.3-.7 4.5-2 .2 0 .5-.4.7-.6-.5-.2-1-.5-1-1zM369.6 219.6h.6l-.5-.4v.4zM369 220V220.2zM378.2 228.3l.3-.2-8.3-8.3v.4l8 8.3z"/><path fill="#EAC102" d="M373.2 215.6H374l-1.2-2.3.4 2.3zM374.6 214.8l-1.6-1.6 1.3 2.4c0-.4 0-.6.3-.8z"/><path d="M373 216l.2-.2h.7c0-.2-.3-.3-.5-.3h-.3l-.4-2.2-.4-.8h.2l.4.7 1.6 1.6c-.2.2-.3.4-.3.8h.2c0-.3.2-.5.4-.7v-.2l-2.6-2.6.6 3.7z"/><path d="M374.2 215.7L373 213l-.4-.8h-.2l.4 1 1.3 2.3h.2z"/><path fill="#EAC102" d="M374.8 216.3h-.2v.2l6 10.4.3-.3-6.2-10.4z"/><path d="M374.8 216.3l6 10.4h.3l-.3-.8-5.7-10c0 .2 0 .3-.2.3zM380.5 227l-6-10.5h-.3l6 10.5h.3z"/><path fill="#EAC102" d="M374.5 216.2c.3 0 .3-.3.3-.4h-.5l-.3.5h.5z"/><path d="M374.5 216.5c.2 0 .2 0 .3-.2l.2-.2v-.3s-.2-.2-.5 0h-.2-.2v.2c-.2 0-.3.3-.2.4l.4.2h.3zm-.5-.2s0-.3.3-.4l.4-.2s0 .3-.2.4h-.5z"/><path fill="#EAC102" d="M370.4 215.6l-1.8-1.4 1.6 2.2c0-.3 0-.6.2-.8zM369 216.5h1l-1.6-2.2.7 2.2z"/><path d="M370 216.6h-.5-.4l-.6-2.3-.5-.6v-.2l.6.7 1.8 1.4c-.2.2-.3.5-.2.8h.2c0-.3 0-.5.2-.7L368 213l1.2 3.7v-.2h1v-.2z"/><path d="M368.6 214.2l-.5-.7v.2l.4.6 1.6 2.3h.2v-.2l-1.6-2.2z"/><path fill="#EAC102" d="M379 227.8l-8.3-10.7v.2h-.3l8.3 10.8.3-.2z"/><path d="M378.4 228h.3l-8.3-10.7h-.2l.5.7 7.7 10zM379.2 227.7l-7.6-10-.7-.8h-.3L379 228h.2z"/><path fill="#EAC102" d="M370.5 217c.2 0 .3-.3.2-.4h-.4c-.3.3-.3.5-.3.6.2 0 .3 0 .5-.2z"/><path d="M370.4 217.3h.2v-.2h.3v-.5c-.2-.2-.4-.2-.6 0h-.2-.2v.3c-.3.2-.3.4-.2.5h.7zm-.4 0c0-.2 0-.4.3-.6h.3c.2 0 0 .2 0 .3-.3 0-.4.2-.5.2z"/><path fill="#EAC102" d="M367.4 217.8l1 2h.7l-1.8-2zM369.4 219.7v-.8l-1.8-1.3 1.8 2z"/><path d="M369 220h.3l-.4-.2h-.6l-1-2-.6-.6.2-.2.6.7 2 1.2c-.2 0-.3.4-.2.7h.2v-.5s0-.2.2-.3v-.2l-3-2 1.5 3.5c.3-.2.5-.3.8-.2z"/><path d="M367.6 217.7l-.6-.7-.2.2.6.6 1.8 2h.2l-1.8-2z"/><path fill="#EAC102" d="M377.6 228.6l.3-.2-8-8s-.2 0-.2.2l7.8 8z"/><path d="M378 228.4h.2l-8-8.3v.3l7.7 8zM377.6 228.6l-7.8-8h-.3l8 8.2v-.2z"/><path fill="#EAC102" d="M369.4 220.5l.4-.2c.2-.2.2-.4.2-.5-.2 0-.3 0-.5.2l-.2.4z"/><path d="M369 220.6h.8v-.2h.3c0-.2.2-.3.2-.3v-.3c-.2-.2-.3-.2-.6 0h-.2v.2h-.3V220.7zm.5-.6l.4-.2s0 .3-.2.5l-.4.2v-.5zM398 217.8l.8-1-7.7 10"/><path fill="#002D62" d="M397.3 222v-.5l-1.8 2.2"/><path d="M391.7 227.5l3.8-3.8 1.8-2.2v.5l1.7-1.8v-2M391 226.7h.2l7-9"/><path fill="#FFF" d="M393 229.3v.2-.3M390.4 242.8s-.6.3-1.3.3l.4 1.4v1l1.3.2s-.5 1.8-2 1.5c0 .6.3 1 .5 1.5 1.5.6 3.5.4 4-4 0 0 2.3-1.5 5.2-4.5v-3.8l-5.3 5V239l-2.6 1.6v2.2z"/><path d="M397.3 222l-1.8 1.7-3.8 4 7.8-8 .5-.5-1 1M388.7 247c0 .6.3 1 .5 1.5l-.5-1.4z"/><path fill="#002D62" d="M398.4 236.2v-12.6l-5.4 5.6v.3l4.6 6.5-4.5 3v2.3"/><path fill="#CE1126" d="M390.4 242.8v-2.2l-1.6 1c0 .5 0 1 .3 1.5.8 0 1.4-.2 1.4-.2z"/><path fill="#002D62" d="M390.7 245.6c-.5 0-1 0-1.3-.3 0 .2 0 .4-.2.7l-.6.5v.6c1.6.4 2-1.4 2-1.4z"/><path fill="#CE1126" d="M393.3 244.6c-.6 4.3-2.6 4.5-4 4 .8 1.6 2.3 2.7 4 2.7 2.8 0 5-2.5 5-5.6V240c-2.8 3-5 4.6-5 4.6z"/><path d="M400.6 220.4v-.3.4zM400 219.7v-.5l-.5.5h.5zM400.5 220.7h-.2-.2l-7.6 8 .5.6 5.5-5.7V240l-.2 5.7c0 3-2.2 5.6-5 5.6-1.7 0-3.2-1-4-2.8l-.6-1.4v-.5c-.2 0-.3 0-.4.2l.3 2.6v1.7c1.2 1.5 3 2.3 4.8 2.3 4 0 7-3.4 7-7.7v-15l.2-10zM399.5 220v-.3l-7.8 8 .2.2 7.5-8z"/><path fill="#EAC102" d="M395 214.8c.2.3.4.5.4.8l1.2-2.4-1.5 1.6zM396.4 215.6l.5-2.3-1.4 2.4h.8z"/><path d="M394.7 214.8c.3.3.4.5.4.8h.3c0-.3 0-.5-.2-.8l1.6-1.6.4-.7h.3l-.4.8-.6 2.3h-.8v.4c.3 0 .4-.2.5-.2h.5l.8-3.6-2.6 2.6z"/><path d="M395.4 215.7h.2l1.3-2.4.3-.7h-.3l-.4.6-1.2 2.4z"/><path fill="#EAC102" d="M390 225.3l5.2-8.7h-.2v-.2l-5 8.5v.3z"/><path d="M390 225l5-8.6c-.2 0-.3-.2-.3-.2l-5 8.5.2.2zM395.2 216.6l-5 8.7v.2l5.2-9h-.2z"/><path fill="#EAC102" d="M395.3 216l-.3-.2h-.2s0 .3.4.5h.4s0-.2-.3-.3z"/><path d="M395.5 215.8h-.2s0-.2-.2-.2c0 0-.3 0-.4.2v.4s.2 0 .3.2l.2.2H395.8v-.6s-.2 0-.3-.2zm0 .5h-.3l-.4-.4s0-.2.2-.2c0 0 .2 0 .3.2.3 0 .4.3.3.3z"/><path fill="#EAC102" d="M400.5 216.6l.8-2.2-1.6 2.2h.8zM399.3 215.7l.2.8 1.5-2.2-1.7 1.4z"/><path d="M399.4 216.5v-.8l1.6-1.4.5-.7h.2l-.4.8-.8 2.2h-.8v.2h1l1.2-3.5-3 2.3c.2.3.3.6.2.8h.2z"/><path d="M401.3 214.4l.4-.7h-.2l-.5.6-1.5 2.2v.2h.2l1.6-2.3z"/><path fill="#EAC102" d="M399.2 217.4h-.2v-.3l-7.7 10 .2.3 7.7-10z"/><path d="M399.2 217.4l-7.7 10h.2l7.3-9.3.5-.5h-.3zM398.8 217l-.7.8-6.8 9v.2l7.7-10h-.2z"/><path fill="#EAC102" d="M399 216.6s0 .3.2.5.4.3.5.2c0 0 0-.2-.3-.4l-.4-.2z"/><path d="M399 217v.3h.2s.2 0 .3.2h.4c0-.3 0-.5-.2-.7h-.2v-.2h-.2l-.2-.2h-.5v.5h.2zm.4-.2l.3.4h-.5c-.2-.3-.3-.5-.2-.6 0 0 .3 0 .4.2z"/><path fill="#EAC102" d="M400.4 220c.3-.2.6 0 1 0l1-2-2 2zM402 217.7l-2 1.2c.3.2.3.4.3.7l1.7-2z"/><path d="M399.8 218.8l.2.4v.5h.2v-.8l1.8-1.3.6-.6.2.3-.5.6-1 2c-.3 0-.6-.2-1 0h.2c.3 0 .5 0 .8.3l1.6-3.2-3.2 1.8z"/><path d="M400.3 220l2-2 .5-.7-.2-.2-.6.7-1.7 2v.2z"/><path fill="#EAC102" d="M400 220.6h-.3v-.2L392 228l.3.4 7.6-7.8z"/><path d="M400 220.7l-7.7 7.7.2.2 7.6-8zM399.6 220.4v-.3l-7.7 8 7.6-7.6z"/><path fill="#EAC102" d="M399.7 220l.2.3c0 .2.3.3.3.2 0 0 0-.3-.2-.4h-.3z"/><path d="M399.5 219.7v.8h.2s0 .2.2.2.2.2.3.2h.2v-.3-.4h-.2v-.2h-.3c-.2-.2-.4-.2-.5 0zm.6.4c.3.3.4.5.3.5l-.4-.2c-.3-.2-.4-.4-.3-.4h.4zM379.2 227.7h-.2l-.3.3h-.2l-.3.3h-.3l-.4.3-.2.2-.5.3.3 1h.3c.8-.8 2-2.2 3.8-2.4.8-1.3 2.3-2 3-2.2v-.3l.2-.4h-.3l-.8.6-2.4 1.4-.5.3h-.2l-1 .6zM390 225.3v-.4l-.3-.3-1-1.7-.5-.5-1 .6 6.4 10v.7c0 2.5-2.4 3.3-3.3 3.6h-.4l-.4.3 1.3 2h-2l-.3 2 1.7-1 2.7-1.7 4.6-3-4.5-6.5v-.2l-.5-.7-.2-.2-.2-.3-.3-.4-.2-.3-.2-.3v-.2h-.2l-.7-1.3-.2-.2zM381 242l-.3.3-.2-.4-3.4-6.3-1.2-2-.2-.7-1.4-2.4-2 1 4.4 7.8 3.3 6 .7 1.5v-.2l.3-1.6.4-3h-.3z"/><path fill="#FFF" d="M384 236.7zM384.2 236.4zM383.2 236.3zM383.7 236.7v.2-.3zM383.8 237zM383 237v.2h.2zM383.8 235.8z"/><path fill="#FFF" d="M384 236v-.2-.2l-.7-1h-.3v-.2l.3.2v-.2l-1-1.5h-.2v-.2h.2v-.2l-.7-1c-.3.2-.7.5-1 1l-.6.4.3.8h.4v.2l-.2-.2v.2l.8 1.5.2.3 1 1.7v.2h.2v.3l1-1v-.2-.2l.2.3v-.2-.2h-.2.2v.2-.2h.2v-.2.2h.2l-.3-.8zm-1 0h.2v.2h.2v.2h-.2v-.2zm0 .2v.2h.2-.2v-.2zm0 .4h-.2v-.2.2h.2zm-.2.5zm-.5-1.8v-.2h-.2.2l.2.2h.2-.3zm0 .2h-.4v-.2.2h.4l-.2-.3.2.3zm-1.2-2s0-.2.2-.2v.2h0v0h-.2zm0-.6h-.2v-.2h.2v.2zm.5.5v-.2.4l-.2-.2h.4l-.2.2zm1 3.2h.2-.2v.2h0v-.2zm.4-.4v.2zm0-1.2c0 .2 0 .2-.2.2h-.3v-.2s.2-.2.2 0h.2zm-1-2v.2s0 .2-.2 0v-.2zm-1.2 0h-.2v-.2l.2.2zm-.2-.3zm0 0v.4l-.2-.3zm-.2.8h-.4v-.2h.2v.2h.2zm0-.2v-.2.2zm.5.7h-.2.2-.2v-.2-.2.2h.2v.2zm.7 2l-.2-.3h.2v.2zm.8 1.2v-.2h-.2s0-.2 0 0v-.2l.2.2zm.4.5h-.2-.2v-.2h.3v.2zm0 0v-.2h-.2.2v.2zm.3-.2h-.2v-.2h.2v.2zm.2 0l-.2-.2v.2h.2-.2v-.2h.2v.2zm0-1.2v.2-.3-.2.2zm.4 0h-.2c-.2 0-.2 0-.2-.2h.2v.2zM384 235.6zM382.6 236.6z"/><path fill="#FFF" d="M382.6 235h.2v-.2h-.2zM380.3 233.3zM380.2 233.2v-.2.2zM382.6 237.7v-.2h-.2v.2h.2zM382.3 236.7v0zM382.7 237.4v.2-.2zM380.4 233zM381.2 233.5zM381 232.6h-.2l.2.2v-.2z"/><path d="M374.2 230.6l1.4 2.4v-1.2l.2-2.3-2.6-.7 1 1.8zM380.5 242c-.4-1-1.5-3-3.4-6.3l3.5 6.2zM381 242l.4.2v-.2h-.3zM389.3 238l-.2 1.6h2l-1.4-2-.3.4zM383.7 240.6l.6-.6v.2l1.7-1.2-2-3.2.5.7h-.2v.2h-.2v.2h-.2-.2l-.8 1-.2-.3h-.2v-.2.2-.2l-1-1.6v-.4h-.2l-.7-1.6-.2-.2-.4-.8.4-.4 1-1 .8 1v.2l1 1.5-2.4-4v-.6c0-1 .2-1.6.6-2-1.7 0-3 1.5-3.8 2.3h-.3l.8 1.2 1.4 2.3.4.7.2-.2v.4l.7 1.5v-.2l.3.3v.2h-.2l.8 1.2.6 1.2h.2v.2c0 .3.3.6.4 1l.2.3.2 1v-.2l.5-.2zm-3.8-8h-.2v-.2.2h-.2v-.2h.4v.2zm0-.2v-.2.2zm.3 0s-.2 0-.2-.2v-.2h.2c.2 0 .2.2.2.2zm-1 .5h-.2.2v-.2h-.2v-.2h.4v.2zm0-.3h.2v-.2.2s-.2 0 0 0 0 0 0-.2v.2h0zm.5.8s-.2 0-.2.2v-.3h-.2.4zm.2 0v-.2h-.2v.2-.2h.2zm.3.6v.2h-.2v-.2h.4zm.8 2h.2l-.2-.2v-.2h.2v.4zm2.4 2h0v-.2h0zm.4-.2h-.2v-.2.2zm.5-.6v.2h.2c-.2.2-.2.2-.2 0v-.2zm0 .4h-.2v-.2l.2.2zm-.3-.3zm0 .2h-.2v.2h0v-.2h.2zm.7-.3v.2h-.2v-.2h.2zm-1.7 1v-.2h.2v0h-.2v.2h.2-.2zm-.5 0zm-1-1.2h.4v-.2h-.2v.2h.2v.2l-.3-.2zm.5 1h-.2v-.2h.2v.2zm0-.4h.2zm.2 0l.2.3-.2-.3zm.4 1l-.3-.2h.2v.2zm0 0v-.2h.2v.2zm.4-.2h-.2v-.2h.2v.2zM384 235.6l-.7-1.2.7 1.2zM384 236.7zM383.2 234.4zM384 237.5h-.2zM384.2 237.4h0z"/><path d="M384.5 237v.2c0 .2 0 .2 0 0h.2-.2zM381 236h-.2zM380 234.4zM380 234.4h-.2zM379.5 232.7zM380 234.2h-.2zM379.6 233.5zM382.2 238.6zM382.3 238.8zM383 238.3h-.2.2zM382.5 238.4V238.6zM381.2 235.8h-.2.2zM380.2 232v.2z"/><path fill="#FFF" d="M387.5 234zM386.3 232v-.2zM387.4 233.4h0zM385.8 229.6zM386.2 229.4zM387.2 231v.2zM385.5 230.7zM385 229.2zM386 230.4zM386.6 230zM385.4 230zM386.2 230v.2h0zM385.7 230.5zM385 229.5v.5h.4v.2l-.2-.2v.2l.3.4h.2v.2h-.2.2v.5h.2v-.2.3h-.2l.3.4h.2v.2l1 1.5v.2h.2v.3l.2.2v.2h.2v-.2h.2v-.2h-.2.2v-.2.3c.4 0 .7-.2 1-.3h.4l-.3-.6v.2h0l-1.6-2.8h-.2v-.2l-1-1.5s-.2 0-.3.2h-.5v.2h-.2c0 .2 0 .2 0 0h-.2l.2.2h-.2v-.2V229.4h-.2v.2zm1 1h-.2v0h-.2.2zm0 0l-.2-.2.2.2zm.5-.4v0zm0 0v.2h-.4v-.2h.4zm-.4.2h.2v.2h-.2v-.2zm0 1v-.2h.2-.2v.2h0zm.3 0v-.2-.2.2zm.4-.5v0zm.2 0h-.2v-.4l.2.3zm.3.5h-.2.2zm-.4.3l-.2-.2h.2v.2zm-.2-.3zm-.2.4h-.2.2zm-.2-.2zm0 .4v-.2.2zm.3 0v-.3.2zm1 1.5h.2-.2-.2.2v.2l-.2-.2zm.7-.5v.2h-.2v-.2h.2zm-.2 0v.4s-.2-.2 0-.2zm0 .4h-.2-.2c0-.2 0-.2.2 0zm-.6.2v.2h-.2v-.2h.2zm.7.5v-.4h-.2.2v.2h.2zm.2-.3c0-.2 0 0 0 0h-.2v-.2h.2v.2zm.3 0l-.2-.3h.2v.2zm0-.5h.2v.2h-.2v-.2zm0-.4h-.2v-.2h.2-.2v.2zm-.3 0zm-1-1.8h-.2.2v.2h-.2 0v-.2zm-.4.3v-.2.3zm0-1h.2l-.2.2h0v-.2zm-.4.5v.2h-.2v-.2-.2l.2.2zm0-1v.2h0v-.2zm-.2-.6h.2v.2h-.2v-.2zm0 0v.2h-.2zm-.2 0zm0 .2c0 .2 0 .2 0 0v.2c-.2 0-.2 0-.2-.2zm-.3 0v.2zm-.3.2h.2-.3v.2h.2-.2v-.2zm-.2 0s.2 0 0 0v.2h.2c0 .2 0 .2 0 0h-.2zm-.2.2h.2l-.2.2h0v-.2z"/><path fill="#FFF" d="M385 229.6l-.2-.2v.2zM385.3 229.2zM388.4 233.7zM389 233.2zM388.7 232.6zM386.7 230.8zM387 230.4zM387 230.6h-.2.2zM386 231zM386.7 231.4v0zM387.3 230.3zM386.4 230.8zM388 233v.2zM388.3 232.8z"/><path d="M385.3 220.3v.2l-.7 4v.6c0 .2 0 .3-.2.3-.7.3-2.2 1-3 2.3-.4.5-.6 1.2-.6 2v.6l2.4 4v.2l1 1.3 1.8 3.3 1.2-.8.2.2c.5 0 .6 0 1.3 3.2l.4-2 .3-1.6s0-.2.3-.4c0 0 .2 0 .3-.2h.3c1-.4 3.2-1.2 3.3-3.7v-.6l-6.5-10-1-1.5-.7-1.2zm-.5 16c-.2 0-.2 0-.2-.2h.2v.2zm0-1v-.2.2h.2v.2zm-.3.2h-.2v-.2h.2v.2zm-1.7-3v-.2h-.2v.2h.2l-.2.2v-.3h.2v.2zm4 2.8h.2v0h-.2v.2-.2zm-.5-1h-.2.2v-.2c-.2 0-.2.2-.2.2h.2v.2zm-1-2h.2zm0 .2v-.2.2h-.2.2v.2l-.2-.2h.2v-.2h.2v.2zm-.5-.5h-.2v-.2h.2v.2zm3 3v-.2zm0 0l-.2-.2h.2v.2zm-.5.3v-.2h-.2.2v.2h.2zm-.2 0h0zm-.6-1.3c-.2 0-.2 0 0 0h-.2.2v0zm-.3-2v-.2.2h.2zm0-.3zm-.5 0v-.2h-.2.2v.2zm-.2 0v-.2.2zm0 .4zm-.2-.2v-.2.2h.2zm0-.7h-.2.2v-.2l.2.2h-.2v.2zm-.3.3h-.2.2-.2v-.2c.2 0 .2 0 .2.2zm-.8-1v-.2h-.2.2v.2zm4.6 4.2v-.2.2zm-.4.2v-.2.2zm-.4 0v-.2.2h.2-.2zm0 0zm.5-.2c0-.2 0-.2 0 0h.2-.2zm.5-.2zm0-1.7h.2zm-1-2.5h-.2v.2-.2h.4-.2v.2zm-.4.3v-.2.2h.2v.2h-.2zm1-.8h.2v.2c-.2 0-.2-.2-.2-.2h.2zm1.4 3.3c0 .2 0 .2 0 0h-.2v-.2l.2.2zm-.3 0v.2h.2-.2zm0-.6h-.2.2v0zm.5.3h.2v.2h-.2v-.2zm.2 0v-.2s.2 0 .2.2h-.2.2-.2zm-2-2.7v-.2.2h.2zm-.3 0v0zm.3-.3v.2h.2-.2v-.2zm.4 3zm.3 0zm0-.3h.2v.2h.2l-.2-.2zm.2 1v-.4l.2.3v.2h-.2zm-5.5-2.8v-.2-.2.2h0v.2zm0-.5zm.4-.2l.3.2v-.2.2h-.2v-.2zm.7-.3s.2 0 .2-.2h.2v-.2h.7c0-.2 0-.2.2-.3l1 1.6h.2l1.7 2.8h.2l.2.6h-.4l-1 .5v.2h-.2v.2h-.2-.2v-.2-.5h-.2v-.2l-1-1.6v-.2l-.4-.6-.2-.3-.2-.3-.2-.5h-.2v-.5h-.2v-.2zm2.2 5.2h-.2v-.2.2h.2zm-.2-1v-.2.3h.2v.2-.2h-.3v-.2zm.2.8v-.2l.2.2h-.2zm.3 0v-.2h.2v.2h-.2zm-1.6-3h-.2 0v-.2h.2zm-.4-.5v-.2.2zm0 .3zm-.4-1h-.2v.2h-.2c0-.2 0-.2 0 0v-.2h.2v.2zm-.4-.7c.2 0 .2 0 0 0s0 .2 0 .2v-.2zm.3.7v-.2.4zm0 .3h.2zm-.7-1h.2v.2h-.2zm0 1v-.2h.2v.2h-.2zm0 .7h.2-.2c0 .2.2.2.2 0v.2h-.2v-.2zm2.2 3.5v.2-.2zm0-.7h.2zm.2.6v.2h.2-.4v-.2zM384 231h.2l-.2-.2h.2zm.2-.4h.2-.2.2v.2h-.2v-.2zm.7 1.3c-.2 0-.2-.2-.2-.2h.2c0 .2 0 .2 0 0zm.5.3v-.2.2h.2v.2h-.2zm.3-.2v-.2l.2.2v.2h-.2zm1.6 3.2v-.2h.2v.2h-.2zm-5-2.6h.2s0 .2-.2.2v-.2zm1 2v-.5.2l.2.3zm.3 0v-.4h-.2v-.2l.3.4zm.2-.2l-.3-.4.2.2v.2zm.4 1.3h-.4v-.2l.2.2v-.2h.2v.2zm.2.8v-.3h-.2v-.2l.2.4zM384.8 236v.2zM384.8 235.3zM382.4 232.7zM387.5 234v.2zM388 234zM386 231.8zM384.8 229.6zM385.2 230.2zM385.5 230.6zM388 229.8zM385.3 229zM387.5 230.3zM385.5 229zM389.3 233v.2-.2zM389.7 232.7v.2-.2z"/><path d="M390 232.7h.2v-.2h-.2v.2zM389.5 233zM388.4 234.4zM388 234.8v-.2.2zM389.4 232.3zM388.5 229.4zM386.8 234.6zM387.3 234.4zM387 234.6h.2v-.2h-.2v.2zM386 232h-.2zM385.3 231.6zM384.3 231.3zM384.3 230.6zM385 231.8h-.2zM384.4 230v-.2zM385 230.3zM384 230.7v.2h.2v-.2zM387 235.4h.2zM387.5 235v.2zM383 240l-.2-.2c0-.4-.3-.7-.5-1v-.2h-.2.2l-.6-1v-.2h-.2v-.2.2h.2l-.8-1.3v.2-.3l-1-1.5v-.2l-.4-.8v.3h-.2v-.2h.2L378 231l-.6-1.3-.5-1-1-1.6-.2 1v1l-.2 2.4v1.2c0 .3 0 .5.2.7l1.3 2c2 3.3 3 5.4 3.5 6.2l.2.3.4-.2h.4v-.5h1.1l.8-.5-.2-1zm-4.4-7v.2h.2l-.3.2v-.3h-.2.3zm3.3 5.7v.2h.2l-.2-.2v.2l-.2-.2v-.2.2zm-.4-.7h.2v.2h-.2v-.2zm-.2 0l.2.3-.2-.2zm-.4-.6h.2v0h-.2zm-.7-1.2h.2v-.2l-.2.2v.2h.4-.3v-.2zm-.7-2h.2l-.2.2h.2-.2v-.2zm-.3 0v.2h.2v.2h-.2 0v-.2zm-.3-.4v.2h.2v-.2l-.3.3-.2-.2.2-.3v.2zm0-.7v.2l-.3-.3v-.2l.3.3zM380.8 236zM379.6 234.4zM382.2 238.7zM381.7 238.2v-.2.2z"/><path d="M378.6 233h-.3l.2.3h.3v-.2.2h-.2v-.2z"/><path d="M378.7 232.8l.2.3v.2l-.2-.4zM379.3 232.7h-.2.2v-.2c-.2 0-.2 0-.2.2h.2v.2s.2 0 .2-.2zM379.5 232.8h.2v-.2h-.2v.2zm0-.2z"/><path d="M380 232.5l-.2-.2h-.2v.4h.2v-.2h.2zM380 232v.4-.2zM380.3 232h-.2v.2h.4v-.2zm0 .3v-.2h-.2.2v.2zM379 233.6h-.3v.2l.2.2h.2v-.2.2h-.2v-.4zM379.3 233.5v.2-.2h-.2.2v.2h.2v-.2z"/><path d="M379.8 233.5h-.2v-.2l-.2.2h.2v.2s.2 0 .2-.2zm-.2 0zM380 233.4v-.2h-.2v.3-.2h.2zM380.3 233.2h-.2.2v-.2h-.2v.2h.2v.2h.2v-.2zm-.2 0v-.2h.2v.2zm.3 0v.2zM380.5 233v-.2h-.2v.2h.2zm-.2 0z"/><path d="M380.4 232.7l.2.3v-.4h-.2z"/><path d="M380.6 232.7v.2l.3-.2h-.2v-.2h-.2zM380.6 232.6z"/><path d="M381 232.6h-.2v.2h.2v-.2zm0 .2v-.2h-.2.2v.2zM379.2 234.5h.2v.2h.2v-.2h-.4v-.2h0v.2zM379.6 234.5h0l.2-.2h-.2v.2zm0-.2zM379.8 234.3v.2h.2v-.2-.2h-.2v.2zm.2 0v.2zm-.2-.2v.2zM380.4 234h-.4v.2h.4zM380.5 234v-.2.2h.2v-.2h-.4v.2h.2zM381 233.6h-.2v-.2.2h0v.2h.2v-.2zM381 233.4h.2v.2c0-.2 0-.2.2-.2h-.4zm.2 0zM381.5 233.4h.2v-.2h-.4v.2h.2v-.2.2zM381.8 232.7v.3h.2l-.2-.2zM382 232.7h.2v.2l-.2-.3v.2h.2v-.4zM382.4 232.6v.2h.2v-.2h-.2zm0 0zM383 232.5h-.2v-.2h-.2v.3h.2l-.2-.2h.2v.2zM380.4 236.5h.2v-.2h-.2v-.2h.2-.2v.4zM380.8 236.3v-.2h.2v.2l-.3-.3v.2zm0-.4zM381.3 236h-.2l.2-.2v-.2h-.2v.4h.2zm-.3-.3h.2-.2z"/><path d="M381.6 235.8l-.2-.2h-.2l.2.2h.2zM381.8 235.7l-.2-.3h-.2l.3.3zM382 235v.3h.2v.2h-.2l-.2-.3v.2h.4v-.3zM382.3 235.3h.3v-.2.2h-.2l-.2-.2v.3zM382.5 234.8v.2h.4v-.2h-.3c0-.2 0 0 0 0h-.2zm.2 0h.2c0 .2-.2.2-.2.2h-.2v-.2zM383.2 234.3v.3s-.2 0-.2-.2l.3.3v-.4zM383.6 234.5l-.2-.3v.3h.3z"/><path d="M383.8 234.4l-.2-.3v.4h.2zM384 234.3l-.2-.3v.3h.2zM381 237.4h.2v0h-.2zM381.5 237.4l-.2-.3v.2l.2.2zM382 237.2v-.2-.2h-.2v.2h-.2.3v.2zM382.5 236.8l-.2-.3v.4l.2-.2zm0 0h-.2zM382.6 236.8v-.2.2zm0-.3zM383 236.5h-.2v-.2.2h.2zM383 236.2zM383 236.3v.2h.2l-.2-.3z"/><path d="M383 236.3c0-.2.2-.2.2-.2v.4h.2v-.2h-.2zm.2 0zM383.5 235.8v.3c0 .2 0 .2 0 0v0-.2zM384 236h-.2v-.2h-.2v.2h.2zm-.3-.2zM384 235.7v0zM384.4 235.6l-.2-.2v.2h-.2.2v.2h.2v-.2zM384.5 235.6v-.2h-.2.2v.2zM385 235.3l-.2-.2v.4zm-.2 0zM381.4 238l.2.3-.2-.3zM381.7 238.2h.2s0-.2-.2-.2h-.2v.2zm0-.2v0zM382 238v-.2h-.2v.2h.2zM382.2 237.5zM382.3 238v-.4.2zM382.6 237.7v-.2h-.2l.2.2-.2-.2v.2h.2zM383 237.6v-.2l-.3-.2v.4h.2zm-.2 0c-.2 0-.2-.2-.2-.2h.2v.2zM383 237.4v-.2h-.2l.2.2zM382.8 237zM383.2 237h-.2v.2c0 .2.2.2.2 0zm0 .3h-.2v-.2c.2 0 .2 0 .2.2zM383.4 237c-.2 0 0 0 0 0v0zM383.7 236.6v.4h.2l-.2-.4zm0 .3v-.2zM384 236.6v.2-.2h-.2v.2h.4v-.2zM384.4 236.5h-.2.2zm-.2 0zM384.7 236.4l-.3-.4v.2l.2.2zM384.8 236h-.2v.2h.2v-.2zm0 .2zM381.8 238.6v.4h.2v-.2.2h.2v-.2h-.2l-.2-.2zM382 238.6h.2v.2h.2v-.2h-.2zm.3 0v.2zM382.5 238.4h-.2l.2.3v-.2zm0 .2v-.2.2zM382.6 238.2zM382.8 238.5l-.2-.2v.2h.2zM383 238.4v-.2h-.2v.2h.2zm0 0h-.2v-.2h.2v.2zM383 238v.2h.2-.2v-.2h.2v0h-.2zM383.5 237.8v0zM383.7 237.7v0zM383.8 237.5v.2h0l.2-.2h-.2zm0 0zM384 237.4v.2h.2l-.2-.2zM384 237.3zM384.2 237.4h.2l-.2-.3v.4zm0 0h0zM384.5 237v.4h.2v-.2h-.2zm.2.3h-.2v-.2.2h.2zM383.8 230.4v-.2h-.2v-.2h.2-.2v.2h.2v.2zM383.8 230zM384 230.2v-.2h-.2v.2h.2zM384 230h.3v-.2.2h-.2v-.2zM384.4 230l.2-.2h-.2zm0-.3v0zM384.6 229.6v0zM384.7 229.6h.2v-.2h-.2v.2zm0 0v-.2h.2v.2h-.2zM385 229.4v-.2.2zM385 229.3h.2v.2-.2h-.2zM385.2 229.3h.2v-.2s-.2 0-.2.2zm0-.2c.2 0 .2.2.2.2h-.2zM385.5 229v0zM384 230.7v.3h.2v-.2zm0 .2v-.2h.2zM384.3 230.8v-.2.2zm0-.2zM384.4 230.5v.2h.2l-.2-.2zM384.8 230.4v-.2h-.2v.4-.2h.2zM385 230.4v-.2.2zm0 0v-.2zM385.2 230.2v-.2.2h.2v-.2h-.4l.2.2zM385.4 230v-.2.2zm0 0zM385.6 230v-.2zM385.8 229.8v-.2.2zm0-.2zM386 229.6zM386 229.6h.2v-.2h-.2v.2zm0-.2h.2zM386.2 229.3v.2h.2v-.2h-.2zM386.2 229.2zM386.4 229.3h.2-.2v-.2.2zM384.3 231.3v.2h0l.2-.2h-.2zm0 0zM384.7 231.3v-.2l-.2.2v.2h.2v-.2zM385 231.2v-.2h.2v-.2h-.2v.2h-.2v.2zM385 230.7h.2zM385.4 231l-.2-.3v.2h.2zM385.6 231v-.2-.2h-.2l.2.3zm0-.4v.2-.2zM386 230.6h-.2v-.2h-.2.2v.2zm-.2 0z"/><path d="M386 230.5l-.2-.3v.3h.2zM386 230.3v.2h.2v-.2h-.2zm0 0zM386.2 230v.3h.2v-.2h-.2zm.2.2h-.2.2zM386.5 230v.2-.2zM386.5 230h.2v-.2h-.2v.2zm.2 0zM384.8 232v-.2h-.2v.2h.2zM385 232v-.2h-.2v.2h.2zm0-.3h-.2zM385 232l.2-.2v-.2h-.2v.2zM385.4 231.5h-.2v.2h0l.2-.2zm-.2 0zM385.5 231.6v-.2h-.2l.2.2zM385.3 231.3zM385.6 231.4v0zM386 231.3v-.2.3h-.2v-.2.2h.2zM386.2 231.2h-.2l.2-.2h-.2v.2h.2zm-.2-.2zM386.3 231v-.2.2zM386.4 230.6v.4h.2v-.2l-.2-.2zm0 .2zM386.6 230.8h.2v-.2h-.2v.2zm0 0zM387 230.7l-.2-.4v.4h.2zm-.2 0v-.2h.2v.2h-.2zM387 230.6h.2v-.2h-.2 0v.2zm0-.2zM387.2 230.2v.2h.2c-.2 0-.2 0 0 0v-.2h-.2z"/><path d="M387.5 230.4v-.2h-.2.2v.2zm0 0v-.2zM387.7 230.2v-.2h.2-.2-.2v0c.2 0 .2.2.2.2zM388 230v-.2.2zm0-.2zM388.4 229.8s0-.2-.2-.2v.2h.2zM388.3 229.6h.2-.2zM388.6 229.4h-.2v.2h.2v-.2zm0 0zM385.3 232.5v-.2h-.2v.4h.2l-.2-.2h.2v-.2.2zM385.4 232.4v-.2.2zM385.3 232v.2zM385.6 232.4v-.2.2zM386 232l-.2-.2v.4zm-.2 0h0zM386 231.7zM386 232h.2l-.2-.2v.2zM386.3 232v-.2h-.2.2v.2zM386.5 231.7h-.2.2zM386.5 231.4zM386.5 231.5v.2h.2l-.2-.2z"/><path d="M386.8 231.7v-.2h-.2v.2h.2zm0-.2h-.2.2zM387 231.4h-.2.2zM386.8 231.2zM387 231v.4-.3zM387.2 231v.2zm0 .3v-.2.2zM387.4 231v0zM386.2 234.4v-.2h-.2.2v.2zM386.4 234.3v-.2 0h-.2.2v.3zM386.6 234zM386.6 233.7h.3v.2-.4h-.2v.2-.2h-.2zM387.4 233.6h-.2.2zM387.4 233.3v.2h.2v-.2h-.2zm.2 0v.2h-.2.2zM387.6 233.3v.2h.2l-.2-.2h0zM388 233h-.2v.2h.2zm0 .2zM388 233v.2h.2v-.2zM388.3 232.8v.2h0v-.2zm0 0zM388.5 232.7v.2-.2zM388.7 232.6v.2-.2zm0 0zM389 232.7l-.2-.2v.2zM388.7 232.4zM389 232.6v-.2.2zM389 232.2h.2v.2h.2l-.2-.3v.2zM389.4 232.3h.2c0-.2-.2-.2-.2-.2v.2zm0 0zM386.4 234.8l.2.2v-.3.2-.2h-.2z"/><path d="M386.7 234.8h0v-.2h-.2v.2zm0-.2zM387 234.7v-.2h-.2v.2zM387 234.6h.2v-.4h-.2v.4zm0-.2h.2v.2h-.2v-.2zM387.3 234.5h.2v-.2h-.2v.2zm0 0v-.2z"/><path d="M387.6 234.3v-.3h-.2v.4h.2zm0 0h-.2v-.2.2h.2zM387.8 234.2zM388 233.8v.2h-.2.2v.2-.4zM388.4 233.8l-.2-.3v.3h.2z"/><path d="M388.5 233.7v-.2h-.2v.2s0-.2 0 0h.2zm0 0zM388.8 233.3v.2h-.2.2v-.2zM389 233.4v-.2h-.2v.2zm0-.2zM389 233v.2h.2zM389.2 233.2h.2v-.4h-.2v.4zm0-.2h.2v.2c-.2 0-.2 0-.2-.2zM389.5 233h.2c0-.2-.2-.2-.2-.2v.2s0-.2 0 0zm0 0zM389.7 232.6v.4h.2v-.2h-.2v-.2zm0 .2zM390 232.7h.2v-.2h-.2v.2zm0-.2h.2v.2h-.2v-.2zM390.3 232.5v-.2.2zM386.8 235.5v-.2h.2v.2-.2h-.2v.2zM387 235.4h.2v-.2h-.2v.2zm0 0h.2zM387.3 235.3v-.2h-.2.2v.2zM387.5 235.2v-.2h-.2.2v.2zm0 0v-.2.2zM387.8 235l-.2-.3v.2h.2zM387.7 234.6zM387.8 235v-.2zM388 234.8v-.2h-.2l.2.2zm0-.2v0zM388.2 234.7v-.2.2zM388.4 234.6v-.2.2zm0-.2zM388.7 234.4h-.2v-.2.2h.2zM388.8 234.3z"/><path fill="#CE1126" d="M382 245.5l-.5 4 .4.2.2-4v-.2z"/><path d="M382 249.7c-.4 0-.5-.2-.5-.2l.6-4c-.2 0-.4-.4-.5-.8l.2-2.6v-.2h.3v-.2h-.5V242l-.5 3-.2 1.6v.2l-.2 1.2-.2 1.4c0 .6.5 1 1 1l.4.2v-1zM383.7 240.6l.6-.4v-.2"/><path d="M382 241.7h-.3v.4c0 .3-.3 2.3-.2 2.7 0 .4.3.7.6.8h.2l.2-4h-.3v.2z"/><path fill="#002D62" d="M384.6 249.6c-.8 0-1.3-.5-1.5-1.3v2.7c.3-.2.7-.3 1.2-.3.6 0 1 .2 1.5.3v-1.6l-1 .2z"/><path d="M388.6 249.3c0-1-.2-1.8-.3-2.6l.3 3.4c0 1.5-.7 2.2-2 2.2h-.7V251c-.5 0-1-.3-1.6-.3-.5 0-1 0-1.2.3v-2.7-.3l.3-7-1 .4v4.2l-.4 4-.2 1.2v3l.3-.5v-1c0-.2.6-1.3 2.2-1.3.4 0 .8 0 1.2.2h.2v1h.2l.8.2c.8 0 1.3-.4 1.5-.7.3-.2.4-.4.5-.7.2-.8 0-1.7 0-1.7zM385.2 239.7l1.8-1.3h.2v-.2l-1.2.8-1.6 1"/><path fill="#CE1126" d="M384.2 248c0 .4.2.4.4.4h.7c0-.2.2-.2.3-.2v-1c-.8 0-1.2.3-1.4.4v.4zM388 245.5h.2c.2-.4 0-.7 0-.7 0-1-.3-1.6-.4-2.2l.3 3zM384.4 241.4v5l1-.3-.3-5-.6.4z"/><path d="M387.5 238.4l.3 4.2c0 .6.3 1.3.5 2.2v.6h-.2l.2 1.3c.2 0 .3 0 .4-.2l.6-.5.2-.7v-1l-.3-1.2-.2-1.3c-.8-3.3-1-3.3-1.3-3.3zM384.6 249.6l1-.2v-1.2h-.3l-.7.2c-.2 0-.4 0-.4-.4v-.4l-1-.3.2-.4s.3-.4 1-.6v-5l.7-.4v-1.3h.2l-.8.4v.2l-.7.4-.4.2v.3l-.2 7v.3c.3.8.8 1.3 1.6 1.3zM387 238.4"/><path d="M383.4 247l-.2.3 1 .4c.2-.2.6-.4 1.3-.5v-1c-.5 0-1 0-1.2.2l-1 .5z"/><path fill="#FFF" d="M386.7 251.2h.6c.2-.3.3-.6.3-1v-.2l-1-10-.5.2.7 11z"/><path d="M388 245.5l-.2-3-.4-4v-.3h-.2v.2h-.2l-1.8 1.3v1.3l.2 5v1.2l.2 1v2.8l.2 1 .3.2h.7c1.2 0 2-.7 2-2l-.5-3.5v-1.2zm-2-5.3l.5-.2 1 10c0 .6 0 1-.2 1-.2.2-.4.2-.6.2l-.6-11z"/><path fill="#002D62" d="M384.2 251.6c-1.2 0-1.6.7-1.6.8v.8c.5.4 1.2.3 1.2.3.5 0 1-.2 1-.4.4-.4.3-1 .3-1.3h-.8z"/><path d="M385.6 251.4l-.2-.2-1.2-.2c-1.5 0-2 1-2.2 1.2v1l.3.4c.4.4 1 .5 1.3.5h.2c.7 0 1.2-.2 1.5-.6.3-.4.4-.8.4-1.2v-.8zm-.7 1.7c-.3.3-.7.5-1.2.5 0 0-.7 0-1-.3-.2-.2-.3-.5-.2-.8 0 0 .4-.8 1.6-.8h1c0 .4 0 1-.3 1.5z"/><path fill="#201B18" d="M348.4 211c-1 1.2-1.4 2.2-2 3.4.2 0 .6-.5 1-.6.8-.7 2-1.4 3-2 3.5-1.7 9.6-1.7 12.2-4.7.6-.7.2-1.2-.3-2.4 1.8-.6 2.5-1 4.8-1.6 5.6-1.2 9.4.3 12-.4 1-.2 1.7-.7 1.7-1.5l-.4-2.7h9c0 1.6-1.6 3.6 1.2 4.3 2.5.7 7.6-.8 12 .4l4.8 1.6-.5 1.2c-.2.5-.2.8.2 1.2.4.6 1 1 1.8 1.5 1.4.8 3.3 1.3 5 1.8 5 1.2 5.6 1.5 9.4 4-.2-.7-2-3.4-2.7-4.3l4.8.4c-.8-1.3-3.3-2.6-4.8-3.2l-5.8-2c0-.3.2-.4.3-.7.3-.7.6-1.4 0-2-.7-1.3-5.5-3.7-6.7-4-2-.6-4.3-1-6.4-1.4l-6-.5c-.4-.3.4-1.8-.8-3-.8-.5-2-.7-3-1-4.4-.3-10.4-.2-15 0-1.2.2-2 .4-2.8 1-1 1-1 1.4-1 3-6 0-12 1.3-17 4.4-2.3 1.3-2.8 1.8-1.6 4-.3.3-2.4 1-3 1-.8.5-1.8.8-2.7 1.2l-2.6 1.3c-1 .6-1.4 1-2 2l4.6-.5c0 .3-.5.8-.6 1zm75.6-1.4l.2.2-4.4-.2 2.3 3.5-3.6-2c-3-1-7.6-1.2-10.4-3.6-1.2-1-1-1-.8-1.7.6 0 1.5 1 2 1.3.5.4 1 1 2 1.3.5.2.7 0 1-.3l1.5-1.7.7-1c2.6 1 7.6 2.6 9.6 4.3zm-16.7-4.3c0-.2.3-.4.4-.5l2.5 1.2c.5.2 2 1.3 1.6 1.8-.7.8-2.4-1.4-3.8-2.2-.3 0-.5-.2-.7-.3zm-4.7-7.7c2.2.3 5 1 7 1.8 1.3.6 4.3 2.2 5 3 .8 1 0 2-.5 2.8 0 .4-1.5 2-1.8 2l-1-1c-.4-.4-3-1.6-3.6-2-1.7-.6-3.7-1.3-5.8-1.7-4.7-1-8.3.2-10.6-.2-1.2 0-2.2-.5-2-1.8 1.7-.3 2.8 1.6 5 1 1.2-.4 1.5-4.7 1.5-4.7s4.6.4 7 .8zm-13.3 2.5l.4-1.7 3 .5c.8 0 2.3.7 2 1.6-.3.6-.3.7-1 .8-.7 0-1.2 0-1.7-.3-1-.6-1.3-.8-2.7-1zm-13.7-6.8c1.2-.4 7-.4 8.8-.5 2.6 0 6.5 0 9 .5 1.3.3 2.2.7 2.2 2.4 0 1.4-.4 2.6-.6 4-1.3-1.2-2.5-1.4-4.4-1.6-2-.2-4 0-5.8-.2-2.4 0-6 0-8.3.7-1 .4-1.2.6-1.8 1.2-.3-.5-1-3-1-3.7 0-1.5 1-2.4 2-2.8zm4.6 7c-2 0-2.4 1-4.3 1-.8 0-1-.2-1-.8-.4-1.4 4-2 5-2l.2 1.7zm-25.3 2.2c1-1 3.4-2.3 5-3 3.4-1.5 9.8-3 13.5-2.5l.7 2.4c.2.7.4 1.8 1 2 2 .7 4.3-1.5 5-.8 0 0 0 .8-.3 1.2-.4.3-1.6.5-1.6.5-1 .2-2.5 0-3.6 0-2.4-.2-4.8-.2-7.2.2-2.6.6-6 1.8-8.3 3-2 1-1.6 1.5-2 2l-.5-.7-.5-.5-1-1c-.4-.7-1.2-2-.4-3zm7.3 3c-.7.2-.8.2-1.3.6-1 .7-2.7 2.8-3.3 1.6.2-.7 1-1.3 1.8-1.7.5-.4 2-1 2.4-1.2l.3.5zm-17 4.4h.2c2-2 7-3.5 9.6-4.3l.8.8 1.5 1.7c.3.3.5.5 1 .3 1-.2 1.5-.8 2-1.3.5-.4 1.4-1.2 2-1.2 0 .6.4.7-.8 1.7-2.8 2.3-7.5 2.4-10.4 3.7-1.4.6-2.3 1.2-3.6 2 0-.4 2-3 2.3-3.5h-4.4z"/><path fill="#002D62" d="M376.5 198.5c2.3-.7 6-.7 8.3-.7 2 0 3.8 0 5.8.2s3 .4 4.4 1.6c.2-1.4.5-2.6.6-4 0-1.7-1-2-2.3-2.4-2.4-.5-6.3-.5-9-.5-1.6 0-7.5 0-8.7.5-1 .4-2 1.3-1.8 2.8 0 .7.6 3.2 1 3.7.5-.6.6-.8 1.7-1.2zM390 197v-.2l.2-.3v-.3-.2c.2 0 .2 0 .2-.2v-.2l.2-.4v-.3c0-.2 0-.3.2-.4v-.4s.2 0 .2-.2h.5v.9l.2.2v1c0 .2 0 .2.2.2v.7h-.5-.3v-.2-.3-.2-.2h-.7v.3c0 .2-.2.2 0 .3h-.7zm-1.4-.7v-1.8-.2-.2-.2h.8v.2h-.2v2.9s0-.2 0 0h-.6-.3c0-.2 0-.2.2-.3v-.2-.2zm-2.8-2v-.5s-.4-.2 0-.2H387.3c0 .2.2.2.2.3h.2c.2.3.2.5.2.7 0 0-.2 0-.2.2l-.2.2-.3.2v.4l.3.7v.2c.2 0 .3 0 .3.3h-.4s0-.2-.2-.2l-.3-.3v-.3c-.2 0-.2-.2-.3-.3v-.3-.2h-.3v1.3h-.8v-.2l.2-.2v-2zm-3-.3v-.3h2.2v.6l-.2-.3h-.3c0-.2-.2 0-.2 0v2.8h-.8v-.2c.2 0 0-2.3 0-2.3v-.4h-.3s-.2 0-.2.2l-.2.2v-.4zm-2.3 3v-.2-.3h.2v-.4-.2l.2-.2v-.5-.2-.7c.2 0 .2 0 .2-.2h.5v.2c0 .2 0 .3.2.3v1l.2.2v.3l.2.6v.2h.2v.2l-.3.2c-.2 0 0 0 0 0h-.5v-.2-.2-.2-.3h-.8v1h-.6zm-2.6-3h2v.4l.2.2v.8c-.2 0-.2 0-.2.2l-.4.2h-.5s0 .2-.2.2v.8s0 .2.2.2c0 .2 0 0-.2.2h-.7.2v-.2-.4-.7-.3-.4-.2-.6l-.2-.2z"/><path fill="#002D62" d="M391.2 196v-.2-.2-.4c0-.2 0-.3-.2-.5v.3c-.2 0-.2 0-.2.2v.5h-.2v.2h.6zM387 195.2v-.2h.2v-.5-.3-.2h-.2l-.3-.2h-.2v1.5h.4zM378.7 194.6v1h.7v-.2h.2v-.7c0-.2 0 0 0 0v-.3h-.2v-.2h-.2-.2v.3zM381.7 195.7l-.2-.5v-.6h-.2v.5c-.2 0-.2 0-.2.2v.5c.4 0 .4-.2.7-.2zM356.3 206.3l.5.5.5.6c.4-.4 0-.8 2-1.8 2.4-1.3 5.6-2.5 8.3-3 2.4-.5 4.8-.5 7.2-.3 1 0 2.6.2 3.6 0 0 0 1.2-.2 1.5-.5.3-.4.3-1.2.3-1.2-.8-.7-3 1.5-5 .8-.7-.2-1-1.3-1-2l-.8-2.5c-3.7-.6-10 1-13.5 2.4-1.6.7-4 2-5 3s0 2.2.4 2.8l1 1zM369 198v-.4h.2l.2-.2H370.4v.2h.2v.7c-.2 0-.2 0-.2-.2s0-.2-.2-.2c0-.2-.2-.2-.3-.2h-.3V198.6h.4c0 .2 0 .2.2.2l.6.2v.2h.2v.2h.2V200.2l-.2.2h-.2v.2h-.3-.4-.4l-.3-.2v-.4-.2h.2v.3l.2.2.3.2h.4v-.2h.2v-.2-.2-.2h-.3c0-.2 0 0-.2-.2l-.3-.2h-.2l-.4-.3v-.2-.2-.2-.2-.2zm-3 .7h.2v-.3h.2v-.2h.2v-.2h1.1l.3.4.2.3v.2h.2v.5h.2v.8l-.2.4v.2h-.2v.2h-.2c-.2 0 0 0 0 0-.2.2-.4.2-.5 0h-.4-.2l-.2-.4c0-.2 0-.2-.2-.2v-.2c0-.2 0-.2-.2-.2v-.3-.2-.5-.3zm-1.3 0l.3-.2h.3c0 .2-.2.2 0 .2V199.4l.2.3v.5h.2V201h.2v.4c0 .2 0 .2.2.2l-.2.2h-.2l-.4.2v-.7l-.2-.2v-.3-.2h-.2v-.2-.2l-.2-.2v-.2c0-.2 0-.3-.2-.4v-.2h-.2l.3-.2zm-3 1h.4s.2 0 .2-.2h.4v-.2h.8c.3.2.2 0 .3.3h.2v.3h.2v.2l.2.2c0 .2 0 0 0 0v.5c.2 0 .2.3 0 .4v.5h-.2l-.3.3h-.2-.2l-.2.2h-.2v.2h-.2-.2v-.3-.2l-.2-.3v-.4h-.2v-.5h-.2v-.2c0-.2 0 0 0 0v-.2c-.2 0-.2-.2-.2-.2v-.3h-.4v-.2z"/><path fill="#002D62" d="M362.5 200v.2s0 .2.2.3v.4h.2c0 .2 0 0 0 0v.5l.2.3v.2l.2.2h.2l.4-.4v-.5-.2l-.2-.2v-.2l-.3-.6-.2-.2c-.2-.2-.3-.2-.5-.2h-.2-.2v.4zM366.6 199v.3s0 .2.2.2v.4c.2.2.2 0 .2.2v.2l.2.3h.2v.2h.5v-.2-.7-.4l-.2-.2v-.2l-.2-.4v-.3c-.2 0-.2 0-.2-.2h-.2c0-.2-.2-.2-.2-.2 0 .2-.2.2-.2.2l-.2.3v.4zM401.4 200.7v-.3c.2 0 0 0 0-.2.2-.3 0-.5-.2-.6h-.4v1.2c.2.2.5 0 .6 0zM406 200.5s.2 0 .2-.2v-.2c.2-.2 0-.5 0-.6l-.3-.2h-.3l-.2.6v.7h.6zM401.4 199c.2-.3.2-.6 0-.8h-.5c-.2 0 0 .2 0 .4-.2 0-.2.5-.2.6h.6z"/><path fill="#002D62" d="M394.3 201.4c-2.3.7-3.4-1.2-5-1-.3 1.4.7 1.8 1.8 2 2.5.3 6-.8 10.8 0 2 .5 4 1.2 5.8 2 .7.2 3.2 1.4 3.7 2l1 1 1.8-2.2c.7-.7 1.4-2 .6-2.8-.7-.8-3.7-2.4-5-3-2-.8-4.8-1.5-7-1.8-2.3-.4-7-.8-7-.8s-.2 4.3-1.3 4.6zM411 204c0-.3 0-.5.3-.7v-.4c.2 0 .2-.2.2-.2v-.2l.4-.7h.2l.3.4.5.6.2 1v.2c0 .5 0 .3-.3.7l-.4.3c-.2.2-.3.4-.6.4-.2 0-.4 0-.6-.3h-.2c0-.2-.5-.6-.6-.7l-.2-.2h.2l.3-.6zm-1.4-2.5l.3-.4v-.2c.2 0 .3 0 .5.2v1.6c-.2.3-.2.6-.2 1v.8l-.4-.2c-.3 0-.4-.2-.5-.2.3-.3.2-.3.2-.6v-.2l-.4-.3s0-.2-.2-.2v.8h-.3c0-.2 0-.2-.2-.2v-.3c.2 0 .3 0 .4-.3l.6-1.2zm-2.4-1.6c0-.2 0-.3.2-.5l1 .4h.2l.7.3v.7l-.4-.6h-.5l-.5 2c-.2.8 0 .5 0 .8l-.6-.3c-.2 0-.2 0-.2-.2.2 0 0 0 .2-.3v-.3l.5-1.8v-.4h-.5c-.2 0-.2 0-.3.2v-.3zm-2.6 1.5v-.4l.3-1v-.5-.4-.3h.4l1 .4v.2c.5.4.6 1 .2 1.5-.2.2-.4.2-.5.2l.2 1v.3l.2.3-.4-.3-.2-.4v-.2l-.3-.7v-.2h-.2v.5s-.2.5 0 .7h-.5s-.4 0-.4-.2c.2 0 .2-.2.2-.3zm-2-.5v-1.3l.3-1.2s0-.2-.2-.3h.2l1.5.3v.7l-.3-.3v-.2c-.2-.2-.5-.3-.8-.2v1h.4l.3-.2v.8c-.2-.2-.2-.4-.7-.5v.2c0 .2-.3 1-.2 1.2.4 0 .7.2 1 0 .2 0 .2-.2.3 0 0 .3-.2.3-.2.5h-.6c-.2-.2 0-.2-.2-.2l-.7-.2h-.2c0-.2 0 0 .2-.3zm-2.5 0c0-.2 0-.2.2-.3v-.8-.5-1-.4-.2c.3 0 1.2 0 1.4.2h.3v.3c.3.2.2 1-.5 1l.2.2.3.3c.2.2.2 1-.3 1.3-.5.3-.5 0-1 0h-.7zm-1-2.4v-.5-.2h.8l-.2.3v3h-.7v-.3-2zm-1.4-.8v.3c-.2.2 0 2.6 0 2.7h.3c.2 0 .3 0 .5-.2v-.2c.2 0 0 .6 0 .8H397h-.2c.2 0 0-1.4 0-1.6v-.8-.6l.8-.2z"/><path fill="#002D62" d="M409.8 203v-.8l.2-.7-.2.2-.2.3s0 .2-.2.3c0 0-.2.2 0 .3 0 0 0 .2.3.2zM411.4 205.2c.2 0 .5 0 .6-.2 0 0 .2 0 .2-.2v-.2c.4-.4.8-1.3.4-1.7 0-.2 0-.3-.2-.3 0 0-.2 0-.2.2-.2 0-.2.2-.3.3l-.2.2-.2.3c0 .3-.4.6-.4 1l.2.4zM413.7 206.3l-1.5 1.7c-.3.3-.5.5-1 .3-1-.2-1.5-1-2-1.3-.5-.4-1.4-1.2-2-1.3-.2.7-.4.8.8 1.7 2.8 2.4 7.5 2.5 10.4 3.7l3.7 2c0-.3-1.8-2.7-2.2-3.4 1.3 0 3 0 4.4.2l-.2-.2c-2-1.7-7-3.3-9.6-4.2l-.7 1zM393.6 201.2c.8 0 .8-.2 1-.8.4-1-1-1.5-1.8-1.6l-3-.5-.5 1.8c1.4.2 1.6.4 2.7 1l1.6.2zM375 200.4c0 .6.2.7 1 .8 1.8 0 2-1 4.2-1l-.3-1.8c-1 0-5.4.6-5 2zM357.7 207.6c.6 1.2 2.3-1 3.3-1.6l1.3-.7-.4-.5c-.6 0-2 .8-2.5 1-.8.5-1.6 1-1.8 1.8z"/><path fill="#002D62" d="M411.8 207.8c.4-.5-1-1.6-1.6-1.8l-2.5-1.2-.4.5.7.3c1.4.8 3 3 3.8 2.2zM347.4 213.2c1.3-.8 2.2-1.4 3.7-2 3-1.3 7.7-1.4 10.5-3.7 1.2-1 1-1 .8-1.7-.6 0-1.5.8-2 1.2-.5.5-1 1-2 1.3-.5.2-.7 0-1-.3l-1.5-1.7-.7-.8c-2.5.8-7.5 2.4-9.5 4.2h-.2 4.4c-.4.6-2.2 3-2.3 3.5z"/><path fill="#EAC102" d="M361.8 200c0 .2 0 .3.2.3v.4h.2v.3c.2.2.2.4.2.6l.2.2v.4c.2 0 .2.2.2.2v.4h.2c0-.2 0-.2.2-.2h.2l.2-.2h.2l.4-.3h.2v-.3-.3c.2 0 .2-.4 0-.4V200.4v-.2h-.2v-.2l-.3-.3h-.2l-.3-.3h-.2-.3-.8v.2l-.5.2v.2zm.6-.3h.8l.3.3.2.5v.3c.2 0 .2 0 .2.2v.8l-.3.3v.2h-.4v-.2-.2l-.2-.3v-.4s0 .2 0 0h-.2v-.3-.2c-.2 0-.2-.2-.2-.3v-.2c-.2 0-.2-.2-.2-.3zM366 199.5l.2.2v.5c.2 0 .2 0 .2.2l.2.2s0 .2.2.3h.7c0 .2.3.2.4 0 0 0-.2 0 0 0h.2v-.2h.2v-.2-.3c.2 0 .2-.2.2-.2v-.4-.3h-.2v-.3l-.2-.3v-.2h-.2l-.3-.4h-.2-.3-.2-.2-.2l-.2.2v.2c-.2 0-.2 0-.2.2v.9zm.6-1v-.2h.2v-.2h.2v.2h.4v.3l.2.2v.4c.2 0 .2 0 .2.2V200c.2 0 .2 0 .2.2V201h-.5v-.2h-.2l-.2-.3v-.2-.2-.2h-.2v-.3-.2-.2h-.2v-.4zM369 198.4v.4l.5.3c0 .2 0 .2.2.2h.3v.2h.3c0 .2 0 .2.2.2v.8h-.7v-.2h-.2v-.3c-.2 0-.2-.3-.3-.3v.6l.2.2h.3c.3.2.4 0 .5 0h.4c.2-.2.2 0 .2-.2v-.2-.3-.4l-.2-.2h-.2v-.2l-.5-.2h-.2l-.3-.2v-.2h-.2v-.4l.3-.2h.3v.2l.2.2v.2h.2v-.4-.2h-.2c-.3-.2-.6-.2-.7-.2-.2 0-.2 0-.3.2h-.2v.8zM365.2 198.8zM364.5 198.8v.2c.2 0 .2.2.2.3v.2l.2.3v.7c0 .2 0 0 0 0l.2.3v.2l.2.5v.3h.3v-.2h.5v-.2h-.2v-.2-.2s0-.2-.2-.2v-.5h-.2v-.2-.2-.2l-.2-.2v-.3h-.2v-.2-.2h-.8v.2zM385.7 196.5v.3h.8v-1.4l.2.3v.2l.2.2v.2l.4.4h.2l.3.2c0-.2-.2-.2-.3-.3v-.2l-.4-.6V195.3s.2 0 .2-.2c.2 0 .2-.2.3-.3v-.3-.6h-.2c0-.2-.2-.2-.3-.3h-1.1-.2c-.4 0 0 0 0 0v2.7zm.7-2.2v-.4l.3-.2h.3v.2c.2 0 .2 0 .2.2v.7c-.2 0-.2 0-.3.2h-.6v-1zM378 194.3c0 .2 0 0 0 0 .2.3 0 .6 0 .8 0 .2.2.2.2.3v1.8H379v-.2-.2c-.2 0-.2-.6-.2-1h.8l.4-.3v-.2l.2-.2v-.4-.2l-.3-.2h-.2v-.2h-.3-.4-.5H378v.2zm.8 0h.7c.2.3 0 0 0 .3.2 0 0 0 0 0h.2v.7h-.2v.2h-.5v-.3-.5-.2-.3zM381 196.8v-.7h.8v.8h.9v-.2h-.2v-.3l-.2-.5v-.4c-.2 0-.2 0-.2-.2v-.5-.4c-.2 0-.2 0-.2-.2v-.2h-.3-.3v.8c-.2 0-.2.3-.2.3v.8l-.2.2V196.4l-.2.4c-.2 0-.2 0-.2.2h.7v-.2zm0-1v-.4l.2-.2v-.3-.5h.2v.7l.3.5c-.3 0-.3.2-.7.2v-.3zM390.2 197h.3c-.2-.2 0-.2 0-.3v-.4h.8v.2c0 .2 0 0 0 0v.7h.8v-.5-.2c-.2 0-.2 0-.2-.2v-.7-.5c-.2 0-.2-.2-.2-.3v-.5-.2-.2h-.4-.2v.2l-.2.4v.3c-.2 0-.2 0-.2.2v.4l-.2.2v.4c-.2.2-.2 0-.2.2 0 0 0 .3-.2.4l-.2.2h.5zm.4-1v-.3l.2-.4v-.3-.2h.2v.5l.2.4v.5h-.6zM383 194.2s0-.2.2-.2h.4v2.8h.7v-1-2h.2l.3.2.2.3v-.3-.4h-2.2V194.2zM388.6 196.7l-.2.2H389.3c0-.2 0 0 0 0v-.2-.4-1.2-1-.2l.2-.2h-.9V196.8zM410.4 204.4l.2.3.6.6h.2c.2.3.4.4.6.4.3 0 .4-.2.6-.4 0 0 .2 0 .3-.4 0-.5 0-.3.2-.8v-.2c0-.4 0-.7-.2-1l-.5-.6-.3-.3h-.3l-.4.6v.2h-.2v.5c-.3.2-.4.4-.5.6l-.4.4h-.2zm.8.3c0-.3.3-.6.4-1 .2 0 .2-.2.2-.2v-.2c.2 0 .2-.2.3-.4h.2v-.3h.2l.2.2c.4.3 0 1.2-.3 1.6v.2h-.2v.2c0 .2-.4.3-.6.2-.3-.2-.3-.3-.2-.5zM401.7 201c.5 0 .5-1 .3-1.2l-.3-.3h-.2c.7-.2.8-1 .5-1.2v-.2h-.4c-.2-.2-1-.2-1.4-.2V201h-.2.7c.5 0 .5.3 1 0zm-.8-2.4c0-.2-.2-.4 0-.5.2 0 .3 0 .4.2.2.2.2.5 0 .8 0 .3-.3.3-.6.2v-.6zm-.2 1h.4c.3 0 .4.3.3.6v.5c-.2.2-.5.3-.7 0v-1.2zM404.4 201.8s.3 0 .4.2h.4V201v-.2h.2v.3l.3.7v.2l.3.3.4.4v-.4c-.2 0-.2 0-.2-.2v-1s.2 0 .4-.3c.4-.4.3-1-.2-1.5-.4-.3-.7-.3-1-.4h-.4V200l-.3 1v.6h-.2v.2zm1-2l.3-.7s.2 0 .2.2c0 0 .2 0 .2.2 0 0 .2.4 0 .7v.5h-.8v-.7z"/><path fill="#EAC102" d="M408.5 203v.3l.2.2h.3v-.3-.4h.3c0 .2.5.3.5.4v.2c0 .3 0 .3-.3.6l.4.2.3.2v-.7-.2-1l.2-1v-.5c-.2 0-.3-.3-.4-.2v.3l-.4.5-.7 1.3c-.2 0-.3.2-.5.3zm1-.7v-.3l.3-.3v-.3h.2v.8l-.2.7v-.2c-.3 0-.4 0-.5-.2v-.3zM402.5 201.3l.7.2h.2l.7.2c0-.2.3-.2.3-.6l-.2.2c-.3.2-.6 0-1 0l.2-1.2v-.2c.6 0 .6.3.8.5v-1s0 .2-.2.2h-.5v-1c.4 0 .7 0 .8.2h.2c0 .2 0 .2.3.4v-.7l-1.5-.4h-.2v1.7c-.2.3-.2 1-.3 1.3 0 .3 0 0-.2.3h.2zM407.2 200.2l.3-.2h.4v.3l-.5 2v.2c-.2.2 0 .2-.3.3h.2l.6.4c0-.3-.2 0 0-.8l.6-2h.3c0 .2 0 .4.2.6v-.7l-.6-.3h-.2l-1-.5c0 .2 0 .3-.2.4v.2zM396.8 198v1.4c0 .2.2 1.4 0 1.6h1.7s.2-.6 0-.7v.2c-.2 0-.3.3-.6.3h-.5V198v-.2h-.8v.2zM399 201h.7v-.3-2.6-.2h-.8v3.3z"/><path fill="#006300" d="M410.5 239zM408.4 221.2h-.5l-1-.6.3.2 1 .8s.2 0 .3.2c0-.2 0-.4-.2-.6zM410 240.3zM414.4 253.2c-.8-13.2-2.3-15-3.5-13.8 3.2 3.5 2.2 13.6 1.8 16h.2l1-1.3s.3-.5.7-.8c.7-2.2 1.8-4.6 3.2-6.8h-.2v-.6-1c0-.2-.2-.5 0-.6 0 0-.2 0 0 .7l.2.4c.5-1 1.2-2 2-3-1.3 1-2.3 1.7-2.7 1.6l-.5 1 .3-2.4c.2-1.6 1.7-5 3.2-8.3l-.5-.2v-.6c-1 2.2-2 5-2.4 6.2-.3 1.4-.7 2.4-.7 2.3V240c.2-1.2.8-3 1.5-4.7h-.3c0-1 .6-2.8 1.2-4.3l-.8 1.4c-1 2-2 3.7-2.2 3.6-.4-.8 1.5-4.7 3.5-7.6l-.4-.2 1.2-2.6-2.6 4.5c-1 2-2 3.3-2 3.2-.2-.5.5-2.3 1.6-4.2v-1c.3-1.4 1-4 1.4-5v.2l-1-.3c-.8 2.6-1.7 6-2 7.7 0 .7-.2 1.4-.3 1.5v-1.8c-.2-.2-.5-.7-.7-1.3-1-2-1-3-.5-5.5l-.2-.5c-.5-.8-.8-1.7-1.2-2.7l-.7-1.8c0 .6.3 1.2.5 2l.4 2.4c-.2 0-.4-.3-.4-.7l-1.2-3.3-.7.4c-.3-.2-.6-.6-.8-1l-.7-.7c.2.6.6 1.2 1 1.8.8 1.5 2 3.2 2.7 3.8l.2.3c.2 0 .3 0 .3.2h-.8l.3.3-1.6-1h-.2c-.4 0-.8-.2-1-.3.4 1 1 2 1.4 2.5.2.3.3.5.2.6 0 .2-.4-.3-1.5-1.8-.4-.6-.8-1-1-1.5.4 1 1 1.8 1.6 2.7l.6 1-.5.5.6.6c1.7 1.8 3 3.7 3.5 5.3.3 1 .5 1.6.4 1.7l-1-1.4c-.2-.8-.8-1.8-1.5-2.8h-.3v.2c1.2 1.6 2.2 3.2 2.6 4.6.4 1 .6 2 .4 2 0 .2-.6-.6-1-1.7l-1-1.8-.5-.2.6 1 .7 1.5-.7.3c.6 1 1 1.7 1.2 2.4l.3 1.2c.5.6 1 1.3 1 2 .3.7.4 1.3.3 1.4l-.6-1.2-1.3-2.2 1.2 4.4-1 .2-1-2.7-.6-1.5v-.2c-.3-.6-1-2.6-1.7-2.6h-.2v.2c3 1 3 15.2 3 15.2z"/><path fill="#006300" d="M414.5 238.7L413 236l-.5.5.2.3.4.4 1.5 1.5zM410 248.6l-.2-.2s0 .3.2.5v-.4zM419.8 254.2zM410.2 222.6c-.4-.3-.5-.4-.7-.8 0 0 0-.3-.3-.5l-.8-1.6 1.2 2.7c.2 0 .4 0 .6.2zM418 255.5l3.8-.6s.2 0 .3-.2l-1.5.3v-.6c-.6 0-1 .3-1.5.4l-1 .7zM401.2 262.6l-.5-.2v-.4c-.4 1.2-1 2.2-1.4 2.2l.8-1.7.5-.7h-.6c-.5 1.2-1.2 2.4-1.7 3l1.7.3.8-1.5c0-.3.3-.6.4-1zM412.8 255.5c0-2.5 0-4.7-.2-6.5h-.4c0-.6-.7-2-1-2.6v-.2l1.2 4v.5l-.2.2s-.2 0-.2.2c0 .3-.2.6-.3.8l-.6 1.2v-.3l.6 3.2 1.2-.7z"/><path fill="#006300" d="M409.6 260c-.3-.2 2.2-1.6 4.8-3.2-2 .4-2.5.5-2.7.3v-.2-.2h-.3l-1.2.4 1-.6c.2 0 .3 0 .3-.2l-1.4-5.6c0 1.7-.4 3.5-1 5.3-.8 1.5-3.3 5.4-4 5.6-.2 0-.2 0 .5-.8 2.4-2.8 4-7 4.4-11-.7 3.5-1 4.7-3 7.8l-1 1.5-.7 1-.6.6-.5-.3c-1.2 2.3-2.7 4.4-3.3 4.4-.2 0 .5-1.5 1.6-3.3l-.2-.3c-.2.7-.5 1.2-.8 1.7-.5 1-1 2.2-1.5 2.5.6 0 1 0 1.6.2 1-.3 3.6-.3 5.7 0h-.5v-.7H405c-2 .4-3.4.4-3.4.3.3-.5 3.4-1 6-1v-.7c-1.8.2-3.2.2-3 0 .2-.5 4-.8 6.8-.7v-.7H407c0-.2.2-.3.4-.4h-.2c.3-1 4.3-1.8 8.7-2.8l1.7-.6h-.6l-.2-1 1-.5 2.6-1h.6v-.2l-3.8.7c-4 3-6.5 4.2-7.6 3.7zM423 252.2c.5-.3 1-.4 1.5-.5h-1.8l-.5.6h.7z"/><path fill="#006300" d="M416.5 253.2l4.2-.7 3.3-2.6c-1.7.5-3.8 1.4-5.6 2.3l-2 1zM417.7 250.6c1.5-1.2 3-2.3 4.5-3l-.5-.6.8-.8c-1.6 1.3-3.5 3-4.8 4.4zM418.3 241.7l-1 2.2c.3-.5 1.2-1.5 2.5-2.7l-.3-.2c.2-.7 1.2-2.5 1.7-3.2l1-1.6-1.7 2.5-2.2 3zM425.2 248.8c-.7 0-1.2 0-1.8.2-.3 0-.6 0-1 .2l-.2-.8-2.8 2.2c2-.8 4.2-1.6 5.8-1.8zM420.8 243.5c-.6 1-1.4 2-2 3.2h-.3l-.3.4v1.6c.7-.8 1.5-1.4 2.6-2.2l-.3-.3 2-1.8c0-.2.3-.4.5-.5l.2-.2.2-.2.5-.5.4-.4-.6.5c-.3 0-.5.2-.8.4l-.8.7c-.5.5-1 .8-1 1l-1.6.6.8-1.4.8-1.2-.3.3s-.2 0-.2.2zM421 236l-.6-.2-.8 2c.5-.5 1-1 1.4-1.7zM412.3 223.3l.2.4h.2l-.4-.4zM415.2 229.6c0-2.6.5-3.8 2-7.2l.4-.5-.5-.3-.6 1.7-.5 1.4-.3.6-.8-.2c0 1.7 0 3.4.2 4.4zM412.5 256.3s.2 0 .2-.2l-1 .5v.2l1-.2-.2-.2zM410.5 216.3v.2c.2 0 .2.2.3.3 0-.2-.2-.4-.3-.5zM426.6 230.6h-.2v.2l.2-.2zM415.8 254l-1.5 1.2c0 .2 0 .2 0 0-.5.4-1 .7-1 1 .7-.4 2.4-1 4-1.4 1-.5 2-1.2 2.7-1.8l-3.2.7c-.4 0-.7 0-1 .2zM408 245.4c.4.2.7.5 1 1l-.3-.5s0-.2-.2-.3l-.2-.3h-.3zM414.5 256.2l1.2-.2.5-.4-1.2.4c-.2 0-.4 0-.5.2zM415.2 252.8l.8-1.3 1.5-2c0-.7.2-1.2.3-1.8-1 1.6-1.7 3-2.3 4.5l-.3.6zM413 262.7h-.5.4zM409.4 261.3c1.6 0 4 0 5.7.2h1l-2.3-.5-1.4-.2 1.6-1h.2c-.7 0-1.4.4-2 .7-1 .4-2 .6-2.8.8z"/><path fill="olive" d="M427 231.7l.4-.4c0-.2 0-.3.4-.5v-.2c.3 0 .4-.2.5-.3.2 0 .3-.2.5-.4l.6-.4-.5-.5h-.8c-1 0-2.4 1-2.4 1-1.4 1-2.5 2-3.6 3.3.4-1 1-2 1-2.4l.8-1 .8-1.3 2-3h-1c-.4 0-.7.3-1 .6l.4-.6-.6-.2h-.2c-1 0-2.4 2-2.4 2 0 .2-.3.4-.5.6l1-1c0-.2 0-.3.3-.5l2.5-3.4H424.4c-.6 0-1.5.7-2.3 1.5.6-.7 1-1.4 1.7-2v-.2c.4-.3.6-.6.8-1l.3-.6h-.7c-1.2 0-4.6 4-4.6 4.2-.2 0-.3.3-.5.6 0-.8.4-1.5.5-2l1-2.3 1-1.7v-.6h-.5c-.4 0-.7 0-1 .3l.3-.7.4-1 .4-1-1 .3c-.2 0-.4.3-.6.6l-.8.3c-1 .3-2 2.5-2.7 4 0-1 .2-2 .4-3 0-.5 0-1 .2-1.5v-.7l-.6.2c-.5 0-.6.5-.7.7l-.3.8c0 .3-.2.5-.3.8l-.3.7-.4 1.8-.5-1.4c-.5-1.4-1-3.2-2.4-5-.6-1-1-1.3-1.6-1.8l-.7-.5-.3.5c-.2.4 0 .7 0 1l.7 1.2.5.8-.5-1-.6-.6-.6-.6-.2.7v.6l-.3.3-.3.3v1l.4 2.4c-.2 0-.3-.2-.5-.3-.4 0-.6-.3-1-.4 0-.2-.3-.3-.5-.3h-.7v.3c-.4.7.8 1.8 1.5 2.4l.4.2 1.4 1.2.4.7-1.6-1.3-1-.7.2 1c0 .5.2.8.4 1l-.8-.4-.6-.2v.6c-.2.5.2.8.4 1 .8.6 1.4 1.2 2 2l1 .7 1 1.2.2.3.8.8.6 1-.7-1-1-.8v-.2l-1.6-1.2-.8-.3v1c0 .3 1 1.5 1.8 2.4l-1.7-1-.2.6c-.2.5.3 1 .7 1.2l.8.8 1.5 1.5-3.7-1.8.3 1c0 .2 0 .5 1.7 1.5.7.5 1.6 1 2 1.6.2 0 .3.2.4.3l.4.4.7.7h-.3c-.6.4-1 1-1.2 1.4l.5.4-.6-.2c-.5.2-1 .4-1.7 2-.5 1-1 2.3-1.2 3.8v.8c0 .3-.3.6-.3 1.2v2.3c.2 1 .2 1.3.4 1.5l.3.3c-.3.2-.5.6-.5 1-1.4 4-1.8 5-3.3 7.5l.2-1-.7.2h-.4v-.5h-.5c-.5 0-.6.7-.7 1v.3c0 .2-.2.3-.3.5v-.3l-.3-.4h-.4c-.5.2-.6.8-.7 1.2l-.2 1c-.5 1.2-1 2.2-1.8 3.3 0 .3-.2.5-.4.8h-.5v.4h.6l5.2 1c.2.2 1.2.4 1.8.6 1.8 0 3.3-.2 5 0h.5l1.4.2c.3 0 .5 0 .6-.2l.6-.4-.6-.4-1.5-.6h3.3c.2-.4.4-.6.7-.8l-1-.6h-.5 1l.2-.2h1l1.3-.5c0-.2-.2-.4-.3-.5h1l1.6.2.2-.3.5-.7c0-.2-.3-.3-.4-.3-1-.5-2.5-1-3.8-1 .3-.3.6-.4 1-.6 1.3-.6 3-1 4.6-1.5l1.6-.4.8-1c0-.3-.2-.5-.8-.5h-1 .6c.3-.2.4-.3.5-.6v-.3c.7 0 1.4-.3 2-.4h.3l2.8-.8h.2c.3 0 .6-.2 1-.6l.2-.5-.7-.4h-.3l-3 .4h.5c1-.4 1.4-.5 1.6-1l.3-.2h.4s.2 0 .3-.2c.4 0 1 0 1-.7l.2-.6-3.3-.2h-1l.7-.5.4-.4h1.5c.6 0 1-.2 1-.3l.6-.3-.4-.4c-.5-.5-.8-.6-1-.7l.3-.6.7-.8v-.7l-.2-.4h-.2c.2 0 .2-.2.3-.3l.2-1-4 1.2c1-1 2.3-2 3-2.4l1-.8v-.5l-.5-.2h-.5c-.4 0-1 .3-1.5.6l.8-.6 1-1h.3c.3-.4 1-.8.8-1.3v-.7l-.6.4c-1.5.8-2.8 1.7-4 2.6l-1.2.8c0 .2-.2.2-.4.3l1-1.2c1.2-1 2.6-2.5 4.2-4 .2 0 .4-.2.5-.3l.6-.5h.3v-1h-.5c-.6 0-2 1-2 1l-1 .8c.8-1 1.2-2.3 1.4-3.6l-1-.4c0 .3-.4.7-.8 1.2l-.5.6-.5.5-2 2.2 1.4-2 3-3.8zm-16 17.5l.3 1-.2-.8v-.2zm-2.6-5v-.5.5zm1.4 1.7v-.3l.3.6v-.2h-.2zm.7-2.8h-.3c0-.4.3-1 .5-1.3v-.5c.5 1 1 2.4 1 4l-1.2-2.3zm-2.4 7.3l.3-3.2c.4.7.7 1.7.6 2.2-.5 2.8-.8 4-2 6 .6-1.6 1-3 1-4.2v-.8zm17.7-1l-3 2.3h1.7c-.5 0-1 0-1.5.4h.3c2.4-.5 3.7-.6 3.5-.4l-4 .7-1.2.2-1.8 1.5 1.5-.4c2.4-.6 3.6-1 3.5-.7 0 .2-1.8.7-4 1.3h-.4v.8h1.5v-.2h-.2.5c2.8-.4 4.3-.5 4-.3l-4.6 1h-.7l-.6.3c-.8.3-1.7.5-2.5 1l-1.2.5.3 1h.7c-.6 0-1 .3-1.6.5l3.5-1c1 0 1.7-.2 1.8-.2 0 0-1 .5-2.4.7l-4.8 1.4h-.3l-1.7 1 1.4.3c.6 0 1.4.3 2.3.5H415c.7 0 1.3 0 1.7.3l1.3.4-2-.2h-4.7v.6h1.6-.3c.5 0 1 .2 1.3.3.6 0 1.2.2 1.2.3h-2c-1-.2-3.4-.2-5.3 0h-.3v.7c1.3 0 2.6 0 3.4.3.8 0 1.3.3 1.4.3h-5.6v.7h.5l2 .6c.7 0 1.2.3 1.2.4 0 0-.7 0-1.6-.3-1 0-3.2-.2-5 0-1.6 0-3-.2-2.8-.3l.4-.3c-.5 0-1 0-1.5-.2l-1.7-.4c0 .2-.2.3-.3.3l.7-1.6 1.3-2.8c0-.5.3-1 .3-1v.8c0 .4-.2 1-.4 1.4h.5l.8-2 .4-1v.7c-.2.7-.5 1.6-1 2.5v.4l.5.2.8-2 .3-1v1c0 .4-.4 1.3-.7 2l.8-1.5.3.3 2.8-5 .8-2-.2 1.4c-.2 1.2-1 3-1.8 4.6l.5.3.6-.7.6-1 1-1.4c2-3 2.3-4.3 3-7.8-2.6-8-3-.5-3-.5 0-4.7 1-4 1-4h.2l.3.4s0 .2.2.2l.2.3-1-1c.8.8 1.3 1.8 1.8 3l.2.3c-.2-2.3 0-2.6 0-.7.2.4.2 1 .2 1.5l.8 3.4v.2l.7-1.2.3-.8s0-.2.2-.3l.3-.3v-.4l-1.4-4h.3l1 2.8h.3c-.4-6.8-1.3-8.8-2.3-8.8l-1 2.8-.4 1.2.2-1.2.8-2.6c-1.3.6-2.6 4.2-2.6 4.2 1.4-5 2.6-5.6 3-5.5.6-1.3.8-1.2.8-1.2h.5c.7 0 1.4 2 1.7 2.5v.2l.6 1.4 1 2.5h1l-1.2-4.4c-1-1.4-2.2-2.8-3.2-3.8-1.8-1.7-1.2-1.4.8.4l.7.6-.3-.4s0-.2-.2-.3l.4-.4c-1-1.3-2.3-2.7-3.3-3.7-2-2-1.3-1.6 1 .5 1.2 1 2.3 2.4 3 3.5l.8-.2-.7-1.3c0-.3-.4-.7-.7-1h.7c-1.5-2.4-4-5.5-6-7.5-2.8-2.7-1.8-2.2 1.4.6 1.5 1.3 2.7 2.6 3.7 4l.2-.3c-1.2-1.6-2.6-3.3-3.8-4.4-2-2-1.4-1.6 1 .5l1.4 1.3-.5-.6.6-.5-.7-1c-.8-1-1.3-1.7-1.7-2.7-1.2-.6-2-1-3-2-.5-.7-1-1.2-.8-1.2l1 .6 1.7 1.2-1-.8s-.2 0-.2-.2l1 .5.4.2-.5-1.8-.2-1.4.4 1c0 .2 0 .4.2.7l.8 1.6.3.5c.2.4.3.5.7.8.8.5 1.7.8 2.3 1l-.2-.3-.7-.7c-2-2-2.3-2.7-3-4.7l-.3-1.5.5 1 1.4 2.3-1-1.7.7.8c0 .4.4.8.7 1l.7-.4-1.8-3.6-.5-1c.2 0 .6.5 1 1l.6.7v-.2s0 .3.2.5c.5.7.8 1.3 1 2.2.4.6.6 1.2.8 1.8.4 1 .7 2 1.2 2.7l.3.4.3-1c.5-2.2.7-3 1-2.8v.8c-.3 1-.4 2.6-.4 4.2l.7.2.2-.6c0-.4.2-1 .4-1.4l.7-1.7.6.2c1-2 1.3-2.8 1.4-2.6 0 0 0 .6-.2 1-.4.6-.8 1.6-1.2 2.8l1 .3v-.3c-.4 1-1 3.7-1.3 5v1c1-1.8 2.4-4 3.5-5l1-1c.2 0-.4 1-1 1.8l-.6.8c-.5 1-1 1.8-1 2.6l.3.2c.8-1.2 1.6-2.2 2.2-2.8l1.3-1-1.3 2c-.7.8-1.8 2.6-2.8 4.4-.7 1.5-1.3 3.2-1.3 4.2h.4c1.5-3.3 3.6-6.8 4.5-7L420 233l-.2.4v.7l.4.3c1.8-3.5 3.7-6.6 4.3-6.7.2 0-1.4 2.3-2.5 4.5l-1.6 3.8.6.3c1.6-2 3.5-4 5-5 0 0 .2 0 .3-.2l.3-.2 1-.6s-.8 1-2 2l-3.3 4.2-1 1.6c-.6.7-1.6 2.5-1.8 3.3l.3.3.3-.3c1.8-1.6 3.8-3.7 4.6-4.8l1.4-1.8-.6 1.5c-1 1.7-3.5 4.6-5.5 6.4-.8 1-1.5 2-2 3v.7c1.7-2.5 3.6-4.8 5.4-6.3 1.2-1 2.5-1.8 2.5-1.6 0 .2-1 1-2 1.8l-2.8 3.2-.8 1.2-1 1.4 1.7-.7 1.2-1 .8-.6.8-.5.6-.6-.5.5c-.2 0-.4 0-.6.3l-.2.2s-.2 0-.2.2c-.2 0-.4.3-.6.5l-2 2 .4.2 2-1.4 3.6-2c0 .3-.4.7-.8 1-.8.4-2 1.2-3 2.2l-1 .8.6.5 1.3-.6 1.8-.8-2.3 1.6-.8.6.3.8c.3 0 .6 0 1-.2.5 0 1-.3 1.6-.3h.2l2.2-2-1 2h1.6l-2.3.7zm1.3-3.2l-1.4 1.2c-.2 0-.2 0-.2.2h-.3-.4c.2 0 .5-.3.8-.5l1-.6.4-.2h.2z"/><path fill="olive" d="M411.4 223.6l1.6 1-.3-.5-1.3-.4zM418 246.3v-.5l-.2.5zM420.8 243.5v-.2l-2.3 3.3h.2l2-3z"/><path fill="#008F4C" d="M416.6 242s.4-1 .7-2.4c.4-1.3 1.4-4 2.5-6.2l.2-.4c1-2.2 2.7-4.5 2.5-4.5-.8 0-3 3.6-4.4 7-.6 1.8-1.2 3.5-1.3 4.7v1.7zM418.2 247l.3-.4 2.4-3.3s0-.2.2-.3c1-1.2 2-2.3 3-3.2l1.7-1.7s-1.4.7-2.6 1.7c-1.8 1.5-3.7 3.8-5.3 6.3.2.4.2.8.2 1zM414.3 255.2c0 .2 0 .2 0 0zM415.5 252.2c.6-1.4 1.4-3 2.3-4.5v-1.3c-1.3 2.2-2.4 4.6-3 6.8l.4-.4.3-.6zM415.2 229.6l.2 1.3-.2-.3v1.8c.2 0 .4-.8.5-1.6.2-2 1-5.2 2-7.8.3-1.2.7-2.2 1-2.8.3-.4.4-1 .3-1 0-.2-.5.5-1.4 2.5l-.3.4c-1.6 3.4-2 4.6-2 7.2zM410 249s0 .3.2.5V248c-.2-2-.4-1.7-.2.6v.3zM405.5 260.8c-.7.8-.7 1-.4.8.7-.2 3.2-4 4-5.8.6-1.7 1-3.5 1-5.2v-.7c-.4 4-2 8-4.5 10.8z"/><path fill="#008F4C" d="M417.7 244.2v.7s.2.3.2.8v.5c0 .5 0 1-.2 1.4 0 .6-.2 1-.3 1.7l.6-.8c.2-.5.2-1 .2-1.5v-1c0-.2 0-.4-.2-.6v-.5l-.3-.8zM417.7 250.6l-.2.3v-.3h.2zM412.8 255.8v-.3l-1.2.7v.3c.4 0 .7-.2 1-.4l.2-.2zM411.3 256.4c-.7.3-1.2.5-1 .6 0 0 .5 0 1-.4h.3v-.4s-.2 0-.3.2zM412.8 255.5v.2s0-.2.2-.3h-.2zM421.6 252.7c.4 0 1 0 1.3-.2l3.8-.7c.2-.2-1 0-3.5.3 0 0-.3 0-.4.2h-.8l-.6.5zM416.4 253.3l-.6.6c.3-.2.6-.3 1-.3l3.2-.7c.2 0 .5-.3.7-.5l-4.2.7zM413 223.4s0-.6-.5-2.4l-.6-2c-.4-1-.7-1.5-1.2-2.2 0 0 0-.2-.2-.3l-.5-.6c-.4-.8-.8-1.2-1-1.2l.6 1 1.8 3.6 1.2 3.3c0 .4.2.6.3.7z"/><path fill="#008F4C" d="M413 223.8h.3s-.2 0-.3-.2c-.7-.6-2-2.3-2.8-3.8l-1.4-2.4-.5-1s0 .7.3 1.5c.7 2 1 2.6 3 4.6l.7.7c0 .2.3.3.4.4h.2zM413.4 224.2h-.2.2zM415.6 233.5s1-1.3 2-3.2c.8-1.6 1.8-3.3 2.6-4.5l.5-.8 1.2-1.7-1.2 1c-1 1-2.5 3-3.6 5-1 2-1.8 3.7-1.6 4.2zM416 236.2l2.2-3.6.7-1.4c1-1.8 2-3.6 2.7-4.5.8-1 1.4-2 1.3-2l-1.2 1c-.7.7-1.5 1.7-2.3 3-2 2.8-4 6.7-3.5 7.5zM411.8 226.3l-.2-.6-1.5-2.5c-.3 0-.5-.2-.8-.3l1 1.5c1.2 1.5 1.6 2 1.6 1.8zM409.6 222.4c-.4-1-1-2-1.2-2.7 0-.3 0-.5-.2-.7l-.4-1v1.4l.6 1.8c0 .2 0 .4.2.6l1 .6z"/><path fill="#008F4C" d="M410 223.2c.4 0 .8.2 1.2.4h.2l1.3.5c.2 0 .4 0 .5.2h.2v-.3l-.5-.2h-.3-.2l-2.3-1.2-.6-.2-1-.6-.4-.2-1.8-1.2-1-.6 1 1c1 1 1.7 1.6 2.8 2l1 .4zM419.4 238.7l-1 3 2-3c.6-.8 1.2-1.7 2-2.5 1.2-1.7 2.5-3.3 3.2-4l2-2.2-1 .6s-.2 0-.3.2l-.4.3c-1.5 1-3.4 3-5 5l-1.4 2-.2.7zM417.4 244c.3 0 1.3-.6 2.5-1.6 2-1.8 4.5-4.7 5.4-6.5l.6-1.6-1.4 1.8c-.8 1-2.8 3.2-4.5 4.8 0 0 0 .2-.2.3-1.3 1.2-2.2 2.2-2.4 2.6zM401 264.7c.5 0 2-2 3.2-4.4 1-1.7 1.6-3.4 2-4.6v-1.4l-.7 2-2.8 5c-1.2 2-2 3.4-1.8 3.4zM415.3 240c0-.4 0-.8-.3-1.3-.2-.7-.6-1.5-1.2-2.4-.8-1.2-2-2.4-3.2-3.6-2.2-2-3-2.3-1-.4 1 1 2.3 2.4 3.3 3.8l1.5 2.7.8 1.2zM409.4 261.3l-1.8.3c-.2 0-.3.2-.4.3H416l2 .2-1.3-.4c-.4-.2-1-.3-1.6-.3-1.6-.3-4-.3-5.6-.2zM404.5 263.4H408c1.8-.3 4.2-.3 5.3-.2h2s-.7 0-1.3-.3c-.4-.2-.8-.3-1.3-.3h-1.2c-3-.2-6.7 0-7 .7zM405 265l1.8-.3c1.5 0 3-.2 3.7 0h2l-1.4-.4c-.7-.2-2-.3-3.3-.3-2.7 0-5.7.5-6 1h3.3z"/><path fill="#008F4C" d="M401.6 265.4c-.2 0-.4.2-.4.3 0 0 1.2.2 3 .2 1.6-.2 3.7 0 4.7 0l1.5.4-1-.5c-.6-.3-1.4-.5-2.2-.6-2-.3-4.7-.3-5.7 0zM407.4 261.6h.2c.3 0 1 0 1.7-.3 1-.2 1.8-.4 2.8-.8l2.2-.8 4.7-1.4 2.3-.7s-1 .3-1.8.3l-3.4.8c-4.3 1-8.3 1.8-8.6 2.8zM412.7 256.5l-1 .2v.4c.2.3.6.2 2.7-.2l1.3-.8c-.4 0-.8 0-1.2.2-1.4.4-1.7.5-1.8.3zM417.2 256.2l3.8-.7h.7l4.7-1c.2-.2-1.3 0-4 .4h-.6c-1 0-2.5.3-3.8.5l-.8.7z"/><path fill="#008F4C" d="M412.6 256.3v.2c.2.2.5 0 2-.3l.4-.2 1.2-.4 1.2-.8-4.2 1.3-.6.3zM419 254.8c.5 0 1-.3 1.4-.4h.5l3.8-1.3-3.5.8c-.4 0-1 .2-1.5.4l-.8.6z"/><path fill="#008F4C" d="M412.6 256.2c0 .2.2 0 .6 0l1-1 1.6-1.3.6-.7c-1.4.6-2.4 1-2.4.8l-1 1.4s0 .2-.2.3V256c0 .2-.2.2-.2.2zM417.4 251c-.4.3-.8.8-1 1.2.8-.6 2-1 3-1.6l2.8-2.2.8-.6c1.4-.8 2.4-1.6 2.3-1.6l-1.8.7c-.4 0-.8.2-1.3.5-1.4.8-3 2-4.6 3.2l-.2.2zM428 248.6h-1.7c0 .2 0 .3-.2.4l-.3.4c1.4-.4 2.4-.7 2.3-.8z"/><path fill="#008F4C" d="M416.3 252.2l-1.4 1.4s0-.3.3-.8c-.2 0-.4.3-.6.4-.4.3-.7.7-.7 1 0 0 1-.3 2.4-1 .7-.2 1.3-.5 2-1l5.6-2.3.7-.7.5-.5c-1.6.2-3.8 1-5.8 1.8-1 .5-2.2 1-3 1.6z"/><path fill="#008F4C" d="M426.3 248.6c.7-1 1-1.7 1-1.8l-2 2c-.2 0-.4.3-.6.5l-.7.6-3.3 2.5-.7.5c-.8.6-1.7 1.3-2.6 1.8l-1.2.8c-.2 0-.3.2-.5.4l-1.3.8c-2.6 1.6-5 3-4.8 3 1 .6 3.6-.7 7.6-3.6l.8-.7 1-.7.8-.6 1.8-1.5c.2 0 .4-.3.6-.4l.5-.5 3-2.4.4-.4c.2 0 .3-.2.3-.4zM418 248.6c0 .2-.3.5-.5.8l-1.5 2-.7 1.4-.4.8 1.2-1.3 1.2-1.4c0-.2.2-.3.3-.4 1.3-1.4 3.2-3 4.8-4.4l3-2.3c.5-.3 1-.7 1-1 0 0-1 .4-3.6 2-1 .5-1.6 1-2.2 1.4-1 .8-2 1.4-2.7 2.2zM416.8 245l.5-1 1-2.3c.5-1.2 1-2.4 1-3l.3-.8.8-2.2 1.6-3.7c1-2 2.7-4.4 2.5-4.4-.6 0-2.5 3.2-4.2 6.7-1.6 3.2-3 6.7-3.2 8.3l-.2 2.4zM414.6 229.4l.6 1.3c0 .2.2.2.2.2s0-.7-.2-1.3c-.2-1-.3-2.8-.3-4.5 0-1.6 0-3.3.2-4.2v-.8c-.2 0-.4.6-1 2.7v1c-.6 2.4-.5 3.4.4 5.4zM416.6 243.4l-.2-1.4c-.2-.7-.6-1.4-1-2-.3-.5-.6-1-1-1.3l-1.3-1.5c0-.2-.4-.4-.6-.6-2-1.8-2.6-2-.8-.4 1 1 2.2 2.4 3 3.8l1.4 2.2.6 1.2zM410.5 239c-.5 0-1.7.6-3 5.6 0 0 1.2-3.6 2.5-4.3l.5-1.2zM412.8 255.8V255.7v-.2c.4-2.5 1.4-12.6-2-16l-.5.7c1 0 2 2 2.3 8.8l.2 6.5v.3zM409.2 243l-.3 1.2c0-.5 0-1 .2-1.2z"/><path fill="#008F4C" d="M411 239.4c1-1.2 2.6.6 3.4 13.8 0 0 .2-14.2-3-15.3 0-.2 0-.2-.2-.2 0 0-.2 0-.7 1.2 0 .4-.3.8-.4 1.3l-.8 2.7 1-2.8.7-.8zM410 250.6c.5 1.5 1 3.3 1.5 5.6v.4l.2.4v-.3-.2-.3l-.7-3.3-.8-3.5c0-.2 0-.4-.2-.7 0 0 0-.3-.2-.5-.5-1.2-1-2.2-1.7-3 0 0-1-.7-1 4 0 0 .4-7.6 3 .5v.8zM415.7 237.4c.2 0 0-1-.4-2-.4-1.5-1.3-3-2.6-4.7-1-1.3-2.2-2.6-3.6-4-3-2.7-4-3.2-1.3-.5 2 2 4.5 5 6 7.6l1 1.8 1 1.8z"/><path fill="#008F4C" d="M415.4 234.7s0-.8-.3-1.6c-.4-1.5-1.7-3.4-3.4-5.2l-1.4-1.3c-2.4-2.2-3-2.5-1-.4 1.2 1.2 2.6 3 3.7 4.5.6 1 1.2 2 1.5 2.8.4.8.8 1.4 1 1.4zM399.3 264.2c.3 0 1-1 1.5-2.2.4-1 .7-1.8.8-2.5v-.7l-.3 1c0 .4-.5 1.2-.8 2l-.4.7-.7 1.7zM400.3 260.4v-.8l-.3 1-1.3 2.8-.7 1.7.4-.2 1.5-3c0-.5.2-1 .3-1.4zM401.6 262.7l.7-2.2v-.8s0 .4-.3 1c0 .4-.4 1-.8 2l-.4.8-.8 1.6v.2c.5-.3 1-1.4 1.6-2.5z"/><path fill="#006300" d="M352.3 249.2l.3.3s-.2-.3 0-1.8l-.7.2v1.4l.3-.2zM354 247.6c.3-.2.4-.4.5-.6 0 0 0-.8-1.2-1.4 0 .2 0 .5.2.7l.6 1.3zM355 252.3h-.2l.4.6-.2-.7zM357 260.3c.4 0 .8 0 1-.2h.2c-.2-1-1-1.5-1-1.5-1.4-1-1.4-1.3-1.8-2.4l-.8.2c.6.8 1.5 2 1.6 3.2 0 0-.5-.6-1-.7h-2l.6.7h.7c1-.2 2 .6 2.5 1zM355.4 254.2zM355 253.2v.3l.4.4v-.4c0-.2 0-.4-.2-.6l-.2.2zM352 229s-.4 0 .4-2l-1-.4v2c.3 0 .6.4 1 1L351 231l-.6-.7.4-.3c-.4 0-.7 0-1-.2v.5c1 .8 1 2.2 1 2.2v1l.6-1.6s.6-1.8 2.5-2v-.4h-2zM349.7 234.5l.4-.4c-.3 0-.6-.2-1-.4.5 2 .2 2.4.2 2.4 0 .3 0 .6-.2 1h.2l1-2-.5-.5zM355.2 224.8v-.2l-1.3-.5c0 .4.2.7.3 1 .3 0 .6 0 1-.2zM351.3 234z"/><path fill="#006300" d="M351.2 245l.7 3 .7-.3c0-.4 0-.7.2-1.2 0 0 0-1 .5-.2 0-.2 0-.5-.2-.7l-.4-.3-1.6-1c-.4-.3-.7-.8-.7-1.4v-.7c-.2-.6-.6-1-.8-1.3-.5.2-.8.4-1.2.4 0 .6 0 1 .2 1.7.6.5 1.8 1.3 2.2 2zM351.8 236.2c.3-.5.4-1 .5-1.7v-.5h-1l-1 1c-.4.6-.8 1.2-1 2 0 .2.3.4.6.7.4-1.5 1.2-2.7 1.2-2.7l.6 1.2z"/><path fill="#006300" d="M352.4 234v.5c-.2.6-.3 1.2-.6 1.7.8 1.7 1 2.6 1 3h.3c.5 0 1 .2 1.3.5.2-.7.7-1.4 1.2-2l.7-2-.3-.4-1-1s-.4-.2 1.7-1.6c0 0 .3-.2 1-.3l-1-1.3-1 .8s.3-.5.4-1.3l-.4-.5-.3 1.5c-.2.8-1.2 2.3-3 2.5zM355 253.3v.2-.3zM355.4 254.2l-1.6 1v.2l.8.8.8-.3V254z"/><path fill="#006300" d="M355.4 254c0-.2-.2-.3-.3-.5v-.2l-2.3 1.7 1 .3 1.6-1.2zM353.5 244.5s.4.3 2 .2v-.7l-.4-.2-1.4.3c-.3.4-.7.6-1.2.6-.4 0-.7 0-1-.3l1.5 1c0-.3 0-.6.5-.8zM355 253.2l.2-.2-.4-.6-.3.3-.6-.3s0-.3-.7-1.2c0 0-.4-.4-.7-1.7l-.3-.3-.2.2v.8c0 .4-.2.8-.6 1 .4.5.5.8 0 .7l-.8-.3.5 1c.8 0 1.4.8 1.4 1.6 0 .2 0 .4-.2.6h.5l2.2-1.7zM353 224.8h-.2c0 .6-.8 1.3-1.7 1.3l.3.6 1 .3v-.2s.7-1.3 2-1.8c0-.3-.2-.6-.4-1-.2 0-.3 0-.4-.2-.6.5-.7 1-.7 1z"/><circle fill="#F00" cx="351.1" cy="224.3" r=".3"/><path fill="#006300" d="M349.6 224.6c.8.4 1.2 1 1.5 1.5 1 0 1.7-.6 1.8-1.3 0-1-.3 0-1-2h-.7c-.8 0-1.6.7-1.6 1.6v.2h.2zm1.5-.5c.3 0 .4.2.4.3s0 .3-.3.3v-.3s0-.2 0-.2z"/><path fill="#F00" d="M353 240.8s-.2 0-.2.2 0 .2.3.2.4-.2.4-.2l-.3-.2z"/><path fill="#006300" d="M352.7 239.4c0 .7-.3 1.3-.5 1.8h.2c.4 0 .7 0 1 .3v-.3l1 .6c0-.7-.2-1.2-.2-1.2v-1c-.2-.2-.7-.4-1-.4h-.4v.2zm.4 1.8l-.2-.2.3-.2.4.2-.3.2z"/><circle fill="#F00" cx="352.4" cy="242.9" r=".3"/><path fill="#006300" d="M353.6 244l-1.3.4 1-3-1-.2-1 2.3-.5-1.2v.6c0 .5.2 1 .6 1.4l1 .2c.5 0 1-.2 1.2-.5zm-1.2-.8c-.2 0-.3 0-.3-.3s.2-.4.4-.4.3.2.3.3 0 .2-.3.2z"/><path fill="#006300" d="M353.5 241.2v.3l-1.2 3 1.3-.4 1.5-.2-.8-.3c.4-.4.4-1 .3-1.7l-1-.6z"/><path fill="#F00" d="M350.4 249.6c-.2 0-.3 0-.3.2 0 .3.6.3.6 0 0 0 0-.2-.2-.2z"/><path fill="#006300" d="M350.3 250.4c.8.5 1 .7 1 .8.5-.2.7-.6.8-1 0 0-.4-1.2-2.5-2-.3.2-.5.4-.6.7 1 .5.8 1 1.3 1.4zm-.2-.6l.4-.2s.2 0 .2.2c0 .3-.5.3-.5 0zM352 249.4v0z"/><path fill="#F00" d="M349.2 253v.2l.3-.3v-.2c-.2 0-.3 0-.3.3z"/><path fill="#006300" d="M349.2 253.2c0-.3 0-.4.2-.4l1.2-.3h.5l-.4-.8c-1 0-1.7.3-1.7.3h-1c-.2.3-.4.6-.4 1 0 .8.5 1.5 1.3 1.7-.2 0-.2-.2-.2-.4 0-.4.2-.8.4-1z"/><path fill="#F00" d="M350.6 254l-.2.3c0 .2.4.2.4 0 0 0 0-.2-.2-.2z"/><path fill="#006300" d="M350.3 256zM352.3 255v-.7c0-.8-.5-1.5-1.2-1.7h-.4c-.4 0-.8 0-1 .3-.2 0-.3 0-.4.2-.2.3-.4.7-.4 1v.5c0 .3.2.5.4.6.5-.2 1.5-.6 3-.4zm-2-.7l.3-.2.2.3c0 .2-.4.2-.4 0zM366.2 263.5z"/><path fill="#F00" d="M365.3 260.5c-.3 0-.5.2-.5.4 0-.2.3-.4.5-.5z"/><path fill="#006300" d="M364.4 260.7c0 .2.2.3.3.5v-.3c0-.3.3-.5.5-.5l1-.2h.3v-.5c-.4-.3-.8-.5-1.3-.5-.6 0-1 .4-1.3 1l.4.4z"/><path fill="#F00" d="M366 261.4c-.2 0-.4.2-.4.5s.2.3.5.3h.2l.2-.6c0-.2-.2-.3-.3-.3z"/><path fill="#006300" d="M365.3 260.5c-.2 0-.4.3-.5.4v.2c.2.6.4 1.3.4 1.8h.2c-.3-1.5-.2-2-.2-2l.3 2 .6.4h.2v-1c-.4 0-.6-.3-.6-.5s.2-.6.5-.6c.2 0 .4 0 .4.3 0-.4.2-.8 0-1.3h-1zM365.2 261l.2 2-.2-2zM355.5 253.6v.5c-.2.6-.2 1.2 0 1.7.3 1.2.3 1.6 1.6 2.5 0 0 1 .4 1.2 1.6h1v-.4s-.3-1 .4-1.7c.4-.4 2.3.6 3.3-3.6 0 0-.7 0-2 .5v-.4s-.4-1-.2-2c0 0 .6-1 .6-1.5 0 0-1.2-.3-3.5 2.7 0 0-.4-.6-2-1.7-.2.3-.4 1-.5 1.6zm5.3 1.8c0-.3 0-.2.2-.3l1.3-.4c-.4 1-1 2.8-2.3 2.6.6-.8.3-.4.8-.8.2-.2.8-.8.6-1l-1 1 .3-.7v-.3zm-1.8-2.8c.3-.3 1.3-1 1.6-1l-.3 1.6c0 .6.7 1.6-.5 3.5l-.5.6-.2.2v.3-2.5c0-1 .6-1.6.5-1.8-.4.6-.5.6-.7 1.4v-.6c-.2-.2 0-.3-.3-.4l.2 2v2.4c-.2-.2-.3-.7-.4-1l-.5-1c-.6-1.3.3-3 1.2-3.8zm-1.4 1.3l-.3 1v1.5c-1-1.6-.3-2-.6-2.4-.2.7-.2.8 0 1.5.2 1 1 1.6 1.5 3.3-1-1.3-1.7-1-2.2-2.5-.5-1.4 0-2.7 0-4 .4.2 1.6 1.3 1.6 1.6zM356.4 262.3c-1.4.6-3-.7-3.6-1.6-.2-.2-.7-1-.8-1.4H352.4c-.6-.2-1-.6-1 .2 0 0 2 4 5 3.7.5 0 .7-.3 1-.5l-.3-.6-.6.3z"/><path fill="#006300" d="M355 259.4c.4 0 .8.3 1.2.5.2 0 0 .2.3.5l.2.6-1 .2-.6-1c-.2-.2 0 0-.2 0l.6.8-1.5-.8c0 .4 0 .4.4.6 1.3.8 1.6.5 2.4.5 0-.6-.2-1-.2-1h.4c-.4-.3-1.5-1-2.5-1h-.7c-.3.2-.5.2-.8.2h2zM355.2 258.7c.5 0 1 .7 1 .7 0-1-1-2.4-1.6-3.2l-.7-.8h-.2l-1-.4h-.5c-1.6-.3-2.6 0-3 .3l-.5.3c0 .2.2.3.2.3h1.2c.5.2.4.4 1 1 .6 1 1.4 1.4 2 1.6 1 .2 2 0 2 0zM352 257c-.7-.3-.7-.5-1-1l-1.2-.7h-.2c.2-.2.7-.3 1-.3 1.4-.2 3.3.2 4 1.6l.8 1.5-1.5-1.5c-.7-.6-2-1-2.3-.7l.7.2c.3 0 .5 0 .7.2-.3 0-1 0-1 .4h1c.6-.2.5-.3 1.5.8l.5.6c-1.2 0-2.2 0-3-1zM352 250.2v-.8-1.5l-.8-3c-.4-.7-1.6-1.5-2.2-2-.4 0-.6-.3-.6-.3-.6-.4-.5.5-.5.5-1.4-2.4-5-2.5-5-2.5-.2 0-.4-.3-.4-.3-.5 0 .2 1.2.2 1.2 1 2.8 2 3 2 3-1.2.8-3-.7-2.6.4 1.8 2 3 2.2 3 2.2 2.4.6 3.4 0 3.4 0 .4.8.7 1 1 1 2 .8 2.5 2 2.5 2zm-7.8-6.7L343 241l3.2 1c.7.2 1.6 2 1.7 2.4l-1-.5-2.2-1.8c-.2 0-.3-.3-.4 0l.8.7h.4l-.7.2.5.2h.6l1 .8h-1c-.7.2-.8.6-1.8-.7zm2.4 3.6c-.7 0-2.2-.5-2.8-1-.3-.2-.8-.6-1-1 1.5.2 1 .4 2.5-.2.8-.2 1.8-.3 2.6 0v1h-1.5c-.2 0-.8-.6-1-.6l.6.6-1.6-.2c.4.3.2.2.7.3h3l.3.8-1.7.3zm1.4-4l.8.5c3 2 2.3 3.4 2.7 4.7l.3 1-1.2-2c-.6-1-.5-1-.6-2 0-.2 0-.5-.2-.5v1c-.2-.3-.5-1-.8-1 .3.7 0 .4.5 1 .6 1 .7 1 1 2 .3.2.6.7.7 1l-.8-.5c-.2 0-.5 0-.8-.3-1.4-1-1.6-3.4-1.6-5zM364.5 262.5v.2c.2 0 .4 0 .7.3 0-.5-.2-1.2-.5-1.8 0-.2-.2-.3-.3-.5l-.6-.5c-.6-.5-1.6-1.2-3.2-1.5l3 1.3c.4.3 1.2 1.6 1 2.5z"/><path fill="#006300" d="M362.8 260.2c0-.2-.6-.8-1-.7l.4.4c.2 0 .3 0 .4.3.7.7.7 1 1 2 0 0 .2 0 .3.3v-.2h.2c-.4-.8-1-2-1.4-2.2zM361.3 264.8c-.7 0-1 0-1.2.2h1.7l-.8 1 .3-.3c.5-.4.5-.7 1-.8.7-.3 1.3-.6 2-.6-.4.4-.7.5-1 1-.8 1-2.5 1-3.6.6l-1.6-.5-.4.3s-.3.3 1 .6c0 0 4 1.5 5 0 0 0 0-.8 1.2-1.2l-.5-1c-1.4 0-1.7.5-3 .6z"/><path fill="#006300" d="M364.2 264l-.3-1c-.7-.4-.8-1.4-1.6-2.3-.8-.8-1-.4-1-1-.3-.5-.6-.7-1-1h-.5s-.6 0-.4.3c0 0 1 0 1.3 1.3 0 0-.5-.2-1.7-.2h-1-.2c-.2.2-.6.2-1 .3h-.4l.2 1 .4.7c0 .3 0 .5.2.7.4.7 1 1.4 1.6 2l.3-.3c2.5-1.7 3-.5 5-.4zm-6.2-1.5l-1-2c1.5 0 3.2-.6 4.6.2.5.4.8.8 1.2 1.4.8 1.8.5 1 1 1.7l-1-.3c-.7-.2-.8 0-1.3-.3-.3 0-.8-.4-1-.6 0-.6.2-1.2-.2-1.2v1l-1.4-.8c.4.4 1 .6 1.3 1h-.7c-.6 0-.6 0-.7.2 1 .2.6 0 1.4 0 .4 0 .4.4 1 .7l-1 .4c-.4 0-.7.4-1 .5l-1.4-1.7zM349 252s.5-.4 1.6-.3c.2 0 .5 0 .8.2.5 0 .4-.3 0-.7 0-.2-.3-.4-1-1-.6-.2-.5-.8-1.5-1.4-.2 0-.2-.2-.3-.2 0 0-.5-.5-2.8-.4 0 0-2 0-2 .2 0 0 .5 1 2.5 2.7 0 0 .8.5 1.5.7h1zm-4.2-3c1.7 0 3.2-.6 4.6 1 .4.6.5.7 1 1l-3.6-1.2h-.3l1.3.5c-.6.2-.8 0-.8.4 1-.2 1-.3 1.8 0l1.5.7-3.5-.2c-.3 0-2-2-2-2.2zM357.3 249.7l-.6.3-.6.5c0 .2-.6.7-1 .8l1.5-2.3.4-.7h-.3s0 .2-.3.3v-.4h-.2v1l-1.5 2.2c-.2-1.8 0-2 .8-3.3l-.3-.2-.5.8-.6-1-.5-1.2c-.4-1-.6 0-.6 0l-.3 1.3c-.3 1.5-.2 1.7-.2 1.7.4 1.4.8 1.8.8 1.8l.6 1.2.5.3.3-.3h.2c.3-.3.6-.3 1-.4.7 0 1 .3 1 .3 2.4.3 3-2.3 3-2.3l1-1.6c.2-.6-1 0-1 0-2 .4-2 .6-2 .6v-.5h-.5l-.2 1.2zm-3 2l-.6-2.8c0-.8 0-1-.3-1l.5 3h-.3c-.5-.7-.7-1-.8-2 0-.4 0-1.8.2-2.3l1 2c.4 1 0 1.8 0 3zm6-3l-.3.7c-.6 1-1 2.7-2.8 2.5-.8-.3-.7-.4-1.7-.3l1-.4c.3-.2 1 0 1.8-.7.2-.2.6-.6.5-.8-.5.5-.6.8-1.3 1l.3-.6c-1 1.2-.4.6-1.7 1-.3 0-.5.3-.8.4l.6-.5c.2 0 .4-.2.5-.3l1.2-1c.8-.3 2-1 3-1z"/><path fill="#006300" d="M371 265.3c1-3 .2-5.3.2-5.3-.5 0-1.6 2-1.6 2-1.4-2.7-3.3-3-3.3-3-.4 0 0 .7 0 .7l.2.7v1.3l-.3.5v1.2c1 .5 2 1 2.4 2l-1 .3v-1h-.3v1c-.3-.2-.5-.4-.7-.8l-.3-.5c-.2-.2 0-.2 0-.4h-.2l.3 1 .7.8-1 .3-.6-1.4-.3-1.6 1.2.5-.7-.4h-.3l-.7-.3v.7c0-.2 0-.5-.3-1h-.3v.2c0 .2 0 .4.2.5h-.3c0 .3 0 .7.2 1H364.3v.2c0 .3.3.7.5 1l.8 1.4 3.8-1c.8 0 1.4-.3 1.4-.3h.2zm-2 0l-.6-1c-.2-.3 0-1.3-.3-2.6 0-.3 0-1-.3-1 0 .6.4 1.4.4 2-.3-.3-.4-.7-.7-.8.3.5.3.6.8 1v1c-.2 0-.6-.4-1-.6-.2 0-.5 0-.4-1.2 0-.6.3-1 .3-1.5 0-.7 0-1-.3-1.6 1.2 1 1.7 1.2 2.4 2.5 1.2 2.3.3 2.8 0 3.7zm.7 0c.2-1 .3-1.6.6-2.3 0-.4.2-.5 0-.7v.4c-.2 0-.2.3-.3.4-.2-1-.5-.8 0-1.4l1-1.2v3c0 .4-.2.8-.4 1-.3.7-.2.7-1 .8zM358.6 247.2h-.2.2zM360.2 248c0-.2-.2-.3-.3-.5 0 .2 0 .3.2.4zM358 245.7z"/><path fill="#006300" d="M357 244.7h-1-.5c-1.6 0-2-.2-2-.2-.4.2-.6.5-.6.7 0 .2.2.3.3.4 1 .6 1.2 1.4 1.2 1.4 0 .3.3.6.7.8h.4c.6-.4 1.8-1.3 2.3-1.5l-.5 2 .6.2h.2c2.7-.3 2.4-.8 2.4-.8-1.5-1.4-1-1.3-1.8-2l-1.5-1h-.2zm-.3 1.8l-.2.2-1 .7h-.2v-.2c-.2 0-.3-.3-.4-.5l-.2-.2-.4-.6-.2-.4.5.2.7.3.5.2c.2 0 .5 0 .7.3zm3.5 1.4h-.7l-1.5.2v-1h.5l-.3-.4v-.7c.2 0 .3 0 .4.2l1.6 1.7zm-2.2-2.3l-.6.4-.4.3h-.2l-1-.3c-.5 0-1.7-.6-2-1h.5l.6.2h2.3c.3 0 .7.3.8.5zM354.2 245.6z"/><path fill="#006300" d="M353.8 245c0 .2 0 .2.3.3 0 0-.2 0-.2-.2zM356.7 248.3h.2c0-.3.2-.6 0-.6-.3.2-.2.2-.3.6zM358.3 246zM356.2 248s0 .2.2.2c0-.2 0-.2-.2-.2zM356.7 246.5zM358 247v.4-.3M351.2 240.2l.3-.7c0-.2.3-.5 0-.5l-.3.6V238c-.2 0-.2 0-.2.3v2l.2.2v-.4z"/><path fill="#006300" d="M352.2 241.2c.2-.5.4-1 .5-1.8v-.2c0-.4 0-1.3-1-3 0-.4-.2-.8-.5-1.2 0 0-.8 1.2-1.3 2.7 0 0 0 .3.2.5 0-.4.2-.7.3-1l.7-1.4 1 3c.3 1-.2 2-.6 2.6l-.3.7v.2-1.4h-.3v1.4c0-.3-.2-.5-.4-.8 0-.2-.2-.3-.3-.5h-.4c0 .4.5.7.8 1.3l.4 1.2 1-2.3z"/><path fill="#006300" d="M350.3 241c-.2-.4-.3-.7-.3-1.2h-.8v.2h-.5l-2.8-.7h-.3c.4.3.3.3.8.4l.8.2-.5.2c1 0 1.2-.2 2.2 0h.2c-.3.5-.4.7-1 .7-1.4 0-3-1.2-3.4-2.2 1 .5 1.5 0 2.5 0 .4 0 1 .3 1.3.6 0-.6-.5-.8-.5-.8h.2c-.2-.2-1.2-.5-4.3.3 0 0 2 2.6 4.5 2.5h.3c.4 0 .7-.3 1-.5h.5zM351 240.4v.4h.2v-.2l-.2-.2zM349 237c0-.4 0-.7.2-1 0 0 .3-.3 0-2.4-.6-.5-1-1.2-1.2-1.7l-.8-1.4s-.4-.4-.7 1c0 0 0-.3-.7-1.2 0 0-1.2-.7-1.7-2 0 0 0-1-.4-.5 0 0-2 4.3 1 6.3 0 0-1 0-1.7-.7 0 0-.3-.3-.5-.2 0 0-.6 1 1.4 3.5 0 0 1.2 1.4 2.7 1.2 0 0 .7-.3 1.7 0l.6-1.3zm-4.6-3.3c-1.3-1-1.4-3.7-.7-5l.7 1.2c.5.2.8.4 1.2.8 1 1.2.3 2.5.3 3.3-.3-.2-.5-.6-.7-1-.4-.5 0-1-.2-1.3-.2.5 0 .2 0 .8l-.6-1v-.8c-.2-.2 0 0-.3 0l.3 1c0 .6 1 1.8 1.5 2.8l-.3-.3-.4-.2-.6-.3zm1.3 3.8c-.6 0-1-.5-1.3-.8-.7-.6-1.4-1.5-1.6-2.8l1.3.4c.6.2 1.4-.3 2 .8.6.6.3 0 .6.5 0 .2.2.3.4.5s.2 0 .3.5c-.8-.5-.7-.5-1.5-.6v-.2c0-.2 0-.2-.3-.2v.5l-.7-.3c-.5-.2-.6-.5-.8-.4l1.8 1c.6 0 .7 0 1 .4l1 .7h-2zm1.7-1.6c-.8-.8-1-2.2-.7-3.3l.3-1.6c.6.8 1.3 1.4 1.7 2.3.5 1 .3 1.6.2 2.6-.2.3-.2.5-.2.8l-.6-1.5c-.2-.5-.2-.3 0-.7 0-.3.2-.6 0-.8-.3.5 0 .2-.2.6l-.4-1c0-.3 0-.6-.3-.7l1.2 4-1-.8zM354.3 239.7v1l.2 1c0 .7 0 1.4-.3 1.8l1 .3.4.2 1.4.7h.3c.8.2 4 .4 4.8-3.3 0 0-.5 1-2.5.3 0 0 1.3-2 1.2-3.2 0 0-.5 0-3 .7 0 0 .2-1-.7-2.7 0 0-.8.5-1.5 1.3-.5.5-1 1.2-1.2 2zm7.2 2.4l-2.4 2.4c-.5.2-1.2.2-1.8 0l-.7-.5-.8-.5h3.2c.5-.2.7-.2.8-.4l-2 .2c.2 0 .4 0 .5-.2.6-.4.7-.7 1-1 1.7.5 1 .4 2.2 0zm-1-3c-.7 1.3-1.5 3.7-3.2 4l-2 .2 1.6-1.4.8-.6c.4-.3 1-.5.8-.7l-1.2.7.3-.8c-.3.3-.3.2-.5.6-.2.5 0 .4-.5.6-.4.3-1 .7-1.2 1 .6-1.2.6-2 1.7-2.6.8-.6 2-1 3.2-1zm-4.6-1l1-1 .5 2.3c-.6.4-1 .5-1.4 1v.3l.2-.8c0-.3.4-.5.4-.7-.2 0-.2 0-.4.3l-.2.4c-.5.8-.3 2-1 2.7 0-1.3-.8-2 0-3.2.2-.4.6-1 1-1.2z"/><path fill="#006300" d="M349 233.6l1 .5h.2l-.5-.4c-.6-.3-1-.4-1.3-1.3-.2-.8-.3-2.5 0-3l1.7 1.7c.6.6.6 1.7.4 2.6-.4-.6-.5-.5-.7-1-.3-.2 0-.8 0-1.2-.4.6 0 .2-.3.8l-.3-1s0-.6-.2-.6l.5 2c0 .2.7.7 1 1.3l.5-1v-.8s0-1.4-1-2.2c-.2 0-.4-.2-.5-.3-.3 0-.4-.6-.6-1l-.3-.4s-.4.5-.6 2.7l.2 1 1 1.6z"/><path fill="#006300" d="M351.4 231.6l-.5 1.5.5.6-.2.3h1c1.8-.2 2.8-1.7 3-2.5 0-.6.3-1 .3-1.5.3-1.5 0-1.7 0-1.7-.4 0-1 1.2-1.5 1.2-2 .3-2.6 2-2.6 2zm1.5-1l2.2-1.2c.2.7-.4 2.4-1 3.2-.7 1-1 1-1.8 1h-.8c.4-.4 1.3-.8 1.6-1l1.2-2c-.3 0-.5.5-.6.8l-.6.8c0-.7.2-.2 0-1-.3.4 0 1.2-.5 1.4l-1 .7c0-1 .4-2.2 1.2-2.7zM349.8 229.5l1 .2h.2c-.5-.7-.5-.8-.8-1.8-.2-.6-.7-2.2-1.3-2 .2.4 0 .2.4.6l.4.7-.5-.2.4.5c.3.2.2 0 .3.5 0 .5.3.8.4 1.2-.3 0-1-.5-1.3-.7-.6-.7-1-2-.8-3.2 0-.4.2-1.4.4-1.6l.4.7c.4.7 1.3 1 1.7 1.8.8 1.4 0 2.3.2 3v.3-1h.5v-1l-.2-1-.2-.4c-.2-.5-.6-1-1.4-1.4h-.2c-.3-.6-.4-1.5-.7-1.6 0 0-.6 0-.8 3-.2.7 0 1.6.4 2.3 0 .2.2.3.3.4l1 .8z"/><path fill="#006300" d="M352.4 226.8c-.8 2.3-.4 2.2-.4 2.2l.4-.7c.4-.7.3-1.5 1.2-2.3.6-.6 2-1.2 3-1.4-.3 1-.6 2.2-1.3 3.2-1 1-1.4.8-2.2 1l-.6.2c.2-.3 1.2-1.4 1.6-1.5.4 0 .7 0 .8-.2h-.5c.3-.4 1-1.2 1-1.5-.6.5-.4.5-.8 1l-.8.7c-1.3 1-1.2 1-1.7 1.6.8.3 1.4.3 2 .2 1.3-.4 2-1.6 2.3-2.4 1-3 .4-3.2.4-3.2-.3 0-1 1.2-1.4 1.2-.4 0-.7 0-1 .2-1.3.5-2 1.8-2 1.8zM355 234.3l1 1c0-.2 0-.3.3-.4-.3-.3-.7-.5-1.2-.7l2.6-.2h1.8c.7-.2.5-.2.5-.3h-1l.2-.4-.7.3c-.5.3-2.2.3-2.8.4.2-.3.8-1 1-1 2.2-1.5 2.4.4 4.7 0l-1.6 1.5.4.3c2-1.7 1.8-2.2 1.8-2.2-.2-.2-1.5.4-2 .2-.8-.7-1.8-.6-2.4-.4-.6 0-1 .3-1 .3-2 1.4-1.6 1.6-1.6 1.6z"/><path fill="#006300" d="M358.8 235c-1.3.5-1.8.3-2.5 0-.3 0-.4 0-.4.2s0 .4.2.5c1 1.4 2.8 1.3 3.5 1 2.3-1 2.3-1.6 2.3-1.6-.2 0-1.3.2-1.6 0l-.2-.2-.4-.3-1 .6zm2.6.4c-1 .6-1.3 1-2.5 1-1.3.2-2.2-.2-2.7-1l1.6.2h1.5c-.5-.3-.2-.2-.8-.3l1-.5 1.7.6zM352.8 224.7l.8-1c.4-.3 1-.6 1.7-.8 0 0 1.3 0 2.3-.5 0 0 2.8-2.3 3-4.4 0 0-.5.4-2 .5v-1.7s-1.8.4-4 2.6l-1-3s-2.7 3.6-1.8 6.3c.7 2 1 1 1 2zm7.3-6c-.8 1.7-2 4-4.3 4 1-.6 1-.5 1.7-1.3l.8-.7c.2-.3.6-.6.6-1l-.5.4c0 .3-.2.5-.4.6 0-.3 0-.5.2-.8.2-.6-.2-.7 2-1zm-3 0c-.3.3-.7 1-1 1.2 0-.6 0-.5-.2-.6v.7l-.6.8-.7.7c0-1 0-1.3.2-1.8.7-1.2 2-1.8 3.5-2.3-.3 1-.5 2.4-1 3.4-.8 1-1 1-2 1.3l-1 .4 1.5-1.8c.4-.3.6-.5.8-1 0 0 .6-.7.4-1zm-4.4-.2l.8-1.4.7 3.8c0 .7-.4 1.8-.7 2.5-.2.2-.2.6-.3.8 0-1.2 0-2.6.2-4v-.3c-.3.3-.2.2-.2.5v.6h-.2c0-.4 0-.6-.3-.6l.2.7s0 .2.2.3l-.3 2.4-.7-1.6c-.3-1 .2-2.5.6-3.5zM356.6 231c1-.6 2.4 0 2.4 0 1.8 0 3.3-1.8 3.3-1.8.8-1.3 1.3-1.6 1.3-1.6 0-.5-.5-.4-.5-.4l-1 .3c.8-3 .4-3 .4-3h-.4c-.5 1.4-2.4 1.4-2.4 1.4 0-2-.5-1.8-.5-1.8-.2.5-1 .8-1 .8-1.7 1.8-1.7 2.6-1.7 2.6 0 1 0 2.2-.2 3 0 .7-.2 1.2-.2 1.2l.8-.7zm.5-4.4l2-2v2.7l3.2-2-.8 2.7c-.6 1-1.4 1.4-2.8 2l.6-1c.4-.6.6-.2 1.2-.7 0-.2 0 0-.7 0l1-1.3c-.6 0-1.8 2-2 2.5l-.7.8c.5-.3 1.3 0 2-.4.6-.4 1-1 1.6-1.2 0-.3-.2 0 0-.4 0-.2.2-.4.3-.5 0-.2.7-.5 1-.4-.6.7-1.2 1.7-1.8 2.3-1 1-2 .4-3.4.4.3-.5.3-.8.4-1.2-.4.4-1 .7-1.4 1.2l.4-1c.2-.4 1.2-2.2 1-2.7l-.6 1.4c0-.5 0-.5-.2-.5-.2.7.2.7 0 1.3l-.6 1c-.2-1.4-.3-2.3.3-3.2z"/><path fill="#00873F" d="M355.5 242.6c.2-.3.8-.7 1.2-1 .5-.2.3 0 .5-.6.2-.4.2-.3.5-.6l-.3.8 1.2-.7c0 .2-.4.4-.8.7l-1 .6-1.6 1.4c1.6-.3 1.3 0 2-.2 1.8-.3 2.6-2.7 3.2-4-1.2 0-2.4.4-3.2 1-1 .7-1 1.4-1.7 2.6zM350.4 248.2l.8.4c0-.2-.4-.7-.6-1l-1-2c-.5-.5-.3-.2-.6-1 .3.2.6.8.8 1v-1c.3 0 .2.4.2.7 0 1 0 .8.6 1.8l1.2 2c0-.2-.3-.5-.3-.8-.4-1.3.4-2.8-2.8-4.7l-.7-.5c0 1.6.2 4 1.6 5 .3 0 .6 0 .8.2zM351 229.5v-.3c-.3-.7.5-1.6-.3-3-.4-1-1.3-1-1.7-1.8l-.4-.8c-.2.3-.4 1.3-.4 1.7 0 1 .2 2.5 1 3.2l1.2.7c0-.4-.3-.7-.4-1.2 0-.4 0-.3-.3-.5l-.4-.4.5.3c0-.3-.3-.5-.4-.7l-.5-.7c.5-.2 1 1.4 1.2 2 .3 1 .3 1 .8 1.6zM355.7 220.6l-1.5 1.8c.4 0 .6-.2 1-.3 1 0 1.2-.2 2-1.2.5-1 .7-2.3 1-3.4-1.4.5-2.8 1-3.5 2.3-.3.5-.2 1-.2 1.8l.7-.7.7-.7-.2-.6c.2 0 0 0 .3.5l1-1.4c0 .3-.4 1-.5 1-.2.5-.4.7-.8 1zM345.5 234.2l.3.3c-.4-1-1.4-2.2-1.5-2.7l-.2-1.2h.3v1l.6 1c0-.7-.2-.4 0-1 .3.4 0 1 .3 1.5l.6 1c0-.7.5-2-.4-3.2l-1.2-1-.7-1.2c-.7 1.4-.6 4 .7 5l.7.4c.3 0 .4.2.5.2zM352 229c.5-.4.4-.6 1.7-1.5l.8-.8.8-1c0 .4-.7 1.2-1 1.6h.5c0 .3-.4 0-.8.2-.4 0-1.4 1.2-1.6 1.5.2 0 .4 0 .7-.2 1-.2 1.4 0 2.3-1 .7-1 1-2 1.3-3.2-1 .2-2.4.8-3 1.4-1 .8-.8 1.6-1.2 2.3 0 .3-.3.5-.4.8zM347 236.7c-.5-.3-.6-.3-1.2-.4l-1.8-1 .8.4.8.4v-.4l.2.2v.3c.8.2.7.2 1.5.7 0-.4 0-.3-.3-.5l-.4-.5-.5-.5c-.6-1-1.4-.6-2-.8l-1.2-.5c.2 1.2 1 2 1.6 2.7.3.3.7.7 1.3.8h2c0-.3-.5-.7-.8-.8zM346 244.3h1l-1-.8h-.5l-.6-.3h.6l-.4-.3-.8-1 .4.2 2 1.7 1 .4c0-.5-1-2.2-1.6-2.5l-3.3-1c0 .5 1 2 1.2 2.5 1 1.3 1 1 1.8.8zM347.6 233.5l.4 1c0-.5 0-.2.3-.7v.8c-.3.4-.3.2 0 .7l.5 1.5v-1c.2-1 .4-1.4 0-2.5-.5-1-1.2-1.5-1.8-2.2l-.3 1.7c-.2 1 0 2.5.7 3.2.7.4.3 0 1 .8l-1-4 .2.7zM351 242.2v-1.4-.4-1.5-.7-.4h.2v1.6l.4-.6c.2 0 0 .3 0 .5l-.4.7v2l.4-.8c.4-.7 1-1.6.7-2.5l-1-3.2-.8 1.4-.3 1c.2.4.4 1 .4 1.5h-.6c0 .6 0 1 .3 1.2l.3.4.4.8zM352.6 223.6l.3-2.3c-.2 0-.3-.3-.3-.4l-.2-.8c.3 0 .2.2.3.5l.2-.5v-.5c.3 0 .2 0 .2.2l-.2 4s0-.5.3-.7c.3-.7.8-1.8.8-2.5l-.6-3.8-.8 1.5c-.4 1-1 2.5-.6 3.6l.6 1.6z"/><path fill="#00873F" d="M347 246h-2c-.4-.2-.2 0-.6-.4l1.7.2-.5-.6c.2 0 .8.5 1 .6h1.5v-1c-1-.3-2-.2-2.7 0-1.6.6-1 .4-2.5.3.2.4.7.8 1 1 .6.5 2 1 2.8 1l1.7-.2-.3-.8h-1zM350.3 251.4c-.4-.3-1-.5-1.5-.7-.7-.3-.7-.2-1.8 0 0-.3.2-.2.8-.4l-1.3-.4v-.3h.3l3.6 1.4c-.5-.3-.6-.4-1-1-1.4-1.6-2.8-1-4.6-1 0 .3 1.7 2 2 2.2l3.5.2zM357.3 228.8c.3-.6 0-.6 0-1.3.2 0 .2 0 .3.6l.6-1.3c.2.5-.8 2.3-1 2.8l-.4 1 1.4-1.3c0-.8.2-1.5.6-2l.2-2.6-2 2c-.5 1-.4 1.8-.2 3l.5-.8zM356.3 250.7l-.5.4-.6.6c.3 0 .5-.3 1-.5 1.2-.2.7.4 1.6-.8l-.3.6c.6-.2.8-.5 1.3-1 0 .2-.3.6-.5.8-.7.7-1.5.5-2 .7l-.8.4c1 0 1 0 1.7.2 1.8 0 2.2-1.6 2.8-2.6l.4-.7c-1 0-2 .7-3 1l-1 1zM355 242.4c.7-.6.5-2 1-2.7 0-.2 0-.3.2-.4l.4-.2c0 .3-.3.5-.4.8l-.3.8v-.2c.5-.6 1-.7 1.5-1l-.6-2.3-1 1c-.4.3-.8.8-1 1.2-.8 1.3 0 2 0 3.2z"/><path fill="#00873F" d="M354.8 251.4l1.4-2.3v-1l.2.2v.4c.2 0 .2-.2.3-.3 0-.4 0-.4.4-.6.2 0 0 .3 0 .6l-.5.7c-.6 1-1 1.4-1.4 2.3.4 0 1-.6 1-.8l.7-.5.6-.3.2-1.3.4-2c-.6 0-1.8 1-2.4 1.5-1 1.3-1 1.6-1 3.4zM358.3 243s-.3 0-.4.2h1.8l-1 .2h-3c0 .3.4.3.7.5l.7.3c.6.3 1.3.3 2 0l2.3-2.2c-1.2.4-.5.5-2.3 0-.2.3-.3.6-1 1zM348.6 239.4c-.4-.3-1-.5-1.3-.5-1-.2-1.4.3-2.5-.2.5 1 2 2.3 3.4 2 .6 0 .7 0 1-.5-1.2-.3-1.3-.2-2.4 0l.5-.4c-.3 0-.6-.2-.8-.3-.5 0-.4 0-.8-.3h.3l2.8.5c0-.3 0-.5-.2-.6zM349.3 240h-.4.3zM354.3 248.7l-1-2c-.3.5-.4 2-.4 2.4 0 1 .2 1.3.7 2h.2l-.6-3c.2 0 .2.2.3 1l.5 2.6c0-1 .4-1.8 0-3zM358.3 220l.5-.2c0 .3-.4.6-.6 1l-.8.6c-.7.8-.6.7-1.7 1.2 2.2 0 3.5-2.2 4.4-3.8-2 .3-1.6.4-1.8 1 0 .3-.2.5-.3.8l.3-.5zM358.2 229.2c0 .4 0 .7-.3 1l.6-.7c.3-.4 1.5-2.4 2-2.5l-1 1.4c.7-.2.7-.3.8 0-.6.4-.8 0-1.2.6l-.6 1c1.4-.6 2.2-1 2.8-2l.8-2.8-3.3 2h-.2c-.4.5-.5 1.2-.6 2zM349.3 232.5l-.5-2c.3 0 .3.6.3.8l.4 1 .3-1c0 .5-.3 1 0 1.4l.7 1c.2-1 .2-2-.3-2.7l-1.5-1.7c-.4.5-.3 2 0 3s.6 1 1.2 1.3c.2 0 .3.2.5.3-.2-.7-.8-1.2-1-1.5zM352.7 232.6c.4-.2.2-1 .5-1.3.2.7 0 .2 0 1l.6-1c0-.2.3-.7.6-.6l-1.2 1.8c-.3.3-1.2.7-1.6 1.2h.8c.7-.2 1-.2 1.8-1 .6-1 1.2-2.6 1-3.3l-2.3 1.2c-1 .5-1.3 1.7-1.3 2.7l1-.7zM358.8 235c.4 0 .7-.3 1-.5.6-.4 1-1 1.6-1.6-2.3.4-2.5-1.5-4.7 0-.2 0-.8.7-1 1 .6 0 2.3 0 2.8-.4l.7-.3c0 .2 0 0-.3.4h1l-.6.2h-1.8l-2.5.3 1.3.6c.7.3 1.2.5 2.5 0z"/><path fill="#00873F" d="M359.6 234.8l-1 .5c.7 0 .4 0 1 .2-.3.2-1.3 0-1.7 0h-1.7c.5.7 1.4 1 2.6 1 1-.2 1.4-.5 2.4-1l-1.8-.7zM358 245.6l-.8-.3c-.6-.3-1.3-.2-1.8 0h-.5l-1.2-.2c0 .2 0 .2.3.3.6.3 1.4.6 2 .7l.8.2.6-.2.6-.3zM356 245h.2zM356.4 245h0zM353.8 245h.5M358 245.7z"/><path d="M356.4 245h-1c-.2.2-.3.2-.5.2h-1.2l2 .8c.6 0 1 .2 1 .3h.2l.4-.2s.3 0 .5-.3c0-.2-.5-.4-.8-.5h-.6-.2zm1.6.7c-.3 0-.5.3-.6.3-.4.3-.4.3-.6.2l-1-.2c-.4 0-1.2-.4-1.7-.7 0 0-.2 0-.2-.2l1 .2h.6c.5 0 1.2-.2 1.8 0l.7.4z"/><path fill="#00873F" d="M360.2 248h-.7M358.4 247.2h-.2V248h2c0-.2-.2-.3-.3-.5l-1.7-1.6v.8l.3.4h-.2zM358.6 246.2l-.3-.3s.2 0 .3.2zM358.2 247z"/><path d="M358.5 247.2zM358.3 246c0 .4-.2.6 0 .8l.2.4-.3-.4v-.7l1.7 1.5c0 .2 0 .3.2.4h-2V247.2v.2h.2-.2l-.2 1 1.5-.2h.7l-1.6-1.8-.3-.3z"/><path fill="#00873F" d="M355.3 247.3zM354.2 245.6l.5.2-.5-.2zM354.4 246s.2 0 .4.5v.2l.7.7 1.2-1c-.2 0-.5 0-.8-.2h-.6l-1.2-.6c0 .2.2.3.2.3zM356.7 246.5l-.2.2"/><path d="M356 246.2h-.6l-.7-.4-.5-.2c0 .2 0 .3.2.3l.4.5v.2l.5.5s0 .2.2.2l1-.7.2-.2c-.2-.2-.5-.3-.8-.3zm-1.8-.6l1.2.5c0 .2.3.2.5.2s.5 0 .7.2l-1.2 1c-.3-.2-.4-.4-.5-.7l-.2-.2-.4-.6s0-.2-.2-.3z"/><path fill="#00873F" d="M357.8 230.4c1.4 0 2.3.5 3.4-.5l1.8-2.4-1 .3c-.2 0-.3.2-.4.4-.2.3 0 0 0 .4-.6.3-1 .8-1.6 1-.7.4-1.5.2-2 .5h-.2z"/><path fill="#006300" d="M348.6 239.4s0 .3.2.5h.4l.8-.2h.6c0-.7-.2-1.2-.4-1.6 0-.2-.2-.4-.3-.5l-.8-.7h-.2l-.6 1-.2.5s.3.3.4 1zM350.3 235l1-1 .2-.4-.6-.5h-.2l-.6 1-.5.5M351 230.8l1.4-1c-.5-.8-.7-1-1-1.2h-.3v1h-.2l-.4.5c0 .2.2.3.5.8zM377.5 271c-1 0-1.8.2-2.7.3l1.6.7.8-.2.3-.8zM379.4 276.6s-.7 0-1.3-.6l-2.6 1.2c-1.2.4-.7 1.4-.2 1.6.6.2 1.8-.3 2.2-.5 1.8-1 3.5-1.7 5-2.7-.6.3-1.7.8-3 1zm-3.4 2c-.8.2-1-.2-1-.6 0-.2 0-.4.3-.5.7-.2 1.2.3 1 .7 0 0 0 .3-.3.4zM391.5 271.5l1 .4 2-.8-3.3-.4.3.7zM387.8 276l3.8 2.3c.5.2 1.5.8 2 .4.2 0 .6-.5.5-1 0-.3-.3-.4-.6-.5-.4 0-1.7-.7-2.7-1.2-.3.3-.8.5-1.4.5 0 0-.7 0-1.5-.4zm4.6 1.6h.6c.3-.2 0-.2.3 0 .3 0 .5.2.4.5v.4c-.4.3-.7.3-1 0-.4 0-.5-.2-.4-.5v-.4zM380.5 270.7l2 .5c.2-.2.4-.3.8-.3.5-.2 1.6-.3 2-.2.4 0 .6.3.7.6.2 0 .6 0 1.5-.5l.8-.3h-7.8z"/><path fill="#006300" d="M375.3 277.5c-.2 0-.3.3-.3.5 0-.2 0-.3.3-.3.6-.2 1 0 1 .5.2-.4-.3-1-1-.7zM393 277.6h.3c.2.2.4.3.4.5 0-.2 0-.3-.4-.4-.3-.2 0-.2-.3 0h-.6v0h.6z"/><path fill="#FF0" d="M375.3 277.7c-.2 0-.3 0-.3.3 0 .4.2.8 1 .6.2 0 .3-.3.3-.4 0-.4-.4-.7-1-.5zM392.6 278.5c.4.2.7.2 1 0v-.4s0-.2-.3-.3c-.3-.2 0-.2-.3 0h-.6v.2c-.2.2 0 .4.2.5z"/><path d="M421.7 258.7l-.7.8-1.5 2-.2.2-.5.7v.3l-.5.8c-.8-.4-1.4-.5-2-.4-.5.2-1 .4-1.3.7l-.7.7-.7.7c-1 1.4-1.8 3-2.8 4.3-2.3-1.2-3.6-1.8-6-2.6h-.5l-1.8-.6-5.2-1h-.6c-.8 0-1.8-.3-2.6-.4-6.5-.7-13.7-.7-20.2.3l-2.8.3h-.3l-1.3.4-4 1c-1.7.5-3.3 1-5 1.8l-1.3.8-2.8-4.4c-.5-.7-1.2-1.4-2-1.8-1.3-.6-1.8-.4-2.6.3l-.6-1c-1.2-2.2-2.4-3-3.7-4.8l-1.2-1.4s0-.3-.3-.4l.7 2.4.5 2.6c-.8-.4-1.5-.8-2.2-1-.6-.4-2-.7-2.7-.6l1 .8c1.4 1.3 2.4 3 3 5 .6 2 2 4.2 3.6 5.7l1.8 1.3c1.8.6 1.7 0 2.4-.4 1 1.7 1.6 2.6 3 4.2l.7 1c1.7 1.7 4.4 2.2 6.8 1.6l2.5-1c3-1.8 1.6-3.2 1.3-4.6 1-.4 5-1.6 6.5-1.8h.3l2.7-.4c0-.2.2-.3.3-.4-2.2.3-4.6.7-6.5 1.2-3.7 1-5.3 1.6-8.5 3-.7.4-1.4.8-1.7 1.4 0 .2 0 .4-.2.6l-1.3-1.4-1-1.7c-.3-.6-1.3-2-.7-2.8.2-.4.5-.6.7-.8 1.8-1.4 4.6-2.5 7.4-3.3 11.2-3.4 26.7-3.2 38 0 2.7.6 5.8 2 7.4 3.3.5.4 1 .7.8 1.7-.2.6-.6 1.2-1 1.7-.5 1-1.2 2.4-2.2 3-.8-1.2-.6-1.2-2-1.8-3-1.5-5-2.3-8.4-3.2-2-.5-4.4-1-6.6-1.2h-.7l-.8-.2c.2 0 .4 0 .6.3h.2l3.2.5h.3c.5 0 6.5 1.7 7 2l-.3 1.4v1.2c0 1 1 1.5 1.6 2 1 .5 1.5.7 2.6 1 1 .2 2.2.3 3.2 0 2.3-.2 3.4-1.5 4.4-2.7.3-.2.5-.5.8-1l.8-1 1.3-2 1 .4h1.4c.8-.4 1.3-1 1.8-1.5 1.7-1.7 3-3.8 3.7-6 .7-2.6 1.8-4 3.7-5.6h-1.3l-1.4.5c-.4 0-.7.2-1 .4l-1 .6.5-2.6c0-.7.5-1.8.6-2.5l-.7.8c-.3.4-.6.8-1 1l-.6 1zM352.2 272c-.6 0-.6 0-1.2-.4l-2-2c-.7-.8-1.4-1.8-1.8-2.6-1.2-2.2-1.2-3.8-2.6-5.7l-1.3-1.4 2.3.7c.6.2 1.6 1 2 1.2 0-.5-.5-1.8-.6-2.3 0-.6-.3-1.5-.4-2.2l3 3.4c.4.5.8 1 1.2 2 0 .2.5.7.4 1l-.7.8c-1 1.2-2.2 3-.8 4.3.5.6 1.2 1 2 1.4.5.3 1.5 1 1.4 1.4 0 .3-.4.4-.8.3zm.4-1.6c-.4-.2-2.3-1.2-2.6-1.6 0 0-.6-.5-.6-1 0-.6.5-.7.5-.7 1.6 0 3.7 4.4 3.6 4.6-.2 0-.2-.5-1-1.2zm9.6 5.2c1-.5 4.7-2.2 5.5-2.3l.5 1.4c-.8 0-1.4.4-1.8.7-1.3 1-3.5 3.4-5 1.8-.5-.6.6-1.4.8-1.6zm-5-4.5c-.2 1 .4 1.8.7 2.4.7 1.3 1.2 2.5 2.4 3.5 1.4 1.2 2.2 1.6 4.2.3 1-.7 2.8-2.5 3.7-2.2 0 0 0 1-.4 1.4-.4.5-1.5 1-1.5 1-1 .7-2 1-3.2 1.2-1.4.2-2.6 0-3.7-.5-1-.4-1.6-1-2.3-1.8-3.2-3.4-3.2-5.2-5-7.8-1-1-1.4-1.4-2.6-1.7l.8-1.4c.3-.4 1-1 1-1.3l.8-.6c.8-.5 2 .2 2.5.7 1 .8 1.3 1.6 2 2.7l1 1.4 1 1.6-1.5 1.5zm45 2.4c.8 0 4.6 1.8 5.5 2.3.2.2 1.3 1 .8 1.6-1.5 1.5-3.7-.8-5-1.8-.4-.4-1-.8-1.8-.8l.5-1.3zm10.4 3c-.7.7-1.2 1.3-2.3 1.8-1 .5-2.3.6-3.7.4-1.3 0-2.2-.5-3.2-1l-1.4-1c-.3-.5-.4-1.4-.4-1.4 1-.3 2.6 1.5 3.7 2.2 2 1.3 2.8 1 4.2-.4 1.2-1 1.7-2.2 2.5-3.6.3-.5 1-1.3.6-2.2l-1.4-1.6c0-.3.6-1 1-1.4l.8-1.4c.8-1.2 1.2-2 2-2.7.7-.3 1.8-1 2.6-.5l.7.6 1 1.3c.4.4.7 1 1 1.5-1.3.2-1.8.6-2.6 1.7-2 2.5-2 4.3-5 7.8zm3.7-4.7c0-.2 2-4.5 3.7-4.5 0 0 .4 0 .5.6 0 .6-.6 1-.6 1-.4.4-2.3 1.4-2.7 1.7-.8.6-.8 1-1 1.2zm7-14l-.4 2-.6 2.2c.3-.2 1.3-1 2-1.2l2.2-.8-1.3 1.4c-1.5 2-1.5 3.4-2.6 5.7-.4 1-1 2-1.7 2.6l-2 2c-.7.5-.7.5-1.3.6-.4 0-1 0-1-.3 0-.5 1-1.2 1.6-1.5l2-1.3c1.3-1.4.2-3-1-4.4l-.6-.8c0-.2.2-.8.4-1l1.3-2 3-3.4z"/><path d="M381 270.3h-1.5l1 .4h7.8c.5-.2 1.2-.3 1.7-.3h-1.3c-3-.3-4.7-.3-7.6 0z"/><path fill="#CE1126" d="M369.6 268h-.7v.2h-.2v.2l.2.5v.4h.2l.4-.2v-.2c.2 0 .2 0 .2-.4 0 0 0-.4-.2-.5zM374.4 268h.2v-.2-.4-.3h-.2-.3v1.1h.3zM386 268.5h.8v-.2c.2-.2.2-.4.2-.5v-.8-.4-.2l-.2-.2v-.2h-.4-.2v2.4zM382.5 267.8h.4l-.2-.3v-.4l-.3-.5v.5l-.2.5v.3h.2zM365 269.7h-.2v-.2h-.6v1l.2.3h.2l.3-.2v-.7-.3zM374.6 269.5s.2 0 .3-.2v-.6l-.2-.2v-.2h-.5-.3v.7l.2.3c0 .2 0 .3.4.2zM400.8 269v.2h-.2v.4l-.2.3h.6v-1.4l-.2.3zM405 271.5h.3v-1.3.2h-.2v.4l-.3.5.3.2zM388.7 268.5v.2h.2v0h.2v-.2h.2v-.3c0-.2 0 0 0 0v-.5c.2 0 0-.3 0-.4v-.5-.3-.2-.3l-.2-.2h-.5v.4h-.2v1.9z"/><path fill="#CE1126" d="M378.6 270.3h2.5c3-.2 4.7-.2 7.7 0h1.8l.8.2h.7l6.6 1.3c3.3 1 5.5 1.7 8.5 3 1.4.7 1.2.7 2 2 1-.7 1.7-2 2.3-3l1-1.8c.2-1-.4-1.3-1-1.7-1.5-1.4-4.6-2.7-7.2-3.4-11.3-3.2-26.8-3.4-38 0-3 .7-5.7 1.8-7.5 3.2l-.7.7c-.6.6.4 2 .8 2.7l1 1.7c.4.6.7 1 1.2 1.4l.3-.6c.4-.6 1-1 1.8-1.3 3.2-1.6 4.8-2.2 8.5-3.2 2-.5 4.3-1 6.4-1.2.2 0 .4-.3 1-.3zm20.8.2h-.2c-.2 0-.3.2-.5 0h-.4v-.2l-.2-.2v-.2-.2-.2-.2-.7-.2-.2h.2v-.2l.3-.2.3-.2h.6v.2h.2l.3.2v.4h-.2v.2h-.2v-.4h-.2v-.3h-.2-.5v.2s-.2 0-.2.2v1.4s0-.2 0 0v.4c.2 0 .2 0 .3.2h.4l.3-.3v.2l-.3.3zm2 .8h-.2-.2V270.3h-.2c-.2 0 0 0 0 0h-.3s-.2-.2-.2 0c-.2.2-.2.4 0 .4v.2h-.2l-.3-.2v-.2l.4-.5c.2 0 .2-.3.3-.4v-.2l.2-.2.2-.6.3-.5h.3c.2 0 0 0 .2.5V271.2zm3.3-.5l.3-.5.3-.5v-.3c.4 0 .2 0 .5.2v3.3c-.2 0 0 0-.2-.2h-.2c-.2 0-.3 0-.3-.2h.2v-.2-.6l-.6-.2v.2h-.2v.7l-.3-.2v-.2l.7-1.2zM403 269l.3.6v.3l.2.5v.3l.2-.3v-.5h.2v-.4-.4c-.2-.2 0-.2-.2-.2h.5v.4l-.2.3v.5l-.2.6v.4l-.2.4c0 .2 0 0 0 0v.2h-.2v-.3l-.2-.6v-.2h-.2v-.2-.2l-.2-.5v-.2l-.2-.5v.4c-.2 0-.2.5-.2.6v.4l-.2.3V271.6c-.2 0-.2 0-.3-.2h-.2v-.2l.2-.2v-.5s.2 0 .2-.2v-.7c.2 0 .2 0 .2-.2v-.4-.6h.5V269zm-6.3.8v-.4-.4c.2 0 0-.3.2-.6v-.5-.4-.3-.2s0 .2 0 0h.5c.2 0 0 0 0 0l.3.2h-.2V268.5c-.2 0-.2.3-.2.4v1.3h-.2-.3-.3l-.2-.2h.2v-.2zm-2.3-.4v-.4-.4h.2v-.5-.6-.6-.3H395.2l.3.8v.4c.2 0 .2 0 .2.2v.2c.2 0 .2 0 .2.2v-.4c.2-.2.3-1 0-1v-.2h.7v.3h-.2v1h-.2v1.5l-.2.4-.2-.2-.2-.6-.4-1-.3-.8-.2.2v1.9h-.6l.2-.2zm-1.2 0v-.3h.2v-.8-.5-.6c0-.3.2-.3 0-.5h.8v.3l-.2.2v1.9s-.2.3 0 .4h-.8zm-3-.5c.2 0 .2-.2.2-.3v-.4-.3l.3-1v-.2-.6-.2h.7l.2.6v1h.2V267.8c0-.2 0-.2.2-.3v-.4-.2s0-.3.2-.5h.7-.2v2.9s.2 0 .2.2h-.4-.4v-.2-.2-2.2.8h-.2v.5c0 .2 0 0 0 0l-.2.4V269c-.2 0-.2 0-.2.2h-.3v-.3-.3-.2-.5-.3c-.2 0-.2 0-.2-.2v-.3-.4.7h-.2v1s-.2.3 0 .4v.3h-.6zm-2.2-1.5V266.6l.4-.4h.2l.2-.2h.3c.3 0 .4 0 .6.2l.2.2v.3h.2V267.2l.2.4v.6c-.2 0-.2.2-.3.4l-.2.2-.3.3h-.4-.5v-.2h-.2v-.2l-.3-.7v-.2-.3zm-2.4-1.5v-.2h1.3s0 .2.3.3v.4c.2 0 .2.2.2.3v1.6h-.2v.2h-.2v.2h-.2s-.2 0-.3.2h-1v-1-2zm-4 2.8l.3-.6V267.6v-.2-.2h.2v-.4-.2-.2l.2-.5v-.2h.5v.7l.2.5v.3h.2l.2.8v.5h.2v.3h-.8v-.5-.3h-.8v.7l-.6.2v-.2zm-2.2-1.7v-.2l.2-.2.2-.3.2-.2h1.3v.8c-.3 0-.2-.3-.4-.5h-.2l-.2-.2h-.2l-.2.3v.3h-.2v1l.2.4v.2h.2v.2h.2v.2h.5l.2-.2.3-.3v.2l-.2.5-.2.2h-.5-.3l-.5-.6-.2-.4v-.5-.4zm-.5-1l-.2.3V268c.2.3 0 1 .3 1h.2-.2l-.7.2v-.3-2.1-.3c0-.2 0-.2-.2-.3v-.2h1zm-3 .4h.7v.2c-.2.3 0 .6 0 .8v1s0 .6.2.7h.5l.2-.3c.2-.2 0-.2.2-.2v.7H377.3h-.2l-.7.2h-.4c.2-.4 0-.6 0-.7v-.4-.2-.3-.6-.3c-.2-.2-.2 0-.2-.2h.2zm-10.5 5.4h-.2v-.2h-.2v-.2s-.2 0-.2-.2v-.2h-.4v.5h.2V272h.2v.2s-.2 0-.3.2h-.2-.3c.2 0 0-.2 0-.3v-.2-.4-.2h-.2v-.3-.4c0-.3-.2-.3-.2-.4v-.2-.2h-.3c0-.2.3-.3.4-.3l.5-.2h.3s.2 0 .3-.2l.2.2h.4v.2c.2.2.2.4.2.6v.4h-.2v.2h-.2l.4.6.2.3.3.2s.2 0 .2.2c-.2 0-.5 0-.7-.2zm2.8-.6h-.6l-1.3.5v-.2c.2 0 0-.3 0-.4v-.5c0-.2 0-.4-.2-.5v-.5s0-.3-.2-.5c0-.2-.2 0-.2-.3h.8c0-.2.4-.2.6-.3h.6l.2.3v.2c-.2 0-.2-.2-.4-.3h-.8v1h.4l.3-.2v-.2h.2s0 .2.2.3v.4h-.2c-.2-.2-.5 0-.7 0v.5h.2v.6c0 .2.2.2.3.2.3 0 .2 0 .5-.2l.3-.2.3-.3v.7zm-.6-1h-.2.2zm2.5-1h-.2l-.4.3h-.5l.2.6v.6c.2.2.2 0 .3.2h-.3l-.6.2v-1V269.3l-.2-.2v-.2-.2s0-.4-.2-.5c-.2-.2 0-.2 0-.2h.2c.2 0 .4 0 .5-.2h.9l.2.3v.2l.2.2c0 .4 0 .5-.2.7zm2.7.4l-.2.2v.2h-.2v.2h-1-.3v-.2l-.2-.2v-.5-.6l-.2-.6v-.2l-.2-.2v-.2h.8v1.5s0 .2.2.3V269.7h.2v.2s.2 0 .3.2h.4l.3-.3v-.3-.4-.2-.6c-.2 0 0-.2-.2-.2v-.5l-.2-.2v-.2h.5c-.2.3-.2.4 0 .6v2zm.7.3h-.2v-.2-.2-1-1h-.2v-.4c0-.2-.2 0-.2-.2h.2c.2 0 .3 0 .5-.2h1.3l.2.3v.6c0 .2-.2.4-.4.4h.2l.3.3c.2 0 .2 0 .2.2v.7c0 .2-.2.3-.2.3h-.2c0 .2-.2.2-.2.2h-.3-.2l-.5.2z"/><path fill="#CE1126" d="M357 266.7c-1-1-1.3-2-2.2-2.6-.6-.4-1.7-1-2.5-.6l-.7.6-1 1.3c-.4.3-.7 1-1 1.4 1.3.3 1.8.6 2.6 1.7 2 2.6 2 4.4 5 7.8.8.8 1.3 1.4 2.4 2 1 .4 2.3.6 3.7.4 1.3-.2 2.2-.5 3.2-1 0 0 1-.7 1.4-1.2.2-.4.3-1.3.3-1.3-1-.2-2.6 1.6-3.7 2.3-2 1.3-2.8 1-4.2-.4-1.2-1-1.7-2.3-2.5-3.6-.4-.6-1-1.4-.7-2.3l1.4-1.4c0-.4-.6-1-1-1.5l-.8-1.3z"/><path fill="#CE1126" d="M351.6 270.4l-2-1.3c-1.3-1.3-.2-3 1-4.2l.6-1-.4-1-1.2-2-3-3.3c0 .7.3 1.6.4 2.2 0 .5.5 1.8.5 2.2-.3-.2-1.3-1-2-1.3l-2.2-.8 1.3 1.3c1.4 2 1.4 3.5 2.6 5.7.4.8 1 1.8 1.7 2.5.3.5 1.6 1.8 2 2 .6.6.6.5 1.2.6.4.2 1 0 1-.2 0-.4-1-1-1.6-1.4zM366.4 275.4c.4-.3 1-.8 1.8-.7l-.5-1.4c-.8 0-4.6 1.8-5.5 2.3-.2.2-1.3 1-.8 1.6 1.5 1.6 3.7-.8 5-1.8z"/><path fill="#CE1126" d="M350 267s-.5.2-.6.7c0 .6.6 1 .6 1 .3.5 2.2 1.5 2.6 1.7.8.7.8 1 1 1.2 0-.2-2-4.5-3.7-4.5zM420.2 266.8c-.2-.6-.5-1-.8-1.5-.3-.3-1-1-1-1.2l-.8-.5c-.8-.5-2 .2-2.5.6l-2 2.8-1 1.4-1 1.4 1.6 1.6c.3.8-.3 1.7-.7 2.2-1 1.4-1.3 2.6-2.5 3.6-1.4 1.3-2.2 1.7-4.2.4-1-.7-2.8-2.5-3.7-2.2 0 0 0 1 .4 1.3.3.4 1.4 1 1.4 1 1 .6 2 1 3.2 1 1.4.3 2.6.2 3.7-.3 1-.5 1.6-1 2.3-2 3.2-3.4 3.2-5.2 5-7.7 1-1 1.3-1.5 2.6-1.7z"/><path fill="#CE1126" d="M419 263c0 .2-.4.8-.3 1l.7.8c1 1.3 2.2 3 .8 4.4-.5.4-1.2 1-2 1.3-.5.3-1.5 1-1.4 1.4 0 .2.5.3 1 .2.5 0 .5 0 1-.5.5-.3 1.8-1.6 2.2-2 .6-.8 1.3-1.8 1.7-2.6 1.2-2.2 1.2-3.7 2.6-5.6l1.3-1.4-2.3.8c-.6.2-1.6 1-2 1l.6-2 .3-2.2-3 3.4-1.2 2zM408.5 277.3c.5-.6-.6-1.4-.8-1.6-1-.5-4.7-2.2-5.5-2.3l-.5 1.3c.8 0 1.4.4 1.8.8 1.3 1 3.5 3.3 5 1.8z"/><path fill="#CE1126" d="M417.3 270.5l2.6-1.6s.5-.6.5-1.2c0-.5-.5-.6-.5-.6-1.7 0-3.8 4.3-3.7 4.5.2 0 .2-.6 1-1.2z"/><path fill="#EAC102" d="M367.4 270.2h.3-.3zM374.5 269.8h.2s.3 0 .4-.2h.2l.3-.3v-1h-.2l-.3-.2h-.2c.2 0 .4-.2.4-.3v-.6h-.2v-.2h-.5-1.2v.7h.2v1.1l.2 1v.2H374.6zm-.6-2.2V267H374.7V268H374v-.4zm0 1.4v-.2-.5h.7v.2c.2 0 .2.2.2.2v.6l-.4.2c-.4 0-.4 0-.4-.2v-.3zM366 271.6h-.3v-.3l-.5-.6.2-.2c.2-.2.2-.4.2-.5v-.5c-.2 0-.2 0-.3-.2h-.3-.2-.3-.3l-.5.2s-.4 0-.4.2h.2V270.4s.2 0 .2.3v.4c.2.2.2 0 .2.2v.7c0 .2.2.3 0 .4h.5s.3 0 .4-.2h-.2c0-.2 0-.4-.2-.5v-.4s0-.2-.2-.3h.2l.2.2.2.2.2.2s.2 0 .2.2c.3 0 .6.2.8 0h-.2v-.2zm-1-1h-.4c0 .2 0 .2-.2.2v-.2l-.3-.6v-.3l.2-.2h.7v1zM370.3 268.3v-.2h-.3v-.2h-.5H369c-.2 0-.4 0-.5.2h-.4v.2h.2v.5h.2v.7l.2.4v1.3h.7c.2-.2.2 0 .3-.2l-.2-.2v-.5l-.2-.4h.6c0-.2.3-.3.4-.3l.2-.2s.2-.2.2-.5v-.2zm-.6.7v.2l-.5.2s0-.2-.2-.3v-.6h-.2v-.2l.4-.2h.4l.2.6v.4zM382.3 268.7h-.2v-.2-.2l.2-.2h.8v.8h.8v-.2l-.2-.3v-.2l-.2-.6v-.3l-.3-.5v-.7H382.3v.8c-.2.2-.2 0-.2.2V267.7l-.2.4v.2l-.3.5v.2l.6-.2zm0-1.2v-.5-.2l.2-.3.2.6v.5l.2.3h-.7v-.3zM368 270.7v.2h-.2c-.3 0-.2 0-.4.2h-.3v-.4-.2l-.2-.6c.2 0 .5-.2.6 0h.2c.2 0 0 0 0-.2v-.2-.4c-.2 0 0 0 0 0h-.2v.3h-.3c0 .2 0 .2-.2.2v-1h.6l.4.2v-.6h-.2-.5s-.4 0-.5.2h-.6c-.2.3 0 .2 0 .4v.5l.2.3V270.4c0 .2 0 0 .2 0v.6c0 .2.2.4 0 .5v.2l1.3-.4h.6v-.8l-.2.2zM372.7 267.6zM372.8 268.2v-.4-.2c-.2-.2 0-.3 0-.5h-.3-.3v.2l.2.3v.5c.2 0 0 0 .2.2V270h-.2-.3l-.2-.2v-.2h-.2v-.2-.3-.5l-.2-.2v-.2-.2-.3-.2h-.7v.8l.2.7v1h.2v.3l.4.2h1v-.2s.2 0 .2-.2v-.2-.3-.5-.6zM370.6 267.6zM381.5 268.3zM379.5 268c0 .2 0 .3.2.4l.4.5h1l.3-.3.2-.4v-.2l-.3.4h-.3c0 .2 0 .2-.2.2h-.2l-.2-.2v-.2h-.2v-.5-.2c-.2-.2-.2-.6-.2-.8 0-.2 0-.3.2-.4l.2-.2h.2v.2h.2c.3.3.2.5.4.6v-.2l.2-.3v-.2h-1.1-.3l-.2.3-.2.3v.2l-.2.4v.8zM376 266.7v2.2s.2.3 0 .6c0 0 0 .2 0 0H378v-.8.2l-.2.2h-.4-.3c-.3 0-.3-.5-.3-.6v-1c0-.2-.2-.5 0-.8v-.2h-.2-.3-.2-.2v.3zM378 266.3l.2.4v.2l.2 1.6v.5h.8v-.2c-.3 0-.2-.7-.3-1v-.4-.4s0-.3-.2-.4v-.5-.2l-.8.2c0 .2 0 0 0 0zM385.4 269h1l.4-.2h.2v-.2h.2v-.2h.2v-.3c.2-.2.2 0 .2-.3v-.2-.4-.3s0-.3-.2-.3v-.2l-.5-.4h-1.5c0 .2 0 0 0 0v3.2zm.7-3h.7v.2l.2.2v1.8l-.2.2-.2.2h-.4v-.2-2.3zM388 268l.2.5v.2h.2v.2h.9l.3-.3.2-.3v-.4-.3-.3c.2 0 0-.2 0-.3v-.4l-.3-.4v-.2l-.6-.2h-.2-.2v.2h-.2l-.3.5V268zm.6-.6v-.5-.4-.3l.2-.2h.5l.2.2v1.1s.2.3 0 .4v.7c0 .2 0 .3-.2.3h-.6v-.2-.3c-.2 0 0-.7 0-1zM390.8 269v-.2c-.2 0 0-.3 0-.4v-.2-.4-.2-.3-.3l.2-.3v.8c0 .2 0 .3.2.3v1.4h.4v-.2-.2s.2 0 .2-.2v-.5s0 .2 0 0l.2-.4c0-.2 0-.4.2-.5v-.2V269.2h.4c0 .2.3.2.4.2v-.2c-.2 0-.2-.4-.2-.5v-.5-.4-1.4-.2h-.6l-.2.6v.8c-.2 0 0 0-.2.3v.3-.3h-.2v-.3c0-.2 0 0 0 0v-.4-.3l-.2-.6h-.6v1.1l-.2 1V268.6c0 .2 0 .3-.2.3h.4zM404 272v.2h.3c0 .2 0 .2.2.2v-.2-.3-.4l.6.2h.2v.8l.2.2h.4v-.7-.5-1.8c-.3 0 0 0-.4-.2v.2l-.3.5-.3.6-.7 1.2zm1-1.2v-.2c0-.2 0 0 .2-.2v-.2 1.4h-.2l-.3-.3.3-.5zM403 268.5h-.7v1.8h-.2V271.3h-.3v.2h.2c.2 0 .2.2.3.2v-.2-.4-.2-.2-.2-.2l.2-.4v-.3-.2h.2V270l.2.3v.4c0 .2 0 .4.2.4v.6l.2.3h.2V271.3c.2 0 .2-.3.2-.4v-.7c.2 0 .2-.3.2-.4v-.3l.2-.3v-.2h.2v-.2h-.4-.2V270.4l-.2.4v-.3l-.2-.4v-.3l-.3-.7v-.2-.2zM394.2 269.6h.5v-1-.5-.4c.2 0 .2 0 .2-.3l.2.8.4 1v.2l.2.5c0 .2 0 .2.3.3l.2-.4v-.5-.3-.6h.2v-.5-.4h.2-.2l-.3-.2c.3.3.2 1 0 1.2V268.4l-.2-.2v-.3c0-.2-.2-.2-.2-.3v-.2-.2l-.4-.6h-.4l-.2-.2v2.4l-.2.4c-.2 0-.2 0-.2.2zM401.5 270v-1-.5c0-.5 0-.4-.2-.4h-.3l-.2.5-.3.6v.4l-.2.2s0 .3-.2.5l-.2.6h-.2v.2h.5s0 .2.2 0v-.4-.2h.8v1H401.6v-1zm-.8 0h-.2v-.4-.2l.2-.2v-.3l.2-.4v1.4h-.3zM399.7 270h-.3c-.2.2-.3.2-.5.2h-.3v-.2-.2s-.2 0-.2-.2v-1-.4s.2 0 .2-.3v-.2h.2v-.2h.2l.2.3c.2.2.2.3.2.5h.2v-.3c0-.2.2-.2 0-.4l-.2-.2h-.2c0-.2-.4-.2-.6-.2l-.3.2-.2.2v.2h-.2v2.1l.2.3.4.3h.8l.2-.4v-.3zM396.5 270h.4v.2h.4v-.2-.5-.6-.2-.3-.5-.2c0-.3.2 0 .2-.3v-.2-.2H397c0 .2 0 0 0 0v1.2c-.2.4 0 .6-.2.7v.8c0 .2 0 0-.2 0v.2zM394 269.5c-.2-.2 0-.5 0-.6v-1.4-.6-.2-.2h.2v-.2h-.8c.2.3 0 .3 0 .5v2.3h-.2c0 .2.3.2.5.2h.3z"/><path fill="#00873F" d="M360.3 263.7l1-.4c-.5-.3-.5-.6-1-.6H359c0-.3 0-.2.6-.2h.7c-.4-.5-1-.7-1.4-1l1.4.7v-1c.3 0 0 .6.2 1.2 0 .2.6.5 1 .7.4.3.5.2 1 .4l1.2.3c-.5-.6-.2 0-1-1.5-.4-.7-.7-1-1.2-1.5-1.4-.8-3-.3-4.6-.2l1 2 1.4 1.7c.3 0 .6-.3 1-.5zM358.3 257.4c0 .3.2.8.4 1V256l-.2-2c.2 0 0 .2.2.4v.5c.3-1 .4-1 .8-1.5 0 .2-.4 1-.5 1.8v2.2c.2 0 .3 0 .3-.2l.5-.6c1.2-2 .5-3 .5-3.5l.3-1.7c-.3 0-1.3.8-1.6 1-1 1-1.8 2.6-1.2 4 0 .3.3.6.5 1z"/><path fill="#00873F" d="M363.2 265.5c.4-.6.7-.7 1.2-1-.8 0-1.4.2-2 .4-.6 0-.6.3-1 .7l-.5.3c0-.2.4-.7.7-1H360c.2-.3.6 0 1.3-.2 1.3 0 1.6-.5 3-.6h.3l-.4-.2c-1.8 0-2.4-1.3-5 .4l-.2.3-1 .8c.4 0 1.4.4 1.7.5 1 .4 2.8.5 3.5-.5zM366.7 259c.2.7.3 1 .2 1.7 0 .5-.3 1-.4 1.5 0 1 .2 1 .5 1.2l1 .7v-1l-.7-1c.3 0 .4.4.8.7l-.3-2c.3 0 .4.7.4 1 .5 1.3.2 2.3.4 2.7l.6.8c.3-1 1.2-1.5 0-3.7-.6-1.3-1-1.5-2.3-2.4zM352.8 260.7c.6 1 2.2 2.2 3.6 1.6l.7-.2h.2l-.3-.7h-.2c-.8 0-1 .3-2.4-.5-.3-.2-.3-.2-.5-.6l1.4.8s-.3-.3-.6-1h.2v.3l.8 1 1-.2-.3-.5c-.2-.3 0-.4-.3-.6l-1.2-.6-1.5.2h-.5l-.4-.2h-.6c0 .2.6 1 .8 1.3zM354.5 257.4c-1-1-1-1-1.5-1l-1 .2c0-.3.7-.3 1-.4l-.6-.2c-.5 0 0 0-.7-.2.3-.4 1.6 0 2.2.7l1.4 1.6-.8-1.4c-.7-1.4-2.6-1.8-4-1.6-.3 0-.8 0-1 .2h.2c.4.3.8.5 1 .8.5.5.5.7 1 1 1 1 2 1 3.2 1l-.5-.6zM356 256.3c.5 1.5 1.3 1.2 2.2 2.5-.5-1.7-1.3-2.3-1.6-3.3V254c.4.6-.2 1 .7 2.5V255l.3-1c0-.4-1.2-1.5-1.5-1.8 0 1.4-.5 2.7 0 4zM365 263l.4 1.6.6 1.5 1-.2c-.2 0-.5-.6-.7-.8-.4-.7-.4-.7-.2-1 .2 0 0 0 0 0 .2.3 0 .3.3.5 0 .2 0 .3.3.4l.7.7v-1c.2 0 0 0 0 0l.2 1 1-.3c-.4-1-1.3-1.5-2.3-2-.4 0-.8-.2-1-.4zM361.3 259.8c.2.5.3 0 1 1 1 .8 1 1.8 1.6 2.2h.2l-.3-.4-.3-.4c-.4-.8-.4-1.2-1-2-.2 0-.3-.2-.5-.3 0-.2-.2-.3-.3-.4.2-.2.7.4.8.6.4.3 1 1.4 1.4 2.3l.4 1v-.8-.2c.2-1-.6-2.2-1-2.5l-3-1.3h-.2c.4.3.7.5 1 1z"/><path fill="#00873F" d="M371 260.4l-1 1.2c-.5.6-.2.3 0 1.5 0 0 0-.2.2-.3 0-.3 0-.2.2-.4v.7c-.4.7-.5 1.4-.7 2.2.7 0 .6 0 1-.7l.3-1.2v-3zM361.4 255.3c.2.3-.4 1-.6 1-.5.5-.2 0-.8 1 1.3 0 2-1.7 2.3-2.7l-1.3.5-.2.4v.3c-.2.2-.3.5-.3.7l1-1z"/><path fill="#CE1126" d="M391.3 274v.5h.5l2.3.8-.6-1.5 1-.5c-.4 0-.8-.2-1.2-.4l-1.6-.6c0 .3 0 .6-.3 1v.6z"/><path d="M391.6 272.4l1.6.6 1.2.3-1 .5.7 1.5-2.2-.7h-.4v.7c1.3.4 2.8 1 3.4 1l.8.2-1.2-2.3 2.4-1.3-1-.3c-1 0-1.5-.3-2.4-.5l-1-.3-1-.5c.2.3.2.6.2 1zM391.3 273.3v0z"/><path fill="#CE1126" d="M375.5 273.2l-1.2.4 1 .5-.7 1.6 2.3-.7c0-.2.3-.2.4-.3v-1.2l-.2-.8-1.7.5z"/><path d="M377.4 274.7s-.3 0-.5.2c-.8 0-1.7.4-2.4.6l.8-1.5-1-.4c.3 0 .7-.2 1-.4l1.8-.5.2.8-.2-1v-.7l-.8.3-1 .5-2.3.5-1 .2 2.3 1.3-1 2.3.6-.2c.5 0 2-.6 3.2-1h.5c-.2-.3-.3-.6-.3-1z"/><path fill="#CE1126" d="M379 275.3s0-.2.5-.4l-1 .4c.2 0 .3 0 .4.2v-.3zM386 272.8c.2 0 .2 0 .2.2 3 .4 4 .8 4.4 1.2v-.4h-.4l.3-.5c.3-.5.3-1 .3-1.3-.4.4-1.5.8-4.7.8zM389.7 275c.3 0 .3.2.4.3v.2c.2 0 .3-.2.4-.3l-.3-.2h-.3zM389.8 271.6l.7-.3h-.4-.2v.3zM380.5 272.8c-1.6 0-2.2-.2-2.5-.5v.2c0 .5.2.8.2.8v1.4c.3-.5 1-1 4.3-2h-2zM378.4 271.6h.6v-.3l1.2.2-1.6-.4h-.2l-.2.5h.2z"/><path d="M382.6 275l-1.7.8c-.2 0-.8.3-1.3.3-.4 0-.6 0-.7-.3l-.4-.3h-.3v-.5c-.2-.4-.2-1 0-1.5v-.2s-.2-.3-.2-.8v-.2l-.2-.2v-.7l.4.2s0-.3.2-.4h.2l1.6.5h2l.3-.3-2-.5-1-.3h-1c-.4 0-.6 0-.7.2l-.3.4c0 .3-.2.6-.3.8v.8c0 .4 0 .7.2 1v1c0 .4 0 .7.3 1l.4.4c.7.5 1.3.5 1.3.5 1.4 0 2.5-.6 3.2-1 .2 0 .3 0 .4-.2-.2 0-.3 0-.4-.3zM391.4 274.7v-.2-.5-.5-.2l.2-1v-.8l-.4-.7c-.3-.3-.5-.3-.7-.4h-.4c-.5 0-1.2 0-1.7.3l-.8.2-1.5.4c3.2 0 3.8-.3 4-.3-.2 0-.2 0-.2.2H391v.6l-.2.2c0 .4 0 .8-.3 1.3l-.3.4h.3v.5l.3.4c0 .3 0 .6-.2.8l-.2-.2-.3.3v.2c0 .2-.2.4-.6.4-.5 0-1.2-.2-1.3-.3l-1.7-.7c-.2 0-.2.2-.3.2l1.8 1 1.5.3c.6 0 1-.2 1.4-.5l.6-.7v-.6z"/><path fill="#CE1126" d="M389.2 275.4l-2-.8c.2.2.6.3 1.2.5 0 .2.5.3.8.4z"/><path d="M390 275.3s0-.2-.3-.4h-.2v.2s-.4-.4-3-.8c0 .2 0 .4-.2.6l1.8.7c.2 0 1 .4 1.4.4.4 0 .6 0 .7-.3v-.4zm-.8 0c-.3 0-.7 0-.8-.2-.6 0-1-.2-1.3-.4 1.3.4 2 .6 2.2.8z"/><path fill="#CE1126" d="M382 274.7c-1.2.3-1.8.5-2 .7l.6-.2 1.3-.5z"/><path d="M379.5 275.4s.2-.3 0-.5c-.4 0-.5.3-.5.3v.3c0 .3.3.5.7.5l1.2-.2 1.6-.8v-.7c-2.6.6-3 1-3 1zm2.4-.7c-.4 0-.8.3-1.4.5l-.7.2c.2-.2.8-.4 2-.7z"/><path fill="#AA241E" d="M383.4 273.6v.6l-.2.6H385.8v-.6-.6c-.2-.3-.3-.6-.3-1.2v-.3c0-.6 0-.6-.3-.7h-1.8l-.6.4c0 .2 0 .7.3 1l.4 1z"/><path d="M386.2 275c.2-.2.2-.4.2-.6h-.5V273h.2v-.2h-.3v-1.3c0-.4-.3-.7-.7-.7h-2c-.4 0-.6.2-.8.4l-.2.2h.2v1.5s.2 0 .3-.2l.3 1.3c0 .2-.2.2-.3.3 0 .2-.2.5 0 .7 0 .2 0 .3.2.3l.6.2H385.2l.8-.3h.2zm-3.4-3.3l.6-.3h1.8c.2 0 .3 0 .3.7v.4c0 .6 0 1 .2 1.2v1.1H384.5c-.5.2-1 .2-1.2 0v-.4l.2-.6-.3-1c0-.3-.3-.7-.2-1z"/><path d="M386 271.5v1.3c3.3 0 4.4-.4 4.8-.8v-.2c.3-.2.3-.5.2-.7l-.5.3-.7.3v-.4s-.6.3-3.7.3zM386.2 273l-.3 1.3h.4c2.7.5 3 .8 3.2 1v-.4h.5l.4.2.2.2c.2-.2.3-.5.2-.8l-.2-.4c-.5-.4-1.5-.8-4.4-1.2zM378.3 274.8v.7h.3l1-.6v.4s.4-.5 3-1l.5-.3-.2-1.2h-.3c-3.3 1-4 1.5-4.2 2z"/><path d="M380.2 271.5c-1 0-1.3-.2-1.3-.2v.2h-.8l-.4-.2v.8c0 .2 0 .2.2.3.3.3 1 .5 2.5.5h2v-1.4h-2.2z"/></svg>