<svg xmlns="http://www.w3.org/2000/svg" xmlns:xlink="http://www.w3.org/1999/xlink" width="640" height="480" viewBox="0 0 640 480"><defs><path id="a" d="M0 0h640v480H0z"/></defs><clipPath id="b"><use xlink:href="#a" overflow="visible"/></clipPath><g clip-path="url(#b)"><path fill="none" d="M0 0h640v480H0z"/><path fill="#FFF" d="M-40 0h720v480H-40z"/><path fill="#329203" d="M-40 320h720v160H-40z"/><path fill="#E77300" d="M-40 0h720v160H-40z"/><ellipse fill="#08399C" cx="320.002" cy="239.997" rx="65.849" ry="65.849"/><path fill="#FFF" d="M377.066 225.22c.36 1.316.436 2.02.698 3.277-2.582.8-3.926 2.52-3.614 4.242.258 1.55 1.405 3.757 4.637 3.287.083 1.283.12 2.02.124 3.383-9.76.024-20.045-.54-29.644-1.39-7.082-.613-8.767 1.353-12.45 1.665-4.27.35-7.636.095-16.46.443 8.65-1.783 12.05-2.863 16.054-3.51 3.854-.598 5.338.797 12.512-1.992 9.06-3.603 18.73-6.825 28.144-9.405z"/><path fill="#FFF" d="M305.876 183.324c1.317-.352 2.02-.423 3.28-.677.782 2.587 2.494 3.942 4.218 3.64 1.553-.246 3.767-1.38 3.318-4.614 1.283-.075 2.02-.108 3.384-.103-.04 9.76-.67 20.042-1.583 29.635-.66 7.077 1.296 8.775 1.584 12.46.322 4.273.046 7.636.336 16.462-1.727-8.66-2.785-12.066-3.406-16.075-.573-3.858.832-5.334-1.91-12.525-3.542-9.08-6.7-18.774-9.22-28.203z"/><path fill="#FFF" d="M320.874 181.504c1.363-.003 2.06.107 3.344.184.095 2.7 1.403 4.45 3.147 4.6 1.564.157 3.995-.373 4.388-3.614 1.26.255 1.98.412 3.298.766-2.533 9.425-5.77 19.206-9.105 28.246-2.447 6.673-.99 8.815-1.654 12.45-.78 4.214-1.907 7.395-3.883 16.002.544-8.815.393-12.377.817-16.412.433-3.876 2.168-4.944 1.355-12.597-1.105-9.688-1.682-19.866-1.706-29.626z"/><path fill="#FFF" d="M335.994 183.62c1.318.348 1.963.635 3.183 1.04-.605 2.634.207 4.66 1.853 5.256 1.47.557 3.956.673 5.172-2.357 1.15.57 1.808.91 2.988 1.59-4.882 8.452-10.535 17.064-16.094 24.936-4.087 5.815-3.233 8.26-4.813 11.6-1.844 3.87-3.754 6.653-7.886 14.457 2.803-8.375 3.576-11.856 5.028-15.644 1.42-3.634 3.37-4.217 4.563-11.82 1.437-9.645 3.508-19.627 6.006-29.06z"/><path fill="#FFF" d="M350.054 189.567c1.184.678 1.733 1.122 2.807 1.83-1.265 2.387-1.004 4.554.433 5.554 1.277.918 3.646 1.673 5.605-.94.964.85 1.51 1.346 2.476 2.31-6.9 6.903-14.586 13.762-21.988 19.932-5.45 4.562-5.258 7.144-7.647 9.963-2.78 3.262-5.345 5.456-11.354 11.93 4.872-7.368 6.52-10.53 8.9-13.815 2.31-3.144 4.345-3.202 7.46-10.24 3.88-8.946 8.458-18.053 13.308-26.523z"/><path fill="#FFF" d="M362.037 198.878c.97.958 1.387 1.53 2.242 2.487-1.838 1.983-2.14 4.145-1.01 5.48.998 1.215 3.095 2.553 5.66.53.712 1.07 1.113 1.69 1.798 2.87-8.44 4.9-17.63 9.554-26.37 13.616-6.438 3.01-6.915 5.556-9.948 7.667-3.525 2.438-6.566 3.9-14.035 8.613 6.6-5.87 9.003-8.503 12.148-11.065 3.04-2.445 5.023-1.98 9.84-7.98 6.047-7.65 12.812-15.276 19.674-22.217z"/><path fill="#FFF" d="M371.406 211.273c.685 1.18.937 1.84 1.51 2.99-2.293 1.43-3.153 3.436-2.414 5.02.645 1.436 2.316 3.277 5.32 2 .408 1.22.633 1.922.983 3.24-9.432 2.51-19.522 4.585-29.02 6.208-7.004 1.212-8.133 3.543-11.615 4.783-4.04 1.426-7.36 2.038-15.805 4.622 7.91-3.928 10.922-5.838 14.63-7.484 3.574-1.56 5.365-.588 11.592-5.113 7.843-5.79 16.375-11.37 24.82-16.264zM263.616 254.627c-.353-1.318-.424-2.02-.678-3.28 2.586-.783 3.94-2.496 3.64-4.22-.248-1.553-1.382-3.767-4.616-3.316-.076-1.282-.11-2.02-.104-3.383 9.76.037 20.043.664 29.636 1.573 7.078.657 8.775-1.3 12.458-1.588 4.274-.323 7.637-.048 16.463-.34-8.66 1.73-12.065 2.788-16.074 3.41-3.857.575-5.332-.83-12.523 1.916-9.08 3.543-18.773 6.706-28.2 9.23z"/><path fill="#FFF" d="M378.983 240.19c.013 1.364-.094 2.063-.162 3.346-2.7.113-4.437 1.434-4.576 3.18-.146 1.564.4 3.99 3.643 4.362-.246 1.262-.398 1.982-.743 3.303-9.442-2.468-19.244-5.64-28.308-8.913-6.69-2.4-8.82-.93-12.46-1.57-4.22-.752-7.408-1.857-16.03-3.774 8.82.484 12.38.31 16.418.705 3.88.406 4.96 2.135 12.606 1.27 9.68-1.17 19.854-1.816 29.613-1.907z"/><path fill="#FFF" d="M376.97 255.34c-.34 1.32-.623 1.966-1.02 3.188-2.64-.59-4.66.236-5.245 1.887-.547 1.474-.646 3.96 2.39 5.156-.563 1.155-.896 1.814-1.57 3-8.483-4.827-17.13-10.426-25.04-15.932-5.842-4.05-8.28-3.18-11.632-4.738-3.88-1.818-6.675-3.71-14.507-7.792 8.394 2.748 11.88 3.5 15.677 4.927 3.643 1.395 4.237 3.344 11.85 4.486 9.65 1.376 19.647 3.382 29.097 5.82z"/><path fill="#FFF" d="M371.096 269.463c-.67 1.188-1.11 1.74-1.812 2.816-2.396-1.252-4.56-.978-5.552.465-.91 1.282-1.65 3.657.975 5.6-.845.97-1.337 1.52-2.295 2.49-6.944-6.86-13.85-14.505-20.063-21.87-4.596-5.423-7.177-5.215-10.01-7.586-3.278-2.763-5.488-5.314-11.996-11.282 7.395 4.827 10.568 6.455 13.867 8.816 3.16 2.29 3.23 4.326 10.285 7.4 8.968 3.825 18.104 8.35 26.6 13.15z"/><path fill="#FFF" d="M361.764 281.596c-.955.973-1.523 1.392-2.48 2.252-1.988-1.83-4.15-2.125-5.483-.99-1.21 1.004-2.54 3.105-.508 5.662-1.065.718-1.684 1.12-2.86 1.81-4.932-8.422-9.62-17.595-13.716-26.318-3.032-6.428-5.58-6.895-7.7-9.92-2.454-3.516-3.927-6.553-8.667-14.003 5.893 6.576 8.536 8.97 11.11 12.105 2.456 3.03 1.997 5.016 8.017 9.81 7.67 6.018 15.32 12.754 22.287 19.59z"/><path fill="#FFF" d="M349.503 290.955c-1.177.69-1.835.946-2.98 1.526-1.444-2.284-3.455-3.134-5.036-2.385-1.43.652-3.264 2.335-1.97 5.333-1.216.414-1.918.643-3.233 1-2.563-9.417-4.696-19.495-6.373-28.985-1.25-6.997-3.587-8.112-4.846-11.587-1.45-4.033-2.08-7.35-4.712-15.778 3.973 7.888 5.9 10.888 7.567 14.586 1.58 3.566.618 5.362 5.18 11.563 5.834 7.81 11.463 16.31 16.403 24.728z"/><path fill="#FFF" d="M335.31 296.77c-1.315.36-2.02.438-3.276.7-.8-2.58-2.522-3.923-4.244-3.61-1.55.26-3.757 1.408-3.284 4.64-1.283.084-2.02.122-3.384.127-.03-9.76.523-20.047 1.368-29.646.607-7.08-1.36-8.765-1.675-12.446-.354-4.272-.102-7.637-.456-16.46 1.79 8.648 2.872 12.045 3.522 16.05.6 3.853-.794 5.34 2.002 12.51 3.607 9.054 6.838 18.724 9.425 28.136z"/><path fill="#FFF" d="M320.022 298.697c-1.364.006-2.062-.104-3.345-.177-.1-2.7-1.413-4.446-3.156-4.593-1.564-.154-3.993.38-4.38 3.622-1.26-.254-1.98-.408-3.298-.76 2.513-9.43 5.73-19.217 9.047-28.266 2.432-6.68.97-8.816 1.626-12.452.773-4.217 1.893-7.4 3.85-16.01-.526 8.815-.366 12.376-.782 16.413-.424 3.878-2.158 4.948-1.328 12.6 1.123 9.685 1.722 19.863 1.766 29.622z"/><path fill="#FFF" d="M304.902 296.614c-1.32-.347-1.965-.632-3.185-1.035.6-2.636-.217-4.66-1.864-5.252-1.472-.554-3.957-.664-5.167 2.368-1.152-.57-1.81-.905-2.992-1.585 4.864-8.46 10.5-17.085 16.04-24.97 4.074-5.824 3.215-8.267 4.788-11.61 1.835-3.874 3.74-6.66 7.854-14.474-2.785 8.38-3.55 11.863-4.995 15.655-1.41 3.637-3.36 4.225-4.536 11.83-1.415 9.648-3.465 19.634-5.942 29.074z"/><path fill="#FFF" d="M290.783 290.67c-1.185-.675-1.734-1.12-2.81-1.824 1.264-2.39 1-4.556-.438-5.555-1.278-.915-3.65-1.666-5.604.95-.964-.85-1.51-1.345-2.478-2.308 6.89-6.91 14.57-13.78 21.964-19.96 5.445-4.568 5.25-7.15 7.634-9.972 2.777-3.267 5.338-5.463 11.337-11.943-4.862 7.373-6.504 10.54-8.88 13.826-2.306 3.146-4.343 3.208-7.45 10.25-3.867 8.95-8.435 18.063-13.274 26.538z"/><path fill="#FFF" d="M278.667 281.253c-.968-.96-1.384-1.53-2.238-2.49 1.84-1.98 2.146-4.143 1.018-5.48-.997-1.216-3.09-2.557-5.658-.54-.71-1.07-1.112-1.688-1.794-2.87 8.45-4.886 17.647-9.524 26.392-13.572 6.444-2.997 6.925-5.542 9.96-7.647 3.53-2.434 6.574-3.89 14.05-8.59-6.61 5.858-9.017 8.488-12.167 11.045-3.042 2.44-5.025 1.97-9.853 7.965-6.06 7.637-12.836 15.25-19.71 22.18z"/><path fill="#FFF" d="M269.355 268.906c-.683-1.18-.936-1.84-1.51-2.99 2.295-1.43 3.157-3.436 2.417-5.02-.644-1.436-2.314-3.278-5.32-2.002-.407-1.22-.63-1.922-.98-3.24 9.432-2.506 19.523-4.578 29.023-6.197 7.004-1.21 8.134-3.538 11.616-4.777 4.043-1.425 7.362-2.035 15.807-4.616-7.91 3.925-10.923 5.833-14.632 7.48-3.575 1.558-5.366.586-11.594 5.108-7.845 5.787-16.378 11.365-24.825 16.254z"/><path fill="#FFF" d="M291.806 188.94c1.183-.677 1.844-.926 2.997-1.495 1.42 2.3 3.42 3.17 5.01 2.438 1.44-.638 3.288-2.3 2.025-5.312 1.22-.4 1.925-.622 3.245-.966 2.464 9.444 4.492 19.544 6.07 29.05 1.177 7.01 3.502 8.15 4.725 11.637 1.407 4.05 2.003 7.37 4.546 15.828-3.89-7.93-5.786-10.95-7.414-14.665-1.543-3.583-.563-5.37-5.06-11.617-5.753-7.87-11.292-16.427-16.144-24.895z"/><path fill="#FFF" d="M261.79 239.34c.003-1.363.117-2.06.2-3.343 2.7-.083 4.455-1.383 4.613-3.125.165-1.564-.353-3.997-3.592-4.405.262-1.258.422-1.98.782-3.294 9.413 2.578 19.178 5.86 28.203 9.24 6.662 2.477 8.81 1.03 12.442 1.71 4.21.802 7.387 1.943 15.984 3.96-8.812-.586-12.375-.45-16.407-.894-3.875-.45-4.933-2.192-12.59-1.415-9.693 1.058-19.873 1.586-29.633 1.565z"/><path fill="#FFF" d="M263.942 224.343c.353-1.317.64-1.962 1.05-3.18 2.632.613 4.66-.194 5.26-1.838.56-1.47.683-3.954-2.344-5.18.575-1.148.915-1.804 1.6-2.982 8.438 4.904 17.035 10.58 24.893 16.16 5.805 4.102 8.252 3.255 11.588 4.844 3.865 1.854 6.642 3.77 14.435 7.924-8.367-2.824-11.846-3.606-15.63-5.07-3.63-1.427-4.208-3.38-11.808-4.593-9.637-1.463-19.613-3.56-29.043-6.084z"/><path fill="#FFF" d="M269.955 210.25c.682-1.18 1.128-1.73 1.84-2.8 2.382 1.275 4.55 1.022 5.556-.41.923-1.274 1.686-3.642-.92-5.61.854-.96 1.35-1.506 2.318-2.467 6.878 6.924 13.71 14.635 19.854 22.06 4.542 5.466 7.125 5.283 9.936 7.682 3.252 2.792 5.437 5.364 11.888 11.395-7.35-4.897-10.506-6.555-13.782-8.948-3.135-2.32-3.187-4.357-10.213-7.498-8.932-3.91-18.023-8.524-26.475-13.404z"/><path fill="#FFF" d="M279.63 197.995c.97-.96 1.544-1.37 2.512-2.214 1.962 1.86 4.12 2.187 5.47 1.07 1.224-.984 2.585-3.066.59-5.652 1.078-.7 1.702-1.096 2.89-1.767 4.805 8.496 9.358 17.737 13.322 26.52 2.938 6.474 5.478 6.98 7.555 10.034 2.398 3.552 3.826 6.61 8.456 14.13-5.795-6.665-8.403-9.097-10.93-12.27-2.412-3.067-1.923-5.045-7.87-9.93-7.582-6.13-15.133-12.98-21.996-19.92z"/></g></svg>