<svg xmlns="http://www.w3.org/2000/svg" height="480" width="640" viewBox="0 0 640 320"><path fill="#d3ae3b" d="M0-80h640v480H0z"/><path fill="#c40308" d="M32-49.6h577.5v419.2H32z"/><g transform="translate(21.394 -21.173)"><path fill="#b96b29" d="M430.6 175c3.5-1 15.7-4.4 24.3-11.4 8.5-7 10.2-12.6 11-15.6.6-3 1-5.4-1.3-3.7-2.3 1.7-9 7-13.5 9.5-4.6 2.5-8.8 3.7-11.2 4.4-2.5.7-4.5 1.2-2 .2 2.3-1 10-3.6 16-9.6s10.7-15 10.8-20.5c0-5.5-.3-5.2-2-3.8-1.8 1.4-8 9.2-11.7 12-3.4 3-9 7-12 8.7-2.8 1.7-7 3.6-1.2-.3 5.6-4 16.2-13 20.5-24.7 4.4-11.7 3.6-18.6 3.5-19.8 0-1.2-1-3.6-2-1.4-1 2.3-8.2 16.5-14 22.6-5.6 6-4.2 5-5.5 6-1.3 1-3.4 2.6-.7-.8 2.8-3.5 8.5-11.4 11.5-19.3 3-8 3.8-15.8 4-20.3 0-4.5-2-10.8-3-12.7-.8-2-1.6-3.3-2-1-.2 2-4.8 16-7.2 23-2.5 6.7-7.4 14.3-8.4 15.8s-3.5 4.5-.8-.6c2.8-5 8-20.2 8.8-34.4.7-14.3-1.3-22.2-3.3-26-1.8-4-3.5-5.5-3.5-5.5s.3 9.8-2.6 23.8c-3 14-7.3 21.4-7.3 21.4s-1.8 2-.5-1.4c.8-2.2 2.5-7.2 3.3-15.6.8-9 1-19-1.7-27.5-2.8-9.4-7.7-14-7.7-14-1.2 13.3-1 30.5-6 44.5-.8-.8-2-2.3-2.5.7-1 4.6-2.7 13.3-8.7 24.3-6 11-8.5 12.4-8.5 12.4s-1-2.7-2-4.2c-.7-1.4-1.2-2.2-2.2-.2-1 2-4.2 9.8-11.6 18.3-7.4 8.5-11.5 12.7-11.3 19 .3 6.4 3.7 9.7 8 12.6 4.6 2.8 5.4 4.4 4.7 7.8-.6 3.5-4.7 4.8-8 5-3.6 0-8-.4-9.5.5-1.6 1-1.7 3.2-3.3 4.7-1.6 1.6-2.3 2.5-3.8 2.7l-1.2.2c-.3-17 6.2-24.5 6.2-24.5L341 135c-1 .6-2 1-3 1.4l-.4-.8c-2.5-3-3.3-5.7-3.3-9.7 1 0 2.8.6 4.4.3 1.7-.3.4-2 0-3.6-.6-1.5-1-7-.7-9l.5-3s2.6 3 4.3 3c1.6 0 1.5-1.7 1.7-3.6.4-2.6 1.7-6 3.8-8 0 0 3 2 6.2 2 3.3 0 7.8-1 11.3-4.3 3.6-3.4 3.5-4.2 3.5-4.2S376 97.8 381 98c5 .3 10.4-.6 13-6 2.5-5.2-.8-10-1.4-11-.5-.7-2.2-1.4-2.2 0s0 5.6-3 7.6-5.4 2-8.3 1c-2.8-1-7-2-11.5-1.4-4 .5-4.7 1-4.8 1 .2-.3 4-4.2 7.7-5.3 3.8-1.2 6 .3 7.3 1.8s2.3 4 3.3.4c1-3.4.4-7.4-1.3-10-1.6-2.6-5.2-4.2-9-3.8-3.6.4-5 1-5 1S364 68 359.2 67c-5.8-1.2-12.2 1-17.3 3.8 0 0-4 1-8-.2-2.7-.8-5.3-2.4-6.8-3.4.3-1.6 1.2-4.4 1.2-4.4l2.4-.8c1.2-.5 1-1 1-2 .3-1-2-2.7-2-2.7s-.5-3 3.5-5c4-2.2 3.6-1.8 3.6-1.8s2.4.4 3.3-.3c1-.7 1-1 1-1s1.7-.7 2.3-1.7c.6-1 .8-2.6.3-4-.5-1-1-1.4-.4-2 .6-.6 1.2-2 1.3-3v-1.2s1.4-.5 1.3-2.6c0-2-1-3-1.8-3l-1-.2s-.2-1.3-1.2-3c-1-1.6-1.8-2.3-1.8-2.3s.8-.6.3-2-1.3-2-2.3-2.4c-1-.3-2 0-2 0l-4.5-2.7-1.8-.8s0-1.3-.6-2c-.4-.7-1.7-1-2.3-1-.7 0-1.4.3-1.4.3s-5.3-1.3-7.5-1.7l-2.3-.5s-4.7-2.3-6.5-2.6l-2.4-.6s2-2.2 2-4.8C308.8 2.5 307 0 305-1c-1-.8-1.5-1-2-1v-2l3.6.4.3-5.7-3.5.5.5-3.5h-7.2l.5 3.4-3.5-.2.3 5.7L298-4l-.4 2s-1.3.3-2.5 1.2c-2 1-3.5 3.3-3.4 6 0 2.6 1.7 5 1.7 5l-2.3.5c-1.8.3-6.6 2.6-6.6 2.6s0 0-2.3.5l-7.3 1.7s-.8-.3-1.4-.3c-.7 0-2 .3-2.4 1-.7.7-.7 2-.7 2l-1.8 1c-1.5.7-4.6 2.6-4.6 2.6s-1-.3-2 0-2 1-2.4 2.5c-.4 1.3.4 2 .4 2s-.7.6-1.8 2.3c-1 1.6-1.2 3-1.2 3h-1c-.7.2-1.8 1-2 3 0 2.2 1.4 2.7 1.4 2.7v1.2c0 1 .7 2.4 1.4 3 .6.6 0 1-.4 2-.5 1.3-.4 3 .3 4 .6 1 2.4 1.6 2.4 1.6s0 .5 1 1.2 3.3.3 3.3.3-.4-.4 3.6 1.7 3.5 5 3.5 5-2.4 2-2.3 3c.2 1 0 1.3 1.2 1.8l2.3.8 1.4 4.4c-1.4 1-4 2.6-6.7 3.4-4 1-8 .2-8 .2-5-2.8-11.6-5-17.4-3.8-5 1-6.8 6.4-6.8 6.4s-1.3-.6-5-1c-3.8-.4-7.3 1.2-9 3.8-1.6 2.6-2.2 6.6-1.2 10 1 3.5 2 1 3.3-.4 1.2-1.5 3.5-3 7.3-2 3.6 1.3 7.4 5 7.6 5.3l-4.8-.8c-4.6-.7-8.6.5-11.5 1.4-3 1-5.4 1-8.5-1-3-2-3-6-3-7.5s-1.6-.7-2.2 0c-.6 1-4 5.8-1.3 11 2.6 5.4 8 6.3 13 6 5-.2 11.6-2.5 11.6-2.5s0 .8 3.5 4.2 8 4.3 11.4 4.3c3.3 0 6.2-2 6.2-2 2.2 2 3.5 5.4 3.8 8 .3 2 0 3.6 1.8 3.6 1.6 0 4.3-3 4.3-3l.5 3s-.2 7.6-.7 9c-.5 1.7-1.7 3.4 0 3.7 1.6.3 3.4-.3 4.3-.4 0 4-.8 6.5-3.2 9.6l-.5.8-2.8-1.3-18.3 21.5s6.5 7.6 6 24.5l-1.2-.3c-1.5-.2-2-1-3.7-2.7-1.5-1.5-1.6-3.8-3-4.7-1.7-1-6-.5-9.5-.6-3.5 0-7.5-1.4-8.2-4.8-.7-3.6 0-5.2 4.6-8 4.4-3 7.7-6.3 8-12.7.2-6.3-4-10.5-11.4-19S212 112 211 110s-1.6-1.2-2.4.3l-2 4s-2.3-1.4-8.4-12.3c-6-11-7.8-19.6-8.7-24.2-.5-3-1.7-1.6-2.6-.8-5-14-4.7-31.2-6-44.6 0 0-5 4.7-7.8 14-2.6 8.6-2.5 18.7-1.7 27.6.8 8.4 2.5 13.4 3.4 15.6 1 3.4-.7 1.4-.7 1.4s-4.3-7.4-7.2-21.4c-2.8-14-2.4-23.8-2.4-23.8s-1.7 1.4-3.7 5.4-4 11.8-3.4 26c.7 14.3 6 29.4 8.8 34.5 2.8 5.2.2 2-.8.6-1-1.5-6-9-8.4-16-2.4-6.7-7-20.7-7.2-23-.3-2-1.2-.7-2 1.2-1 2-3 8.2-3 12.7.2 4.5 1 12.4 4 20.3 3 8 8.6 16 11.4 19.3 2.8 3.4.6 1.7-.7.7-1.3-1 0 .2-5.6-6-5.6-6-12.7-20.2-13.7-22.4-1-2-2 .3-2 1.5-.2 1.2-1 8 3.4 19.8 4.3 11.7 15 20.8 20.6 24.6 5.6 3.8 1.5 2-1.3.2-3-1.7-8.6-5.6-12-8.6-3.7-3-10-10.7-11.7-12-1.8-1.4-2.2-1.8-2 3.7 0 5.5 4.7 14.5 10.7 20.5 6 6 13.7 8.7 16 9.6 2.5 1 .5.5-2-.2-2.4-.7-6.6-2-11.2-4.4s-11.2-7.8-13.4-9.5c-2.3-1.7-2 .6-1.3 3.7.8 3 2.5 8.6 11 15.6 8.7 7 21 10.5 24.4 11.5 3.6 1 1 1 1 1l-8.4-1.7c-7.2-1.6-18-7.2-21-9-2.8-2-3.2-2.6-2.8 1.3.4 4 4.5 12 11 16 6.6 4 18.5 5.8 21.6 6 3 0 2.3.6 1 .7-1.5 0-5 0-10.5-.6-4.6-.5-11.4-2.7-13.7-3.5l-.6-2.5c-.3-1.5-1-1.3-1.5-1l-2.4 1.5c-1.6.8-1.6-.2-1.7-.7 0-.5-.4-2.6-.4-3.7-.2-1-.8-1.2-1.5-.8l-5.8 2.4c-1.4.6 0 1.7.6 3l1.8 3.3-4.4 1.2c-1 0-.8 1-.5 1.7l2.5 5.6 1.4.5 3.3-2 1.2 4.5s-1.6.4-3.3 1.6c-1.7 1-1.3 2.7.8 3.3 2 .6 4.5 1.7 7.2 6.5 2.7 5 3.3 13.7 5 27.5C150.8 251 159.7 258 161 259c1 1 .4 1.6.4 1.6s-1.2 1.7-.7 4.4 3 4.3 4 4.7c1.3.4 1 1.6 1 1.6s-.7 3 0 8.4c.6 5.4 5 11.5 6.2 12.5 1 1 1.2 1.6 1 2-.2.4-1 0-2.4 1.2-1.5 1-3 2.7-4.2 4.6-1 2-.7 3-.3 5.7.4 2.6 4.2 5 4.2 5s-.6 0-.8 2c-.2 2 1.2 4 3 5.5 1.7 1.4 5 2 5 2l.4 3c.2 1 2.3 2 3.7 3 1.4.7 4 .2 5.2-.3 1-.6 2 0 2.6 1 .7 1.3.4 5.6.4 7.3 0 1.8-1 3.6-.4 4.5.6.8 2.3.2 4-.7 1.6-1 2-.2 3.5.8 1.4 1 3.8 1.8 4.4 1.7.6 0 .3-1.6.3-3s.3-4.2 1-4.6c.2-.3 2.7-.5 4.7-1.3 1-.4 2-.8 2-1.7.2-1-1-1-4-2.3-2.8-1.5-3.3-2.4-5-3.6-2-1-1-1.6-1-2 0-.6.8-1.2 1-2 .5-.6.3-2.2.3-2.2l2-2.2c.8-.8 1.7-2 2.7-2.8s2.4-4.5 3.3-5.7c1-1.2 3.2-2.5 4.5-4 1.3-1.8 4.7-4.5 6.7-5.8 2-1.3 7.4-3.8 7.4-3.8s0 3.2 1.4 4.8c1.4 1.6 3.2-1.2 9.3-5.6 6.2-4.3 11-6 11-6s1.2 2 2.8 4.2c1.7 2 3 0 10.7-10.5 6-8.2 13.7-15.7 16.8-18.6l1.7.8-.5 1.3c-.7 2.2-1.8 3.6-3.3 6.6-1.6 3-3.8 3.7-6.4 7.8-2.6 4-3 6.8-3.2 11-.2 4 2 5 2 5s-3.7 3.7-4.8 6.4c-1.2 2.8-1.8 8.4-1.8 8.4s-.6.3-2 3c-1.3 3-3.8 3.4-7.5 7-3.6 3.6-7.6 5.2-9.5 6.3-2 1-1.4 2.3-1 3.7.6 1.5 3.2 3 6.2 4 3 1.2 4 .8 6.2.7 2 0 .4 1.5-.5 2.4-.8 1-2 4-1.8 7.4 0 3.3 2.6 2.5 5.7 2 3-.5 6.7-2 6.7-2l-.3 1c-.3 1-.4 1.5-.4 4.2s.4 4 1.2 4.7c.8.7 2.3-.8 3.4-1 1.2-.5 3-1.6 5.8-2.2 2.8-.5 3.8-1.7 3.8-1.7s-.7.8-.8 2.7c-.2 2 0 4.8.3 6.4.4 1.7 1.6 3.7 3.5 5.4 2 1.7 2.4 1 3.8-1.2 1.3-2.2 4.2-5 4.2-5l2 7c2 6 8.2 11 8.2 11s6.2-5 8-11l2.2-7s2.8 2.8 4.2 5c1.4 2 1.8 3 3.7 1.2 2-1.7 3.2-3.7 3.6-5.4.5-1.6.6-4.5.4-6.4-.2-2-1-2.7-1-2.7s1.2 1.2 4 1.8c2.7.7 4.6 1.8 5.7 2.2 1 .3 2.7 1.8 3.5 1 .7-.6 1.2-2 1.2-4.6 0-2.7-.2-3.3-.6-4.3l-.3-1s3.6 1.6 6.7 2c3 .6 5.6 1.4 5.8-2 .2-3.3-1-6.3-1.8-7.2-1-.8-2.5-2.4-.4-2.3 2 0 3 .5 6-.6 3-1 5.7-2.5 6.2-4 .6-1.4 1-2.6-.8-3.7-2-1-6-2.7-9.6-6.3-3.6-3.6-6-4-7.5-7-1.3-2.7-2-3-2-3s-.5-5.6-1.6-8.4c-1.2-2.7-5-6.4-5-6.4s2.4-1 2-5c0-4.2-.5-7-3-11-2.7-4-5-4.8-6.4-7.8-1.4-3-2.6-4.4-3.3-6.6 0-.4-.2-.8-.4-1.3l2.2-1c3 2.8 11 10.4 17 18.6 7.4 10.6 9 12.8 10.5 10.7 1.7-2 3-4 3-4s4.7 1.4 10.8 5.8c6.2 4.3 8 7 9.4 5.5.7-.8 1-2 1-3.2 0 0 3.5 1 7.5 2.5 2.5.8 5.2 2 7.2 2.7 5.2 2.3 5.8 3.4 10 6.8 4.2 3.3 10.3 3 16 1.3 5.7-1.7 21-6.7 27-9.3 6-2.7 10.5-5 11-6.2.8-1.2 1.5-4.6 1.5-6 0-1-1.4-3-1.8-3.2-.4-.3-.3-1.3 0-2 0-1-.4-3.2-1.3-4.2-1-1-1-1.3-.8-4.3.3-6.3-4.2-14.2-10.5-16.7 0 0 0-.7-.6-1.2l-1.4-.8v-4.4c0-.8.4-.7.8-.5.5.4 1.2 1.2 2.2 1.5 1 .2 1.7-.5 2-1.7 0-1 1-3.4 1.3-4.6.4-1.2 0-1.3-.5-1.5l-2.8-.4c-.7-.2-.7-.2-.5-.6 0-.4.4-1 1.3-2.5 1-1.4 0-1.5-.8-1.8l-6-1.7c-1.2-.2-1.4.8-1.4 1.2v3.2c0 .8-.6.6-1 .4l-2.3-1.4c-.7-.6-1.3 0-1.6.8l-1.5 5.4c-.3 1-.2 2 .2 2 .4.2 2.4 0 3.6 0 1.2 0 .5.7.5.7l-1.7 3c-.4 1-1 1-2 1H424s-6.5.2-11.4 3.8c-4.8 3.6-6.2 6.6-7 8.4-.7 1.7-1.6 1.3-2.3 2-.8.6-3 2.8-3 4.2 0 1.3.6 2-1.5 3.5-2 1.2-3.8 7.2-1 10.3 3 3 4 6.2 5 7.7.7 1.5 0 2-1 2-.6 0-2.2-1-3.5-2l-10.7-8.3c-2.8-2-.7-2-.7-2s.6.2 2.2-.5c1.7-.7 2-1.6.3-2-1.6-.6-5-2.4-5.7-3.3-1-1-1.3-2 .3-2.8 1.8-1 5.4-3.2 2.6-4-3-.8-6.3-1.4-9-2.2-2.8-.8-3-1.5-3-1.5l1.7-2.6s1.5-2.2-.2-2.5c-1.7-.3-5.8-.8-9.6-2.4-7.6-3.2-12.4-8.8-14.2-15.6v-.2c1.6 2.8 5 8 10 8.2 6.7.2 7.5-2 6-4-1.7-2.4-3.4-4.4-4-5-.3-.7-.5-1.6 1.3 0 1.8 1.7 5.2 7.5 15.5 6.8 10.3-.7 10.3-2.7 10.3-3.3 0-2-2-2.4-3.4-3.6-.7-.6-1-1.6 1-.8s7 1.7 14 .3c2.8-.7 10-4 10.8-7.6 0 0-4.6-.2-8-1.6-3-1.4-5-2.5-1.6-1.8s10 2 16 0c3.3-1 7.7-4 7.7-9 0 0-6.4-1.2-8.7-2-2.4-1-3-1.6-3-1.6s9 3 17.2-1.3c8.2-4 8.5-9.7 8.5-11 0-1.4-.2-1.8-.2-1.8s-7.5 1.8-13 1.8c-5.6 0-7.4-.6-7.4-.6s15.7-.4 23.5-5.2c7.8-4.8 8.2-14.3 8.2-14.3s-9 3-14.5 3.7c-5.5.7-9 .7-10.3.6-1.4 0-2.2-.6 1-.7 3-.2 14.8-2 21.4-6 6.6-4 10.7-12 11-16 .5-4 0-3.2-3-1.3-2.8 1.8-13.6 7.4-20.7 9l-8.4 1.8s-2.5 0 1-1zM149 193l-3 2-1.6-3.4c-.3-.8-.2-1 .3-1 .4 0 1.7-.5 2.8-.6h.4c.2 1 .7 2 1.3 3h-.2zm96 56.3c-1.8 3.5-7 7.3-10.8 9-3.8 1.6-8 2-9.7 2.4-1.8.2-.3 2.3-.3 2.3l1.8 2.6s-.2.8-3 1.6-6 1.4-9 2.2c-3 .7.8 3 2.4 4 1.7.8 1.2 1.8.4 2.6-1 1-4 2.7-5.8 3.3-1.6.5-1.3 1.4.3 2 1.7.7 6.2 1.6 6.2 1.6l-3 2.2c-2.7 2-7.5 3.4-10.7 3.6-3.2.2-8.3.4-14.7 0l-7-.3-.8-5.4c-.4-3-2.3-7.5-3.8-9.6l-4.6-6.2.3-2c.3-1 .2-2-.6-4-.7-2-4.5-4.8-4.5-4.8l-.2-4c0-2-1.4-9.7-2.6-13.3-1.2-3.5-7-13-9.7-17.5-2.7-4.5-4.3-11.2-5.2-16.3-.8-5.2-.5-7-.2-8.3l.7-1.7c1 1.4 2.6 2.8 4.4 4 8 4.7 23.6 5 23.6 5s-1.8.6-7.3.7c-5.6 0-13-1.8-13-1.8s-.3.4-.3 1.7c0 1.3.4 7 8.6 11 8.2 4.3 17.2 1.4 17.2 1.4s-.7.7-3 1.5c-2.4.8-8.7 2-8.7 2 0 5 4.5 8 8 9 5.8 2 12.4.7 15.8 0 3.4-.7 1.5.4-1.7 1.8-3 1.4-7.7 1.6-7.7 1.6.7 3.7 8 7 10.6 7.5 7 1.3 12 .4 14-.4s1.7.2 1 .8c-1.2 1.2-3.3 1.6-3.3 3.5 0 .5 0 2.5 10.3 3.2 10.3.7 13.7-5 15.5-6.7 1.8-1.7 1.7-.8 1.2 0-.4.5-2.2 2.5-3.8 4.8-1.7 2.2-1 4.4 6 4 5 0 8.3-5.4 9.7-8.2v.3c.2 0 .3.2.4.3-.6 1.7-1.7 4.4-3 6.7zm83-222.7l-1.3-2.6s4 1.8 6.2 4.4c2.2 2.6 2 4 2.5 5.3.3 1.3 0 3.6-.4 5.8-.2 2.3-.2 3.6.2 4.4.5.7 1 1 1 1s-1.8.5-3.5 1c-1.6.8-3.7 1.4-5 .4-1-1-1.3-1.7-.6-2.3.8-.6 3.6-1.4 4-6 .3-4.8-2-9.6-3-11.4zm-21 13c1-2.4 1.2-4.5.5-9-.5-4-1.3-7.3-1.5-11.5 0 0 3 .8 7 4.5 4 3.8 5 7.6 5 9.5 0 2-1 4.2-1 6-.2 2 .4 3.5.4 3.5s-1.5.6-2.8 1.6c-1.4 1-2.3 1.6-4.4 1.5-2 0-3.3-1-4.5-1.7-1.2-.6-2-.7-2-.7s2.4-1.3 3.3-3.5zm-20-16c4-3.8 7-4.5 7-4.5-.3 4.3-1 7.6-1.6 11.5-.7 4.6-.3 6.7.6 9 .8 2.2 3.2 3.6 3.2 3.6s-.7.2-2 .8c-1 .6-2.4 1.6-4.5 1.7-2 0-3-.5-4.3-1.4-1.4-1-3-1.5-3-1.5s.8-1.6.6-3.5c0-1.8-1-4-1-6s.8-5.7 5-9.5zm-15 22.8c-1 1-3.2.4-4.8-.3l-3.4-1 1-1c.3-1 .3-2.2 0-4.5-.4-2.2-.7-4.5-.4-5.8.4-1.3.3-2.7 2.6-5.3 2.3-2.6 6.2-4.4 6.2-4.4l-1.4 2.6c-1 1.8-3.2 6.6-2.8 11.3.3 4.6 3 5.4 3.8 6 .7.7.4 1.4-.7 2.4zM327 86c-4 2-6.5 1.6-6.3 3.3.2 1.7 3.8 3 3.8 3s-3.7 4-6.6 5.7c-3 1.8-6.4 3-6.4 3s-1.2.2-.5 2c.8 1.8 2 3 2.8 3.6l1.4.6s-5 5.4-7.2 7.2-3.5 2.3-5.3 3c-1.8.8-1 3.8-.5 5 .4 1.4 2 3.2 3 3.5.8 0 1 .8 0 2.6l-5.2 7c-1.4-2-4.3-5.6-5.2-7-1.2-1.8-.8-2.5 0-2.7 1-.4 2.5-2.2 3-3.5.4-1.3 1.3-4.3-.5-5-2-.8-3-1.4-5.3-3-2.3-2-7.3-7.3-7.3-7.3l1.4-.6c1-.5 2.2-1.8 2.8-3.6.7-1.8-.5-2-.5-2s-3.4-1.2-6.3-3c-2.8-1.8-6.6-5.8-6.6-5.8s3.7-1.2 3.8-3c.2-1.6-2-1-6.2-3.3s-5.3-5.2-5.3-5.2 4.7-1.5 7-6.3c.8-1.6 1-3.2 1-4.4 7.6 2.6 16.4 3.6 24.3 3.6 7.8 0 16.6-1 24-3.5h.3c0 1.3 0 3 1 4.5 2.3 4.8 7 6.3 7 6.3s-1.3 3-5.4 5z"/><path fill="#c52126" d="M243.7 92.4c-1.5-1-5.8-2.8-10.4-3.2-4.5-.3-8 .3-11.8 1.4-2.7.7-5 .8-7 .2-3.3-.8-6-3.8-6.7-7.4 0 0-3 4 0 8 1.5 2 3.4 3.3 5.4 3.7 6.4 1.4 12.6-2.5 18-2.8 5-.4 9 3 9 3s1.2 1 3 0c1.6-1 2-2 .5-2.8zM392.2 83.4c-1 3.6-3.4 6.6-6.7 7.4-2 .6-4.3.5-7-.2-3.8-1-7.3-1.7-12-1.4-4.4.4-8.7 2.3-10.3 3.2-1.6 1-1 1.7.6 2.7 1.7 1 3 0 3 0s4-3.2 9-2.8c5.3.3 11.6 4.2 18 3 2-.5 3.8-1.7 5.3-3.8 3.2-4 .2-8 .2-8z"/><path fill="#d4af3a" d="M351.5 177.2c0-12.7 6-20.8 6-20.8l-16-18.2c-15.2 6-29 6.2-41.5 0-12.4 6.2-26.3 6-41.4 0l-16 18.2s6 8 6 20.8c0 12.7-2.6 22.2-4 28.3-1.4 6.2-2.7 17.7.6 26 3.3 8 6.8 15.3 21 21.2 14 6 21.5 9 26.4 13 5 4.2 7.4 7.5 7.4 7.5s2.5-3.3 7.4-7.4c5-4 12.3-7 26.5-13 14-6 17.5-13.2 20.8-21.4 3.3-8.2 2-19.7.6-26-1.4-6-4-15.5-4-28.2zM229.4 278.8s-5.2 2.4-6.8 2.8l-2 .5s-3.5 3.3-6 4.8c-2.8 1.6-6 2.7-9 3-4 .5-15 .4-20 .2s-8 1-10 3.4c-2.3 2.4-2.8 6 0 8.5s5.6 1.2 6.6-.4c1-1.7.5-3.7 0-4.7-.3-1 1-1.3 2.4-1.4 1.3 0 3.7 0 5.8.4 2 .4 6 1.6 7.5 2.5 1.5 1 .6 1-.5.8-1.2-.2-2.4-.6-4.4-1.4-2-.8-3.6-1.2-5-1.3-1 0-.7.7-.4 1 .2.5 1 1.6 1 2 .3.6-.3 2.5-.3 2.5l.6 1.2 1-1.8c.2-.7 0-1.8 0-2.4.4-.6 1.4-.6 2.3.4.8 1 1.7 2 2.2 4.4.4 2.4-.4 4-.4 4s1 1 1.3 1.5c.2.6-.3 2.8-.3 2.8s.7.5 1.3-.8c.7-1.4 1.4-3.7 1.6-4.5 0-.8.7-2.3 1.7-1.2s1.7 2.5 1.8 3.2l.2 1.3s2.3-2.2 3-3.5c.8-1.3 2.4-3 4.5-5 2-1.7 5.8-5.2 7.6-6.4l8-4.6c1.4-1 1.6-1 2-3.4 0-2.4 1.3-4.6 2-6.3l.6-2.3zM225.4 277l-1.5-.3c-1 0-3-.8-3.5-1-.5-.3-1.4-.3-2 .3-.5.6-5 3.3-5 3.3h7.5c2.6 0 4.4-2.4 4.4-2.4z"/><path fill="#d4af3a" d="M246.7 275.6v-.8l-1-2.2s-1 .8-2.3 2c-1.5 1.5-3 3.6-3.8 4.6-1.2 1.6-3 3-1.5.5 1.6-2.6 2-3.7 3.3-5.4 1.2-1.7 2.2-2.5 2-2.6l-4.3-.6c-3.2-.4-5-1.6-6.6-2.4-1.5-1-4-2.3-4-2.3s-5.5 2.3-7.5 2.8c-2 .6-3.4 1-1.4 2 2 .8 3.7 1 4.6 1.7 1 .6 4 1.6 5.8 1.6 1.8 0 5 0 3.7 1.3-1.3 1.3-2.6 3.7-4 7.4-1.2 3.7-1.3 7-1.3 8.6l.2 3.3s2.2-2.6 8.2-6.4c6-3.7 8.2-5 9.3-5.5 1.2-.4 1.7-.4 1.5-1.8l-.8-5.6z"/><path fill="#d4af3a" d="M269.5 257.5l-1-.5h-.4c-.6.4-4.2 3-5.7 5.2-1.5 2.4-3 2.6-1.3 0 1.6-2.6 2.8-4 4-5 .5-.6 1-1 1.3-1.2-3-1.4-6-3-9.2-5.3-.3.8-1 2.2-2 3-1 1.5-4 2.6-4 2.6s2.3-2.3 3-4c.6-1.2 1-2.4 1-3-2-1.8-4-3.7-6-6-.3 1.7-1.6 5.3-5 9.4-4.8 5.2-14.2 8-14.2 8s-3.3.2-.6 1c2.6.6 4.5 1.8 9.7 1 5-1 5.4-1.2 6-1.4.8-.3 2.7 0 0 1-2.5.8-8.5 1.7-10.8 1.5-2.3-.2-5.4-.7-2.2 1s4.7 2.5 6.8 2.5c2 0 2.8.7 4.8.7s2.5-.4 4-.7c1.3-.2 2.2.2 2.2.8 0 .7-2 2.2-1.8 6 0 4 .3 6.4.7 7.5.3 1.2 1.2 3 1.7 4 .6 1 .8 2 1.4 0 .5-2.4 1.8-5.6 2.3-7.7.6-2.2.8-2.3 1-3.4.3-1 1.4-2 1 0-.7 2-1.3 4.7-1.7 6.5-.4 1.7-1.4 5 .3 2.4 1.6-2.6 8-9.7 9-11 1-1.2 2-2.4 2.6-3.4.8-1 3-2.5 4-4 1-1.4 3.7-4 5-5-1.8-1-3.7-1.7-5.7-2.5zM147.2 186.6c0-.4-1-2-1-2.6-.3-.8-1-.3-1-.3s-1.7 1-3 1.2c-1 .3-1.3-.2-1.4-.8 0-.7-.4-2.6-.7-4 0-1.4-.4-1.3-1-1-.4 0-2 .7-3 1-1 .6-.6 1-.3 1.7.4.5 1.6 3 2 3.8.7 1 0 1.3-.5 1.6-.6.3-1.5.4-2.8.8-1.2.4-1 .7-1 1 0 .6 1 2.3 1.4 3 .5 1 1 .3 1 .3s1.2-1.2 2.3-1.7c1.3-.6 1.3-.4 1.6.4.3 1 1.6 5.3 2 6 0 1 .6 1 1 .6l2.2-.6c.7-.2 1-1.5 1-1.5l-3.2-5.6c-.7-1 0-1.3.5-1.4.6 0 2-.3 3.3-.6 1.2-.3 1-1 1-1.4zM175 307.3c-.2-1 0-2-.8-3-.8-.8-1.8-2.4-2.2-3.7-.4-1.4.3-2 .2-2.7 0-1-1-1-2 0-1 .7-2.5 1.5-2.5 4 0 2.3 1 5 4.2 6 3.3 1 3.2.4 3-.7zM178.4 306.2s-.7-.5-1 .2c-.3.6-.2 1 .6 2.3 1 1.4 1.5 1.7 2.5 2.3 1 .6.3-.6.2-1-.2-.4 0-1-.3-1.2-.2-.3-.4-.7-.4-1.7s-1.6-.8-1.6-.8z"/><path fill="#d4af3a" d="M182.5 317.5c.6-1 1.2-1.2 2.7-2s4.2-1 5.2-1 3-2 2.7-3.8c-.2-2-1.6-2.6-2.7-3-1.2 0-2.3 0-2.7.4-.4.7-1 1.4-2.4 2-1.3.3-1.5.8-2.3 1-1 .3-.3.8-1 1.3-.7.6-1.6 0-2.7-.3-1-.3-1-.5-2.3-.6l-4.3-.2h-.8c-.8 0-1 0-1.2.8-.3.8 0 2.7.8 3.6.8 1 3.2 1.4 5 2 1.5.4 2.3.6 3.7.8 1.4.3 1.6 0 2.2-1zM197.7 319c1.3-1 .6-2.4.3-3.3-.3-1-2.2-1.2-3-1.2-1 0-1.5 0-2 .5s-1.2 1-2.6 1.5c-1.4.4-2.5 1-4.3 1.7-1.8.7-2.4 2-3.2 2.5-.8.5-2.4 0-2.4 0s-1-.3-1.5 0 0 1 .7 1.8 2.2.7 3.8 1.2c1.6.5 2 0 2.6-.3.7-.4 1.2-1.4 2.3-2 1-.8 3.6-1 4.8-1 1.3 0 3.4-.5 4.7-1.4zM197.7 313.3c.6.5 1.2 1.2 1.7.4.5-1 1.3-2.6.8-3.6l-1.3-1.8s-1 3-1.5 3.7c-.4.7-.3.8.2 1.3zM192.6 304.6c0-1.6-1-3.6-1-3.6s-.5 1.5-1.2 2.8c-.6 1.3-1.3 2-1.3 2s1.7.4 2.3.4c.6 0 1.3 0 1.3-1.6zM183.2 308c1.8-.3 2.7-1 3.5-1.6.7-.7 1.2-2.4.7-3.2-.5-1-1.8-2-2.3-2h-.8s-.5 1.8-1.2 2.6-1.5 1.4-1.5 2.4 0 2.2 1.7 2zM186.8 300c0-.7-.2-1.6-.8-2.2l-1-1-.2 2c0 .7-.2.8-.2.8s.5.5 1 .7c.4.2 1 .6 1.2-.2zM165 255.5s2.2 0 1.3-7.4c-1-7.3-4.7-14.4-7.8-19.2-3-4.8-6.2-12.5-7.6-16.5-1.5-4-2.4-9.6-2.4-12.5 0-3 1.2-4.4 1.2-4.4s.6-.8 0-1.3c-.4-.4-1.2 0-2 1-.8.6-1.6 2-2 3l-.3 1.5s-1.5-.3-4 0c-2.6 0-3.8.3-4 .8 0 .6.5 1 2.3 1.8 1.8 1 3 1.2 4 2.3.8 1 3 6.5 3.8 9 .7 2.7 2.2 9.8 3 15.4.5 5.5 2.4 12.3 5 18 .8 1.8 5.6 10.5 9.5 8.8zM169.7 268.5c-1.7 1-1.6 8-1 11.6 1 3.8 4.5 8.3 5.5 9.5 1 1.2 1.4 1.2 2 1 .5-.4.8-.4.8-.4s1.5-.4 2.6-1.3c1.2-1 .7-3.2.5-5 0-2-1.6-6-4.4-10.7-2.8-4.5-4.2-5.4-6-4.5zM171.6 262.8c0-2.2-2-4-4.2-4-1 0-2 .3-2.7.8-2.3 2-1 7.3 2.5 7.3 1.2 0 2.6-.3 3.5-1 .7-1 1-2 1-3.2zM204.8 328.7c-1 0-1.5-.5-2.8-1.4-1.4-1-3.5-2.8-4-3.7-.3-1-.3-1-1.6-.6-1.3.5-3 .4-4.5.5-1.5 0 0 1.6 1 3 1 1.5.7 6.4.7 6.4l-.2 1c-.2.7 0 1.2.3 1.4.4 0 .6-.2 1.6-1.3 1-1 2.7-4 2.7-4l2 .4c1.4.4 3.8.2 5-.2 1.3-.4.7-1.3-.2-1.5z"/><path fill="#d4af3a" d="M199 332.5c-.6 0-1-.2-1.2.3l-.8 1.6c0 .5 0 .8.3 1.2l1 .7s.5.6 1 .8c.5.4.6-.4.6-1l.3-2.4c0-.7-.6-1-1.3-1zM182.6 96c0 4 4.4 11.3 6.8 15.2 2.4 4 3 5.5 2.7 5.8-.3.2-1.3-1.8-2.7-3.5l-6-9-5.8-11c-.5-.8-.6-1.2-1.7-.4-1 1-3.2 9-.7 14.6 2.6 5.5 6.4 9.6 8 11.5 1.6 2 3.7 5 3.3 5.3-.3.2-1-.5-2.8-2.5-2-2-5-5.5-7.2-8-1.7-2-4-6.2-4.8-7.7-.3-.4-.7-.3-1 0-.7.7-1.8 2.3-1.3 6.7.6 6 3.8 9.7 6.7 12.8 2.7 3 5.6 5.7 5 6-.3.5-3.2-2-5.2-4s-7-6.7-8-8c-1-1.4-2.7-.7-2.6 4.5 0 5.3 6 10.7 8.3 13.6 2.5 3 5.5 4.7 5.2 5.3-.2.5-2.7-1-4.3-2-1.5-1.2-7.5-5-8.6-6-1.2-.7-1.8.8-.3 6 1.5 5 6 9 8.4 10.8 2.5 1.8 6.7 4 6.5 4.6-.3.6-2 0-4.5-1.3-2.4-1-5.3-2.2-7.4-2.7-2-.6-2 1-2 1s-.5 4 2.6 7.6 6.6 4.7 10 5.2c3.3.6 3.8.8 3.7 1.3-.2.5-.5.6-1.3.6-.7 0-3.8.4-6.7.4s-4.3.7-4.3 2 0 3 4.2 5.7c4 3 9 3.4 11 3.8 2 .4 2 .6 1.6 1.2-.4.6-1.4.5-4.5.8-3 .4-5 1.6-5.5 2.5-.4.8.3 3.3 3 5 2.5 1.8 5.8 2.4 10.8 2 5-.3 6.3-.3 6.5.5.2.8-1.5 1-4 1.5-2.5.4-4.5.4-6 1.6-1.3 1-.2 3.5 2.2 5.3 2.4 1.7 8.5 1.7 11 1.5 2.5 0 6.3-1 6.6-.4.2.7-2 1.7-4.5 2.6-2.5 1-3.2 1.5-3.7 2.6-.5 1 0 2 3 3.3 3 1 7.6 1 10 0 2.3-1 3.5-1.5 4-1 .4.3 0 .7-.5 1.3-.5.6-2.5 2.2-5 3-2.7.5-3 .5-4 2.6-.8 2 1.5 3.7 6.2 4 4.7 0 11-1.8 13-3s2.7-1.4 3-1c.4.4.3.7-.7 1.4-1 .8-4.2 3-5.8 3.5-1.5.3-1.7 1.5-1.7 2.5s-.4 3.3 3.7 4.3c4.2 1 9.2.3 13.7-3 1.4-1 2.3-1.8 2.8-2.5-.4-4.3-.2-7.2.3-10-1 0-2.6-.3-4.3-1-2.5-1-3.5-3.3-4-4.6-.7-1.2-1.5-1.2-2.5-1-1 .4-2 .8-3.4.8s-4.4-1-6.6-3.5c-2-2.6-1.7-5-1.8-6.3 0-1.3-2-.4-3-.4s-4-.4-6.7-2.2c-2.8-1.8-2.8-4.3-3-5.3-.3-1-1.4-1.7-2.2-2-.8-.3-2.2-.7-4-2.2-2-1.5-2.5-4.4-2.6-5.4 0-1-1.2-1-5-3s-3.4-6-3.2-7.5c.2-1.6 2-3 2-3.5 0-.6-1.3-.8-2.6-1.5-1.2-.8-4.4-2-4.5-6.7-.2-4.7 3-5.2 3-5.2l-2-1c-1.2-.8-4.6-3-4.6-6 0-2.6 1.2-4 2.2-4.6 1-.6 3.4-1.3 3.4-1.3s-1.6-1-2.3-3.2c-.6-2.2-1-4.8.7-6.8 1.6-2 4.3-2 5.7-2 1.5 0 2.8 1 3.3.4.5-.3.5-.6 0-1.7-.5-1-.5-3.8 0-4.7.3-1 .4-2.8 4-4 3.6-1 7.3 1.3 8.5 2 1.2.7.7-1 .7-2 0-1.3-2.4-4.2-5.2-8.4-2.8-4.2-4-6.4-7-12.7C191 89 189 81 188.6 78.8c-.5-2-1.3-1-1.3-1s-.8.2-2.8 5c-2 5-2.2 9.4-2 13.3z"/><path fill="#d4af3a" d="M245.7 181.7c-2.2 0-5-1.3-7-4.4-2.3-3-5.5-4-11-3.8-5.7 0-8.3-2.6-9.7-6.5-1.4-3.8.2-8.3 6-11 5.6-3 8.2-6 8.4-11 .2-4.7-5.7-10.8-11.6-17.6-6-6.7-10.6-16.4-10.6-16.4s-1.7 2.3-1.7 4.6 1 4.6 0 5.3c-1 .5-1.2-1-4.6-2.6-3.6-1.5-6.4-1.7-8.5.7s0 7 2 9c1.8 2 3.5 3.5 3 4.3-.6.8-3.5-1.2-4.5-1.8-1-.7-3.2-3.2-6.6-2.8s-4.5 1.3-4.8 4c-.3 3 3 5.3 5 6.4 2.3 1.2 3.2 2.2 2.6 2.6-.5.4-1 0-2-.3s-3.7-.7-5.4 0c-1.7.6-4.5 3-2 6 2.6 2.8 8 4 9 4 1.2.3 1.7 0 1.8 1 0 .7-2.2.7-5 1s-4 2.8-3.5 5c.5 2 5.4 4.5 8 5 2.8.3 3.7 0 4 .6.2.7-.4 1-2 1.5-1.4.4-4.3.7-4.8 3-.6 2.5-.7 3.5 1.6 5.6 2.3 2 6 1.8 7 1.6 1-.2 2.4-1.4 3.4-.3 1 1-1 2-2.8 3.2-1.8 1.3-1.7 3.8 1.4 5.5 3.2 1.7 6.3 1 7.6.7 1.3-.5 3-2.5 4-1.2.7 1.3-2.8 1.7-4.3 3.5-1.5 2-1 5 2 6.7 3 2 8 .6 9-.2.8-.7 2-1 2.5-.4.7.7-.3 2.5-1 4-.6 1.5-1.8 6 2.7 7.6 4.6 1.7 8.7-2 9.4-3 .8-.6 1.5-.8 2.2-.4.6.3.3 1-.2 1.7-.6.7-1.8 4 1.5 6.2 2.3 1.5 4.7 1.4 6 1.2l2.4-9h-.6c-.5 0-.6.6-.6 1s.2.3-.2.3-.5.2-1 .6c-.6.4-1 1-1.4.7-.3-.2 1.2-1 1.6-1.5.3-.5 1-1.2 1.2-1.7 0-.5.3-.8 1-1.5l.6-.6 1.5-9 .6-7h-1.3zM153.6 114.5c4.8 9.7 11.6 15.2 11.6 15.2s-1-2.4-1.3-4c-.5-1.8-.2-3.6-.2-3.6s-1.7-2-4.8-7-5-12-5-12 3 7.2 5.4 11c2.2 3.8 5 7 5 7s.8-3.5 1.4-3.7c.7 0 1.2.4 1.7 1 .6 1 1 .8 1 .8s-.7-1.5-2-3.4c-.4-1-1.2-2-1.8-2.7-1.8-3-5.6-8.4-7.6-13.7-2-5.4-6.3-19-7-23-.8-4-1.5-1.7-2.3 1.2-.7 3-1.8 7-1 13.3.6 6.3 2 14 7 23.7zM159.8 140.8l4.4 3s-.4-1-.6-2c-.3-1.3-.4-3.7-.4-3.7l-3.6-3c-1.5-1.3-3.3-3-7-7.5-3.6-4.5-.7-1.8 2.3 1.5 3 3.2 8.6 8 8.6 8v-1c0-1 .3-1.8 1-2.5.4-.7 0-.8-3-3.2-3.3-2.5-11.6-12-15-17.4-3.4-5.7-7-13.3-7-13.3s-2 11.2 5 23.5c6.7 12.3 13.4 16.2 15.2 17.6zM195.5 211c3.7-1.3 2.7-5 2.7-5l-4.4 1.4c-2 .8-7.3 2.3-9.3 2.4-2 0-2-.2-2-.5-.2-.3 1.4 0 4.4-.6 2.8-.5 8-3.2 9-3.8.8-.7.7-1-.7-1-1.3 0-2.4-.7-3-1-.4-.5-1.8 0-5 .8-3.5.8-10.5 2-15.8 2-5.3 0-10.3-1-11.2-1-.8-.2-1.7.2 1 4.6 2.5 4.3 11.5 6.7 17.8 6.6 6.4 0 12.7-3.4 16.5-5zM178.7 202.2c6.5 0 9-2 9-2s0-.2-1-1.6c-.8-1.3-.7-3.5-.7-3.5l-4.2.7c-2.7.4-6 .8-9.3.2-3.5-.7-2-1 .7-.8 2.8.4 8-.6 9.8-1.2 1.7-.7 1-1.2-.2-1.6-1-.4-4.3-2.4-4.3-2.4s-7.8 1-15.2.2c-7.3-.8-12-2.7-13.4-3-1.6-.2-1.6.5-1.6.5s-.4.6 2.2 4.6c2.5 4 7.5 6.6 11.7 7.8 4.2 1.3 10 2 16.4 2.2zM177 187s-.2-.4-.6-1.8c-.4-1.3.7-2.3.7-2.3s-1.4-.5-6.2-1c-5-.7-5.2-1-8.2-1.8-3-.7-5-1.5-5-2 .2-.2 1 .3 3 1 1.7.6 9 1.4 12.2 1.8 3.2.5 5 .8 5.5.5.6-.4 2.5-1 2.5-1l-3-.5c-1.6-.3-3-1-4-1.6-1-.6-1.2-.8-5-1.2-4-.5-7.3-1.7-14.4-4.3-7-2.7-12.5-5.8-14-7-1.4-1-1.2-.3-1 1.2.5 1.5.5 3.3 4 7.5 3.6 4.2 5.4 6 14.4 9.4 9 3.4 19.2 3 19.2 3zM150.3 165c8 5.5 17.4 7.6 19.4 8 .4-.7-.5-2.5 0-3.7.4-1.3 1.3-1.4 3.2-1.5 1.8 0 .6-.5 0-.5l-3.6-.8c-3.2-1-6.5-1.4-11-3-4.3-1.7-5.6-3-5.5-3.2 0-.4 2 1 6 2.6 4 1.4 8.8 2 11.4 2.6 2.6.5.4-.6-1-1.3-1-.7-2.8-3.4-2.8-3.4s-2.8-.6-7.5-2c-4.6-1.4-8.5-3-12.4-5.2-1.4-.8-2.7-1.8-4-2.8l-6.5-4.6c-1.5-1.2-1-.3-1 .5.3.6 1.4 4 4 7.5 2.5 3.7 3.3 4.8 11.3 10.4zM149 149c8 6.3 14.6 8.2 15.8 8.7 1.2.5 1 0 .8-.8l-.4-3-6-3.3c-3-2-6.5-4.3-8.8-6-2.4-1.5-1-1.4-.3-.8l7.2 4.3 8 5s.2-1 1-1.8c.5-.7 2.2-.5 2.2-.5s-.8-.8-1.3-1.6c-.4-.8-3-1.6-6-3s-8-5.2-12-8.5c-3.8-3.4-11.3-11.5-11.8-12.2-.5-.7-.8-.5-1 .3 0 1-.2 1.5.6 5.2.8 3.8 4.3 11.6 12.2 18zM177 90c.8 2 1.8 3.3 2.5 4.5l1.6 3s.3-.6.2-1.7-.4-2.6 0-4.4c0-1 .3-2 .2-2.8 0-1-.3-2-.5-2.4-.3-1-1.5-5.7-2-9-.6-3.2-1-7.8-1-12 0-4 .5-2 .5 0s.2 5 1 9.7c.5 4.6 2.5 11.8 2.5 11.8s0-1 .7-2.7c.6-1.5 1.6-3.2 2.3-5.2.8-2 .5-2.2.5-2.2S182.7 63.3 182 57c-.7-6.2-2-22.7-2-22.7-4 4-7 14.8-7.5 25-.4 7.6.8 14.7 1.2 17.6.7 5.5 1.7 10 3.2 13zM168 111c0-3 .7-5.3 2.7-6 0 0-1.8-3-3.3-7.3-1-3-1.8-6.6-2.3-9.5-1-7-1.8-14.4.4-2.5 2 12 4.6 16.2 4.6 16.2l3 5c-.4-2.3-.4-3.8-.3-6.2s.4-5.6 1-8.2c0 0-3.6-7.4-6-16.3-2.2-9-3.6-17-3.6-21.8 0-4.7-.2-6.5-.2-6.5s-3.8 3-5 17.4C157.3 80 161 93.8 163 99c2 5.4 5 12 5 12zM209.5 221.7L207 220c-1.7-1-1.2-4.4-1.2-4.4l-1.8 1.2c-1.3 1-2.8 2-4.6 2.7-1.8.7-2.7 1.2-4 1.5-1 .4-.7 0 .2-.6 1-.6 1.3-1 3.7-1.8 2.4-1 7.2-5.2 7.2-5.2l-3-.2-4.6-1s-2 1.7-10 5.2c-8 3.4-15 4.3-15 4.3s1 4 4.8 5.5c3.2 1.4 7.6 2.2 16.2.2s14.5-5.7 14.5-5.7zM220 230c.6-3.5-1.3-5.8-1.3-5.8l-1.6 1.3c-1 1-2.8 3-6.2 4.8-3.4 1.7-4.6 1.6-1.3-.2 3.2-1.6 8-6.6 8-6.6l-1.3-.4c-1.3-.5-3.4.3-12.4 5.7-9 5.5-14.3 5.6-14.3 5.6s4 5 15 4.5c11-.3 14.8-5.5 15.5-9zM240.6 226s-1.2 1.7-2.8 2.7c-1.6 1-6 1.8-6 1.8s0 .5-1 1.6c-.8 1-2.7 3.7-4.6 5-2 1.5-5 2.4-5 2-.3-.3 1.7-1 3.5-2.2 2-1 3.6-3.2 4.8-4.7 1.3-1.3-.5-1-.5-1s-2.3 0-4.4-.2c-2-.2-1.7 0-2.3 1s-1.4 2-3 3.7l-5.5 6.4c-1.2 1.4-.3 1.8-.3 1.8s.5 1 5.4 1.4c3 .4 6.2 0 9.6-2 2-1.2 4.3-3.2 6.5-5.6 6-6.4 5.6-11.6 5.6-11.6zM243.2 239.2l-1.8 2.2s.8-2.6 1.5-3.8l1-1.7c-.8-2-1.4-3.8-2-6-.5 1.8-2 7-4.2 10.2-2.5 4-4.7 5.4-3.3 6.5 1.5 1 4.3 1.4 7.5-.2 3-1.5 4-4.2 4.4-6.3l-1.6-2.6c-.4.2-1 .7-1.6 1.5zM426 151.8c2.6-2 7-6 8.5-11s1-6.5-.3-5.7c-1 1-7 4.8-8.7 6-1.5 1-4 2.5-4.2 2-.3-.7 2.7-2.5 5.2-5.4 2.4-3 8.2-8.3 8.3-13.6 0-5.2-1.5-6-2.6-4.6-1 1.4-6 6-8 8s-5 4.6-5.3 4.2c-.6-.4 2.3-3 5-6 3-3.2 6.2-6.8 6.8-13 .5-4.3-.6-6-1.3-6.6-.3-.3-.7-.4-1 .2-.8 1.4-3 5.6-4.8 7.6-2 2.5-5.3 6-7.2 8-2 2-2.5 2.7-2.8 2.5-.4-.3 1.7-3.3 3.3-5.2s5.4-5.8 8-11.4c2.4-5.5.3-13.6-.8-14.5-1-.7-1.2-.3-1.7.4-.4.7-3.6 8-5.7 11l-6 9c-1.5 1.8-2.5 4-3 3.6-.3-.3.4-1.8 2.8-5.8s6.7-11.3 6.8-15c.2-4 0-8.4-2-13.3-2-5-2.8-5.3-2.8-5.3s-1-1-1.3 1c-.4 2.2-2.4 10.4-5.5 16.8-3 6.3-4.3 8.5-7 12.7-3 4.2-5.3 7-5.3 8.3s-.5 2.8.7 2c1.2-.6 5-3 8.5-1.8 3.6 1 3.7 3 4 4 .5.8.4 3.5 0 4.6-.6 1-.5 1.4 0 1.8.5.6 1.8-.2 3.2-.2 1.3 0 4 0 5.6 2 1.6 2 1.3 4.5.7 6.7-.7 2.2-2.3 3.2-2.3 3.2s2.5.7 3.4 1.3c1 .7 2.2 2 2.2 4.7 0 2.8-3.4 5-4.7 6l-2 1s3.2.4 3 5c0 4.8-3.2 6-4.4 6.8-1.3.7-2.5 1-2.5 1.5s1.8 2 2 3.5c.2 1.6.5 5.6-3.3 7.6-3.7 2-4.8 2-5 3s-.7 4-2.5 5.5-3.2 2-4 2.2c-.8.3-2 1-2.2 2-.2 1-.2 3.5-3 5.4-2.6 2-5.5 2.3-6.5 2.3s-3-1-3 .4c-.2 1.2.2 3.7-2 6.3-2 2.6-5 3.4-6.6 3.5s-2.5-.4-3.5-.7c-1-.3-1.8-.3-2.4 1-.5 1.2-1.5 3.5-4 4.5-1.7.7-3.4 1-4.3 1 .5 2.8.7 5.7.3 10 .5.7 1.4 1.6 2.8 2.6 4.5 3 9.5 3.8 13.6 2.8 4.2-1 3.8-3.2 3.8-4.3 0-1-.2-2.2-1.7-2.6-1.6-.6-4.8-2.8-5.8-3.6-1-.7-1-1-.8-1.4.3-.4 1-.2 3 1s8.3 3 13 3c4.7-.3 7-2 6-4-.8-2.2-1-2.2-3.7-2.8-2.6-.7-4.6-2.3-5-3-.6-.5-1-1-.6-1.3.4-.5 1.7 0 4 1 2.4 1 7 1 10 0 3-1.3 3.5-2.3 3-3.4-.5-1-1.3-1.6-3.8-2.6-2.7-1-4.8-2-4.6-2.6.3-.6 4 .3 6.6.5 2.5 0 8.6 0 11-1.7 2.4-1.8 3.5-4.2 2-5.4-1.3-1.3-3.3-1.3-5.8-1.7-2.5-.4-4.2-.7-4-1.5.2-.8 1.4-.8 6.4-.4 5 .3 8.4-.3 11-2 2.6-1.8 3.3-4.3 3-5-.6-1-2.5-2.2-5.7-2.6-3.2-.3-4.2-.2-4.6-.8-.4-.6-.3-.8 1.7-1.2 2-.4 7-.8 11-3.7 4.4-2.7 4.3-4.4 4.3-5.6 0-1.3-1.5-2-4.3-2-3 0-6-.3-6.7-.3-.8 0-1 0-1.2-.5 0-.5.5-.7 4-1.3 3.2-.5 6.7-2 9.8-5.3 3-3.5 2.7-7.8 2.7-7.8s0-1.5-2-1c-2.2.6-5 1.7-7.5 3-2.5 1-4.2 1.8-4.5 1.3-.2-.6 4-3 6.6-4.7z"/><path fill="#d4af3a" d="M415.2 140.3c-1.7-.7-4.4-.3-5.4 0s-1.5.7-2 .3c-.6-.4.3-1.4 2.5-2.5 2-1 5.4-3.4 5-6.2-.2-2.8-1.4-3.8-4.7-4-3.4-.5-5.6 2-6.6 2.7-1 .6-4 2.6-4.4 1.8-.6-.7 1-2.3 3-4.3s4-6.4 2-9c-2.2-2.3-5-2-8.5-.6-3.3 1.5-3.6 3-4.5 2.5-1-.8 0-3.2 0-5.4s-1.7-4.6-1.7-4.6-4.6 9.7-10.6 16.4c-6 6.8-11.8 13-11.6 17.7.2 5 2.8 8 8.5 11 5.8 2.7 7.4 7.2 6 11-1.4 4-4 6.6-9.6 6.5-5.6 0-8.8.7-11 3.8-2 3-5 4.3-7 4.4h-1.5c0 2.2.2 4.5.5 7 .4 3.5 1 6.4 1.5 9 0 .2.3.4.6.6.7.7 1 1 1 1.5s1 1.2 1.2 1.7c.4.5 2 1.3 1.6 1.5-.3.2-.8-.3-1.4-.7-.5-.3-.6-.6-1-.6s-.2-.2-.2-.4c0-.3 0-1-.6-1h-.6l2.4 9c1.3.3 3.7.4 6-1 3.2-2.4 2-5.6 1.4-6.4-.5-1-.8-1.5-.2-1.8.7-.4 1.4-.2 2.2.5.7.8 4.8 4.6 9.4 3 4.5-1.8 3.3-6.2 2.6-7.7-.6-1.5-1.6-3.3-1-4 .7-.6 1.8-.2 2.7.5 1 .8 6 2 9 .2s3.5-4.8 2-6.7c-1.6-1.8-5-2.2-4.3-3.5 1-1.3 2.6.7 4 1.2 1.2.4 4.3 1 7.5-.7 3-1.7 3.2-4.2 1.4-5.5-2-1.3-4-2-2.8-3.2 1-1 2.3 0 3.4.3 1 .2 4.7.5 7-1.5s2.2-3 1.6-5.4-3.4-2.7-5-3c-1.4-.6-2-1-1.8-1.7.3-.8 1.2-.4 4-.8 2.6-.4 7.5-2.8 8-5 .3-2-.5-5-3.5-5-3-.2-5.2-.2-5-1 0-1 .5-.6 1.6-.8 1.2-.2 6.6-1.3 9-4.2 2.7-3 0-5.3-1.8-6zM434.8 129.7s6.8-5.5 11.6-15.2c4.8-9.8 6.3-17.4 7-23.7.7-6.2-.4-10.4-1-13.3-1-3-1.6-5-2.4-1-.8 3.8-5 17.4-7 22.8-2 5.3-6 10.7-7.7 13.6l-2 2.6c-1 2-2 3.5-2 3.5s.6.2 1.2-.6c.5-.7 1-1.2 1.7-1 .6 0 1.5 3.5 1.5 3.5s2.7-3.2 5-7c2.2-3.8 5.2-11 5.2-11s-1.8 7.2-5 12c-3 5-4.8 7-4.8 7s.3 2 0 3.6l-1.4 4zM460.5 99.7s-3.7 7.6-7 13.2c-3.5 5.4-11.8 14.8-15 17.3-3.2 2.4-3.5 2.5-3 3.2.6.7 1 1.4 1 2.4v1s5.6-4.8 8.6-8c3-3.3 6-6 2.4-1.5-3.7 4.6-5.5 6.2-7 7.5l-3.6 3s0 2.5-.4 3.7c-.2 1.2-.6 2.2-.6 2.2l4.4-3.3c1.8-1.3 8.5-5.2 15.3-17.5 6.8-12.3 5-23.5 5-23.5zM427.5 59.3c-.6-10.2-3.6-21-7.6-25 0 0-1.3 16.5-2 22.8-.7 6.3-3.5 19.6-3.5 19.6s-.3.3.5 2.2c.7 2 1.7 3.7 2.3 5.3.6 1.7.7 2.8.7 2.8s2-7.2 2.6-12c.7-4.5 1-7.6 1-9.6s.5-4 .5 0c0 4.2-.4 8.8-1 12-.5 3.3-1.7 8-2 9 0 .5-.4 1.4-.5 2.4 0 .8.2 1.8.4 2.8.2 1.8 0 3.3-.2 4.4v1.7l1.7-3c.7-1.2 1.7-2.6 2.6-4.4 1.6-3 2.6-7.5 3.3-13 .3-3 1.6-10 1.2-17.7zM437 99c1.8-5.2 5.6-19 4.3-33.6-1.3-14.5-5-17.4-5-17.4l-.4 6.5c0 4.8-1.5 13-3.8 21.8-2.3 9-6 16.3-6 16.3.7 2.6 1 5.8 1 8.2.2 2.4.2 4-.3 6l3-4.8s2.5-4.3 4.6-16.3c2.2-12 1.3-4.6.2 2.5-.4 3-1.2 6.6-2.3 9.5-1.4 4.3-3.2 7.3-3.2 7.3 2 .7 2.7 3 2.8 6 0 0 3-6.6 5-12zM439.7 204.7c-1 .2-6 1-11.2 1-5.3 0-12.3-1-15.7-2-3.3-.6-4.7-1.2-5.2-.8-.5.3-1.6 1-3 1-1.3 0-1.4.3-.5 1 1 .5 6.2 3.2 9 3.7 3 .5 4.7.3 4.6.5 0 .4 0 .6-2 .6s-7.3-1.6-9.4-2.4l-4.4-1.5s-1 3.7 2.7 5c3.8 1.6 10 5 16.4 5 6.2 0 15.2-2.3 17.8-6.6 2.6-4.4 1.7-4.8 1-4.7zM450 187.3c-1.3.2-6 2-13.3 3-7.3.7-15.2-.3-15.2-.3s-3.2 2-4.3 2.4c-1.2.4-2 1-.2 1.6 1.7.6 7 1.6 9.8 1.2 2.7-.3 4.2 0 .7.7-3.4.5-6.6 0-9.3-.3l-4.2-.6s0 2.3-.7 3.6l-1 1.7s2.5 2 9 2c6.5-.2 12.2-1 16.4-2.2 4.2-1 9.2-3.7 11.7-7.7 2.6-4 2.2-4.6 2.2-4.6s0-.7-1.5-.4zM459.5 166c-1.4 1.2-6.8 4.3-14 7-7 2.5-10.2 3.7-14.2 4.2-4 .4-4.2.6-5 1.2-1 .6-2.5 1.3-4 1.6l-3 .6s1.8.5 2.4 1c.5.2 2.3 0 5.4-.6 3.3-.4 10.7-1.2 12.5-2 1.8-.5 2.7-1 2.8-.7 0 .4-2 1.2-5 2-3 .6-3.2 1-8 1.6-5 .5-6.4 1-6.4 1s1 1 .6 2.2l-.6 1.7s10 .4 19-3c9.2-3.2 11-5 14.5-9.3 3.6-4.2 3.6-6 4-7.5.3-1.5.4-2.3-1-1.2zM464 146.4l-6.5 4.6-4 2.8c-4 2.2-8 3.8-12.6 5.2-4.8 1.4-7.6 2-7.6 2s-1.7 2.6-3 3.3c-1.2.7-3.4 1.8-.8 1.3 2.6-.6 7.3-1.2 11.4-2.7 4-1.7 6-3 6-2.7.2.3-1 1.5-5.5 3.2-4.4 1.6-7.7 2-11 3-3 .8-3.2.8-3.6.8-.6 0-1.8.4 0 .5 2 .2 3 .2 3.4 1.5.4 1.2-.5 3 0 3.6 2-.4 11.3-2.5 19.3-8 8-5.7 8.8-6.8 11.4-10.5 2.6-3.6 3.7-7 4-7.6 0-1 .5-1.8-1-.6zM434 151.5c.6.7.7 1.7.7 1.7l8-5c3.2-1.8 6.4-3.7 7.2-4.3.6-.7 2-.8-.4.8-2.3 1.6-5.7 4-9 6L435 154s-.2 2.2-.4 3c-.2.6-.4 1.2.8.7 1.2-.5 8-2.4 15.8-8.6 8-6.2 11.4-14 12.2-17.8.8-3.7.6-4.3.5-5 0-1-.4-1-1-.4-.4.7-8 8.8-11.7 12-4 3.4-9 7.2-12 8.6-3 1.4-5.6 2.2-6 3l-1.4 1.6s1.7-.2 2.3.5zM401 212s-2.4 1.2-4.4 1.2c-2 0-3 .2-3 .2s4.7 4.2 7 5.2c2.5 1 2.8 1.2 3.8 1.8 1 .5 1.2 1 0 .6l-3.8-1.5c-1.8-.7-3.3-1.8-4.6-2.7-1.3-1-1.8-1.2-1.8-1.2s.5 3.4-1.3 4.5l-2.5 1.7s6 3.6 14.5 5.7c8.6 2 13 1.2 16.2-.2 3.8-1.4 4.7-5.5 4.7-5.5s-7-1-15-4.3c-8-3.5-10-5.3-10-5.3zM383.8 223l-1.3.5s4.8 5 8 6.6c3.3 2 2 2-1.3.3s-5-3.7-6.3-4.8l-1.7-1.3s-2 2.3-1.3 5.7c.7 3.3 4.7 8.5 15.6 9 11 .2 15-4.7 15-4.7s-5.3 0-14.4-5.6c-9-5.4-11-6.2-12.4-5.7zM380.7 235.5c-1.6-1.8-2.4-2.7-3-3.7-.6-1-.2-1.2-2.3-1-2 .2-4.4 0-4.4 0s-1.8 0-.5 1.3c1.2 1.6 3 3.7 4.8 4.8 1.8 1 3.8 2 3.6 2.2-.3.4-3.3-.5-5.2-2-2-1.3-3.8-4-4.7-5l-1-1.5s-4.2-.7-5.8-1.8c-1.6-1-2.8-2.7-2.8-2.7s-.3 5.2 5.5 11.6c2 2.4 4.3 4.4 6.4 5.6 3.4 2 6.7 2.4 9.7 2 5-.5 5.5-1.4 5.5-1.4s1-.4-.3-2l-5.5-6.3zM358 230c-.6 2.2-1.2 4-2 6l1 1.6c.8 1.2 1.6 3.8 1.6 3.8l-1.8-2.3c-.7-.7-1.2-1.2-1.6-1.4l-1.6 2.6c.5 2 1.4 4.8 4.4 6.3 3.2 1.6 6 1.3 7.5.2 1.4-1-.8-2.5-3.3-6.5-2-3.3-3.7-8.4-4.3-10z"/><ellipse rx="1.2" transform="translate(-300 -120) scale(1.875)" ry="1.1" cy="105.8" cx="350.6" fill="#d4af3a"/><path fill="#d4af3a" d="M330.3 77.2c1 .6 2.3 1.3 3.5 1.6 4.4 1.3 9 .5 12.3-1 4.5-2.4 8-4 10.7-4.2 2.3-.2 3.4.8 5.4.8.8 0 1.4 0 1.6-.6.4-1 .2-3-3-4.7-3-1.6-7.6-1.6-11.7-.4-4.3 1.2-6.7 3-8.3 4-1.6 1.3-3.6 3-4 2.8-.5-.4 1-1.3 1.7-2 .8-1 1-1 1-1-4.4.2-9.3-1.4-13.2-4.2 0 0-1.3 6 4 9zM376 74.4c-3-1.4-6-1.2-9.6.2C362.7 76 361 77 361 77s.4 3.3-1.8 4.7c-2.3 1.5-4.5.6-5-.8l-1-2.4s-3.4 2-8.2 3c-2.7.3-7.8 1-11-.4l-5 4.6c-2.2 1.7-4.5 3-4.5 3s.3.8 1.3 1.2c1 .3 1.4.5.7 1.6-.7 1-5.7 5.6-7.8 7-2.2 1.7-5.3 3-5.3 3s1 1.8 2.5 2.4c1.3.6 1.6 1.5 1 2.6-.6 1-5.8 6.7-8 8.7-2 2-3.7 2.2-4.6 2.4-1 .3-2.7 1.3-.8 3.4 2 2.3 6.3 3 10.8 1.7s8.7-6.5 8.7-6.5-.8 7.6-.8 11c0 3.6.4 7.7 1 9.7.6 2 1.2 3 1.2 3s3-1.7 5-7c2-5.2 2.7-8 2.7-9.7s0-2.4 1.5-1.6c1.4.8 2.4 1.4 3 1.5h.8s-1-3.7-1-6.6c0-2.8 1-9 2.3-10 1.2-1.2 1.4.3 1.5 1 .4 1.5 1.6 3.2 3.4 3.8.6-4.2 1.5-7.6 5-11.3.6-.5 1-1.4 3-.6 3.3 1.3 7.3 2 10.5 1 3-1.4 5.4-4.7 4.7-5-.2 0-5 2.3-8.6 1-3.6-1-5.3-2.3-3-4.5 2-2.4 3-2.6 7.2-6.2 4.3-3.5 7.8-5.3 11.5-4.7 3.8.7 4.5 3 4.8 3.4.4.4 2 1.7 2-1.4 0-3-1.5-7.2-4.5-8.6zM335.8 135.4c-.8-1-2-4-2-4s-.2.7-1 2.8c-.8 2-3 5.2-3 5.2l3.7-1c2-.6 3.3-1.8 3.3-1.8s-.3-.2-1-1.2z"/><path fill="#d4af3a" d="M320.5 123.8s-1.2 3-4 5.8c-2.7 2.7-4.8 2.4-4.8 2.4l2.4-1.5c2-1.5 4.2-5.7 4.2-5.7-2.3 1.4-7.5 2.7-10.2 2l-1 2.8c-.7 1.6-2.7 4.8-3.7 6-1 1.5-.2 1.7-.2 1.7s.6.5 7 2.4c6.5 1.8 12.4.7 12.4.7l-1.4-5c-1-4.4-.5-11.6-.5-11.6z"/><ellipse rx="1.2" transform="translate(-300 -120) scale(1.875)" ry="1.1" cy="105.8" cx="289.3" fill="#d4af3a"/><path fill="#d4af3a" d="M237.8 74.4c2 0 3-1 5.4-.8 2.6.3 6.2 1.8 10.6 4.2 3.4 1.5 8 2.3 12.3 1 1.3-.3 2.5-1 3.7-1.6 5.3-3 4-9 4-9-4 2.8-8.8 4.4-13.3 4l1 1c1 1 2.3 1.8 2 2.2-.6.3-2.5-1.5-4.2-2.7-1.6-1.2-4-3-8-4-4.2-1.3-9-1.3-12 .4-3 1.8-3.3 4-3 4.8.4.5 1 .6 1.6.6zM295.6 117.7c-1-.2-2.6-.5-4.7-2.5-2.3-2-7.4-7.6-8-8.6-.6-1-.4-2 1-2.6 1.5-.6 2.6-2.5 2.6-2.5s-3.2-1.2-5.3-2.8c-2.2-1.5-7.2-6-7.8-7-.7-1.2-.4-1.4.6-1.7 1.2-.4 1.4-1 1.4-1s-2.3-1.5-4.4-3.3c-2.2-1.7-5-4.5-5-4.5-3.3 1.3-8.3.7-11 .2-5-.8-8.4-2.8-8.4-2.8l-.7 2.2c-.7 1.5-3 2.4-5.2 1C238.6 80 239 77 239 77s-1.7-1-5.4-2.4-6.7-1.6-9.7-.2c-3 1.4-4.6 5.5-4.6 8.6 0 3 1.7 1.8 2 1.4.4-.5 1-2.7 4.8-3.3 3.8-.5 7.2 1.3 11.5 4.8 4.3 3.6 5.2 3.8 7.4 6 2.2 2.3.5 3.5-3.2 4.7-3.7 1.2-8.4-1.2-8.5-1-.8.2 1.5 3.5 4.7 4.8 3.2 1.2 7.3.4 10.4-1 2.2-.7 2.6 0 3.2.8 3.5 3.8 4.4 7.2 5 11.4 1.8-.6 3-2.3 3.2-3.8 0-.7.4-2.2 1.6-1 1.2 1 2 7.2 2 10 0 3-.7 6.6-.7 6.6h.8c.5 0 1.6-.7 3-1.5 1.3-.8 1.4 0 1.4 1.6s.4 4.5 2.5 9.7 5 7 5 7 .6-1 1.2-3 1-6.2 1-9.7-1-11-1-11 4.4 5 9 6.4c4.3 1.3 8.8.5 10.7-1.6 1.8-2 0-3-.8-3.3zM266.3 131.3s-1.4 3-2 4l-1.2 1.3s1.5 1.2 3.4 1.8l3.8 1s-2.3-3-3-5.2c-.8-2-1-3-1-3z"/><path fill="#d4af3a" d="M293 129.6l-1-2.7c-2.8.5-8-.8-10.2-2.2 0 0 2 4.2 4 5.7 2 1.4 2.4 1.5 2.4 1.5s-2 .3-4.8-2.4c-2.7-2.7-4-5.8-4-5.8s.7 7.2-.5 11.6l-1.4 5s5.8 1 12.3-.8c6.4-1.8 7-2.3 7-2.3s.7-.2-.4-1.6c-1-1.3-3-4.5-3.6-6.2zM270.3 292c1.3.5 4-.5 5.2-2 1.3-1.6 1.7-4 2.6-5.3l1.7-2.4s-.2 2.2-1.4 5.3c-1.2 2.8-1.4 6.8-1 8.5.5 3.4 2.6 4 4 3.5 1-.3 2.4-1.8 3.7-4l1-2.5c1-1.7 1.8-4.4 2.2-4.3.8.2.3 2 0 3.4-.7 2.6-2 6.4-2 8.6 0 2.3 0 6.4 2.4 6.6 2.3.2 3.5-1.8 4.8-6.5 1.2-4.6 1.5-6 2-6 .6 0 .6 3 .6 4.5 0 .4 0 1.7.2 3 .4 2.5 1 5.5 1.8 6.2 1 1 2 .8 2 .8s1 .2 2-.8 2-8 2-9.2 0-4.6.6-4.6c.5 0 .8 1.5 2 6 1.3 4.8 2.5 6.8 4.8 6.6 2.3-.2 2.6-4.3 2.5-6.6-.2-2.2-1.5-6-2-8.5-.8-2.5 0-2.3 2 1 .4 1 1 2.3 1.5 3 1.2 2 2.4 3.2 3.3 3.5 1.3.5 3.5 0 4-3.4.6-3.3-2-13-2-13l1 1.7c1 1.3 1.5 3.7 2.7 5.3 1.3 1.5 4 2.5 5.2 2 1.4-.4 1.6-3 .6-7.5-1-4.6-5-7-8-10.8-2.7-3.3-4.8-9.2-5-10.2-3.8 2-7 4-10 7l-7.3 7.8s-1.3-1.5-7.3-7.8c-3-3-6.2-5.2-10-7-.2.8-2.7 6.4-5.4 9.8-1.4 1.7-3.2 3-4.6 4.6-1.5 1.8-2.4 4-3 6.5-1 4.5-.8 7 .6 7.6z"/><path fill="#d4af3a" d="M270 307.5c2-1.5 2.8-2.4 2.8-2.4s1.3-1 1 1c-.4 2-1 6.3-.6 8 .4 2 .6 3.5 3 2 2-1.2 2.6-2 3.7-3 1-1.3 2-1.7 1.8 0-.2 1.8-1 4.5-.7 8 .5 3.6 2.3 4.2 4.6 1 2.3-3 3.7-5.7 4.4-7.2.7-1.5 2-2.8 2 0 0 6 1.4 14.7 8 17 6.6-2.3 8-11 8-17 0-2.8 1.4-1.5 2 0 .8 1.5 2.2 4.3 4.5 7.3 2.3 3.2 4 2.6 4.4-1 .3-3.5-.5-6.2-.8-8s1-1.3 2 0c1 1 1.5 1.8 3.8 3 2.2 1.5 2.5 0 3-2 .3-1.7-.4-6-.7-8-.3-2 1-1 1-1l2.6 2.5c1.7 1.6 4 1.7 4 1.7s1.3-6.3-1.4-10l-3.5-5s-1.4 0-2.6-.6c-1-.4-2.2-1.2-2.2-1.2v3.3s3.2 3 4 4c.7 1 2.2 2.5 0 1s-4-3-4-3-.4 3-1.3 4c-1 .7-2.3.8-3 .6l-.4-.2-.2 1.2s2 3.7 2.3 5.2c.3 1.5-.2 1.4-1-.6-1-2-2.7-4.3-3.6-5.7-.7-1.3-1.8-2.2-1.7-.5 0 1.7-.6 4.8-1.2 6-.5 1-1 1.4-1 1.4l1.5 5.2c.2.8 0 1.7-.6.6-.8-1-2.8-5.2-2.8-5.2s-2.6-.2-3.4-1c-.7-.7-2-3.5-2-3.5s-1 3.6-1.8 4.8c-1 1.3-3 2.5-3 2.5s-.2 6.4-.3 7.5c0 1.2-.2 1.7-.7 1.7-.4 0-.5-.5-.6-1.7-.2-1-.3-7.5-.3-7.5s-2-1.2-3-2.4c-.8-1-2-4.7-2-4.7s-1 2.8-1.8 3.6c-.7.6-3.4.8-3.4.8s-2 4.2-2.6 5.2c-.7 1-.8.2-.7-.6s1.4-5.2 1.4-5.2-.5-.4-1-1.5c-.6-1-1.3-4.2-1.2-6 0-1.6-1-.7-2 .6s-2.5 3.8-3.4 5.7c-1 2-1.3 2-1 .6.2-1.5 2.2-5.2 2.2-5.2l-.2-1.2-.5.2c-.6.2-2 0-2.8-.7-1-.8-1.4-4-1.4-4s-1.8 1.6-4 3c-2.2 1.6-.7 0 0-1l4-4V292.4s-1 .8-2.2 1.2c-1 .5-2.6.5-2.6.5l-3.6 5-1.5 10.2s2.4 0 4-1.7z"/><path fill="#d4af3a" d="M263 329l6.6-4.6c3.5-2.4 4.8-5 4.8-5h-1.2c-.7 0-1.3-1-1.3-2-.2-1 0-2.8 0-5 .4-2.3-.2-4.2-.2-4.2s-1.6 1.4-4 2.6c-2.2 1.3-3 .7-3 .7l-.7-2.3s-1 2-2.3 4.5c-1.5 2.5-5.3 5.3-8 7.3-2.8 2-5.8 4.2-8 5-2.3.8-1 2-1 2s2.3 2.2 8 3.2 8.8-1.3 10.3-2.3z"/><path fill="#d4af3a" d="M283.4 326.6c-2-.2-3.3-1-3.7-3.3-.3-1.4 0-7 0-7l-1.4 1.5c-.8 1-2.5 1-2.5 1s-.3 1-1 2.2c-1 1.2-2 2.8-4 4-2 1.3-4.2 2.8-5.7 4-1.4 1.3-3.2 2.8-5.2 4-2 1-3.8 2.8-4.5 5.8-.7 3-.2 4 2.2 3.7 2.3-.2 2.5 0 6.3-1 3.7-.8 9-5 13-7.5 3.8-2.5 6.6-7.4 6.6-7.4z"/><path fill="#d4af3a" d="M293.8 330s-1.6-2-2.2-4.2L290 319l-1.8 4c-1.3 2.8-3.4 3.5-3.4 3.5s-.2 1-2 3.4c-1.7 2.2-4.4 4.3-7 6-2.7 1.4-6.2 3.6-8 6.3-2 2.7-2 5.5-1.2 6.7 1 1.2 2-.2 4-1 1.7-1 6.8-1.8 13.8-5.6 7-3.8 9.4-12.4 9.4-12.4z"/><path fill="#d4af3a" d="M297 345.8c1.8-3 2-10 2-10l-1.5-1.2c-1-.8-2.8-3.6-2.8-3.6l-2.4 4.7c-1.3 2.3-2 3-4.5 5.5-2.7 2.4-6.3 4.8-7.8 7.4-1.5 2.5-.7 7.7.3 9.5 1 1.8 2.5 1.2 4-.2 1.4-1.4 2-1.8 4.5-4s6-5 8-8zM354.4 326c-2.3-.8-5.3-3-8-5-2.8-2-6.6-4.8-8-7.3-1.4-2.4-2.4-4.5-2.4-4.5l-.6 2.3s-1 .6-3.3-.7c-2.2-1.2-3.7-2.6-3.7-2.6s-.6 2-.4 4c.2 2.4.2 4.3.2 5.3s-.7 2-1.3 2h-1.4s1.3 2.5 5 5l6.4 4.4c1.6 1 4.4 3.3 10.2 2.2 6-1 8-3.3 8-3.3s1.4-1.2-.8-2z"/><path fill="#d4af3a" d="M340.3 333c-2-1.2-3.8-2.7-5.3-4-1.6-1.2-4-2.7-6-4-2-1.2-3-2.8-3.7-4-.8-1.3-1-2-1-2s-1.8-.3-2.6-1.2c-.8-1-1.5-1.6-1.5-1.6s.4 5.7 0 7.2c-.3 2.2-1.5 3-3.6 3.2 0 0 2.8 5 6.7 7.4 4 2.5 9.2 6.7 13 7.6 3.7 1 4 .7 6.3 1 2.3 0 2.8-1 2-3.8-.5-3-2.3-4.8-4.3-6z"/><path fill="#d4af3a" d="M324.3 336c-2.7-1.7-5.3-3.8-7-6-2-2.4-2-3.5-2-3.5s-2.2-.7-3.4-3.4l-2-4-1.6 6.8c-.6 2.2-2.2 4.2-2.2 4.2s2.4 8.6 9.4 12.4c7 3.8 12.2 4.6 14 5.5 1.7.8 3 2.2 4 1 .8-1.2.6-4-1.3-6.7-2-2.7-5.3-5-8-6.4z"/><path fill="#d4af3a" d="M312.3 341.2c-2.6-2.4-3.3-3.2-4.5-5.5-1.3-2.3-2.4-4.7-2.4-4.7s-2 2.8-2.8 3.6L301 336s.3 7 2.2 9.8c2 3 5.5 5.8 8 8 2.7 2.2 3 2.6 4.6 4 1.5 1.4 3 2 4 .3s1.8-7 .2-9.4c-1.5-2.6-5-5-7.7-7.4zM302.3 349.4c-1.7-2-2.3-3-2.3-3s-.5 1-2.2 3c-1.7 2-5.7 5-5.7 5s.5 5.2 2.4 8c1.6 2.4 3 4.6 5.6 6.3 2.5-1.7 4-4 5.7-6.2 2-3 2.2-8 2.2-8s-4-3.2-5.7-5z"/><path fill="#1d5e91" d="M443.7 285.2c-1.6-.4-2.3-1-2.3-1s-.7 0-1.2 1-2.5 2.2-2.5 2.2-3 .7-3.2 2.7c-.4 2 1 2.7 2.3 2.5 1.3-.3 4.6-1 6-2.7 1.5-1.7 1.7-2.7 2-3.3.3-.7.4-1-1-1.3zM448 269.7c-1-4.3-3.7-9.6-9-12.3l-2.7 9.3c-.6 2.3-.6 2.2 1 2.6l8.5 2c1 .3 3 1.3 2.3-1.6zM422.4 265.7c1.3.2 1-.3 1.6-2l2.7-10.3s-5.7-.2-10.6 2.2c-5 2.4-7 6.8-7 6.8s1.2.5 4.6 1.3l8.8 2zM409.3 277.4l-2.8-.6s1.3 5 3.4 7.6c2 2.7 4.3 4 8.6 4 4.3.2 7.6-2.2 8.2-4 .5-2 1.4-3.4 1.4-3.4s-8-1-11-1.8l-8-1.8z"/><path fill="#b96b29" d="M346.5 182.4c-2-12 5-22.8 5-22.8l-13.6-16c-10.6 6-25.2 5-38-.7-12.6 5.7-27.3 6.5-37.8.6l-13.6 16s7 10.7 5 22.8c-2 12.2-6.3 31.4-5.2 39.3 1 7.8 6.6 17 12.3 21.6 5.7 4.8 14 8.8 20 11 6 2 12 6.3 14.7 8.4 2.8 2.2 4.7 4 4.7 4s2-1.8 4.7-4c2.7-2 8.6-6.3 14.6-8.4 6-2.2 14.4-6.2 20-11 5.8-4.7 11.4-13.8 12.4-21.6 1-8-3.2-27-5.2-39.3zM318.7 113.7c-2 2.3-7 4.5-7 4.5v.4s2-.4 4-1.5c1.8-1 4.7-3.4 5.3-4.4.6-1 0-1.7 0-1.7s-.3.4-2.3 2.7zM327 118.3l-.4 10.5c0 .4-.2 3-1 3.5.5 0 1.2.2 1.4-1.2l2-13.2-1-.5s-1-.3-1 1zM342.4 95.3c-1 .3-3 1.8-4 2.7-1.2 1-2 1-3 1.5s-.7-1.8 0-3.7c.5-1.8 2.6-4 4.2-5.8 1.6-1.8 0-1.3-.8-.5-.7.7-2.4 2.6-4.5 5.8-2 3.3-3 10.7-3 10.7l2.4-1.6c1.2-1 2.5-1.6 5-3.3 2.2-1.7 3.6-3 4.8-4.3 1.3-1.4-.3-1.6-1-1.4zM281.3 113.7c-2-2.3-2.2-2.8-2.2-2.8s-.6.6 0 1.6 3.4 3.5 5.3 4.5c2 1.2 4 1.6 4 1.6l-.2-.4s-4.7-2.2-6.7-4.5zM273.3 128.8l-.5-10.5c0-1.3-.8-1-.8-1l-1 .5 2 13.3c.2 1.5 1 1.4 1.2 1.3-.7-.4-.8-3-1-3.5zM261 89.5c-.6-.8-2.3-1.3-.7.5 1.6 1.7 3.7 4 4.3 5.8.6 2 1 4.2 0 3.7s-1.8-.5-3-1.5c-1-1-3.2-2.4-4-2.7-1-.2-2.4 0-1.2 1.4 1.2 1.3 2.6 2.6 5 4.4 2.3 1.8 3.7 2.5 5 3.4 1 1 2.4 1.6 2.4 1.6s-1.2-7.4-3.2-10.7c-2-3.2-3.8-5-4.5-5.8zM300 300l.2-1.5.4-5c.3-1.5-.4-1.4-.8-1.3-.4 0-.6 1.2-.6 1.8l.2 5.2c0 .8.3.8.5 1zM326.3 286.7c1 2 1.3 1.8.8 0-.3-1.7-1-3.3-2-5-1-1.5-3.5-3.8-3.5-3.8s.7 1.4 1.6 2.7c1 1.3 2.3 4 3.3 6zM316.3 288.5c.4 1.4 2.5 5.2 2.7 5 .3 0-.8-3.4-1.5-5.7-.8-2.3-2-4-2-4-.3.2 0 1.5 0 1.5l.8 3.2zM308.4 294.8c.5 1 1 2.2 1.2 2 .3 0-.5-2.2-.6-2.8-.2-.5-.2-1.8-1-3.2-.6-1.3-.8-.7-.8-.2 0 .6.8 3.2.8 3.2l.4 1zM273.7 286.7c1-2 2.2-4.7 3.2-6l1.5-2.8s-2.5 2.2-3.5 3.8c-1 1.6-1.6 3.2-2 5-.5 1.7-.3 2 .7 0zM283.7 288.5l.6-2.4s.4-1.2.2-1.3c-.2 0-1.2.8-2 3-.7 2.4-1.8 5.8-1.5 6 .2 0 2.3-3.8 2.7-5.2zM291.6 294.8l.4-1s.8-2.6.8-3.2c0-.5-.2-1-1 .2-.6 1.4-.6 2.7-.8 3.2 0 .6-1 2.7-.6 2.8.2.2.7-1 1.2-2zM267 318.8l-1-.6-1.4 1.8c-1 1-2 1.3-2.6 2.2-.7 1-1.8 2-3.4 2.8-1.6 1-2.2 1-2 1.4.4.3 1.5-.4 1.5-.4s.6 0 2.5-1.2c2-1 2.4-1.8 3.7-3 1.3-1 3-3 3-3zM275.7 329c.7-1 1.5-1.4 1-2-.4-.3-1-.2-1.6.4l-3.4 3.2-2.5 2c-.8.6-2.8 1.7-3.7 2.2-1 .5 0 .6 0 .6l1.5-.7c.8-.2 3-1.2 3-1.2l2-1.3c1.3-.8 3-2.5 4-3.3zM285.5 335.7c.6-1.3 0-1-1-.5-1.2.4-3.5 3-5 4-1.3 1-2.4 1.3-3.6 2-1.2.5-1.2.8-1.2 1 0 .3.5.3 1 0 .5 0 2-1 2-1l1.4-.3c.7-.2 1.6-1 3-2 1.4-1.3 2.7-2 3.3-3.3zM290 344.7c-1.7 1-4.7 3.4-5.5 5-.7 1.6-1.3 2.7-1 3 .3.2 1-.3 1.5-1l1-1.5s3-3 4.2-3.6c1-.7 3-2.7 3.3-3.8.5-1.2 0-1.8 0-1.8s-1.7 2.7-3.4 3.7zM341.4 325c-1.6-.8-2.7-2-3.3-2.8-.6-1-1.6-1.3-2.5-2.2-1-1-1.5-1.8-1.5-1.8l-1 .6s1.6 2 3 3c1 1.2 1.6 2 3.5 3 2 1.2 2.4 1.2 2.4 1.2s1 .7 1.4.4c.3-.3-.3-.5-2-1.4zM334.8 334.8c-1-.5-3-1.6-3.8-2.3-1-.7-1.7-1-2.6-2-1-.7-2.8-2.6-3.5-3-.8-.7-1.3-.8-1.7-.4-.4.6.4 1 1 2 .8.7 2.6 2.4 3.8 3.2l2.2 1.3 3 1.2c1 .3 1.6.7 1.6.7s1 0 0-.6zM324 341l-3.6-1.8c-1.3-1-3.7-3.6-4.7-4-1-.4-1.8-.8-1 .5.5 1.3 1.8 2 3.2 3.2 1.3 1 2.2 1.8 2.8 2h1.3l2.2 1.3c.5.2 1 .2 1 0 0-.3 0-.7-1-1.2zM310 344.7c-1.8-1-3.6-3.7-3.6-3.7s-.3.6 0 1.8c.5 1 2.3 3 3.4 3.8 1 .6 4 3.6 4 3.6l1.3 1.6c.5.6 1.3 1 1.6 1 .2-.4-.3-1.5-1-3-1-1.7-4-4-5.6-5zM299.2 355.7c.2 1.3 0 4.3.8 4.3.7 0 .6-3 .8-4.3l.2-4h-2s0 2.8.2 4z"/><path fill="#1d5e91" d="M345.2 184c-2-13.2 4-23.8 4-23.8l-12.4-13.7c-10.4 5.3-23 4-36.8-.8-13.8 4.7-26.4 6-36.8.8L251 160.2s5.8 10.6 3.8 23.7c-2 13-5 28-4.4 36.6 0 .6 0 1.2.2 1.8h11.2s.7-.8 2-1.3c1.2-.4 1.5-.8 1.5-.8s.3-2.3 1.6-2.7c1.3-.5 2-.5 2.4-.5.6 0 1 0 1.6-.8.7-.6 2.5-2.2 3.2-4.5.8-2.3 1.3-3.2 1.3-4.7 0-1.4.5-3.8.5-3.8s-.3-.7-1.4-.3c-1 .3-1.3-.8-1.4-2-.2-1 0-3.4.6-4.5l.8-1.4-.4-1.7s-7 1.4-8.4-4c-1.2-5.6-1.5-8.3-1.7-9 0-.5-.2-.8-1.2-.8s-3-.5-4.4-3.4c-1.4-2.8-1.5-4-1-5 .3-1.2 1-.8 1.3-.4.3.3 2.2 3 3 2.3.7-1 .3-1-.8-3-1-2.2-.8-3-.7-4 .2-1-.3-2.5-.3-3 0-.7.6-1 1.3-.8l1.5 1c.3.4.5 1 1 .6.6-.3.3-2.3.3-3 0-.6 1-1 1.8-.5 1 .5 1.4 1.5 1.4 2.2 0 .7 0 1.4.4 1.4s.8-1.2 1-2c0-.6.3-1.7 1-.8.7 1 1 2.2.7 3.6-.3 1.3.2.6-.3 3s-.7 3.5-.6 5.3c0 1.8 0 3 1 5 1 2.3 1.6 4.8 3.2 5h2.2s1.8-3.6 3.2-4.5c1.5-.8 3.5-1 5-1 1.3-.3 2-.7 2-1 0-.4-.5-.5-2.3-.8-1.7-.2-3-.6-3.2-2 0-1.2.3-2.4-.8-2.4-1 0-4-1-5-2.8-1-2-.7-2.3-.6-3.3.2-1 1.5-3 2.4-1s1.3 2 2 2.4c.8.4 1.7.6 1.2-.8-.4-1.3-.7-2-.6-3 0-1 .8-1.4 1.5-1.6.8-.2 3-1 4.3-1l1.3-.5s.2-.8 1.7-1.3c1.6-.5 2.6-.5 3.7-.5 1 0 2 0 3.4-.7 1.5-.7 2.7-.8 3.7-.7 1 0 1.6.4 2.3 1 .7.3.5 1 .5 1.6 0 .7 0 1 1 1s2 0 3 .4 2.2 1 1.4 2c-.8 1-1 2-1.4 2-.5 0-.5.5-.7 1-.3.2-.4.5.2 1 .5.3.6.6 1.4 1.4 1 .8 2 1.6 1 3-1.4 1-3.6 2-3.6 2s-1.2.7.2 1.5c1.4 1 2 2.6 2.6 3 .6.2 1 .7 1.4 1 .4 0 .3 1.2.3 1.2s-.6.6-1.7 1c-1 .4-2.2 1-3.2 1s-1.4 0-1 .8c.4 1 1 2 1.3 2.5 0 .6.4 1.5.4 1.5s1.6.4 3 .4c1.6 0 2.3 0 5.5-.4 3.3-.4 4.3-.5 7.4 0 3 .2 3.6 0 4.5.4 1 .3 1.7.7 1.7.7s4.5 0 7-.6c2.3-.4 3-2 2.6-2.8-.4-.8-.3-2-4.6-2.7-4.3-.6-6-.3-9.4-1-3.4-.7-8.6-2.4-9.6-6.6-1-4.3 2.5-6 4.2-7 1.6-.8 5.4-2 7-2.8 1.8-.7 5-1.4 8.3-1 3.3.5 5.2 1.4 6.5.6 1.3-.7 2.4-.2 2.2 1-.3 1.2-1.6 3.7-5.3 4.8-3.8 1-8.3 1.3-10.7.6-2.4-.7-4.3-1.6-5.8-1-1.4.5-3 2.3-1.5 4.5 1.6 2.2 9.8 3 12 3 2.2.3 10.3-.3 12.6 3.8 2.3 4 .5 8.6-2.2 9.6s-5 1.8-7 2l-2 .3s.8 2.2.8 3c0 1 0 2.6 1 3.3 1 .7 2.3 1 4 1 1.8-.2 4 1 4 2.5 0 1.7.6 3.8.8 7v5.6s-.2 1-.6 2.3l-2.5 5.4h12v-1.8c.7-8.7-2.3-23.6-4.3-36.7z"/><path fill="#6d8c3e" d="M252 228.2c2.4 6.7 7.2 13.5 14.6 18 10.2 6 14.6 5.3 24.2 11.5 9.7 6.3 9 7.4 9.2 7.4 0 0-.5-1 9.2-7.3 9.6-6.2 14-5.4 24.3-11.6 7.3-4.3 12-11 14.5-17.8h-96z"/><path fill="#d4af3a" d="M260.4 176.5c1 1.2 2 1.5 3.6 1.3 1.7 0 2 1 2.3 2.4.3 1.3.3 4.4 1.6 7.3 1 3 5 3 5 3 .2-1.3.7-3.2 1.3-4.7 0-.3.7-1.6-.8-1.6s-1.4-.5-2.2-2c-1-1.3-2.6-5-3-7.4-.4-2.3.4-6 .8-7 .5-1.4.5-2.3 0-2.5-.4-.2-1.3 0-1.3 0s.3 1 0 1.3c-.5 0-.8-.6-1-1.4-.4-.8-.8-.7-1.3-.7-.6 0-.6.6-.2 1.2.4.6.2 1.6.2 1.6l-1.8-1c-.5-.4-1.8 0-2 .8 0 .8.6 2.6 1.7 3.5 1 1 1 2.8.7 3.7-.3 1-2 .7-2.3.3-.3-.4-1-.5-1.5 0-.4.6-1 .8.2 2zM259.8 173.4l-1-.8c0-.3-.6-1-.6-1v1l.6 1.5 1-.6zM262.2 165.4c.5-.2 1-.3.5-1-.4-.5-.7-1-1-1.2-.6-.2-1 0-1 0l.7 1.6c0 .6.3.8.8.6zM265.2 163c0 .5 0 .7.5.5.5-.2.6-1 .4-1.3 0-.5-.6-.8-.6-.8l-.4-.3s.2 1.5.2 2zM269.5 163.7l-.2-1.2s0 .7-.2 1c-.2.5-.2.4 0 .7.4.3.5 0 .5-.5zM276.3 193c1 2 3-1 5-3.6 2-2.5 2-.6 1.6 1.5-.3 2 .4 4 1.2 5.4.8 1.4 1.5.6 1.8-.4.3-1 .6-3 1.2-4 .7-1 1.3 0 1.4.8s1 2.7 2 3.8c1 1.2 1.5-.4 2-1.7l.8-4.5c.3-.8 1.2 0 1.2 0l2 1.8c1.3 1.3 1.4-.7 1.5-1.7.3-1 0-3 .3-3.5.4-.2 1.5.6 3.2 1.4 1.7 1 1.7-.7 1.5-1.7-.2-1-1.2-3-2.6-4.2-1.3-1-1.5-2.5-1-3 .4-.7 2-.2 3-.3 1 0 1.6-.3 2.4-.4.8 0 .8-1 .8-1s-.6-1-1.7-2c-1.2-1-2-1.6-3.2-2-1.4-.3-3.3 0-3.3 0l-.2-.4c-.2-.4-.6-.4-1 0 0 .4-.8 1-1.3 1.4-.5.5-.8.7-1.2.5-.3-.2.3-.6.3-.6s.8-.6 1.5-2c.6-1.2.8-2.4.3-3-.5-.6-2 0-2.8 0-.7 0-1.2 0-1.3-.3 0-.4.8-.2 1.8-.3 1 0 1.6-1.2 2-2.2.2-1 .5-1 1-.3.7.6 1.2.5 1.3 0 0-.3.7-1.3 1.3-2.3.8-1 1.2-2.3.4-3.2-.7-1-2.4-.8-3.2-.2-.7.6-1 1-1.3 2.6-.3 1.4-.7.6-.7.2 0-.5-.6-1.2-.3-1.8.2-.6 0-1.2 0-1.2s-.2-1.3-1.5-1.5c-1.4-.2-3 0-4.4.5-1.2.3-1 1.5-1 1.5l-2 .2c-1.2 0-2.5.5-3.6.8-1 .3-1.4.4-1.4 1l.2 1.3s.8 0 1.3.3c.4.2.2.7-.4 1-.4 0-.6 0-.6.8 0 .7.3.8.8.8s1.6 0 3 .6c1.3.6 1.6 1.7 1.5 2.4-.2.7-2 1.5-3 1.5s-1 .2-1 .8c0 .6 1 .5 1 .5l3.3.3c2 .3 2.5.8 3.4 1.6 1 .8.3 1 0 1.2-.6.3-1.3 1-2 1.2-.8.2-1.2.7-2 1-.5 0-2.2 0-5.2 1-3 1.3-4 5.2-4 5.2l1.7-.8c1.3-.7 3-1.5 4.6-2.5 1.5-1 1.5.4.8 1.8-.8 1.5.7 1.2 1 .8l2.7-1.5c1.6-.8 1 .4 1 .4s-.4 1-.5 3c0 2.3 2 .2 3.2-1 1-1.5 1.5 0 .7 1.4-.8 1.7-2.3 3-3 3-1 0-1.6-1-1.7-1.5 0-.5.3-2-.3-2.5-.5-.4-2 0-3 .7-1.2.7-1.5.2-1.7-.4-.3-.6.4-.8 0-1.2-.2-.3-.8 0-1.2.3L277 186c-2 1.2-2 1.8-2 3.3 0 1.5.5 1.8 1.3 3.7z"/><path fill="#d4af3a" d="M296 160.2c.3-.3 1-.6 1-.6l2-.3c1 0 .7-.6.5-1-.2-.5-.5-.6-1.7-.6-1 0-2 .5-2.5.8l-1.5.5.6.8c.4.6 1 .7 1.5.4zM300.6 165c.5 0 1-.4 1-.4l1.6-.7c.8-.4 1-.5 1.6-1.4.4-1-.5-1-2-1.3-1.2-.3-2 0-2 .6-.2.4-.2 1-.7 2-.5 1 .2 1 .6 1zM300.2 166c-1.3 0-2.8 2-3.3 2.4-.7.3-.3.7-.3.7s.3 1 .5 1.7.2 2 .2 2h1c.7 0 1.2-.3 2-.8s1.2-.8 2.3-1c1-.2 1.5-.4 2.7-1 1-.6-.6-1.7-2-2.7-1-1-2-1.2-3.2-1.2zM282.8 170.6c1 0 1.4-.6 1.4-1.2s-.5-1.2-1.8-1c-3.3.2-6.4-1-7-4.2 0 0-1 2 1 4.3 2 2.2 5.3 2.2 6.3 2zM271.7 221.8c0 .3.3.5.5.6h5c1-.2 1-1 1-1.6 0-.6.5-2.4 1.2-5.8.6-3.3 1.8-5.6 2.3-7 .5-1.3-.5-1.7-.8-2.6-.5-.8-1-2.3-1.2-3 0-.8-1.3-.7-2-.6-.6 0-.7 1-.8 2 0 1-.5 4-1 6.5s-3.3 5.8-4 6.6c-1 .6-1.6 1-2 1-.6 0-1.8 0-2.4.3-.6.3-1.2 1.3-1.2 2s1 1 1 1 1-.4 1.4-1c.3-.3 1-.4 2-.6.7 0 .8.2.5.6-.3.4-.2.5.4 1.5zM264 221.6c-.3 0-.6.5-.8.8h3.3c0-.3-.2-.6-.4-.8-.2-.5-1.3-.3-2 0z"/><path fill="#d4af3a" d="M268.5 221.5c-.4.2-1 .5-1.2 1h3.5c.2-.4.2-1-.2-1.2-.8-.7-1.6 0-2 .2zM299 220c-.5 0-.8.4-1.4.8-.5.3-.7 1-.8 1.4v.2h1.5v-.2c0-.4.3-.8 1-1.4.6-.5 0-.8-.4-.8zM301.8 221.6c0-.4-.2-1-.5-.8-.3 0-1 .6-1.4 1l-.7.6h2.2c.2-.2.3-.5.3-.8z"/><path fill="#d4af3a" d="M315.3 205.5c1-.8 1-1 1-1.8s0-1-.4-1.4c-.5-.3-2-1-3.6-1-1.5 0-4.3.4-5.3 1-1 .8-1.5 3.4-1.5 4.8s.2 1.7.6 1.7c.5 0 1-1 1-1l2.4 3c.8 1.3.4 2 0 2.8-.3 1-1.7 3.6-2.8 4.2-1 .5-2 0-3.3-.2-1.3-.2-2 .2-2.8 1-.7.7 0 1.3.4 1.3s1 0 1.6.6c.3.4 0 1.4 0 2h6.4c1-.5 1.8-2 2-2.8.5-1 2-2.2 2.6-2.8.6-.7.7-1 .7-2.5 0-1.4-.4-2.2-1-3.2-.4-1-.8-2.3-.6-3 .2-1 1.6-1.8 2.6-2.5z"/><path fill="#d4af3a" d="M304.7 189.3c.6 1 .3 1.2-.6 1.4-1 .2-2 .4-3.3.3-1.5 0-1.5 0-1.5.8 0 .7-.2 2.3-1 3.4-1 1-2 .7-2.6.2-.6-.4-1-.3-1.2.5-.2.7-.7 1.3-1.4 2.5s-1 1.3-1.6 1c-.5 0-1-.7-1.4-.8-.5 0-1.3-1-2-2-.7-1.3-1 0-1.6 1-.5 1-1 1.7-2 1.6-.8 0-2-2-2.4-3-.5-1-.8-2-1.6-2s-2.2 1.8-3 2.3c-1 .4-1.2.2-1.6-.3-.4-.6-1 .2-1.5 1.5s0 2.5.8 2.8c.8.4 2.3-.6 3.3-1.3 1-.6 1.4-.5 2.4-.5s1 1.7 1.4 4c.5 2.5 2 3 2 3s.4.3 1.5-1.6c1-2 1.2-3.7 2.3-3.7 1 0 1 .3 2 1.7 1.2 1.5 2 2.6 2.7 1.5.6-1 1-2.7 1.8-3.3.7-.6 1.3-.7.6.3-.8 1-1 2.2.4 1.8 1.5-.5 7.2-2.8 9.5-3.2 0 0 2.6-.5 5.7-.6l5-.4c1.3 0 1.3 0 1.4-1 .2-.7-.5-.6-2.7-.6-2.3 0-4 .3-5.4.5-1.7.3-2.4.2-2.2-.2.3-.4.8-.6 2.6-1l7.5-.5c1.8 0 1.2.6 1 2l.3 4.3c0 1.2.2 1.6 1.2 3.3 1 1.8 4.7 2.8 5.8 3.4 1 .6 1 0 .8-1 0-1 1-1 2-.4.8.5 2.3 1 3.4 1.2 1 .3 1.3.5 1.3 1 0 .6 0 2 .2 3 0 1.2 0 1.6-.5 2.3l-2.5 2.8s-1 0-3 .5-2.5 1.4-2.7 2.3c-.2 1 .3 1 .4 1.4v1h.5c0-.3.4-.7.7-1 .6-1 2.3-1 3.4-.6.8.3.8 1 .7 1.6h4.6l2.5-5c.6-1 1-1.6 1-3 0-1.6 0-7.4-.2-7.7-.3-.4 0-1.3 0-3 0-1.6 0-2.8-3-3-3-.3-4-1.6-5-2.6s-.7-3.3-1.5-6c-.8-3-2.8-3.4-6.3-4-3.5-.7-6-.8-8.7-.6s-6 .6-7.8.5c-1.8-.3-1.5.2-.8 1.3z"/><path fill="#d4af3a" d="M321.7 221.8c-.3 0-.6.4-.7.6h3c0-.3 0-.6-.2-1-.5-.5-1.4 0-2 .4zM327 221.6l-1 .8h3.2v-.4c0-.4-1-1-2-.4zM250.8 223.5l.7 3h97c.3-1 .6-2 .7-3h-98.4zM316.2 177c3 2 12.8 2.3 17.4 3.2 4.6 1 4.2 4.4 2.8 6.2-1.4 1.8-7.8 2-9 2.2.7.4 1.6 1.8 1.6 1.8l2.7-.2c2-.2 5.3-.7 7.6-2.6 2.3-2 2-5 0-7.2-2-2-5.3-2.3-8.8-2.7-3.4-.3-6-.6-10-1.2-4-.7-5.7-2.3-5.7-4.5 0-2.3 2-3.5 3.6-4 1.5-.3 4-1 6-.2 2.2 1 4.7 1 9 .4 4.2-.5 5.2-3.5 5.2-3.5s-.5.3-2.7.3-3.8-1-7.7-1c-4 0-5.4 1.4-7.2 2-1.7.7-6.6 1.2-8 4.4s0 4.7 3.2 6.7z"/><ellipse rx="1" transform="translate(-300 -120) scale(1.875)" ry="1" cy="150.6" cx="315" fill="#b96b29"/><path fill="#b96b29" d="M330 165.5c-2.4-.2-5.6.5-5.6.5s.6.4 1.4.4c.8 0 2.3 0 4.7.3 2.3.4 4-.7 4-.7l-4.5-.5z"/><path fill="#d4af3a" d="M408 274.4l19.2 3.8c1.4.3 2.5.6 2.8.2.4-.4.6-.6 2-1 1.5-.6 1.4-2 1.4-2s.4-1.4.5-2.8c0-1.3.8-1.8 2.4 0 1.6 1.5 2 4 2.2 6.2.3 2.4 4 3 5.4 3.2 1.4.2 2-.2 3-1.6.7-1.3 1-4 1.4-5.7.2-1.8 0-1.6-1.8-2l-11.5-2.8c-1.4-.4-1-1.4-1-2.4l3.6-11.6c-2.3-1.5-5.6-2.3-9.6-2.8l-2.8 12.4c-.5 1.7-1.5 1.7-3.2 1.4-1.8-.3-14.2-3.3-14.2-3.3l-1 2.4c-1 2.4-1.4 5-1.4 6.6 0 1.4.6 1.3 2.5 1.8z"/><path fill="#d4af3a" d="M450.4 284c-1.7-1-3-1.3-3.7.7-1 2-1 5-3 7-2.3 2-5.3 4.3-8.3 4-3 0-4.7-1-4-4.3.7-3.4 5.3-4.5 6.4-6.3s.8-3.8-.8-5c-1.6-1.5-4-1.8-4.5-1.4-.7.5-2.5 2-3.5 4.6-1 2.6-1.5 4.7-3.5 6.3-2 1.7-7 3.3-11 2.4-4-1-5.6-2.2-7-6.2-1.6-4-3.4-10.5-4.2-11.2-.7-.7-1.7-1.3-3.5 0-1.7 1.2-1.8 3-2 4.4-.3 1.4 0 3 1.7 5.2 1.7 2 3.5 4 4 6.3.8 2 2.7 5.4 0 5.6-2.7.2-4 .3-6-1.7s-10.2-7.6-12.4-9.4c-2-1.8-3-2.4-3-2.4-3.8 0-7.6-1.6-11.3-4.2 0 0 2 5.5 2.6 7.6.4 2 .3 3.3.3 3.3L385 295c3.2 1.6 9.8 5.3 13 7.2 3 2 5.7 5 11.3 3.8 5.6-1 17-4.6 20.5-5.6 3.7-1 13.8-3.6 17.5-6.2 3.7-2.6 4-2.4 4.7-5 .7-2.6 0-4-1.6-5zM428.8 245.5l2.8-.4c2-.2 1.2 1.6 1 2.3-.5.7-1 2.2-1.8 3.5-.8 1.3.2 1.5.8 1.7l2.8.7c1.6.4 1.3-.7 1.3-1.3 0-.6 0-3.7.3-4.7.2-1 1-.8 1.5-.6l2 1c1 .6 1.3 0 1.5-.4 0-.4.5-1.2.8-2.4.4-1.3-.4-1-1-1h-3.2c-1.2-.2-.5-1.4-.5-1.4l1.8-2.6c.7-1 .4-1.3-.3-1.5-.7-.2-3-.7-3.5-1-.6 0-1 0-1 .5v3.4c0 .8 0 1.3-1.2 1.3-1 0-1.7-.5-2.6-1.5-.8-1-1.2-.6-1.3-.2-.2.4-1 3-1 4-.2.6.2.6.8.5z"/><path fill="#d4af3a" d="M366.7 275.8c-1.3-1.2 1.8-1.3 3.6-1.3 2 0 4.8-1 5.8-1.6 1-.7 2.7-1 4.7-2s.8-1.2-1.3-1.7c-2-.5-7.4-2.8-7.4-2.8l-4 2.3c-1.5 1-3.5 2-6.7 2.5l-4.3.6s.8.8 2 2.5 1.7 3 3.2 5.4c1.5 2.5-.2 1-1.5-.6-.7-1-2.3-3-3.8-4.6-1.2-1.2-2.4-2-2.4-2l-1 2.2v.8l-.8 5.6c-.2 1.4.3 1.4 1.4 2 1 .4 3.4 1.7 9.3 5.5 6 3.6 8.2 6 8.2 6s.2-1.5.2-3.2c0-1.6 0-5-1.5-8.6-1.3-3.7-2.6-6-3.8-7.4z"/><path fill="#d4af3a" d="M352.8 267.6c1.4.2 2 .6 4 .6s2.7-.6 4.8-.6c2 0 3.4-.7 6.7-2.5 3.3-1.6 0-1.2-2.2-1-2.2.3-8.2-.6-10.8-1.6-2.6-1-.7-1 0-1 .7.3 1 .5 6.2 1.4 5.2 1 7-.3 9.7-1 2.8-.7-.5-1-.5-1s-9.4-2.7-14-8c-3.6-4-4.8-7.6-5.2-9-1.8 2-4 4-6 5.6 0 .7.5 2 1 3 .7 1.8 3 4 3 4s-2.8-1-4-2.3c-1-1-1.7-2.3-2-3-3.2 2-6.4 3.8-9.3 5.2l1.3 1c1.2 1.2 2.4 2.7 4 5.2 1.6 2.6.2 2.4-1.3 0-1.5-2.3-5-4.8-5.8-5 0-.2-.2-.2-.3-.2-.4 0-.8.3-1.2.5-2 1-3.8 1.7-5.6 2.4 1.2 1 4 3.8 5 5.2 1 1.5 3 3 4 4l2.5 3.5c1 1.2 7.4 8.3 9 11 1.7 2.6.8-.8.3-2.6l-1.6-6.3c-.5-2 .7-1.2 1 0s.4 1 1 3.3c.3 2 1.6 5.3 2.2 7.6.5 2.2.7 1.2 1.3 0 .5-1 1.3-2.7 1.6-4 .4-1 .7-3.5.7-7.3 0-4-1.8-5.4-1.8-6 0-.5 1-1 2.3-.8zM379.8 276c-.6 0-2.5.8-3.3 1H375s1.7 2.5 4.3 2.5h7.6s-4.6-2.7-5.2-3.3c-.6-.6-1.5-.6-2-.3zM434.8 272.6s0 2.2-.3 3c-.2.7-.7 1.8.2 2 1 .4 1.7.8 2.2.6.5 0 .2-1 0-2-.4-1-.8-2-1.5-2.8l-.7-.8zM448 281.3c.3.7 1 .8 1.3 1 .5 0 1 0 1-.7s.2-2-.4-2.8c-.8-1-1.2-1.5-1.6-.2-.4 1.3-.7 2-.4 2.7zM402 272.6c.5 0 2 .5 2 .5s0-2 .2-3.4c.3-1.4 1-2.4.4-2.4-.5 0-.8.4-1.2 1-.4.6-1.4.8-1.8 2.5-.3 1.7.2 1.8.6 2z"/><path fill="#b96b29" d="M221 213.5c-1.4 1-3.4 1.6-3.4 1.6s-1 0-1 .4 1.2 0 2.3-.2c1-.2 2.6-1.3 3.2-1.7.5-.5 1.4-1 1-1.7-.2-.7-.6.6-2 1.7zM234 220.4c-.3.4-2.8 2.3-2.8 2.3s-.8.5-1.6.8c-.8.3-1 .8-1 .8s0 .2 1 0c1-.4 3.5-2.2 4.3-3 .7-.6 1-.8.8-1-.3-.5-.5-.2-.8 0zM181.6 127.4c.5.5 1 1.3 1.3 1 .2-.2 0-.5-.8-1.2l-1-1s-.8-1.5-1.3-2c-.6-.5-1.4-.8-.4.4 1 1.2 1.6 2.2 2 2.8zM177.7 136l1.7 1.7c.6.7 1 1.4 1.4 1 .4-.3-1-1-1.5-1.8-.6-.8-1-1.3-1.8-1.8-.7-.6-1.6-1-1.6-1l1.7 2zM179 150.2c1 1 2.6 1.3 2.8 1 .2-.5 0-1-1-1.3L178 148l-1.8-1.5c-.5-.4-1-1-1.2-.7 0 .2 1.4 1.8 2 2 .3.3 1.2 1 2 2.2zM182 161.4c0-.4 0-.6-.7-.6l-2-.2s-1.6-.7-1.7-.4c0 .4 1.3 1 2 1l1.7.6c.4.2.7 0 .7-.4zM183.2 173.7c-1.7 0-3.2-.4-3.3-.2-.2.3.7.7 1.6 1 1 .3 2.5.4 3.7.5 1 0 1.3-.2 1.3-.8 0-.6-1.6-.5-3.4-.5zM197 187c-.2-.2-1 0-1.8.2-1 .2-2.6.6-3.6.5h-3s-1 0-1 .2c0 0 1.4 0 3.6.3s3.6-.2 4.7-.3c1-.2 1.3-.7 1-1zM202.7 196.6c-1 .5-1.8.6-2.7.6l-2.8.3s-1 0-.7.5c0 .4.4 0 1.3 0 .8-.2 1.4 0 3-.2 1.3 0 2-.4 3-.5 1-.2 2-.7 1.4-1.2-.4-.5-1.4.2-2.5.6zM213.8 203.8c-.6.7-3 2.3-3 2.3l-1.4 1c-1 .4-1 .6-.7.8 0 .3.7-.3 1.2-.5l3-2c1-.8 2-1.4 2-2-.4-.4-.6 0-1.2.5zM195.4 110.4s.2.5 2 3c2 2.2 1 0 .5-.6-.6-.6-3.4-4.6-4.3-5.7-1-1-1-.5-.7.2l2.4 3.2zM191.3 122.7c.3-.3-.3-.6-1.4-2l-3.4-4s-.6-1.4-.8-1.3c-.2.2.7 2.2 1.6 3 1 1 2 2.7 2.7 3.5.7.6 1 1 1.3.7zM196.6 145.8c0-.7-2-.6-3-.8l-2.8-.6s-2-.4-2.2 0c0 .2.4.4 1.6.6l4 1c1.4.2 2.4.4 2.4-.2zM191.3 133.3c1.5 1.2 2.4 1.7 3.2 2 .7.5 1.3 1 1.7.7.5-.5-.3-1-1.5-1.4l-2-1-1.2-.7c-.6-.5-1.6-1-.2.3zM203.7 125l-1.6-1s-1-1-1.2-.8c-.2.4 1.2 1.4 2 2 .6.6 1.8 2.4 2.4 2 .6-.3-.6-1.4-1.5-2zM195.6 157.2l-2 .5c-.7.2-.8.6.6.6s2-.4 3.4-.6c1.4-.3 2-.4 1.7-1-.3-.4-1-.2-1.6 0-.5 0-2 .5-2 .5zM197.8 168.8c0 .3 1 0 1.7-.2l3-1.3c1-.3 1-.4 1-1 0-.5-1 0-2 .3-1.2.4-2.7 1.5-2.7 1.5s-1 .6-1 1zM212.8 176c1-.7 1.2-1.2 1-1.5-.5-.3-.8-.2-1.6.4l-2.5 1.7-1.4.7c-.7.3-1.4.8-1.2 1 .3.4 1.6 0 2.3-.5.6-.6 2.4-1.5 3.5-2zM219.8 185.3c.5-.4 1.7-.8 2.3-1.2.6-.4 1-1.6.5-1.8-.4 0-.7.6-1.7 1.3l-4.3 3-1 .3c-.8.4-.4.6.3.5.8 0 1.3 0 2.3-.8l1.8-1.2zM230.3 194c1-.2 2.2-1.4 2.8-2 .7-.5 1.5-1.2 1-1.6-.4-.4-1 0-1.7.8l-2.6 2.7s-.3 0-1.3.8 0 .6.4.3l1.5-1zM382.4 215s-2-.3-3.5-1.5c-1.6-1-2-2.4-2.3-1.7-.3.7.6 1.2 1 1.7.7.4 2.3 1.5 3.4 1.7 1.2.2 2.3.6 2.3.2 0-.3-1-.3-1-.3zM370.4 223.5l-1.6-.8-2.8-2.3c-.3-.3-.5-.6-.8-.2-.3.3 0 .5 1 1.2.7.7 3.3 2.5 4.2 2.8 1 .3 1 0 1 0s-.2-.4-1-.7zM418.4 127.4c.4-.6 1-1.6 2-2.8 1-1.2.2-1-.3-.4l-1.3 2-1 1c-.6.7-1 1-.6 1.2.3.3 1-.5 1.4-1zM419.2 138.8c.4.3.8-.4 1.4-1l1.7-1.7c.6-.4 1.7-2 1.7-2l-1.6 1.2c-.7.5-1 1-1.7 1.7-.6.6-2 1.4-1.5 1.8zM425 146c-.2 0-.7.3-1.2.7-.5.5-1 1-1.8 1.5-.7.4-2 1.3-3 1.7s-1 .7-.8 1c.2.5 1.7.2 2.7-.8.8-1 1.7-2 2-2 .6-.4 2.2-2 2-2.2zM420.7 160.6l-2 .2c-.8 0-.7.2-.7.6s.3.6.7.4c.4-.2 1-.4 1.7-.5.7 0 2-.8 2-1 0-.4-1.7.3-1.7.3zM416.8 173.7c-1.8 0-3.3 0-3.3.5 0 .6 0 .8 1.2.8s2.8-.2 3.7-.5c1-.3 1.8-.7 1.7-1 0-.2-1.5.2-3.2.2zM411.3 187.6h-3c-1 .2-2.5-.2-3.5-.4s-1.6-.4-1.8 0c-.3 0 0 .6 1 .8 1.2 0 2.6.6 4.8.3 2.2-.2 3.7-.2 3.7-.4 0-.4-1.2-.4-1.2-.4zM402.8 197.5s-2-.3-2.8-.3c-1 0-1.6 0-2.7-.6-1-.4-2-1-2.5-.5-.5.6.5 1 1.4 1.3 1 0 1.7.5 3.2.5h3c.7.2 1 .6 1.2.2 0-.4-.8-.5-.8-.5zM390.6 207c-1-.5-1.4-1-1.4-1s-2.4-1.5-3-2c-.6-.8-1-1-1-.6-.3.5 1 1 1.8 1.8.8.7 2.5 2 3 2 .6.3 1 1 1.3.7.2-.4.2-.6-.7-1zM402.5 113.3c2-2.4 2-3 2-3l2.5-3c.4-.8.3-1.3-.7-.2-1 1.2-3.7 5.2-4.2 5.8-.4.6-1.4 2.8.5.5zM414.2 115.4c-.2 0-.8 1.2-.8 1.2l-3.3 4.2c-1 1.3-1.6 1.6-1.3 2 .3.2.6-.2 1.2-1 .5-.7 1.7-2.4 2.6-3.3 1-1 1.8-3 1.6-3zM403.4 145.8c0 .6 1 .4 2.3.2 1.3-.2 3-.8 4-1 1.3-.2 1.7-.4 1.7-.7 0-.3-2.2 0-2.2 0l-2.7.7c-1 .2-3 0-3 .7zM408.5 133l-1.3.6s-.6.4-2 1c-1 .5-2 1-1.4 1.4.4.4 1-.2 1.7-.6l3.2-2c1.4-1.3.4-1-.2-.5zM394.8 127.3c.6.3 1.8-1.5 2.5-2 .7-.7 2-1.7 2-2-.3-.4-1.4.6-1.4.6l-1.7 1c-1 .8-2 2-1.5 2.3zM402.4 157.7c1.4.3 2 .6 3.4.6s1.3-.3.5-.6l-2-.5-2-.5c-.6-.2-1.4-.4-1.6 0-.2.6.3.7 1.7 1zM401.2 168s-1.5-1-2.6-1.4c-1.2-.3-2-.8-2-.2 0 .5 0 .6.8 1 1 .2 2.4 1 3 1.2.8.3 2 .5 1.8.3 0-.4-1-1-1-1zM391.7 177.4l-1.4-.7-2.5-1.8c-.8-.7-1-.8-1.5-.5-.3.3 0 .8 1 1.4 1 .5 2.8 1.4 3.4 2 .7.5 2 .8 2.2.5 0-.3-.7-.8-1.3-1zM384.4 186.8l-1-.3-4.2-3c-1-.7-1.3-1.4-1.7-1.2-.5 0 0 1.4.4 1.8.5.5 1.7 1 2.2 1.3l1.7 1.2c1 .7 1.4.7 2.2.8.7 0 1 0 .2-.5zM371.6 194.8c-1-1-1.3-1-1.3-1l-2.6-2.6c-.8-.7-1.3-1.2-1.7-.8-.5.4.3 1 1 1.7.5.6 1.8 1.8 2.7 2 1 .5 1 .7 1.5 1 .4.4 1.4.6.4-.2z"/><path fill="#d4af3a" d="M300 69c-7 .2-15.4-.7-20-2.4l-4.8 1c7.5 3 13.8 4 24.8 4s17.2-1 24.7-4l-4.8-1c-4.7 1.7-13 2.6-20 2.5zM325.6 63.2c-.5-.4-3.7-2.7-4.6-3-.8-.6 0-1.7 0-2 0-.6 3.8-1.6 5.8-2.2 2-.5 1.6-1 1.6-1s-1-1.2-8.4-2c-7.3-.8-20-.6-20-.6s-12.8-.2-20 .6c-7.3.8-8.5 2-8.5 2s-.3.5 1.7 1c2 .6 5.6 1.6 5.8 2 0 .5.8 1.6 0 2-1 .5-4 2.8-4.7 3.2-.5.5-.6 1.3.3 1.3 1 0 1 0 3.4-.5 7.5-1.5 14.5-2 22-2s14.5.5 22 2c2.5.5 2.5.5 3.4.5 1 0 .8-.8.2-1.3z"/><path fill="#d4af3a" d="M277.2 58l-5-1.2-3.2 2.6 4 1.7M331 59.4l-3.3-2.6-5 1.3 4.2 3M317.4 66.3c-5-.6-8.2-1.2-17.4-1-9.2 0-12.4.4-17.4 1 3.2 1.3 8.2 2 17.4 2s14.2-.7 17.4-2z"/><path fill="#1d5e91" d="M307 210.7c-.6-1-.7-.8-1.4-.2-.7.6-1.4-1.5-1.5-2.8 0-1.2.6-5 .6-5s-3.3.6-5 1c-1.8.7-3.5 1-5 1.3-1.4.3-2.2.6-3 .5-.7-.2-2.3-.3-3.6-.3-1.3 0-1.2.3-2.4 1.5-1.3 1.3-1.7 2-2.7 4.4-1 2.4-1.4 4.6-1.8 7.5-.2 2-.6 3.2-.8 4h15.2l.6-1.7c.4-.8 1.3-1.4 2-1.7.5-.2 1-.2 1.3-.8.2-.7 1-1.3 1.8-1.6.8-.4 2.2-.2 3.5.2 1.2.3 1.7-.5 2-1 .4-.5.6-1.2 1.2-2 .7-1 .2-1.7.2-1.7s-.6-.3-1.2-1.3zM331.4 211c-.2-.8 0-1-.6-1-.5 0-1.4-.3-2.2-.6-.7-.3-.7 1.7-.7 1.7s-1.8.3-4 0c-2-.2-4.3-2-5-2.6-1-.6-2-2-2-2l-1.2 1s-1 1.6-1 3c-.2 1.2 1.4 2.8 1.5 4 0 1.3-1.4 4-2 5-.6.6-1.3 2-1.7 3h7.4c0-.4.4-1 .7-1.2.8-.8 2-1 2-1l.3-1c.3-.6 1-1.4 3-2 1.7-1 4-1 4-1s.8-.7 1.5-1.7c.6-1 0-2.5 0-3.4z"/><path fill="#d4af3a" d="M298.7-5.6l-.2 3.5 3.8-.4-.4-3.3 4 .6.2-3.4-4.3.4.6-3.6H298l.7 3.6-4-.4V-5M306.8 3.3h-5V-1c-.6-.2-1-.2-1.7-.2H299v4.5h-5.3c-.2.6-.3 1-.3 1.8V6H307V5c0-.6 0-1-.2-1.7z"/><path fill="#1d5e91" d="M300 11.3c3.2 0 5.8-1.8 6.7-4.3h-13c.8 2.5 3.4 4.3 6.5 4.3zM303-.7v3h3.4c-.7-1.3-2-2.4-3.4-3zM297.3-.7c-1.5.6-2.7 1.7-3.4 3h3.3v-3z"/><path fill="#b96b29" d="M304 55l-4-2-4.2 2.2c-1.4.7-1.2.5-1.7 1.6-.3 1 .2 1.4.8 1.7L300 61l5.7-2.5c1-.5 1-1 .6-1.8-.3-.8-1-1-2.2-1.7z"/><ellipse rx="2.1" transform="translate(-300 -120) scale(1.875)" ry="2.1" cy="94.7" cx="327.2" fill="#b96b29"/><ellipse rx="2.1" transform="translate(-300 -120) scale(1.875)" ry="2.1" cy="94.7" cx="312.8" fill="#b96b29"/><path fill="#d4af3a" d="M300 54.2l-4.4 2 4.5 2.4 4.5-2.3"/><ellipse rx="1.3" transform="translate(-300 -120) scale(1.875)" ry="1.2" cy="94.3" cx="327.2" fill="#d4af3a"/><ellipse rx="1.3" transform="translate(-300 -120) scale(1.875)" ry="1.2" cy="94.3" cx="312.8" fill="#d4af3a"/><path fill="#d4af3a" d="M278 44.3c1 .3 2.5.2 2.5.2s.4-1.8-.6-2.7l-2.6-2-.7-.8v2.5c0 1 .3 2.4 1.4 2.8z"/><ellipse rx=".4" transform="translate(-300 -120) scale(1.875)" ry=".4" cy="88.7" cx="309.4" fill="#d4af3a"/><path fill="#d4af3a" d="M274.7 45.5l-1 1s.8 0 1.5.6 1.5 1 2.3 1c.8-.2 1.2-1 1-1.5-.2-.5-.6-1-1.8-1.5-1.3-.5-1.7 0-2 .5z"/><path fill="#d4af3a" d="M277.5 50.2c-2.5.2-5.8-2.6-5.8-2.6-.4 2.2-1.7 3.4-4 3.8h.3s2 1 4.3 1.5c1 0 2 0 3.2-.3 1.3-.3 3-.7 3.7-1.2 1.5-1 1-3.4 1-3.4s-.2 2-2.7 2.2zM267.7 47.6c-1-.4-2.6-1-3.3-1-.6-.2-1.6-.3-1.4 1 .2 1 1.4 1.7 2.6 1.7 1.2 0 1.8-.4 2.5-.8.8-.3.7-.5-.3-1zM259.8 43.3c-1.2-.8-2.2-1-2.2-1s-.7 2-.3 3.2c.4 1.2 1.3 1.5 2.4 1.4 1 0 2.6-.6 2.2-1.4-.6-1-1-1.4-2.2-2.3z"/><ellipse rx=".5" transform="translate(-300 -120) scale(1.875)" ry=".3" cy="90" cx="299.1" fill="#d4af3a"/><path fill="#d4af3a" d="M263.2 39c-.7-3.2-.6-6.8 2.6-11.4 3-4.6 8.6-6.5 8.6-6.5l2-2c1.7-2 5.3-4.3 5.3-4.3s-4.2 1-6.5 1.7v.2c0 1.6-1.3 3-3 3-.5 0-1-.3-1.5-.7-1.2.2-5.5 2.7-6.6 3.6.4.5.6 1 .6 1.6 0 1.5-1.3 2.8-3 2.8-.3 0-.8 0-1.2-.3l-.3.6c-.8 1.7-1.5 3.2-2 4.7.8.5 1.2 1.4 1.2 2.5 0 1.6-1 3-2.4 3V39c0 1 .5 1.6 2 2 1.7.5 4 3.3 4 3.3s1.3-2 .4-5.4z"/><path fill="#d4af3a" d="M273.3 17.8c.6-.5.7-1.2.2-1.6-.5-.4-1.3-.4-2 0-.5.6-.6 1.3-.2 1.7.5.4 1.4.3 2-.2zM262.7 25c.7-.6.8-1.6.2-2-.6-.6-1.6-.6-2.2 0-.7.6-.8 1.6-.3 2 .5.6 1.5.6 2.2 0z"/><ellipse rx=".9" transform="translate(-300 -120) scale(1.875)" ry=".9" cy="82.1" cx="296.7" fill="#d4af3a"/><path fill="#d4af3a" d="M291.6 11.3c-.8.2-2.4.7-4.7 2 1.6 0 2.8 1 2.8 2.3 0 1.4-1.5 2.8-3 2.8S284 17 284 15.7c0-.4 0-.7.2-1l-2.3 1.5c-5.2 3.5-6.5 5.2-9 10-2.6 4.8-3.5 10-2.4 13 1 3.2 5.2 3.8 5.2 3.8s-.4-.4-.5-1c0-.6 0-1 .3-2 .2-1.2 0-2.6 0-2.6s1 0 1.5.5l2 2c.4.6 1.8 1.8 1.8 1.8s1-1.2 1-2.6c0-1.4-1-3-1.3-5.3s1.2-7 3.5-10.2c2.4-3.2 7-6 8.3-6.7 1.3-.6 1.6-1.6 1.6-2.2l.2-2.4c0-1.5-1.2-1.4-2.6-1z"/><path fill="#d4af3a" d="M286.5 16.8c1 0 1.7-.8 1.7-1.6 0-.7-.7-1.3-1.6-1.3-1 0-1.7.5-1.7 1.3s.5 1.5 1.5 1.5zM294.2 47.3c1.3.6 2.7.3 3.3-.2.7-.3 1-1.5 0-2-.6-.8-1.8-.7-2.5-.3l-2.4 1.5s.4.6 1.6 1z"/><path fill="#d4af3a" d="M298.2 48.7c-.4.7-.8 1.2-2.2 1.2-1.4 0-3 0-3.8-1-1-1-1.5-2.2-1.5-2.2H289s-.4 2.2-1 2.8c-.8.6-3.2.7-4.3 0s-2-2-2.2-1.8c-.2.2 0 1 1 2 1.2.8 2 1.4 3.7 1.4h10s2 0 2.6-1c.6-1.3.6-2 .3-2.4-.2-.3-.3.2-.8 1z"/><path fill="#d4af3a" d="M283 47c1.6 1 2.4.4 3-.3l.6-1-2-1c-.8-.3-1.3-.7-2-.6l-.8.3s-.2 2 1.3 2.8zM302.3 45c-.8.5-.6 1.7 0 2 .8.6 2.2.8 3.4.3 1.3-.5 1.7-1 1.7-1l-2.4-1.6c-.7-.4-2-.5-2.7.2z"/><path fill="#d4af3a" d="M316.2 49.5c-1 .8-3.5.7-4.2 0-.7-.5-1.2-2.7-1.2-2.7h-1.6s-.6 1.3-1.5 2.2c-1 1-2.4 1-3.8 1-1.5 0-1.8-.6-2.3-1.2-.4-.7-.6-1.3-1-1-.2.3 0 1 .4 2.3.7 1.3 2.7 1.2 2.7 1.2h10c1.8 0 2.5-.6 3.6-1.5 1-1 1.3-1.7 1-2l-2 1.8z"/><path fill="#d4af3a" d="M315.5 44.8l-2 1 .5 1c.6.6 1.4 1 3 .3 1.4-.8 1-2.7 1-2.7l-.7-.2c-.7 0-1 .4-1.8.8zM323.3 41.5V39l-.8.8-2.4 2c-1 1-.5 2.7-.5 2.7s1.3.2 2.4-.2c1-.4 1.4-1.8 1.3-2.8zM320.5 46.2c0-.4-.3-.7-.8-.7-.4 0-.7.3-.7.7 0 .4.3.7.7.7.5 0 .8-.4.8-.8zM322.4 48c.8 0 1.7-.4 2.3-1 .7-.4 1.5-.4 1.5-.4l-1-1c-.3-.6-.6-1-2-.6-1.2.4-1.6 1-1.8 1.5 0 .6.2 1.3 1 1.4z"/><path fill="#d4af3a" d="M328.3 47.6s-3.4 2.8-6 2.6c-2.4-.3-2.6-2-2.6-2s-.5 2.3 1 3.3c1 .5 2.4 1 3.8 1 1 .4 2 .6 3 .4 2.4-.5 4.4-1.5 4.4-1.5-2-.5-3.4-1.7-3.7-4zM335.5 46.5c-.6 0-2.2.7-3.2 1-1 .5-1.2.7-.5 1 .7.4 1.3.8 2.5.8s2.5-.6 2.6-1.8c0-1.2-.8-1-1.5-1zM340.2 43.3c-1.2 1-1.7 1.4-2 2.3-.6.8 1 1.3 2 1.3s2-.3 2.4-1.5c.5-1.2-.3-3.2-.3-3.2s-1 .2-2 1z"/><ellipse rx=".5" transform="translate(-300 -120) scale(1.875)" ry=".3" cy="90" cx="340.9" fill="#d4af3a"/><path fill="#d4af3a" d="M340.7 34.5c0-1 .5-2 1.2-2.5l-2-4.7-.5-.6c-.4.2-.8.3-1.3.3-1.6 0-2.8-1.3-2.8-2.8 0-.6 0-1 .4-1.6-1-1-5.3-3.4-6.6-3.7-.5.3-1 .5-1.6.5-1.6 0-2.8-1.3-2.8-3-2.4-.8-6.5-1.8-6.5-1.8s3.5 2.3 5.3 4.2l2 2s5.4 2 8.6 6.6c3 4.6 3.2 8.2 2.5 11.5-.8 3.4.3 5.6.5 5.6 0 0 2.2-3 3.8-3.4 1.7-.4 2-1 2-2 .2-.2.2-1 0-1.8-1.2 0-2.3-1.3-2.3-3z"/><path fill="#d4af3a" d="M326.7 17.8c.6.5 1.4.6 2 0 .4-.3.3-1-.3-1.5s-1.5-.5-2 0c-.4.3-.3 1 .3 1.5zM337.3 25c.6.6 1.6.6 2 0 .7-.4.5-1.3 0-2-.8-.6-1.8-.6-2.3 0-.5.4-.4 1.4.3 2z"/><ellipse rx=".9" transform="translate(-300 -120) scale(1.875)" ry=".9" cy="82.1" cx="343.2" fill="#d4af3a"/><path fill="#d4af3a" d="M306 14.8c0 .6.3 1.6 1.7 2.3 1.3.7 5.8 3.6 8.2 6.8 2.3 3.2 3.6 7.6 3.4 10-.2 2.5-1 4-1 5.4 0 1.4.7 2.6.7 2.6l2-2 1.8-2c.6-.5 1.5-.4 1.5-.4s0 1.4 0 2.5c.2 1 .4 1.4.3 2 0 .6-.5 1-.5 1 .2 0 4.3-.6 5.4-3.7s0-8.3-2.4-13c-2.6-5-3.8-6.6-9-10l-2.2-1.6.2 1c0 1.3-1 2.7-2.8 2.7s-3-1.5-3-2.8 1.2-2.4 2.8-2.4c-2.3-1.2-4-1.7-4.7-2-1.3-.2-2.7-.3-2.6 1.2 0 1.4.3 2 .3 2.4zM300 38.7s-.4 1.6-1 2.3c-.4.7-.8 1.3-.7 2 .2 1 1 1.4 1.7 1.4.5 0 1.5-.5 1.6-1.3 0-.7-.2-1.3-.7-2-.6-.7-1-2.3-1-2.3z"/><circle cx="320" transform="translate(-300 -120) scale(1.875)" cy="88.6" r=".5" fill="#d4af3a"/><path fill="#d4af3a" d="M297 41.7s1.4-1.6 2-2.7l1-2 1 2 2 2.7s2-1 3.2-5c1.2-4-.3-8-.8-12.6-.6-4.4-1-12.2-1-12.2-1.6 1-3 1.3-4.4 1.3-1.5 0-3-.3-4.5-1.2 0 0-.4 7.8-1 12.3-.5 4.6-2 8.7-.8 12.7s3.3 5 3.3 5zM311.7 15.2c0 .8.8 1.6 1.8 1.6s1.5-.8 1.5-1.5c0-.8-.7-1.4-1.7-1.4s-1.6.5-1.6 1.2z"/><ellipse rx="1.8" transform="translate(-300 -120) scale(1.875)" ry="1.8" cy="81.2" cx="307.1" fill="#b96b29"/><path fill="#b96b29" d="M281.6 21c-1.3-1-3.3-.6-4.4.7-1 1.3-.8 3 .5 4s3.3.6 4.4-.8c1-1.4 1-3.2-.4-4z"/><ellipse rx="1" transform="translate(-300 -120) scale(1.875)" ry="1" cy="81" cx="307" fill="#d4af3a"/><path fill="#d4af3a" d="M280.2 21.3c-.8-.3-2 0-2.3 1-.6.7 0 1.5 1 1.7 2 .4 3-2.2 1.2-2.7z"/><ellipse rx="1.9" transform="translate(-300 -120) scale(1.875)" ry="1.8" cy="81.5" cx="320" fill="#b96b29"/><ellipse rx="1.8" transform="translate(-300 -120) scale(1.875)" ry="1.8" cy="77.2" cx="320" fill="#b96b29"/><ellipse rx="1.7" transform="translate(-300 -120) scale(1.875)" ry="1.7" cy="73.1" cx="320" fill="#b96b29"/><path fill="#b96b29" d="M324 29c-1.7 0-3.2 1.5-3.2 3.3 0 1.8 1.5 3.3 3.3 3.3 2 0 3.4-1.5 3.4-3.3 0-1.8-1.4-3.3-3.3-3.3zM322.7 21.7c-1-1.3-3-1.7-4.4-.8-1.3.8-1.5 2.6-.4 4 1 1.3 3 1.6 4.3.7 1.3-1 1.5-2.7.4-4z"/><ellipse rx="1" transform="translate(-300 -120) scale(1.875)" ry="1" cy="81" cx="332.9" fill="#d4af3a"/><path fill="#d4af3a" d="M319.7 21.3c-2 .5-1 3 1.2 2.7 1-.2 1.5-1 1-1.8-.4-.8-1.4-1.2-2.3-1z"/><ellipse rx="1" transform="translate(-300 -120) scale(1.875)" ry="1" cy="81.2" cx="320" fill="#d4af3a"/><ellipse rx="1" transform="translate(-300 -120) scale(1.875)" ry=".9" cy="76.9" cx="320" fill="#d4af3a"/><ellipse rx=".8" transform="translate(-300 -120) scale(1.875)" ry=".8" cy="72.8" cx="320" fill="#d4af3a"/><circle cx="379.3" transform="translate(-300 -120) scale(1.875)" cy="207.4" r="1.6" fill="#b96b29"/><circle cx="383.6" transform="translate(-300 -120) scale(1.875)" cy="208.5" r="1.6" fill="#b96b29"/><circle cx="396.4" transform="translate(-300 -120) scale(1.875)" cy="211.2" r="1.6" fill="#b96b29"/><circle cx="388" transform="translate(-300 -120) scale(1.875)" cy="209.6" r="1.6" fill="#b96b29"/><circle cx="389.2" transform="translate(-300 -120) scale(1.875)" cy="205.7" r="1.6" fill="#b96b29"/><circle cx="390.3" transform="translate(-300 -120) scale(1.875)" cy="201.9" r="1.6" fill="#b96b29"/><circle cx="379.4" transform="translate(-300 -120) scale(1.875)" cy="207.3" r=".8" fill="#d4af3a"/><circle cx="383.8" transform="translate(-300 -120) scale(1.875)" cy="208.4" r=".8" fill="#d4af3a"/><circle cx="396.5" transform="translate(-300 -120) scale(1.875)" cy="211.1" r=".8" fill="#d4af3a"/><circle cx="388.2" transform="translate(-300 -120) scale(1.875)" cy="209.4" r=".8" fill="#d4af3a"/><circle cx="389.3" transform="translate(-300 -120) scale(1.875)" cy="205.6" r=".8" fill="#d4af3a"/><circle cx="390.4" transform="translate(-300 -120) scale(1.875)" cy="201.8" r=".8" fill="#d4af3a"/></g></svg>