<svg xmlns="http://www.w3.org/2000/svg" height="480" width="640" version="1"><g fill-rule="evenodd"><path fill="#fff" d="M320 0h320v480H320z"/><path d="M282.4-735c0 .5 56 222.7 118.2 300.4 69.4 87.3 113.2 87.4 113.2 87.4l70.8-17.8s-41.5 2-123.8-104.2c-83.4-107.7-109.4-286-108-282.8l-70.4 17z" transform="matrix(-.24 0 0 .2 534.09 334.357)" stroke="#000" stroke-width="1.2" fill="#fff"/><path d="M285-727.6c-1.5-9.4 34 221 140.2 327.2 53 53 88.6 53 88.6 53l88.6-17.6s-51.7 3.8-134-102.5c-83.5-107.8-108.6-263.3-108-264l-75.4 4z" transform="matrix(.24 0 0 .2 381.89 336.17)" stroke="#000" stroke-width="1.2" fill="#fff"/><path d="M282.4-735c0 .5 56 222.7 118.2 300.4 69.4 87.3 113.2 87.4 113.2 87.4l70.8-17.8s-41.5 2-123.8-104.2c-83.4-107.7-109.4-286-108-282.8l-70.4 17z" transform="matrix(.24 0 0 .2 381.89 336.17)" stroke="#000" stroke-width="1.2" fill="#fff"/><path d="M285-727.6c-1.5-9.4 34 221 140.2 327.2 53 53 88.6 53 88.6 53l88.6-17.6s-51.7 3.8-134-102.5c-83.5-107.8-108.6-263.3-108-264l-75.4 4z" transform="matrix(-.24 0 0 .2 534.09 334.357)" stroke="#000" stroke-width="1.2" fill="#fff"/><path d="M344.5-596.3l9.2 22.2s1.4-10 8.5-11.7l7-1.8s27 49.4 32.3 58.2c5.3 9-3.6 16.8-1.8 16.8s26.5-11.5 26.5-11.5-10.6 1-15-6.2-34.8-60-34.8-60 6-2.6 11.5-5.2c5.2-2.7 10.5 8 10.5 8L385.2-614s0 9-4.4 10.6c-4.4 1.8-8 3.6-8 3.6s-3.5-6.2-8-13.3c-4.3-7.2 4.5-14.2 4.5-14.2l-23 11.5s8 4.4 10.6 8.8l5.2 9s-3.2 1.7-8.2 3.4c-3.6 2-7.7 0-9.5-1.7z" transform="matrix(.24 .004 -.005 .2 380.013 342.305)" stroke="#000" stroke-width="1.2" fill="#fff133"/><g stroke="#000" stroke-width="12.8" fill="#b00"><path d="M212.6-453.5c-35.4 0-71 35.4-71 70.8s35.6 71 71 71h195c35.3 0 70.7-35.5 70.7-71 0-37-35.4-70.8-70.8-70.8h-195z" transform="matrix(.018 .003 .01 -.012 411.028 329.63)"/><path d="M212.6-453.5c-35.4 0-71 35.4-71 70.8s35.6 71 71 71h195c35.3 0 70.7-35.5 70.7-71 0-37-35.4-70.8-70.8-70.8h-195z" transform="matrix(.017 .003 .01 -.012 409.377 330.944)"/><path d="M212.6-453.5c-35.4 0-71 35.4-71 70.8s35.6 71 71 71h195c35.3 0 70.7-35.5 70.7-71 0-37-35.4-70.8-70.8-70.8h-195z" transform="matrix(.018 .003 .01 -.012 407.292 332.556)"/><path d="M212.6-453.5c-35.4 0-71 35.4-71 70.8s35.6 71 71 71h195c35.3 0 70.7-35.5 70.7-71 0-37-35.4-70.8-70.8-70.8h-195z" transform="matrix(.018 0 .006 -.013 429.522 312.364)"/><path d="M212.6-453.5c-35.4 0-71 35.4-71 70.8s35.6 71 71 71h195c35.3 0 70.7-35.5 70.7-71 0-37-35.4-70.8-70.8-70.8h-195z" transform="matrix(.018 0 .007 -.013 428.348 313.853)"/><path d="M212.6-453.5c-35.4 0-71 35.4-71 70.8s35.6 71 71 71h195c35.3 0 70.7-35.5 70.7-71 0-37-35.4-70.8-70.8-70.8h-195z" transform="matrix(.018 0 .007 -.013 426.776 315.833)"/><path d="M212.6-453.5c-35.4 0-71 35.4-71 70.8s35.6 71 71 71h195c35.3 0 70.7-35.5 70.7-71 0-37-35.4-70.8-70.8-70.8h-195z" transform="matrix(.018 0 .008 -.013 425.782 316.386)"/><path d="M212.6-453.5c-35.4 0-71 35.4-71 70.8s35.6 71 71 71h195c35.3 0 70.7-35.5 70.7-71 0-37-35.4-70.8-70.8-70.8h-195z" transform="matrix(.018 -.003 .005 -.014 433.904 305.88)"/><path d="M212.6-453.5c-35.4 0-71 35.4-71 70.8s35.6 71 71 71h195c35.3 0 70.7-35.5 70.7-71 0-37-35.4-70.8-70.8-70.8h-195z" transform="matrix(.017 -.002 .005 -.014 432.92 307.6)"/><path d="M212.6-453.5c-35.4 0-71 35.4-71 70.8s35.6 71 71 71h195c35.3 0 70.7-35.5 70.7-71 0-37-35.4-70.8-70.8-70.8h-195z" transform="matrix(.018 -.003 .005 -.014 431.657 309.728)"/><path d="M212.6-453.5c-35.4 0-71 35.4-71 70.8s35.6 71 71 71h195c35.3 0 70.7-35.5 70.7-71 0-37-35.4-70.8-70.8-70.8h-195z" transform="matrix(.018 -.002 .005 -.014 430.475 311.23)"/><path d="M212.6-453.5c-35.4 0-71 35.4-71 70.8s35.6 71 71 71h195c35.3 0 70.7-35.5 70.7-71 0-37-35.4-70.8-70.8-70.8h-195z" transform="matrix(.018 .002 .01 -.012 417.952 323.963)"/><path d="M212.6-453.5c-35.4 0-71 35.4-71 70.8s35.6 71 71 71h195c35.3 0 70.7-35.5 70.7-71 0-37-35.4-70.8-70.8-70.8h-195z" transform="matrix(.018 .002 .01 -.012 416.433 325.382)"/><path d="M212.6-453.5c-35.4 0-71 35.4-71 70.8s35.6 71 71 71h195c35.3 0 70.7-35.5 70.7-71 0-37-35.4-70.8-70.8-70.8h-195z" transform="matrix(.018 .002 .01 -.012 414.51 327.13)"/><path d="M212.6-453.5c-35.4 0-71 35.4-71 70.8s35.6 71 71 71h195c35.3 0 70.7-35.5 70.7-71 0-37-35.4-70.8-70.8-70.8h-195z" transform="matrix(.017 .003 .01 -.012 413.114 328.02)"/><path d="M212.6-453.5c-35.4 0-71 35.4-71 70.8s35.6 71 71 71h195c35.3 0 70.7-35.5 70.7-71 0-37-35.4-70.8-70.8-70.8h-195z" transform="matrix(.018 0 .008 -.013 424.063 318.28)"/><path d="M212.6-453.5c-35.4 0-71 35.4-71 70.8s35.6 71 71 71h195c35.3 0 70.7-35.5 70.7-71 0-37-35.4-70.8-70.8-70.8h-195z" transform="matrix(.018 0 .008 -.013 422.71 319.81)"/><path d="M212.6-453.5c-35.4 0-71 35.4-71 70.8s35.6 71 71 71h195c35.3 0 70.7-35.5 70.7-71 0-37-35.4-70.8-70.8-70.8h-195z" transform="matrix(.018 .002 .01 -.012 421.393 320.795)"/><path d="M212.6-453.5c-35.4 0-71 35.4-71 70.8s35.6 71 71 71h195c35.3 0 70.7-35.5 70.7-71 0-37-35.4-70.8-70.8-70.8h-195z" transform="matrix(.018 .002 .01 -.012 419.875 322.214)"/><path d="M212.6-453.5c-35.4 0-71 35.4-71 70.8s35.6 71 71 71h195c35.3 0 70.7-35.5 70.7-71 0-37-35.4-70.8-70.8-70.8h-195z" transform="matrix(.017 -.006 0 -.014 443.65 284.224)"/><path d="M212.6-453.5c-35.4 0-71 35.4-71 70.8s35.6 71 71 71h195c35.3 0 70.7-35.5 70.7-71 0-37-35.4-70.8-70.8-70.8h-195z" transform="matrix(.017 -.004 .003 -.014 443.624 284.813)"/><path d="M212.6-453.5c-35.4 0-71 35.4-71 70.8s35.6 71 71 71h195c35.3 0 70.7-35.5 70.7-71 0-37-35.4-70.8-70.8-70.8h-195z" transform="matrix(.017 -.004 .003 -.014 442.667 287.05)"/><path d="M212.6-453.5c-35.4 0-71 35.4-71 70.8s35.6 71 71 71h195c35.3 0 70.7-35.5 70.7-71 0-37-35.4-70.8-70.8-70.8h-195z" transform="matrix(.017 -.004 .003 -.014 441.928 288.854)"/><path d="M212.6-453.5c-35.4 0-71 35.4-71 70.8s35.6 71 71 71h195c35.3 0 70.7-35.5 70.7-71 0-37-35.4-70.8-70.8-70.8h-195z" transform="matrix(.017 -.005 0 -.014 445.698 277.79)"/><path d="M212.6-453.5c-35.4 0-71 35.4-71 70.8s35.6 71 71 71h195c35.3 0 70.7-35.5 70.7-71 0-37-35.4-70.8-70.8-70.8h-195z" transform="matrix(.017 -.006 0 -.014 444.956 280.083)"/><path d="M212.6-453.5c-35.4 0-71 35.4-71 70.8s35.6 71 71 71h195c35.3 0 70.7-35.5 70.7-71 0-37-35.4-70.8-70.8-70.8h-195z" transform="matrix(.017 -.005 0 -.014 444.393 281.93)"/><path d="M212.6-453.5c-35.4 0-71 35.4-71 70.8s35.6 71 71 71h195c35.3 0 70.7-35.5 70.7-71 0-37-35.4-70.8-70.8-70.8h-195z" transform="matrix(.018 -.003 .004 -.014 438.058 298.304)"/><path d="M212.6-453.5c-35.4 0-71 35.4-71 70.8s35.6 71 71 71h195c35.3 0 70.7-35.5 70.7-71 0-37-35.4-70.8-70.8-70.8h-195z" transform="matrix(.017 -.003 .004 -.014 437.15 300.05)"/><path d="M212.6-453.5c-35.4 0-71 35.4-71 70.8s35.6 71 71 71h195c35.3 0 70.7-35.5 70.7-71 0-37-35.4-70.8-70.8-70.8h-195z" transform="matrix(.018 -.003 .004 -.014 435.983 302.218)"/><path d="M212.6-453.5c-35.4 0-71 35.4-71 70.8s35.6 71 71 71h195c35.3 0 70.7-35.5 70.7-71 0-37-35.4-70.8-70.8-70.8h-195z" transform="matrix(.017 -.002 .005 -.014 435.166 303.75)"/><path d="M212.6-453.5c-35.4 0-71 35.4-71 70.8s35.6 71 71 71h195c35.3 0 70.7-35.5 70.7-71 0-37-35.4-70.8-70.8-70.8h-195z" transform="matrix(.017 -.004 .003 -.014 440.97 291.09)"/><path d="M212.6-453.5c-35.4 0-71 35.4-71 70.8s35.6 71 71 71h195c35.3 0 70.7-35.5 70.7-71 0-37-35.4-70.8-70.8-70.8h-195z" transform="matrix(.017 -.003 .004 -.014 441.3 292.223)"/><path d="M212.6-453.5c-35.4 0-71 35.4-71 70.8s35.6 71 71 71h195c35.3 0 70.7-35.5 70.7-71 0-37-35.4-70.8-70.8-70.8h-195z" transform="matrix(.018 -.003 .004 -.014 440.132 294.39)"/><path d="M212.6-453.5c-35.4 0-71 35.4-71 70.8s35.6 71 71 71h195c35.3 0 70.7-35.5 70.7-71 0-37-35.4-70.8-70.8-70.8h-195z" transform="matrix(.017 -.003 .004 -.014 439.225 296.137)"/><path d="M212.6-453.5c-35.4 0-71 35.4-71 70.8s35.6 71 71 71h195c35.3 0 70.7-35.5 70.7-71 0-37-35.4-70.8-70.8-70.8h-195z" transform="matrix(.015 -.008 -.002 -.014 448.86 266.508)"/><path d="M212.6-453.5c-35.4 0-71 35.4-71 70.8s35.6 71 71 71h195c35.3 0 70.7-35.5 70.7-71 0-37-35.4-70.8-70.8-70.8h-195z" transform="matrix(.017 -.006 0 -.014 448.904 268.05)"/><path d="M212.6-453.5c-35.4 0-71 35.4-71 70.8s35.6 71 71 71h195c35.3 0 70.7-35.5 70.7-71 0-37-35.4-70.8-70.8-70.8h-195z" transform="matrix(.017 -.005 0 -.014 448.38 269.903)"/><path d="M212.6-453.5c-35.4 0-71 35.4-71 70.8s35.6 71 71 71h195c35.3 0 70.7-35.5 70.7-71 0-37-35.4-70.8-70.8-70.8h-195z" transform="matrix(.015 -.007 0 -.014 449.652 259.882)"/><path d="M212.6-453.5c-35.4 0-71 35.4-71 70.8s35.6 71 71 71h195c35.3 0 70.7-35.5 70.7-71 0-37-35.4-70.8-70.8-70.8h-195z" transform="matrix(.015 -.008 -.002 -.014 449.357 262.246)"/><path d="M212.6-453.5c-35.4 0-71 35.4-71 70.8s35.6 71 71 71h195c35.3 0 70.7-35.5 70.7-71 0-37-35.4-70.8-70.8-70.8h-195z" transform="matrix(.015 -.007 0 -.014 449.153 264.143)"/><path d="M212.6-453.5c-35.4 0-71 35.4-71 70.8s35.6 71 71 71h195c35.3 0 70.7-35.5 70.7-71 0-37-35.4-70.8-70.8-70.8h-195z" transform="matrix(.017 -.006 0 -.014 447.69 272.21)"/><path d="M212.6-453.5c-35.4 0-71 35.4-71 70.8s35.6 71 71 71h195c35.3 0 70.7-35.5 70.7-71 0-37-35.4-70.8-70.8-70.8h-195z" transform="matrix(.017 -.005 0 -.014 447.036 273.544)"/><path d="M212.6-453.5c-35.4 0-71 35.4-71 70.8s35.6 71 71 71h195c35.3 0 70.7-35.5 70.7-71 0-37-35.4-70.8-70.8-70.8h-195z" transform="matrix(.017 -.006 0 -.014 446.296 275.838)"/></g><g stroke="#000" stroke-width="12.8" fill="#b00"><path d="M212.6-453.5c-35.4 0-71 35.4-71 70.8s35.6 71 71 71h195c35.3 0 70.7-35.5 70.7-71 0-37-35.4-70.8-70.8-70.8h-195z" transform="matrix(-.018 .002 -.01 -.012 503.156 323.982)"/><path d="M212.6-453.5c-35.4 0-71 35.4-71 70.8s35.6 71 71 71h195c35.3 0 70.7-35.5 70.7-71 0-37-35.4-70.8-70.8-70.8h-195z" transform="matrix(-.018 .002 -.01 -.012 504.7 325.383)"/><path d="M212.6-453.5c-35.4 0-71 35.4-71 70.8s35.6 71 71 71h195c35.3 0 70.7-35.5 70.7-71 0-37-35.4-70.8-70.8-70.8h-195z" transform="matrix(-.018 .002 -.01 -.012 506.654 327.106)"/><path d="M212.6-453.5c-35.4 0-71 35.4-71 70.8s35.6 71 71 71h195c35.3 0 70.7-35.5 70.7-71 0-37-35.4-70.8-70.8-70.8h-195z" transform="matrix(-.018 -.002 -.005 -.014 486.055 305.736)"/><path d="M212.6-453.5c-35.4 0-71 35.4-71 70.8s35.6 71 71 71h195c35.3 0 70.7-35.5 70.7-71 0-37-35.4-70.8-70.8-70.8h-195z" transform="matrix(-.018 0 -.006 -.014 487.11 307.287)"/><path d="M212.6-453.5c-35.4 0-71 35.4-71 70.8s35.6 71 71 71h195c35.3 0 70.7-35.5 70.7-71 0-37-35.4-70.8-70.8-70.8h-195z" transform="matrix(-.018 -.002 -.006 -.014 488.524 309.348)"/><path d="M212.6-453.5c-35.4 0-71 35.4-71 70.8s35.6 71 71 71h195c35.3 0 70.7-35.5 70.7-71 0-37-35.4-70.8-70.8-70.8h-195z" transform="matrix(-.018 0 -.007 -.013 489.472 309.955)"/><path d="M212.6-453.5c-35.4 0-71 35.4-71 70.8s35.6 71 71 71h195c35.3 0 70.7-35.5 70.7-71 0-37-35.4-70.8-70.8-70.8h-195z" transform="matrix(-.017 -.004 -.003 -.014 482.192 299.026)"/><path d="M212.6-453.5c-35.4 0-71 35.4-71 70.8s35.6 71 71 71h195c35.3 0 70.7-35.5 70.7-71 0-37-35.4-70.8-70.8-70.8h-195z" transform="matrix(-.017 -.003 -.004 -.014 483.04 300.794)"/><path d="M212.6-453.5c-35.4 0-71 35.4-71 70.8s35.6 71 71 71h195c35.3 0 70.7-35.5 70.7-71 0-37-35.4-70.8-70.8-70.8h-195z" transform="matrix(-.017 -.004 -.003 -.014 484.132 302.988)"/><path d="M212.6-453.5c-35.4 0-71 35.4-71 70.8s35.6 71 71 71h195c35.3 0 70.7-35.5 70.7-71 0-37-35.4-70.8-70.8-70.8h-195z" transform="matrix(-.017 -.003 -.004 -.014 485.193 304.552)"/><path d="M212.6-453.5c-35.4 0-71 35.4-71 70.8s35.6 71 71 71h195c35.3 0 70.7-35.5 70.7-71 0-37-35.4-70.8-70.8-70.8h-195z" transform="matrix(-.018 0 -.008 -.013 496.69 317.946)"/><path d="M212.6-453.5c-35.4 0-71 35.4-71 70.8s35.6 71 71 71h195c35.3 0 70.7-35.5 70.7-71 0-37-35.4-70.8-70.8-70.8h-195z" transform="matrix(-.018 0 -.008 -.013 498.096 319.446)"/><path d="M212.6-453.5c-35.4 0-71 35.4-71 70.8s35.6 71 71 71h195c35.3 0 70.7-35.5 70.7-71 0-37-35.4-70.8-70.8-70.8h-195z" transform="matrix(-.018 0 -.008 -.013 499.877 321.296)"/><path d="M212.6-453.5c-35.4 0-71 35.4-71 70.8s35.6 71 71 71h195c35.3 0 70.7-35.5 70.7-71 0-37-35.4-70.8-70.8-70.8h-195z" transform="matrix(-.018 .002 -.01 -.012 501.2 322.26)"/><path d="M212.6-453.5c-35.4 0-71 35.4-71 70.8s35.6 71 71 71h195c35.3 0 70.7-35.5 70.7-71 0-37-35.4-70.8-70.8-70.8h-195z" transform="matrix(-.018 0 -.007 -.013 491.04 311.938)"/><path d="M212.6-453.5c-35.4 0-71 35.4-71 70.8s35.6 71 71 71h195c35.3 0 70.7-35.5 70.7-71 0-37-35.4-70.8-70.8-70.8h-195z" transform="matrix(-.018 0 -.007 -.013 492.27 313.54)"/><path d="M212.6-453.5c-35.4 0-71 35.4-71 70.8s35.6 71 71 71h195c35.3 0 70.7-35.5 70.7-71 0-37-35.4-70.8-70.8-70.8h-195z" transform="matrix(-.018 0 -.008 -.013 493.506 314.596)"/><path d="M212.6-453.5c-35.4 0-71 35.4-71 70.8s35.6 71 71 71h195c35.3 0 70.7-35.5 70.7-71 0-37-35.4-70.8-70.8-70.8h-195z" transform="matrix(-.018 0 -.008 -.013 494.91 316.096)"/><path d="M212.6-453.5c-35.4 0-71 35.4-71 70.8s35.6 71 71 71h195c35.3 0 70.7-35.5 70.7-71 0-37-35.4-70.8-70.8-70.8h-195z" transform="matrix(-.016 -.006 0 -.014 474.163 276.88)"/><path d="M212.6-453.5c-35.4 0-71 35.4-71 70.8s35.6 71 71 71h195c35.3 0 70.7-35.5 70.7-71 0-37-35.4-70.8-70.8-70.8h-195z" transform="matrix(-.017 -.005 -.002 -.014 474.144 277.47)"/><path d="M212.6-453.5c-35.4 0-71 35.4-71 70.8s35.6 71 71 71h195c35.3 0 70.7-35.5 70.7-71 0-37-35.4-70.8-70.8-70.8h-195z" transform="matrix(-.017 -.005 0 -.014 474.924 279.755)"/><path d="M212.6-453.5c-35.4 0-71 35.4-71 70.8s35.6 71 71 71h195c35.3 0 70.7-35.5 70.7-71 0-37-35.4-70.8-70.8-70.8h-195z" transform="matrix(-.017 -.005 -.002 -.014 475.52 281.595)"/><path d="M212.6-453.5c-35.4 0-71 35.4-71 70.8s35.6 71 71 71h195c35.3 0 70.7-35.5 70.7-71 0-37-35.4-70.8-70.8-70.8h-195z" transform="matrix(-.016 -.006 0 -.014 472.625 270.347)"/><path d="M212.6-453.5c-35.4 0-71 35.4-71 70.8s35.6 71 71 71h195c35.3 0 70.7-35.5 70.7-71 0-37-35.4-70.8-70.8-70.8h-195z" transform="matrix(-.016 -.006 0 -.014 473.186 272.677)"/><path d="M212.6-453.5c-35.4 0-71 35.4-71 70.8s35.6 71 71 71h195c35.3 0 70.7-35.5 70.7-71 0-37-35.4-70.8-70.8-70.8h-195z" transform="matrix(-.016 -.006 0 -.014 473.603 274.55)"/><path d="M212.6-453.5c-35.4 0-71 35.4-71 70.8s35.6 71 71 71h195c35.3 0 70.7-35.5 70.7-71 0-37-35.4-70.8-70.8-70.8h-195z" transform="matrix(-.017 -.004 -.003 -.014 478.64 291.238)"/><path d="M212.6-453.5c-35.4 0-71 35.4-71 70.8s35.6 71 71 71h195c35.3 0 70.7-35.5 70.7-71 0-37-35.4-70.8-70.8-70.8h-195z" transform="matrix(-.017 -.004 -.003 -.014 479.408 293.03)"/><path d="M212.6-453.5c-35.4 0-71 35.4-71 70.8s35.6 71 71 71h195c35.3 0 70.7-35.5 70.7-71 0-37-35.4-70.8-70.8-70.8h-195z" transform="matrix(-.017 -.004 -.003 -.014 480.404 295.257)"/><path d="M212.6-453.5c-35.4 0-71 35.4-71 70.8s35.6 71 71 71h195c35.3 0 70.7-35.5 70.7-71 0-37-35.4-70.8-70.8-70.8h-195z" transform="matrix(-.017 -.003 -.004 -.014 481.1 296.832)"/><path d="M212.6-453.5c-35.4 0-71 35.4-71 70.8s35.6 71 71 71h195c35.3 0 70.7-35.5 70.7-71 0-37-35.4-70.8-70.8-70.8h-195z" transform="matrix(-.017 -.005 0 -.014 476.3 283.88)"/><path d="M212.6-453.5c-35.4 0-71 35.4-71 70.8s35.6 71 71 71h195c35.3 0 70.7-35.5 70.7-71 0-37-35.4-70.8-70.8-70.8h-195z" transform="matrix(-.017 -.004 -.003 -.014 475.882 284.99)"/><path d="M212.6-453.5c-35.4 0-71 35.4-71 70.8s35.6 71 71 71h195c35.3 0 70.7-35.5 70.7-71 0-37-35.4-70.8-70.8-70.8h-195z" transform="matrix(-.017 -.004 -.003 -.014 476.877 287.218)"/><path d="M212.6-453.5c-35.4 0-71 35.4-71 70.8s35.6 71 71 71h195c35.3 0 70.7-35.5 70.7-71 0-37-35.4-70.8-70.8-70.8h-195z" transform="matrix(-.017 -.004 -.003 -.014 477.645 289.01)"/><path d="M212.6-453.5c-35.4 0-71 35.4-71 70.8s35.6 71 71 71h195c35.3 0 70.7-35.5 70.7-71 0-37-35.4-70.8-70.8-70.8h-195z" transform="matrix(-.015 -.01 .003 -.014 470.356 258.917)"/><path d="M212.6-453.5c-35.4 0-71 35.4-71 70.8s35.6 71 71 71h195c35.3 0 70.7-35.5 70.7-71 0-37-35.4-70.8-70.8-70.8h-195z" transform="matrix(-.016 -.007 0 -.014 470.19 260.452)"/><path d="M212.6-453.5c-35.4 0-71 35.4-71 70.8s35.6 71 71 71h195c35.3 0 70.7-35.5 70.7-71 0-37-35.4-70.8-70.8-70.8h-195z" transform="matrix(-.016 -.006 0 -.014 470.567 262.33)"/><path d="M212.6-453.5c-35.4 0-71 35.4-71 70.8s35.6 71 71 71h195c35.3 0 70.7-35.5 70.7-71 0-37-35.4-70.8-70.8-70.8h-195z" transform="matrix(-.015 -.008 .002 -.014 470.084 252.262)"/><path d="M212.6-453.5c-35.4 0-71 35.4-71 70.8s35.6 71 71 71h195c35.3 0 70.7-35.5 70.7-71 0-37-35.4-70.8-70.8-70.8h-195z" transform="matrix(-.015 -.01 .003 -.014 470.193 254.636)"/><path d="M212.6-453.5c-35.4 0-71 35.4-71 70.8s35.6 71 71 71h195c35.3 0 70.7-35.5 70.7-71 0-37-35.4-70.8-70.8-70.8h-195z" transform="matrix(-.015 -.008 .002 -.014 470.248 256.54)"/><path d="M212.6-453.5c-35.4 0-71 35.4-71 70.8s35.6 71 71 71h195c35.3 0 70.7-35.5 70.7-71 0-37-35.4-70.8-70.8-70.8h-195z" transform="matrix(-.016 -.007 0 -.014 471.076 264.67)"/><path d="M212.6-453.5c-35.4 0-71 35.4-71 70.8s35.6 71 71 71h195c35.3 0 70.7-35.5 70.7-71 0-37-35.4-70.8-70.8-70.8h-195z" transform="matrix(-.016 -.006 0 -.014 471.623 266.038)"/><path d="M212.6-453.5c-35.4 0-71 35.4-71 70.8s35.6 71 71 71h195c35.3 0 70.7-35.5 70.7-71 0-37-35.4-70.8-70.8-70.8h-195z" transform="matrix(-.016 -.006 0 -.014 472.182 268.368)"/></g><path d="M344.5-596.3l9.2 22.2s1.4-10 8.5-11.7l7-1.8s27 49.4 32.3 58.2c5.3 9-3.6 16.8-1.8 16.8s26.5-11.5 26.5-11.5-10.6 1-15-6.2-34.8-60-34.8-60 6-2.6 11.5-5.2c5.2-2.7 10.5 8 10.5 8L385.2-614s0 9-4.4 10.6c-4.4 1.8-8 3.6-8 3.6s-3.5-6.2-8-13.3c-4.3-7.2 4.5-14.2 4.5-14.2l-23 11.5s8 4.4 10.6 8.8l5.2 9s-3.2 1.7-8.2 3.4c-3.6 2-7.7 0-9.5-1.7z" transform="matrix(-.24 .004 .005 .2 535.97 340.492)" stroke="#000" stroke-width="1.2" fill="#fff133"/><g transform="matrix(.144 0 0 .12 423.643 295.29)"><path fill="silver" d="M324.5-255.4l-50 50.2L449.7-30l50-50z"/><ellipse rx="35.4" ry="35.4" stroke="#000" transform="rotate(135 457.538 73.68)" cy="-1428" cx="354.3" stroke-width="1.2" fill="#fff133"/><path d="M-402-957l37.5 37.7-25 25L-427-932c-12.6-12.4 12.4-37.4 25-25z" stroke="#000" stroke-width="1.2" fill="silver"/><path d="M-346.6-926.5l-50 50c-14 0-25.5-11.5-25.2-25 11-26 25-38.4 50-50 12.6.6 24.4 10.8 25.2 25z" stroke="#000" stroke-width="1.2" fill="#fff133"/><path d="M-352-932l37.7 37.7-50.2 50-37.5-37.4c5-20 30-45 50-50.2z" stroke="#000" stroke-width="1.2" fill="silver"/><path d="M-309-889l-50 50.2c-14 0-25.5-11.6-25.2-25 11-26 25-38.5 50-50.2 12.6.7 24.3 11 25.2 25z" stroke="#000" stroke-width="1.2" fill="#fff133"/><path d="M-314.4-894.3L28.4-551.5l-50 50-343-342.7c5.2-20 30.2-45 50.2-50z" stroke="#000" stroke-width="1.2" fill="silver"/><path d="M49-531l-50.2 50c-13.8 0-25.3-11.4-25-25 10.8-25.8 25-38.4 50-50 12.6.7 24.3 11 25 25z" stroke="#000" stroke-width="1.2" fill="#fff133"/><path d="M49-531l225.4 225.5-50 50L-1.3-480.8c5-20 30-45 50-50z" stroke="#000" stroke-width="1.2" fill="silver"/><path d="M186.7-418.2l-75 75c-14 0-25.5-11.4-25.2-25 0 0 0-25 25-50s50.2-25 50.2-25c11.6 1.5 21.4 12.4 25 25z" stroke="#000" stroke-width="1.2" fill="silver"/><path d="M186.7-418.2l50.2 75-50.3 50.2-75-50c-3-2.5 0-25 25-50.2s49-24.4 50-25z" stroke="#000" stroke-width="1.2" fill="silver"/><path d="M336.6-506.7c0-35.4 0-86.6 17.7-130C372-593.3 372-542 372-506.7h-35.4z" transform="rotate(135 434.752 18.668) scale(1 -.818)" stroke="#000" stroke-width="1.2" fill="silver"/><path d="M319-506.7h17.6V-550c0-43.3-35.4-65-35.4-65L319-506.7z" transform="rotate(-45 399.396 -194.158) scale(1 .818)" stroke="#000" stroke-width="1.2" fill="silver"/><path d="M319-506.7h17.6V-550c0-43.3-35.4-65-35.4-65L319-506.7z" transform="rotate(135 434.752 18.668) scale(1 -.818)" stroke="#000" stroke-width="1.2" fill="silver"/><path d="M-314.4-894.3l37.6 37.6C-251.8-831.7-164-719-164-719s117.3 92.3 142.3 117.4L16-564c-25-25-180-129.8-180-129.8s92.2 142.3 129.8 180l-37.6-37.7c-25-25-117.3-142.3-117.3-142.3S-289.4-769-314.5-794l-50-50.2c25 25 175.3 125.3 175.3 125.3S-289.4-869-314.5-894.2z" stroke="#000" stroke-width="1.2" fill="#fff133"/><path d="M299.5-230.3c50 75 100.2 125.3 112.7 137.8 23.8 23.8 50 25 50 25s0-25-25-50c-12.4-12.6-62.5-62.7-137.7-112.8zM237-343c87.5 87.6 187.8 137.7 250.4 200.4 50 50 15.4 88.4 1.4 100.6-14 12-52 50.3-101.6-.4-62.7-62.6-112.8-163-200.5-250.6 0-25 25-50 50.2-50z" stroke="#000" stroke-width="1.2" fill="silver"/><path transform="matrix(-1.25 -1.42 -1.36 1.317 1166.1 -102.64)" stroke="#000" stroke-width="1.2" fill="silver" d="M218.3 258h23v73h-23z"/><g stroke="#000" fill="silver"><path d="M301.2 397l17.7 17.6-17.8 17.7 8.8 8.8 17.8-17.6 35.4 35.5-17.7 17.6 8.8 8.8 17.7-17.7 17.8 17.7-53.2 53.2-35.4-35.5 17.7-17.6 8.8 9 8.8-9-35.4-35.4-9 9 9 8.7-17.7 17.7-17.8-17.7 9-8.8-9-9-35.4 35.4 9 9 8.7-9 17.7 17.8L248 521l-8.8-9-9 9 35.5 35.3 9-9-9-8.7 17.8-17.7 35.4 35.3-53.3 53-17.7-17.6 17.7-17.7-8.8-8.8L239 583l-35.5-35.6 17.8-17.7-9-8.8-17.6 17.6L177 521l124-124.2z" transform="matrix(-2.295 0 0 2.244 360.577 -1733.726)" stroke-width=".6"/><path d="M319 786.6V822l88.5 88.6v-70.8L389.8 822h-35.5L319 786.6z" stroke-width="1.1" transform="matrix(-1.147 0 0 1.122 157.31 -1288.5)"/><path d="M230.4 698.8l70.4 70.4.8 35.2-71.2-71.3V699z" transform="matrix(-1.147 0 0 1.122 157.424 -1288.525)" stroke-width="1.1"/><path d="M301.2 804.3l35.4-35.4v-35.5L301.2 769v35.3z" stroke-width="1.1" transform="matrix(-1.147 0 0 1.122 157.31 -1288.5)"/><path d="M301.2 804.3l35.4-35.4v-35.5L301.2 769v35.3z" transform="matrix(-1.147 0 0 1.122 258.94 -1387.88)" stroke-width="1.1"/><path d="M248 645v35.3l17.7-17.7L248 645z" stroke-width="1.1" transform="matrix(-1.147 0 0 1.122 157.31 -1288.5)"/><path d="M248 645v35.3l17.7-17.7L248 645z" transform="matrix(-1.147 0 0 1.122 55.68 -1189.12)" stroke-width="1.1"/><path d="M230.4 698.8l35.8 35.4v35.4L230.4 733V699z" transform="matrix(-1.147 0 0 1.122 218.806 -1348.97)" stroke-width="1.1"/><path d="M301.2 804.3l35.4-35.4v-35.5L301.2 769v35.3z" transform="matrix(-1.147 0 0 1.122 55.68 -1507.136)" stroke-width="1.1"/><path d="M301.2 804.3l35.4-35.4v-35.5L301.2 769v35.3z" transform="matrix(-1.147 0 0 1.122 136.983 -1427.638)" stroke-width="1.1"/><path d="M283.5 822l53-53v-35.5l-70.8 70.8 17.8 17.8z" transform="matrix(-1.147 0 0 1.122 136.983 -1546.896)" stroke-width="1.1"/><path d="M248 645v35.3l17.7-17.7L248 645z" transform="matrix(-1.147 0 0 1.122 35.352 -1447.507)" stroke-width="1.1"/><path d="M301.2 804.3L265.7 769v-35.5l35.5 35.4v35.3z" transform="matrix(-1.147 0 0 1.122 55.68 -1507.136)" stroke-width="1.1"/><path d="M389.8 822l-53.2-53v-35.5l71 70.8-17.8 17.8z" transform="matrix(-1.147 0 0 1.122 55.68 -1546.896)" stroke-width="1.1"/><path d="M230.4 698l71 71h35.3l17.7 17.6v71L230.4 733v-35z" transform="matrix(-1.147 0 0 1.122 -66.16 -1387.906)" stroke-width="1.1"/><path d="M354.3 822l106.3-106.3H496L390 822h-35.5zM407.5 839.8l106.3-106.3-17.7-17.7L390 822l17.7 17.8z" stroke-width="1.1" transform="matrix(-1.147 0 0 1.122 157.31 -1288.5)"/><path d="M407.5 839.8v70.8l106.3-106.3v-70.8L407.5 839.8z" transform="matrix(-1.147 0 0 1.122 157.31 -1288.5)" stroke-width="1.1"/><path d="M354.3 822l106.3-106.3H496L390 822h-35.5zM407.5 839.8l106.3-106.3-17.7-17.7L390 822l17.7 17.8z" transform="matrix(-1.147 0 0 1.122 -5.297 -1447.507)" stroke-width="1.1"/><path d="M407.5 839.8v70.8l106.3-106.3v-70.8L407.5 839.8z" transform="matrix(-1.147 0 0 1.122 -5.297 -1447.507)" stroke-width="1.1"/><path d="M319 786.6l17.6-17.7v-35.5L301.2 769l17.7 17.6z" transform="matrix(-1.147 0 0 1.122 -86.606 -1527.016)" stroke-width="1.1"/><path d="M319 786.6l17.6-17.7v-35.5L301.2 769l17.7 17.6z" transform="matrix(-1.147 0 0 1.122 15.022 -1626.394)" stroke-width="1.1"/><path d="M265.8 769v-35.5l17.7 17.7-17.8 17.7z" transform="matrix(-1.147 0 0 1.122 55.68 -1348.13)" stroke-width="1.1"/><path d="M301.2 804.3L265.7 769l17.8-17.8 17.7 17.7v35.3z" transform="matrix(-1.147 0 0 1.122 136.983 -1427.638)" stroke-width="1.1"/><path d="M301.2 804.3l-17.7-17.7 17.7-17.7v35.3z" transform="matrix(-1.147 0 0 1.122 15.022 -1586.645)" stroke-width="1.1"/></g><path transform="matrix(-1.25 -1.42 -1.36 1.315 1166.1 -102.64)" stroke="#000" stroke-width="1.2" fill="#fff133" d="M196.5 254.2h25.2v80.3h-25.2z"/><path d="M336.6 166.5c0 14.7 35.4 35.5 35.4-17.7h-35.4v17.7z" transform="matrix(-1.9 0 0 1.887 1166.1 -102.64)" stroke="#000" stroke-width="1.2" fill="silver"/><path d="M242 24.8c-147 0-113 164.2-100.3 124 9.4-29.5 35.5-70.8 65-80.2C247 55.8 233.4 78 248 78c14.7 0 1.2-22.2 41.4-9.4 29.5 9.4 55.6 50.7 65 80.2 12.7 40.2 53-124-112.3-124z" transform="matrix(-1.9 0 0 1.887 1166.1 -102.64)" stroke="#000" stroke-width="1.2" fill="silver"/><path d="M389.8 166.5c0 78.3-63.5 141.8-141.8 141.8-78.2 0-141.7-63.5-141.7-141.8v-17.7c0-29 35.4 124 141.7 124s141.8-124.7 141.8-124v17.7z" transform="matrix(-1.9 0 0 1.887 1166.1 -102.64)" stroke="#000" stroke-width="1.2" fill="silver"/><path d="M336.6 166.5c0 14.7 35.4 35.5 35.4-17.7h-35.4v17.7z" transform="matrix(1.9 0 0 1.887 224 -100.51)" stroke="#000" stroke-width="1.2" fill="silver"/><path d="M389.8 148.8c0 78.3-63.5 141.7-141.8 141.7-78.2 0-141.7-63.4-141.7-141.7C106.3 70.6 169.8 7 248 7 326.3 7 389.8 70.7 389.8 149zm-53.2 0c0 14.7 22.8 3 9.4 43-9.4 28-27 45.6-56.6 55-40.2 12.7-26.7-9.4-41.4-9.4-14.6 0-1 22-41.3 9.4-29.5-9.4-47.3-27-56.6-56.6-12.7-40.2 9.4-26.7 9.4-41.4s-22-1-9.3-41.3c9.4-29.5 27.2-47.3 56.7-56.6C247 38 233.4 60 248 60c14.7 0 1.2-22 41.4-9.3C319 60 336.6 78 346 107.4c12.7 40.2-9.4 26.6-9.4 41.3z" transform="matrix(-1.9 0 0 1.887 1166.1 -102.64)" stroke="#000" stroke-width="1.2" fill="silver"/><path d="M126.5 157.7c-20.2 0-2 67.6-9 51.7s-11.2-33.4-11.2-51.7 4-35.8 11-51.7c7.3-16-11 51.7 9.3 51.7z" transform="matrix(-1.662 0 0 1.76 1107.2 -99.52)" stroke="#000" stroke-width="1.2" fill="silver"/><path d="M372 140c0 16-2 31.6-9.7 44.8-8 13.7 9.8-44.8-8-44.8 17.8 0 1.7-58.6 8-45 6.3 14 9.8 29 9.8 45z" transform="matrix(-1.9 0 0 2.032 1166.1 -106.24)" stroke="#000" stroke-width="1.2" fill="silver"/><path d="M296.3 263c-14.8 6.4-31.2 9.8-48.3 9.8s-33.4-3.4-48.2-9.7c-15-6.2 48.2 9.8 48.2-8 0 17.8 63 1.8 48.3 8zM248 42.5c0-17.7-63-1.7-48.2-8s31-9.7 48.2-9.7 33.5 3.5 48.3 9.8c14.8 6.2-48.3-9.8-48.3 8z" transform="matrix(-1.9 0 0 1.887 1166.1 -102.64)" stroke="#000" stroke-width="1.2" fill="silver"/><ellipse rx="18.4" ry="20.1" stroke="#000" transform="matrix(-1.293 -1.382 -1.39 1.284 1257.6 -120.02)" cy="160.9" cx="82.1" stroke-width="1.2" fill="#fff133"/><path d="M276.6 287.7c-9.2 2-18.8 3-28.6 3s-19.3-1-28.5-3l-1.5 7c9.7 2 19.8 3 30 3s20.3-1 30-3l-1.4-7z" transform="matrix(-1.293 -1.382 1.39 -1.284 808.89 712.05)" stroke="#000" stroke-width="1.2" fill="#fff133"/><path d="M276.6 287.7c-9.2 2-18.8 3-28.6 3s-19.3-1-28.5-3l-1.5 7c9.7 2 19.8 3 30 3s20.3-1 30-3l-1.4-7z" transform="matrix(-1.293 -1.382 -1.39 1.284 1223.2 329.88)" stroke="#000" stroke-width="1.2" fill="#fff133"/><path d="M267.7 308.5c-9.2 2-20.2 1-30 1-9.7 0-19.3-2.7-28.5-4.6l8.8-10.4c9.7 2 19.8 3 30 3s20.3-1 30-3l-10.3 14z" transform="matrix(-1.293 -1.382 -1.39 1.284 1223.2 329.88)" stroke="#000" stroke-width="1.2" fill="#fff133"/><path d="M276.6 287.7c-9.2 2-18.8 3-28.6 3s-19.3-1-28.5-3l-1.5 7c9.7 2 19.8 3 30 3s20.3-1 30-3l-1.4-7z" transform="matrix(-1.39 1.284 1.293 1.382 847.44 -345.21)" stroke="#000" stroke-width="1.2" fill="#fff133"/><ellipse rx="18.4" ry="20.1" stroke="#000" transform="matrix(-1.293 -1.382 -1.39 1.284 789.14 314.38)" cy="160.9" cx="82.1" stroke-width="1.2" fill="#fff133"/><path d="M267.6 281.5c-9.2 2-17 3-27 3s-23-.8-32.2-2.7l9.6 12.8c9.7 2 19.8 3 30 3s20.3-1 30-3l-10.4-13z" transform="matrix(-1.39 1.284 1.293 1.382 850.63 -315.18)" stroke="#000" stroke-width="1.2" fill="#fff133"/><path d="M174 271.8l-1 14.8-3 4.5.8-15 3-4.2zM330.5 265.6l3.6 4.2 1 13.6-2.8-3-1.7-14.8z" transform="matrix(-1.9 0 0 1.887 1166.1 -102.64)" stroke="#000" stroke-width="1.2" fill="#fff133"/><ellipse rx="18.4" ry="20.1" stroke="#000" transform="matrix(-1.293 -1.382 -1.39 1.284 1237.6 329.88)" cy="160.9" cx="82.1" stroke-width="1.2" fill="#fff133"/></g><path d="M513.8-790.2l35.4-17.7 35.4 17.8s-73.3 35.5-73.3 159.5c0 88.6 125.2 106.3 125.2 212.6 0 45.5-34 88.5-69.6 88.5s-88.7-17.7-141.8-71c35.4 17.8 76 37.4 106.3 36.2 19.6-.4 55-17.8 55-53.2 0-71-122.8-107-122.8-213.2 0-124 50-159.5 50-159.5z" transform="matrix(-.24 0 0 .2 534.09 334.357)" stroke="#000" stroke-width="1.2" fill="#fff"/><path d="M520.3-790.2L567-808l10 17.8s-70.7 35.5-70.7 159.5c0 88.6 126 106.3 126 212.6 0 45.5-26.8 87.3-65.4 88.5-73.5 2.3-90.5-24-141.8-71 43.2 32.4 105 47 129 34.3 29.4-15.4 35-36 35-53.8 0-71-120.8-104.4-120.8-210.7 0-124 52-159.5 52-159.5z" transform="matrix(-.24 0 0 .2 534.09 334.357)" stroke="#000" stroke-width="1.2" fill="#fff"/><path d="M513.3-789.7c7-2.4 36-18.2 71.3 17.3 17.8 17.7 17.8 53 17.8 70.8l53-53s-29-87-107.5-53.7c-11.2 5-28.2 14.5-34.7 18.6z" transform="matrix(-.24 0 0 .2 534.09 334.357)" stroke="#000" stroke-width="1.2" fill="#fff"/><path d="M523.8-796c8.8-2.8 36.7-6.3 64.6 18.6 17.7 17.7 19 43 19 60.6l40.6-38c3.5-3-24.8-81.2-99.2-54-4.5 2-14.8 6.3-25 13z" transform="matrix(-.24 0 0 .2 534.09 334.357)" stroke="#000" stroke-width="1.2" fill="#fff"/><path d="M344.5-596.3l9.2 22.2s1.4-10 8.5-11.7l7-1.8s27 49.4 32.3 58.2c5.3 9-3.6 16.8-1.8 16.8s26.5-11.5 26.5-11.5-10.6 1-15-6.2-34.8-60-34.8-60 6-2.6 11.5-5.2c5.2-2.7 10.5 8 10.5 8L385.2-614s0 9-4.4 10.6c-4.4 1.8-8 3.6-8 3.6s-3.5-6.2-8-13.3c-4.3-7.2 4.5-14.2 4.5-14.2l-23 11.5s8 4.4 10.6 8.8l5.2 9s-3.2 1.7-8.2 3.4c-3.6 2-7.7 0-9.5-1.7z" transform="matrix(-.195 -.02 -.067 .173 439.546 337.12)" stroke="#000" stroke-width="1.2" fill="#fff133"/><path d="M344.5-596.3l9.2 22.2s1.4-10 8.5-11.7l7-1.8s27 49.4 32.3 58.2c5.3 9-3.6 16.8-1.8 16.8s26.5-11.5 26.5-11.5-10.6 1-15-6.2-34.8-60-34.8-60 6-2.6 11.5-5.2c5.2-2.7 10.5 8 10.5 8L385.2-614s0 9-4.4 10.6c-4.4 1.8-8 3.6-8 3.6s-3.5-6.2-8-13.3c-4.3-7.2 4.5-14.2 4.5-14.2l-23 11.5s8 4.4 10.6 8.8l5.2 9s-3.2 1.7-8.2 3.4c-3.6 2-7.7 0-9.5-1.7z" transform="matrix(.178 .024 .003 -.133 320.605 95.23)" stroke="#000" stroke-width="1.2" fill="#fff133"/><g transform="matrix(.144 0 0 .12 423.643 295.29)"><g transform="rotate(45 478.124 -504.572)"><ellipse rx="35.4" ry="35.4" stroke="#000" transform="translate(124.01 283.46)" cy="-1428" cx="354.3" stroke-width="1.2" fill="silver"/><path d="M460.6-1126.8v53.2H496v-53.2c0-17.7-35.4-17.7-35.4 0z" stroke="#000" stroke-width="1.2" fill="#fff133"/><path d="M443-1066h70.8c9.7-9.8 9.7-26.2 0-35.5-26-10.6-45-9.5-71 0-8.2 9.3-9.3 24.8 0 35.4z" stroke="#000" stroke-width="1.2" fill="silver"/><path d="M443-1073.6v53h70.8v-53c-17.7-10.6-53.2-10.6-71 0z" stroke="#000" stroke-width="1.2" fill="#fff133"/><path d="M443-1013h70.8c9.7-9.7 9.7-26 0-35.4-26-10.6-45-9.5-71 0-8.2 9.4-9.3 25 0 35.5z" stroke="#000" stroke-width="1.2" fill="silver"/><path fill="#fff133" d="M443-117h70.8v248h-71z"/><path d="M443-1020.5v484.8h70.8v-484.8c-17.7-10.6-53.2-10.6-71 0z" stroke="#000" stroke-width="1.2" fill="#fff133"/><path d="M443-506.7h70.8c9.7-9.8 9.7-26 0-35.4-26-10.7-45-9.6-71 0-8.2 9.2-9.3 24.7 0 35.3z" stroke="#000" stroke-width="1.2" fill="silver"/><path d="M443-506.7v319h70.8v-319c-17.7-10.6-53.2-10.6-71 0z" stroke="#000" stroke-width="1.2" fill="#fff133"/><path d="M425.2-329.5h106.3c9.7-9.8 9.7-26 0-35.5 0 0-17.7-17.7-53.2-17.7s-53 17.7-53 17.7c-7.2 9.4-6.4 24 0 35.5z" stroke="#000" stroke-width="1.2" fill="#fff133"/><path d="M425.2-329.5L443-241h70.8l17.7-88.5c.3-3.8-17.7-17.7-53.2-17.7s-52 17.3-53 17.7z" stroke="#000" stroke-width="1.2" fill="#fff133"/><path d="M336.6-506.7c0-35.4 0-86.6 17.7-130C372-593.3 372-542 372-506.7h-35.4z" transform="matrix(1 0 0 .818 124.01 173.44)" stroke="#000" stroke-width="1.2" fill="#fff133"/><path d="M319-506.7h17.6V-550c0-43.3-35.4-65-35.4-65L319-506.7z" transform="matrix(-1 0 0 .818 832.67 173.44)" stroke="#000" stroke-width="1.2" fill="#fff133"/><path d="M319-506.7h17.6V-550c0-43.3-35.4-65-35.4-65L319-506.7z" transform="matrix(1 0 0 .818 124.01 173.44)" stroke="#000" stroke-width="1.2" fill="#fff133"/><path d="M478.3-117C496-28.2 496 42.6 496 60.3c0 33.7-17.7 53.2-17.7 53.2s-17.7-17.7-17.7-53.2c0-17.7 0-88.6 17.7-177zM443-241c0 124-35.5 230.4-35.5 319 0 70.8 51.6 73.4 70 72 18.6-1.2 72.4-1 71.7-72 0-88.6-35.4-195-35.4-319-17.7-17.7-53.2-17.7-71 0z" stroke="#000" stroke-width="1.2" fill="#fff133"/><path d="M443-1020.5v53.2c0 35.4 17.6 177 17.6 177S443-642 443-606.5v53.2c0-35.4 35.3-219 35.3-219s35.5 165.8 35.5 219v-53.2c0-35.4-17.7-183.6-17.7-183.6s17.8-124 17.8-159.4v-71c0 35.6-35.4 212.7-35.4 212.7S443-985 443-1020.4z" stroke="#000" stroke-width="1.2" fill="silver"/></g><path transform="matrix(1.25 -1.42 1.36 1.317 -662.45 -102.64)" stroke="#000" stroke-width="1.2" fill="#fff133" d="M218.3 258h23v73h-23z"/><path d="M336.6 166.5c0 14.7 35.4 35.5 35.4-17.7h-35.4v17.7z" transform="matrix(1.9 0 0 1.887 -662.45 -102.64)" stroke="#000" stroke-width="1.2" fill="#fff133"/><path d="M242 24.8c-147 0-113 164.2-100.3 124 9.4-29.5 35.5-70.8 65-80.2C247 55.8 233.4 78 248 78c14.7 0 1.2-22.2 41.4-9.4 29.5 9.4 55.6 50.7 65 80.2 12.7 40.2 53-124-112.3-124z" transform="matrix(1.9 0 0 1.887 -662.45 -102.64)" stroke="#000" stroke-width="1.2" fill="#fff133"/><path d="M389.8 166.5c0 78.3-63.5 141.8-141.8 141.8-78.2 0-141.7-63.5-141.7-141.8v-17.7c0-29 35.4 124 141.7 124s141.8-124.7 141.8-124v17.7z" transform="matrix(1.9 0 0 1.887 -662.45 -102.64)" stroke="#000" stroke-width="1.2" fill="#fff133"/><ellipse rx="18.4" ry="20.1" stroke="#000" transform="matrix(1.293 -1.382 1.39 1.284 -753.9 -120.02)" cy="160.9" cx="82.1" stroke-width="1.2" fill="silver"/><path transform="matrix(1.25 -1.42 1.36 1.315 -662.45 -102.64)" stroke="#000" stroke-width="1.2" fill="silver" d="M196.5 254.2h25.2v80.3h-25.2z"/><path d="M336.6 166.5c0 14.7 35.4 35.5 35.4-17.7h-35.4v17.7z" transform="matrix(-1.9 0 0 1.887 279.67 -100.51)" stroke="#000" stroke-width="1.2" fill="#fff133"/><path d="M389.8 148.8c0 78.3-63.5 141.7-141.8 141.7-78.2 0-141.7-63.4-141.7-141.7C106.3 70.6 169.8 7 248 7 326.3 7 389.8 70.7 389.8 149zm-53.2 0c0 14.7 22.8 3 9.4 43-9.4 28-27 45.6-56.6 55-40.2 12.7-26.7-9.4-41.4-9.4-14.6 0-1 22-41.3 9.4-29.5-9.4-47.3-27-56.6-56.6-12.7-40.2 9.4-26.7 9.4-41.4s-22-1-9.3-41.3c9.4-29.5 27.2-47.3 56.7-56.6C247 38 233.4 60 248 60c14.7 0 1.2-22 41.4-9.3C319 60 336.6 78 346 107.4c12.7 40.2-9.4 26.6-9.4 41.3z" transform="matrix(1.9 0 0 1.887 -662.45 -102.64)" stroke="#000" stroke-width="1.2" fill="#fff133"/><path d="M126.5 157.7c-20.2 0-2 67.6-9 51.7s-11.2-33.4-11.2-51.7 4-35.8 11-51.7c7.3-16-11 51.7 9.3 51.7z" transform="matrix(1.662 0 0 1.76 -603.57 -99.52)" stroke="#000" stroke-width="1.2" fill="#fff133"/><path d="M372 140c0 16-2 31.6-9.7 44.8-8 13.7 9.8-44.8-8-44.8 17.8 0 1.7-58.6 8-45 6.3 14 9.8 29 9.8 45z" transform="matrix(1.9 0 0 2.032 -662.45 -106.24)" stroke="#000" stroke-width="1.2" fill="#fff133"/><path d="M296.3 263c-14.8 6.4-31.2 9.8-48.3 9.8s-33.4-3.4-48.2-9.7c-15-6.2 48.2 9.8 48.2-8 0 17.8 63 1.8 48.3 8zM248 42.5c0-17.7-63-1.7-48.2-8s31-9.7 48.2-9.7 33.5 3.5 48.3 9.8c14.8 6.2-48.3-9.8-48.3 8z" transform="matrix(1.9 0 0 1.887 -662.45 -102.64)" stroke="#000" stroke-width="1.2" fill="#fff133"/><path d="M276.6 287.7c-9.2 2-18.8 3-28.6 3s-19.3-1-28.5-3l-1.5 7c9.7 2 19.8 3 30 3s20.3-1 30-3l-1.4-7z" transform="matrix(1.293 -1.382 -1.39 -1.284 -305.22 712.05)" stroke="#000" stroke-width="1.2" fill="silver"/><path d="M276.6 287.7c-9.2 2-18.8 3-28.6 3s-19.3-1-28.5-3l-1.5 7c9.7 2 19.8 3 30 3s20.3-1 30-3l-1.4-7z" transform="matrix(1.293 -1.382 1.39 1.284 -719.56 329.88)" stroke="#000" stroke-width="1.2" fill="silver"/><path d="M267.7 308.5c-9.2 2-20.2 1-30 1-9.7 0-19.3-2.7-28.5-4.6l8.8-10.4c9.7 2 19.8 3 30 3s20.3-1 30-3l-10.3 14z" transform="matrix(1.293 -1.382 1.39 1.284 -719.56 329.88)" stroke="#000" stroke-width="1.2" fill="silver"/><path d="M276.6 287.7c-9.2 2-18.8 3-28.6 3s-19.3-1-28.5-3l-1.5 7c9.7 2 19.8 3 30 3s20.3-1 30-3l-1.4-7z" transform="matrix(1.39 1.284 -1.293 1.382 -343.78 -345.21)" stroke="#000" stroke-width="1.2" fill="silver"/><ellipse rx="18.4" ry="20.1" stroke="#000" transform="matrix(1.293 -1.382 1.39 1.284 -285.47 314.38)" cy="160.9" cx="82.1" stroke-width="1.2" fill="silver"/><path d="M267.6 281.5c-9.2 2-17 3-27 3s-23-.8-32.2-2.7l9.6 12.8c9.7 2 19.8 3 30 3s20.3-1 30-3l-10.4-13z" transform="matrix(1.39 1.284 -1.293 1.382 -346.96 -315.18)" stroke="#000" stroke-width="1.2" fill="silver"/><path d="M174 271.8l-1 14.8-3 4.5.8-15 3-4.2zM330.5 265.6l3.6 4.2 1 13.6-2.8-3-1.7-14.8z" transform="matrix(1.9 0 0 1.887 -662.45 -102.64)" stroke="#000" stroke-width="1.2" fill="silver"/><ellipse rx="18.4" ry="20.1" stroke="#000" transform="matrix(1.293 -1.382 1.39 1.284 -733.89 329.88)" cy="160.9" cx="82.1" stroke-width="1.2" fill="silver"/><g stroke="#000" fill="#fff133"><path d="M301.2 397l17.7 17.6-17.8 17.7 8.8 8.8 17.8-17.6 35.4 35.5-17.7 17.6 8.8 8.8 17.7-17.7 17.8 17.7-53.2 53.2-35.4-35.5 17.7-17.6 8.8 9 8.8-9-35.4-35.4-9 9 9 8.7-17.7 17.7-17.8-17.7 9-8.8-9-9-35.4 35.4 9 9 8.7-9 17.7 17.8L248 521l-8.8-9-9 9 35.5 35.3 9-9-9-8.7 17.8-17.7 35.4 35.3-53.3 53-17.7-17.6 17.7-17.7-8.8-8.8L239 583l-35.5-35.6 17.8-17.7-9-8.8-17.6 17.6L177 521l124-124.2z" transform="matrix(2.295 0 0 2.244 143.093 -1733.726)" stroke-width=".6"/><path d="M319 786.6V822l88.5 88.6v-70.8L389.8 822h-35.5L319 786.6z" stroke-width="1.1" transform="matrix(1.147 0 0 1.122 346.36 -1288.5)"/><path d="M230.4 698.8l70.4 70.4.8 35.2-71.2-71.3V699z" transform="matrix(1.147 0 0 1.122 346.246 -1288.525)" stroke-width="1.1"/><path d="M301.2 804.3l35.4-35.4v-35.5L301.2 769v35.3z" stroke-width="1.1" transform="matrix(1.147 0 0 1.122 346.36 -1288.5)"/><path d="M301.2 804.3l35.4-35.4v-35.5L301.2 769v35.3z" transform="matrix(1.147 0 0 1.122 244.73 -1387.88)" stroke-width="1.1"/><path d="M248 645v35.3l17.7-17.7L248 645z" stroke-width="1.1" transform="matrix(1.147 0 0 1.122 346.36 -1288.5)"/><path d="M248 645v35.3l17.7-17.7L248 645z" transform="matrix(1.147 0 0 1.122 447.99 -1189.12)" stroke-width="1.1"/><path d="M230.4 698.8l35.8 35.4v35.4L230.4 733V699z" transform="matrix(1.147 0 0 1.122 284.864 -1348.97)" stroke-width="1.1"/><path d="M301.2 804.3l35.4-35.4v-35.5L301.2 769v35.3z" transform="matrix(1.147 0 0 1.122 447.99 -1507.136)" stroke-width="1.1"/><path d="M301.2 804.3l35.4-35.4v-35.5L301.2 769v35.3z" transform="matrix(1.147 0 0 1.122 366.687 -1427.638)" stroke-width="1.1"/><path d="M283.5 822l53-53v-35.5l-70.8 70.8 17.8 17.8z" transform="matrix(1.147 0 0 1.122 366.687 -1546.896)" stroke-width="1.1"/><path d="M248 645v35.3l17.7-17.7L248 645z" transform="matrix(1.147 0 0 1.122 468.318 -1447.507)" stroke-width="1.1"/><path d="M301.2 804.3L265.7 769v-35.5l35.5 35.4v35.3z" transform="matrix(1.147 0 0 1.122 447.99 -1507.136)" stroke-width="1.1"/><path d="M389.8 822l-53.2-53v-35.5l71 70.8-17.8 17.8z" transform="matrix(1.147 0 0 1.122 447.99 -1546.896)" stroke-width="1.1"/><path d="M230.4 698l71 71h35.3l17.7 17.6v71L230.4 733v-35z" transform="matrix(1.147 0 0 1.122 569.83 -1387.906)" stroke-width="1.1"/><path d="M354.3 822l106.3-106.3H496L390 822h-35.5zM407.5 839.8l106.3-106.3-17.7-17.7L390 822l17.7 17.8z" stroke-width="1.1" transform="matrix(1.147 0 0 1.122 346.36 -1288.5)"/><path d="M407.5 839.8v70.8l106.3-106.3v-70.8L407.5 839.8z" transform="matrix(1.147 0 0 1.122 346.36 -1288.5)" stroke-width="1.1"/><path d="M354.3 822l106.3-106.3H496L390 822h-35.5zM407.5 839.8l106.3-106.3-17.7-17.7L390 822l17.7 17.8z" transform="matrix(1.147 0 0 1.122 508.967 -1447.507)" stroke-width="1.1"/><path d="M407.5 839.8v70.8l106.3-106.3v-70.8L407.5 839.8z" transform="matrix(1.147 0 0 1.122 508.967 -1447.507)" stroke-width="1.1"/><path d="M319 786.6l17.6-17.7v-35.5L301.2 769l17.7 17.6z" transform="matrix(1.147 0 0 1.122 590.276 -1527.016)" stroke-width="1.1"/><path d="M319 786.6l17.6-17.7v-35.5L301.2 769l17.7 17.6z" transform="matrix(1.147 0 0 1.122 488.648 -1626.394)" stroke-width="1.1"/><path d="M265.8 769v-35.5l17.7 17.7-17.8 17.7z" transform="matrix(1.147 0 0 1.122 447.99 -1348.13)" stroke-width="1.1"/><path d="M301.2 804.3L265.7 769l17.8-17.8 17.7 17.7v35.3z" transform="matrix(1.147 0 0 1.122 366.687 -1427.638)" stroke-width="1.1"/><path d="M301.2 804.3l-17.7-17.7 17.7-17.7v35.3z" transform="matrix(1.147 0 0 1.122 488.648 -1586.645)" stroke-width="1.1"/></g></g><g stroke="#000" stroke-width="18" fill="#b00"><path d="M212.6-453.5c-35.4 0-71 35.4-71 70.8s35.6 71 71 71h195c35.3 0 70.7-35.5 70.7-71 0-37-35.4-70.8-70.8-70.8h-195z" transform="matrix(.014 .01 -.003 .014 452.07 279.28)"/><path d="M212.6-453.5c-35.4 0-71 35.4-71 70.8s35.6 71 71 71h195c35.3 0 70.7-35.5 70.7-71 0-37-35.4-70.8-70.8-70.8h-195z" transform="matrix(.014 .01 -.003 .014 452.107 277.374)"/><path d="M212.6-453.5c-35.4 0-71 35.4-71 70.8s35.6 71 71 71h195c35.3 0 70.7-35.5 70.7-71 0-37-35.4-70.8-70.8-70.8h-195z" transform="matrix(.014 .01 -.003 .014 452.114 274.997)"/><path d="M212.6-453.5c-35.4 0-71 35.4-71 70.8s35.6 71 71 71h195c35.3 0 70.7-35.5 70.7-71 0-37-35.4-70.8-70.8-70.8h-195z" transform="matrix(.014 .01 -.003 .014 452.15 273.09)"/><path d="M212.6-453.5c-35.4 0-71 35.4-71 70.8s35.6 71 71 71h195c35.3 0 70.7-35.5 70.7-71 0-37-35.4-70.8-70.8-70.8h-195z" transform="matrix(.014 .01 -.003 .014 451.98 287.843)"/><path d="M212.6-453.5c-35.4 0-71 35.4-71 70.8s35.6 71 71 71h195c35.3 0 70.7-35.5 70.7-71 0-37-35.4-70.8-70.8-70.8h-195z" transform="matrix(.014 .01 -.003 .014 452.018 285.938)"/><path d="M212.6-453.5c-35.4 0-71 35.4-71 70.8s35.6 71 71 71h195c35.3 0 70.7-35.5 70.7-71 0-37-35.4-70.8-70.8-70.8h-195z" transform="matrix(.014 .01 -.003 .014 452.025 283.56)"/><path d="M212.6-453.5c-35.4 0-71 35.4-71 70.8s35.6 71 71 71h195c35.3 0 70.7-35.5 70.7-71 0-37-35.4-70.8-70.8-70.8h-195z" transform="matrix(.014 .01 -.003 .014 452.062 281.656)"/><path d="M212.6-453.5c-35.4 0-71 35.4-71 70.8s35.6 71 71 71h195c35.3 0 70.7-35.5 70.7-71 0-37-35.4-70.8-70.8-70.8h-195z" transform="matrix(.014 .01 -.003 .014 452.246 262.15)"/><path d="M212.6-453.5c-35.4 0-71 35.4-71 70.8s35.6 71 71 71h195c35.3 0 70.7-35.5 70.7-71 0-37-35.4-70.8-70.8-70.8h-195z" transform="matrix(.014 .01 -.003 .014 452.284 260.246)"/><path d="M212.6-453.5c-35.4 0-71 35.4-71 70.8s35.6 71 71 71h195c35.3 0 70.7-35.5 70.7-71 0-37-35.4-70.8-70.8-70.8h-195z" transform="matrix(.014 .01 -.003 .014 452.29 257.87)"/><path d="M212.6-453.5c-35.4 0-71 35.4-71 70.8s35.6 71 71 71h195c35.3 0 70.7-35.5 70.7-71 0-37-35.4-70.8-70.8-70.8h-195z" transform="matrix(.014 .01 -.003 .014 452.328 255.964)"/><path d="M212.6-453.5c-35.4 0-71 35.4-71 70.8s35.6 71 71 71h195c35.3 0 70.7-35.5 70.7-71 0-37-35.4-70.8-70.8-70.8h-195z" transform="matrix(.014 .01 -.003 .014 452.158 270.715)"/><path d="M212.6-453.5c-35.4 0-71 35.4-71 70.8s35.6 71 71 71h195c35.3 0 70.7-35.5 70.7-71 0-37-35.4-70.8-70.8-70.8h-195z" transform="matrix(.014 .01 -.003 .014 452.195 268.81)"/><path d="M212.6-453.5c-35.4 0-71 35.4-71 70.8s35.6 71 71 71h195c35.3 0 70.7-35.5 70.7-71 0-37-35.4-70.8-70.8-70.8h-195z" transform="matrix(.014 .01 -.003 .014 452.202 266.433)"/><path d="M212.6-453.5c-35.4 0-71 35.4-71 70.8s35.6 71 71 71h195c35.3 0 70.7-35.5 70.7-71 0-37-35.4-70.8-70.8-70.8h-195z" transform="matrix(.014 .01 -.003 .014 452.24 264.528)"/><path d="M212.6-453.5c-35.4 0-71 35.4-71 70.8s35.6 71 71 71h195c35.3 0 70.7-35.5 70.7-71 0-37-35.4-70.8-70.8-70.8h-195z" transform="matrix(.014 .01 -.003 .014 451.715 313.535)"/><path d="M212.6-453.5c-35.4 0-71 35.4-71 70.8s35.6 71 71 71h195c35.3 0 70.7-35.5 70.7-71 0-37-35.4-70.8-70.8-70.8h-195z" transform="matrix(.014 .01 -.003 .014 451.753 311.63)"/><path d="M212.6-453.5c-35.4 0-71 35.4-71 70.8s35.6 71 71 71h195c35.3 0 70.7-35.5 70.7-71 0-37-35.4-70.8-70.8-70.8h-195z" transform="matrix(.014 .01 -.003 .014 451.76 309.253)"/><path d="M212.6-453.5c-35.4 0-71 35.4-71 70.8s35.6 71 71 71h195c35.3 0 70.7-35.5 70.7-71 0-37-35.4-70.8-70.8-70.8h-195z" transform="matrix(.014 .01 -.003 .014 451.797 307.348)"/><path d="M212.6-453.5c-35.4 0-71 35.4-71 70.8s35.6 71 71 71h195c35.3 0 70.7-35.5 70.7-71 0-37-35.4-70.8-70.8-70.8h-195z" transform="matrix(.014 .01 -.003 .014 451.627 322.098)"/><path d="M212.6-453.5c-35.4 0-71 35.4-71 70.8s35.6 71 71 71h195c35.3 0 70.7-35.5 70.7-71 0-37-35.4-70.8-70.8-70.8h-195z" transform="matrix(.014 .01 -.003 .014 451.664 320.194)"/><path d="M212.6-453.5c-35.4 0-71 35.4-71 70.8s35.6 71 71 71h195c35.3 0 70.7-35.5 70.7-71 0-37-35.4-70.8-70.8-70.8h-195z" transform="matrix(.014 .01 -.003 .014 451.67 317.817)"/><path d="M212.6-453.5c-35.4 0-71 35.4-71 70.8s35.6 71 71 71h195c35.3 0 70.7-35.5 70.7-71 0-37-35.4-70.8-70.8-70.8h-195z" transform="matrix(.014 .01 -.003 .014 451.708 315.912)"/><path d="M212.6-453.5c-35.4 0-71 35.4-71 70.8s35.6 71 71 71h195c35.3 0 70.7-35.5 70.7-71 0-37-35.4-70.8-70.8-70.8h-195z" transform="matrix(.014 .01 -.003 .014 451.892 296.407)"/><path d="M212.6-453.5c-35.4 0-71 35.4-71 70.8s35.6 71 71 71h195c35.3 0 70.7-35.5 70.7-71 0-37-35.4-70.8-70.8-70.8h-195z" transform="matrix(.014 .01 -.003 .014 451.93 294.502)"/><path d="M212.6-453.5c-35.4 0-71 35.4-71 70.8s35.6 71 71 71h195c35.3 0 70.7-35.5 70.7-71 0-37-35.4-70.8-70.8-70.8h-195z" transform="matrix(.014 .01 -.003 .014 451.937 292.125)"/><path d="M212.6-453.5c-35.4 0-71 35.4-71 70.8s35.6 71 71 71h195c35.3 0 70.7-35.5 70.7-71 0-37-35.4-70.8-70.8-70.8h-195z" transform="matrix(.014 .01 -.003 .014 451.974 290.22)"/><path d="M212.6-453.5c-35.4 0-71 35.4-71 70.8s35.6 71 71 71h195c35.3 0 70.7-35.5 70.7-71 0-37-35.4-70.8-70.8-70.8h-195z" transform="matrix(.014 .01 -.003 .014 451.804 304.97)"/><path d="M212.6-453.5c-35.4 0-71 35.4-71 70.8s35.6 71 71 71h195c35.3 0 70.7-35.5 70.7-71 0-37-35.4-70.8-70.8-70.8h-195z" transform="matrix(.014 .01 -.003 .014 451.84 303.066)"/><path d="M212.6-453.5c-35.4 0-71 35.4-71 70.8s35.6 71 71 71h195c35.3 0 70.7-35.5 70.7-71 0-37-35.4-70.8-70.8-70.8h-195z" transform="matrix(.014 .01 -.003 .014 451.848 300.69)"/><path d="M212.6-453.5c-35.4 0-71 35.4-71 70.8s35.6 71 71 71h195c35.3 0 70.7-35.5 70.7-71 0-37-35.4-70.8-70.8-70.8h-195z" transform="matrix(.014 .01 -.003 .014 451.885 298.784)"/><path d="M212.6-453.5c-35.4 0-71 35.4-71 70.8s35.6 71 71 71h195c35.3 0 70.7-35.5 70.7-71 0-37-35.4-70.8-70.8-70.8h-195z" transform="matrix(.014 .01 -.003 .014 451.36 347.79)"/><path d="M212.6-453.5c-35.4 0-71 35.4-71 70.8s35.6 71 71 71h195c35.3 0 70.7-35.5 70.7-71 0-37-35.4-70.8-70.8-70.8h-195z" transform="matrix(.014 .01 -.003 .014 451.4 345.886)"/><path d="M212.6-453.5c-35.4 0-71 35.4-71 70.8s35.6 71 71 71h195c35.3 0 70.7-35.5 70.7-71 0-37-35.4-70.8-70.8-70.8h-195z" transform="matrix(.014 .01 -.003 .014 451.406 343.51)"/><path d="M212.6-453.5c-35.4 0-71 35.4-71 70.8s35.6 71 71 71h195c35.3 0 70.7-35.5 70.7-71 0-37-35.4-70.8-70.8-70.8h-195z" transform="matrix(.014 .01 -.003 .014 451.443 341.603)"/><path d="M212.6-453.5c-35.4 0-71 35.4-71 70.8s35.6 71 71 71h195c35.3 0 70.7-35.5 70.7-71 0-37-35.4-70.8-70.8-70.8h-195z" transform="matrix(.014 .01 -.003 .014 451.31 354.45)"/><path d="M212.6-453.5c-35.4 0-71 35.4-71 70.8s35.6 71 71 71h195c35.3 0 70.7-35.5 70.7-71 0-37-35.4-70.8-70.8-70.8h-195z" transform="matrix(.014 .01 -.003 .014 451.317 352.072)"/><path d="M212.6-453.5c-35.4 0-71 35.4-71 70.8s35.6 71 71 71h195c35.3 0 70.7-35.5 70.7-71 0-37-35.4-70.8-70.8-70.8h-195z" transform="matrix(.014 .01 -.003 .014 451.354 350.168)"/><path d="M212.6-453.5c-35.4 0-71 35.4-71 70.8s35.6 71 71 71h195c35.3 0 70.7-35.5 70.7-71 0-37-35.4-70.8-70.8-70.8h-195z" transform="matrix(.014 .01 -.003 .014 451.538 330.663)"/><path d="M212.6-453.5c-35.4 0-71 35.4-71 70.8s35.6 71 71 71h195c35.3 0 70.7-35.5 70.7-71 0-37-35.4-70.8-70.8-70.8h-195z" transform="matrix(.014 .01 -.003 .014 451.576 328.757)"/><path d="M212.6-453.5c-35.4 0-71 35.4-71 70.8s35.6 71 71 71h195c35.3 0 70.7-35.5 70.7-71 0-37-35.4-70.8-70.8-70.8h-195z" transform="matrix(.014 .01 -.003 .014 451.583 326.38)"/><path d="M212.6-453.5c-35.4 0-71 35.4-71 70.8s35.6 71 71 71h195c35.3 0 70.7-35.5 70.7-71 0-37-35.4-70.8-70.8-70.8h-195z" transform="matrix(.014 .01 -.003 .014 451.62 324.476)"/><path d="M212.6-453.5c-35.4 0-71 35.4-71 70.8s35.6 71 71 71h195c35.3 0 70.7-35.5 70.7-71 0-37-35.4-70.8-70.8-70.8h-195z" transform="matrix(.014 .01 -.003 .014 451.45 339.227)"/><path d="M212.6-453.5c-35.4 0-71 35.4-71 70.8s35.6 71 71 71h195c35.3 0 70.7-35.5 70.7-71 0-37-35.4-70.8-70.8-70.8h-195z" transform="matrix(.014 .01 -.003 .014 451.487 337.322)"/><path d="M212.6-453.5c-35.4 0-71 35.4-71 70.8s35.6 71 71 71h195c35.3 0 70.7-35.5 70.7-71 0-37-35.4-70.8-70.8-70.8h-195z" transform="matrix(.014 .01 -.003 .014 451.494 334.945)"/><path d="M212.6-453.5c-35.4 0-71 35.4-71 70.8s35.6 71 71 71h195c35.3 0 70.7-35.5 70.7-71 0-37-35.4-70.8-70.8-70.8h-195z" transform="matrix(.014 .01 -.003 .014 451.53 333.04)"/><path d="M212.6-453.5c-35.4 0-71 35.4-71 70.8s35.6 71 71 71h195c35.3 0 70.7-35.5 70.7-71 0-37-35.4-70.8-70.8-70.8h-195z" transform="matrix(.014 .01 -.003 .014 451.14 369.31)"/><path d="M212.6-453.5c-35.4 0-71 35.4-71 70.8s35.6 71 71 71h195c35.3 0 70.7-35.5 70.7-71 0-37-35.4-70.8-70.8-70.8h-195z" transform="matrix(.014 .01 -.003 .014 451.176 367.404)"/><path d="M212.6-453.5c-35.4 0-71 35.4-71 70.8s35.6 71 71 71h195c35.3 0 70.7-35.5 70.7-71 0-37-35.4-70.8-70.8-70.8h-195z" transform="matrix(.014 .01 -.003 .014 451.183 365.028)"/><path d="M212.6-453.5c-35.4 0-71 35.4-71 70.8s35.6 71 71 71h195c35.3 0 70.7-35.5 70.7-71 0-37-35.4-70.8-70.8-70.8h-195z" transform="matrix(.014 .01 -.003 .014 451.22 363.123)"/><path d="M212.6-453.5c-35.4 0-71 35.4-71 70.8s35.6 71 71 71h195c35.3 0 70.7-35.5 70.7-71 0-37-35.4-70.8-70.8-70.8h-195z" transform="matrix(.014 .01 -.003 .014 451.088 375.97)"/><path d="M212.6-453.5c-35.4 0-71 35.4-71 70.8s35.6 71 71 71h195c35.3 0 70.7-35.5 70.7-71 0-37-35.4-70.8-70.8-70.8h-195z" transform="matrix(.014 .01 -.003 .014 451.095 373.59)"/><path d="M212.6-453.5c-35.4 0-71 35.4-71 70.8s35.6 71 71 71h195c35.3 0 70.7-35.5 70.7-71 0-37-35.4-70.8-70.8-70.8h-195z" transform="matrix(.014 .01 -.003 .014 451.132 371.687)"/><path d="M212.6-453.5c-35.4 0-71 35.4-71 70.8s35.6 71 71 71h195c35.3 0 70.7-35.5 70.7-71 0-37-35.4-70.8-70.8-70.8h-195z" transform="matrix(.014 .01 -.003 .014 451.227 360.745)"/><path d="M212.6-453.5c-35.4 0-71 35.4-71 70.8s35.6 71 71 71h195c35.3 0 70.7-35.5 70.7-71 0-37-35.4-70.8-70.8-70.8h-195z" transform="matrix(.014 .01 -.003 .014 451.265 358.84)"/><path d="M212.6-453.5c-35.4 0-71 35.4-71 70.8s35.6 71 71 71h195c35.3 0 70.7-35.5 70.7-71 0-37-35.4-70.8-70.8-70.8h-195z" transform="matrix(.014 .01 -.003 .014 451.272 356.464)"/></g><g stroke="#000" stroke-width="18" fill="#b00"><path d="M212.6-453.5c-35.4 0-71 35.4-71 70.8s35.6 71 71 71h195c35.3 0 70.7-35.5 70.7-71 0-37-35.4-70.8-70.8-70.8h-195z" transform="matrix(.014 .01 -.003 .014 455.007 279.558)"/><path d="M212.6-453.5c-35.4 0-71 35.4-71 70.8s35.6 71 71 71h195c35.3 0 70.7-35.5 70.7-71 0-37-35.4-70.8-70.8-70.8h-195z" transform="matrix(.015 .008 -.003 .014 455.018 277.653)"/><path d="M212.6-453.5c-35.4 0-71 35.4-71 70.8s35.6 71 71 71h195c35.3 0 70.7-35.5 70.7-71 0-37-35.4-70.8-70.8-70.8h-195z" transform="matrix(.014 .01 -.003 .014 454.993 275.276)"/><path d="M212.6-453.5c-35.4 0-71 35.4-71 70.8s35.6 71 71 71h195c35.3 0 70.7-35.5 70.7-71 0-37-35.4-70.8-70.8-70.8h-195z" transform="matrix(.015 .008 -.003 .014 455.005 273.37)"/><path d="M212.6-453.5c-35.4 0-71 35.4-71 70.8s35.6 71 71 71h195c35.3 0 70.7-35.5 70.7-71 0-37-35.4-70.8-70.8-70.8h-195z" transform="matrix(.014 .01 -.003 .014 455.034 288.122)"/><path d="M212.6-453.5c-35.4 0-71 35.4-71 70.8s35.6 71 71 71h195c35.3 0 70.7-35.5 70.7-71 0-37-35.4-70.8-70.8-70.8h-195z" transform="matrix(.015 .008 -.003 .014 455.045 286.217)"/><path d="M212.6-453.5c-35.4 0-71 35.4-71 70.8s35.6 71 71 71h195c35.3 0 70.7-35.5 70.7-71 0-37-35.4-70.8-70.8-70.8h-195z" transform="matrix(.014 .01 -.003 .014 455.02 283.84)"/><path d="M212.6-453.5c-35.4 0-71 35.4-71 70.8s35.6 71 71 71h195c35.3 0 70.7-35.5 70.7-71 0-37-35.4-70.8-70.8-70.8h-195z" transform="matrix(.015 .008 -.003 .014 455.032 281.935)"/><path d="M212.6-453.5c-35.4 0-71 35.4-71 70.8s35.6 71 71 71h195c35.3 0 70.7-35.5 70.7-71 0-37-35.4-70.8-70.8-70.8h-195z" transform="matrix(.014 .01 -.003 .014 454.953 262.43)"/><path d="M212.6-453.5c-35.4 0-71 35.4-71 70.8s35.6 71 71 71h195c35.3 0 70.7-35.5 70.7-71 0-37-35.4-70.8-70.8-70.8h-195z" transform="matrix(.015 .008 -.003 .014 454.964 260.525)"/><path d="M212.6-453.5c-35.4 0-71 35.4-71 70.8s35.6 71 71 71h195c35.3 0 70.7-35.5 70.7-71 0-37-35.4-70.8-70.8-70.8h-195z" transform="matrix(.014 .01 -.003 .014 454.94 258.148)"/><path d="M212.6-453.5c-35.4 0-71 35.4-71 70.8s35.6 71 71 71h195c35.3 0 70.7-35.5 70.7-71 0-37-35.4-70.8-70.8-70.8h-195z" transform="matrix(.015 .008 -.003 .014 454.95 256.242)"/><path d="M212.6-453.5c-35.4 0-71 35.4-71 70.8s35.6 71 71 71h195c35.3 0 70.7-35.5 70.7-71 0-37-35.4-70.8-70.8-70.8h-195z" transform="matrix(.014 .01 -.003 .014 454.98 270.994)"/><path d="M212.6-453.5c-35.4 0-71 35.4-71 70.8s35.6 71 71 71h195c35.3 0 70.7-35.5 70.7-71 0-37-35.4-70.8-70.8-70.8h-195z" transform="matrix(.015 .008 -.003 .014 454.99 269.088)"/><path d="M212.6-453.5c-35.4 0-71 35.4-71 70.8s35.6 71 71 71h195c35.3 0 70.7-35.5 70.7-71 0-37-35.4-70.8-70.8-70.8h-195z" transform="matrix(.014 .01 -.003 .014 454.966 266.71)"/><path d="M212.6-453.5c-35.4 0-71 35.4-71 70.8s35.6 71 71 71h195c35.3 0 70.7-35.5 70.7-71 0-37-35.4-70.8-70.8-70.8h-195z" transform="matrix(.015 .008 -.003 .014 454.978 264.807)"/><path d="M212.6-453.5c-35.4 0-71 35.4-71 70.8s35.6 71 71 71h195c35.3 0 70.7-35.5 70.7-71 0-37-35.4-70.8-70.8-70.8h-195z" transform="matrix(.014 .01 -.003 .014 455.115 313.816)"/><path d="M212.6-453.5c-35.4 0-71 35.4-71 70.8s35.6 71 71 71h195c35.3 0 70.7-35.5 70.7-71 0-37-35.4-70.8-70.8-70.8h-195z" transform="matrix(.015 .008 -.003 .014 455.126 311.91)"/><path d="M212.6-453.5c-35.4 0-71 35.4-71 70.8s35.6 71 71 71h195c35.3 0 70.7-35.5 70.7-71 0-37-35.4-70.8-70.8-70.8h-195z" transform="matrix(.014 .01 -.003 .014 455.1 309.533)"/><path d="M212.6-453.5c-35.4 0-71 35.4-71 70.8s35.6 71 71 71h195c35.3 0 70.7-35.5 70.7-71 0-37-35.4-70.8-70.8-70.8h-195z" transform="matrix(.015 .008 -.003 .014 455.113 307.628)"/><path d="M212.6-453.5c-35.4 0-71 35.4-71 70.8s35.6 71 71 71h195c35.3 0 70.7-35.5 70.7-71 0-37-35.4-70.8-70.8-70.8h-195z" transform="matrix(.014 .01 -.003 .014 455.142 322.38)"/><path d="M212.6-453.5c-35.4 0-71 35.4-71 70.8s35.6 71 71 71h195c35.3 0 70.7-35.5 70.7-71 0-37-35.4-70.8-70.8-70.8h-195z" transform="matrix(.015 .008 -.003 .014 455.153 320.475)"/><path d="M212.6-453.5c-35.4 0-71 35.4-71 70.8s35.6 71 71 71h195c35.3 0 70.7-35.5 70.7-71 0-37-35.4-70.8-70.8-70.8h-195z" transform="matrix(.014 .01 -.003 .014 455.128 318.097)"/><path d="M212.6-453.5c-35.4 0-71 35.4-71 70.8s35.6 71 71 71h195c35.3 0 70.7-35.5 70.7-71 0-37-35.4-70.8-70.8-70.8h-195z" transform="matrix(.015 .008 -.003 .014 455.14 316.193)"/><path d="M212.6-453.5c-35.4 0-71 35.4-71 70.8s35.6 71 71 71h195c35.3 0 70.7-35.5 70.7-71 0-37-35.4-70.8-70.8-70.8h-195z" transform="matrix(.014 .01 -.003 .014 455.06 296.687)"/><path d="M212.6-453.5c-35.4 0-71 35.4-71 70.8s35.6 71 71 71h195c35.3 0 70.7-35.5 70.7-71 0-37-35.4-70.8-70.8-70.8h-195z" transform="matrix(.015 .008 -.003 .014 455.072 294.782)"/><path d="M212.6-453.5c-35.4 0-71 35.4-71 70.8s35.6 71 71 71h195c35.3 0 70.7-35.5 70.7-71 0-37-35.4-70.8-70.8-70.8h-195z" transform="matrix(.014 .01 -.003 .014 455.047 292.405)"/><path d="M212.6-453.5c-35.4 0-71 35.4-71 70.8s35.6 71 71 71h195c35.3 0 70.7-35.5 70.7-71 0-37-35.4-70.8-70.8-70.8h-195z" transform="matrix(.015 .008 -.003 .014 455.06 290.5)"/><path d="M212.6-453.5c-35.4 0-71 35.4-71 70.8s35.6 71 71 71h195c35.3 0 70.7-35.5 70.7-71 0-37-35.4-70.8-70.8-70.8h-195z" transform="matrix(.014 .01 -.003 .014 455.088 305.25)"/><path d="M212.6-453.5c-35.4 0-71 35.4-71 70.8s35.6 71 71 71h195c35.3 0 70.7-35.5 70.7-71 0-37-35.4-70.8-70.8-70.8h-195z" transform="matrix(.015 .008 -.003 .014 455.1 303.346)"/><path d="M212.6-453.5c-35.4 0-71 35.4-71 70.8s35.6 71 71 71h195c35.3 0 70.7-35.5 70.7-71 0-37-35.4-70.8-70.8-70.8h-195z" transform="matrix(.014 .01 -.003 .014 455.074 300.97)"/><path d="M212.6-453.5c-35.4 0-71 35.4-71 70.8s35.6 71 71 71h195c35.3 0 70.7-35.5 70.7-71 0-37-35.4-70.8-70.8-70.8h-195z" transform="matrix(.015 .008 -.003 .014 455.086 299.064)"/><path d="M212.6-453.5c-35.4 0-71 35.4-71 70.8s35.6 71 71 71h195c35.3 0 70.7-35.5 70.7-71 0-37-35.4-70.8-70.8-70.8h-195z" transform="matrix(.014 .01 -.003 .014 455.222 348.072)"/><path d="M212.6-453.5c-35.4 0-71 35.4-71 70.8s35.6 71 71 71h195c35.3 0 70.7-35.5 70.7-71 0-37-35.4-70.8-70.8-70.8h-195z" transform="matrix(.015 .008 -.003 .014 455.234 346.168)"/><path d="M212.6-453.5c-35.4 0-71 35.4-71 70.8s35.6 71 71 71h195c35.3 0 70.7-35.5 70.7-71 0-37-35.4-70.8-70.8-70.8h-195z" transform="matrix(.014 .01 -.003 .014 455.21 343.79)"/><path d="M212.6-453.5c-35.4 0-71 35.4-71 70.8s35.6 71 71 71h195c35.3 0 70.7-35.5 70.7-71 0-37-35.4-70.8-70.8-70.8h-195z" transform="matrix(.015 .008 -.003 .014 455.22 341.885)"/><path d="M212.6-453.5c-35.4 0-71 35.4-71 70.8s35.6 71 71 71h195c35.3 0 70.7-35.5 70.7-71 0-37-35.4-70.8-70.8-70.8h-195z" transform="matrix(.015 .008 -.003 .014 455.26 354.73)"/><path d="M212.6-453.5c-35.4 0-71 35.4-71 70.8s35.6 71 71 71h195c35.3 0 70.7-35.5 70.7-71 0-37-35.4-70.8-70.8-70.8h-195z" transform="matrix(.014 .01 -.003 .014 455.236 352.354)"/><path d="M212.6-453.5c-35.4 0-71 35.4-71 70.8s35.6 71 71 71h195c35.3 0 70.7-35.5 70.7-71 0-37-35.4-70.8-70.8-70.8h-195z" transform="matrix(.015 .008 -.003 .014 455.247 350.45)"/><path d="M212.6-453.5c-35.4 0-71 35.4-71 70.8s35.6 71 71 71h195c35.3 0 70.7-35.5 70.7-71 0-37-35.4-70.8-70.8-70.8h-195z" transform="matrix(.014 .01 -.003 .014 455.17 330.944)"/><path d="M212.6-453.5c-35.4 0-71 35.4-71 70.8s35.6 71 71 71h195c35.3 0 70.7-35.5 70.7-71 0-37-35.4-70.8-70.8-70.8h-195z" transform="matrix(.015 .008 -.003 .014 455.18 329.038)"/><path d="M212.6-453.5c-35.4 0-71 35.4-71 70.8s35.6 71 71 71h195c35.3 0 70.7-35.5 70.7-71 0-37-35.4-70.8-70.8-70.8h-195z" transform="matrix(.014 .01 -.003 .014 455.155 326.662)"/><path d="M212.6-453.5c-35.4 0-71 35.4-71 70.8s35.6 71 71 71h195c35.3 0 70.7-35.5 70.7-71 0-37-35.4-70.8-70.8-70.8h-195z" transform="matrix(.015 .008 -.003 .014 455.167 324.756)"/><path d="M212.6-453.5c-35.4 0-71 35.4-71 70.8s35.6 71 71 71h195c35.3 0 70.7-35.5 70.7-71 0-37-35.4-70.8-70.8-70.8h-195z" transform="matrix(.014 .01 -.003 .014 455.195 339.51)"/><path d="M212.6-453.5c-35.4 0-71 35.4-71 70.8s35.6 71 71 71h195c35.3 0 70.7-35.5 70.7-71 0-37-35.4-70.8-70.8-70.8h-195z" transform="matrix(.015 .008 -.003 .014 455.207 337.603)"/><path d="M212.6-453.5c-35.4 0-71 35.4-71 70.8s35.6 71 71 71h195c35.3 0 70.7-35.5 70.7-71 0-37-35.4-70.8-70.8-70.8h-195z" transform="matrix(.014 .01 -.003 .014 455.182 335.226)"/><path d="M212.6-453.5c-35.4 0-71 35.4-71 70.8s35.6 71 71 71h195c35.3 0 70.7-35.5 70.7-71 0-37-35.4-70.8-70.8-70.8h-195z" transform="matrix(.015 .008 -.003 .014 455.194 333.32)"/><path d="M212.6-453.5c-35.4 0-71 35.4-71 70.8s35.6 71 71 71h195c35.3 0 70.7-35.5 70.7-71 0-37-35.4-70.8-70.8-70.8h-195z" transform="matrix(.014 .01 -.003 .014 455.29 369.592)"/><path d="M212.6-453.5c-35.4 0-71 35.4-71 70.8s35.6 71 71 71h195c35.3 0 70.7-35.5 70.7-71 0-37-35.4-70.8-70.8-70.8h-195z" transform="matrix(.015 .008 -.003 .014 455.302 367.687)"/><path d="M212.6-453.5c-35.4 0-71 35.4-71 70.8s35.6 71 71 71h195c35.3 0 70.7-35.5 70.7-71 0-37-35.4-70.8-70.8-70.8h-195z" transform="matrix(.014 .01 -.003 .014 455.277 365.31)"/><path d="M212.6-453.5c-35.4 0-71 35.4-71 70.8s35.6 71 71 71h195c35.3 0 70.7-35.5 70.7-71 0-37-35.4-70.8-70.8-70.8h-195z" transform="matrix(.015 .008 -.003 .014 455.288 363.405)"/><path d="M212.6-453.5c-35.4 0-71 35.4-71 70.8s35.6 71 71 71h195c35.3 0 70.7-35.5 70.7-71 0-37-35.4-70.8-70.8-70.8h-195z" transform="matrix(.015 .008 -.003 .014 455.33 376.25)"/><path d="M212.6-453.5c-35.4 0-71 35.4-71 70.8s35.6 71 71 71h195c35.3 0 70.7-35.5 70.7-71 0-37-35.4-70.8-70.8-70.8h-195z" transform="matrix(.014 .01 -.003 .014 455.304 373.874)"/><path d="M212.6-453.5c-35.4 0-71 35.4-71 70.8s35.6 71 71 71h195c35.3 0 70.7-35.5 70.7-71 0-37-35.4-70.8-70.8-70.8h-195z" transform="matrix(.015 .008 -.003 .014 455.315 371.97)"/><path d="M212.6-453.5c-35.4 0-71 35.4-71 70.8s35.6 71 71 71h195c35.3 0 70.7-35.5 70.7-71 0-37-35.4-70.8-70.8-70.8h-195z" transform="matrix(.014 .01 -.003 .014 455.263 361.028)"/><path d="M212.6-453.5c-35.4 0-71 35.4-71 70.8s35.6 71 71 71h195c35.3 0 70.7-35.5 70.7-71 0-37-35.4-70.8-70.8-70.8h-195z" transform="matrix(.015 .008 -.003 .014 455.275 359.123)"/><path d="M212.6-453.5c-35.4 0-71 35.4-71 70.8s35.6 71 71 71h195c35.3 0 70.7-35.5 70.7-71 0-37-35.4-70.8-70.8-70.8h-195z" transform="matrix(.014 .01 -.003 .014 455.25 356.746)"/></g><g stroke="#000" stroke-width="12.8" fill="#b00"><path d="M212.6-453.5c-35.4 0-71 35.4-71 70.8s35.6 71 71 71h195c35.3 0 70.7-35.5 70.7-71 0-37-35.4-70.8-70.8-70.8h-195z" transform="matrix(.018 .005 .003 .014 466.68 266.44)"/><path d="M212.6-453.5c-35.4 0-71 35.4-71 70.8s35.6 71 71 71h195c35.3 0 70.7-35.5 70.7-71 0-37-35.4-70.8-70.8-70.8h-195z" transform="matrix(.005 .014 -.014 .01 463.064 262.695)"/><path d="M212.6-453.5c-35.4 0-71 35.4-71 70.8s35.6 71 71 71h195c35.3 0 70.7-35.5 70.7-71 0-37-35.4-70.8-70.8-70.8h-195z" transform="matrix(.013 .01 -.006 .014 464.422 264.973)"/><path d="M212.6-453.5c-35.4 0-71 35.4-71 70.8s35.6 71 71 71h195c35.3 0 70.7-35.5 70.7-71 0-37-35.4-70.8-70.8-70.8h-195z" transform="matrix(-.01 .012 -.018 -.002 462.708 259.138)"/><path d="M212.6-453.5c-35.4 0-71 35.4-71 70.8s35.6 71 71 71h195c35.3 0 70.7-35.5 70.7-71 0-37-35.4-70.8-70.8-70.8h-195z" transform="matrix(-.01 .012 -.018 -.002 465.11 259.125)"/><path d="M212.6-453.5c-35.4 0-71 35.4-71 70.8s35.6 71 71 71h195c35.3 0 70.7-35.5 70.7-71 0-37-35.4-70.8-70.8-70.8h-195z" transform="matrix(-.012 .012 -.018 -.003 452.207 259.055)"/><path d="M212.6-453.5c-35.4 0-71 35.4-71 70.8s35.6 71 71 71h195c35.3 0 70.7-35.5 70.7-71 0-37-35.4-70.8-70.8-70.8h-195z" transform="matrix(-.01 .012 -.018 -.003 454.606 259.113)"/><path d="M212.6-453.5c-35.4 0-71 35.4-71 70.8s35.6 71 71 71h195c35.3 0 70.7-35.5 70.7-71 0-37-35.4-70.8-70.8-70.8h-195z" transform="matrix(-.012 .012 -.018 -.003 457.6 259.152)"/><path d="M212.6-453.5c-35.4 0-71 35.4-71 70.8s35.6 71 71 71h195c35.3 0 70.7-35.5 70.7-71 0-37-35.4-70.8-70.8-70.8h-195z" transform="matrix(-.01 .012 -.018 -.002 459.715 259.187)"/><path d="M212.6-453.5c-35.4 0-71 35.4-71 70.8s35.6 71 71 71h195c35.3 0 70.7-35.5 70.7-71 0-37-35.4-70.8-70.8-70.8h-195z" transform="matrix(-.012 .012 -.018 -.003 448.742 258.147)"/><path d="M212.6-453.5c-35.4 0-71 35.4-71 70.8s35.6 71 71 71h195c35.3 0 70.7-35.5 70.7-71 0-37-35.4-70.8-70.8-70.8h-195z" transform="matrix(-.013 .01 -.017 -.005 450.414 258.51)"/><path d="M212.6-453.5c-35.4 0-71 35.4-71 70.8s35.6 71 71 71h195c35.3 0 70.7-35.5 70.7-71 0-37-35.4-70.8-70.8-70.8h-195z" transform="matrix(-.017 .007 -.015 -.01 449.456 256.964)"/></g><g stroke="#000" stroke-width="12.8" fill="#b00"><path d="M212.6-453.5c-35.4 0-71 35.4-71 70.8s35.6 71 71 71h195c35.3 0 70.7-35.5 70.7-71 0-37-35.4-70.8-70.8-70.8h-195z" transform="matrix(-.015 -.01 -.015 .007 500.895 356.244)"/><path d="M212.6-453.5c-35.4 0-71 35.4-71 70.8s35.6 71 71 71h195c35.3 0 70.7-35.5 70.7-71 0-37-35.4-70.8-70.8-70.8h-195z" transform="matrix(-.014 -.01 -.015 .007 503.055 355.643)"/><path d="M212.6-453.5c-35.4 0-71 35.4-71 70.8s35.6 71 71 71h195c35.3 0 70.7-35.5 70.7-71 0-37-35.4-70.8-70.8-70.8h-195z" transform="matrix(-.015 -.01 -.015 .007 505.762 354.925)"/><path d="M212.6-453.5c-35.4 0-71 35.4-71 70.8s35.6 71 71 71h195c35.3 0 70.7-35.5 70.7-71 0-37-35.4-70.8-70.8-70.8h-195z" transform="matrix(-.014 -.01 -.015 .007 507.922 354.324)"/><path d="M212.6-453.5c-35.4 0-71 35.4-71 70.8s35.6 71 71 71h195c35.3 0 70.7-35.5 70.7-71 0-37-35.4-70.8-70.8-70.8h-195z" transform="matrix(-.017 .003 -.004 .014 523.96 347.347)"/><path d="M212.6-453.5c-35.4 0-71 35.4-71 70.8s35.6 71 71 71h195c35.3 0 70.7-35.5 70.7-71 0-37-35.4-70.8-70.8-70.8h-195z" transform="matrix(-.01 .012 .007 .013 526.045 341.334)"/><path d="M212.6-453.5c-35.4 0-71 35.4-71 70.8s35.6 71 71 71h195c35.3 0 70.7-35.5 70.7-71 0-37-35.4-70.8-70.8-70.8h-195z" transform="matrix(-.017 .003 -.004 .014 525.113 345.175)"/><path d="M212.6-453.5c-35.4 0-71 35.4-71 70.8s35.6 71 71 71h195c35.3 0 70.7-35.5 70.7-71 0-37-35.4-70.8-70.8-70.8h-195z" transform="matrix(-.014 -.01 -.016 .006 490.77 358.257)"/><path d="M212.6-453.5c-35.4 0-71 35.4-71 70.8s35.6 71 71 71h195c35.3 0 70.7-35.5 70.7-71 0-37-35.4-70.8-70.8-70.8h-195z" transform="matrix(-.013 -.01 -.016 .006 492.983 357.815)"/><path d="M212.6-453.5c-35.4 0-71 35.4-71 70.8s35.6 71 71 71h195c35.3 0 70.7-35.5 70.7-71 0-37-35.4-70.8-70.8-70.8h-195z" transform="matrix(-.015 -.008 -.015 .007 496.453 357.222)"/><path d="M212.6-453.5c-35.4 0-71 35.4-71 70.8s35.6 71 71 71h195c35.3 0 70.7-35.5 70.7-71 0-37-35.4-70.8-70.8-70.8h-195z" transform="matrix(-.013 -.01 -.016 .005 497.317 356.546)"/><path d="M212.6-453.5c-35.4 0-71 35.4-71 70.8s35.6 71 71 71h195c35.3 0 70.7-35.5 70.7-71 0-37-35.4-70.8-70.8-70.8h-195z" transform="matrix(-.015 -.01 -.015 .007 510.63 353.606)"/><path d="M212.6-453.5c-35.4 0-71 35.4-71 70.8s35.6 71 71 71h195c35.3 0 70.7-35.5 70.7-71 0-37-35.4-70.8-70.8-70.8h-195z" transform="matrix(-.014 -.01 -.015 .007 512.788 353.005)"/><path d="M212.6-453.5c-35.4 0-71 35.4-71 70.8s35.6 71 71 71h195c35.3 0 70.7-35.5 70.7-71 0-37-35.4-70.8-70.8-70.8h-195z" transform="matrix(-.01 -.012 -.017 .003 458.727 360.068)"/><path d="M212.6-453.5c-35.4 0-71 35.4-71 70.8s35.6 71 71 71h195c35.3 0 70.7-35.5 70.7-71 0-37-35.4-70.8-70.8-70.8h-195z" transform="matrix(-.01 -.012 -.017 .003 461 360.008)"/><path d="M212.6-453.5c-35.4 0-71 35.4-71 70.8s35.6 71 71 71h195c35.3 0 70.7-35.5 70.7-71 0-37-35.4-70.8-70.8-70.8h-195z" transform="matrix(-.01 -.012 -.017 .003 463.84 359.968)"/><path d="M212.6-453.5c-35.4 0-71 35.4-71 70.8s35.6 71 71 71h195c35.3 0 70.7-35.5 70.7-71 0-37-35.4-70.8-70.8-70.8h-195z" transform="matrix(-.01 -.012 -.017 .003 466.116 359.91)"/><path d="M212.6-453.5c-35.4 0-71 35.4-71 70.8s35.6 71 71 71h195c35.3 0 70.7-35.5 70.7-71 0-37-35.4-70.8-70.8-70.8h-195z" transform="matrix(-.01 -.012 -.017 .003 448.498 360.265)"/><path d="M212.6-453.5c-35.4 0-71 35.4-71 70.8s35.6 71 71 71h195c35.3 0 70.7-35.5 70.7-71 0-37-35.4-70.8-70.8-70.8h-195z" transform="matrix(-.01 -.012 -.017 .003 450.773 360.205)"/><path d="M212.6-453.5c-35.4 0-71 35.4-71 70.8s35.6 71 71 71h195c35.3 0 70.7-35.5 70.7-71 0-37-35.4-70.8-70.8-70.8h-195z" transform="matrix(-.01 -.012 -.017 .003 453.612 360.165)"/><path d="M212.6-453.5c-35.4 0-71 35.4-71 70.8s35.6 71 71 71h195c35.3 0 70.7-35.5 70.7-71 0-37-35.4-70.8-70.8-70.8h-195z" transform="matrix(-.01 -.012 -.017 .003 455.887 360.107)"/><path d="M212.6-453.5c-35.4 0-71 35.4-71 70.8s35.6 71 71 71h195c35.3 0 70.7-35.5 70.7-71 0-37-35.4-70.8-70.8-70.8h-195z" transform="matrix(-.012 -.01 -.016 .005 479.926 359.6)"/><path d="M212.6-453.5c-35.4 0-71 35.4-71 70.8s35.6 71 71 71h195c35.3 0 70.7-35.5 70.7-71 0-37-35.4-70.8-70.8-70.8h-195z" transform="matrix(-.012 -.01 -.016 .005 482.462 359.34)"/><path d="M212.6-453.5c-35.4 0-71 35.4-71 70.8s35.6 71 71 71h195c35.3 0 70.7-35.5 70.7-71 0-37-35.4-70.8-70.8-70.8h-195z" transform="matrix(-.013 -.01 -.016 .005 485.265 358.968)"/><path d="M212.6-453.5c-35.4 0-71 35.4-71 70.8s35.6 71 71 71h195c35.3 0 70.7-35.5 70.7-71 0-37-35.4-70.8-70.8-70.8h-195z" transform="matrix(-.013 -.01 -.016 .006 488 358.778)"/><path d="M212.6-453.5c-35.4 0-71 35.4-71 70.8s35.6 71 71 71h195c35.3 0 70.7-35.5 70.7-71 0-37-35.4-70.8-70.8-70.8h-195z" transform="matrix(-.01 -.012 -.017 .003 468.954 359.87)"/><path d="M212.6-453.5c-35.4 0-71 35.4-71 70.8s35.6 71 71 71h195c35.3 0 70.7-35.5 70.7-71 0-37-35.4-70.8-70.8-70.8h-195z" transform="matrix(-.01 -.01 -.017 .004 471.61 359.856)"/><path d="M212.6-453.5c-35.4 0-71 35.4-71 70.8s35.6 71 71 71h195c35.3 0 70.7-35.5 70.7-71 0-37-35.4-70.8-70.8-70.8h-195z" transform="matrix(-.013 -.01 -.016 .005 474.785 359.78)"/><path d="M212.6-453.5c-35.4 0-71 35.4-71 70.8s35.6 71 71 71h195c35.3 0 70.7-35.5 70.7-71 0-37-35.4-70.8-70.8-70.8h-195z" transform="matrix(-.01 -.012 -.017 .004 476.597 359.414)"/><path d="M212.6-453.5c-35.4 0-71 35.4-71 70.8s35.6 71 71 71h195c35.3 0 70.7-35.5 70.7-71 0-37-35.4-70.8-70.8-70.8h-195z" transform="matrix(-.008 -.013 -.017 0 416.695 358.17)"/><path d="M212.6-453.5c-35.4 0-71 35.4-71 70.8s35.6 71 71 71h195c35.3 0 70.7-35.5 70.7-71 0-37-35.4-70.8-70.8-70.8h-195z" transform="matrix(-.008 -.013 -.017 0 418.945 358.453)"/><path d="M212.6-453.5c-35.4 0-71 35.4-71 70.8s35.6 71 71 71h195c35.3 0 70.7-35.5 70.7-71 0-37-35.4-70.8-70.8-70.8h-195z" transform="matrix(-.01 -.013 -.017 .002 422.37 359.196)"/><path d="M212.6-453.5c-35.4 0-71 35.4-71 70.8s35.6 71 71 71h195c35.3 0 70.7-35.5 70.7-71 0-37-35.4-70.8-70.8-70.8h-195z" transform="matrix(-.01 -.013 -.017 .002 424.642 359.286)"/><path d="M212.6-453.5c-35.4 0-71 35.4-71 70.8s35.6 71 71 71h195c35.3 0 70.7-35.5 70.7-71 0-37-35.4-70.8-70.8-70.8h-195z" transform="matrix(-.008 -.013 -.017 0 408.84 357.112)"/><path d="M212.6-453.5c-35.4 0-71 35.4-71 70.8s35.6 71 71 71h195c35.3 0 70.7-35.5 70.7-71 0-37-35.4-70.8-70.8-70.8h-195z" transform="matrix(-.008 -.013 -.017 0 411.642 357.498)"/><path d="M212.6-453.5c-35.4 0-71 35.4-71 70.8s35.6 71 71 71h195c35.3 0 70.7-35.5 70.7-71 0-37-35.4-70.8-70.8-70.8h-195z" transform="matrix(-.008 -.013 -.017 0 413.893 357.782)"/><path d="M212.6-453.5c-35.4 0-71 35.4-71 70.8s35.6 71 71 71h195c35.3 0 70.7-35.5 70.7-71 0-37-35.4-70.8-70.8-70.8h-195z" transform="matrix(-.01 -.013 -.017 .002 437.692 359.897)"/><path d="M212.6-453.5c-35.4 0-71 35.4-71 70.8s35.6 71 71 71h195c35.3 0 70.7-35.5 70.7-71 0-37-35.4-70.8-70.8-70.8h-195z" transform="matrix(-.01 -.013 -.017 .002 439.965 359.987)"/><path d="M212.6-453.5c-35.4 0-71 35.4-71 70.8s35.6 71 71 71h195c35.3 0 70.7-35.5 70.7-71 0-37-35.4-70.8-70.8-70.8h-195z" transform="matrix(-.01 -.012 -.017 .003 443.384 360.362)"/><path d="M212.6-453.5c-35.4 0-71 35.4-71 70.8s35.6 71 71 71h195c35.3 0 70.7-35.5 70.7-71 0-37-35.4-70.8-70.8-70.8h-195z" transform="matrix(-.01 -.012 -.017 .003 445.658 360.304)"/><path d="M212.6-453.5c-35.4 0-71 35.4-71 70.8s35.6 71 71 71h195c35.3 0 70.7-35.5 70.7-71 0-37-35.4-70.8-70.8-70.8h-195z" transform="matrix(-.01 -.013 -.017 .002 427.477 359.43)"/><path d="M212.6-453.5c-35.4 0-71 35.4-71 70.8s35.6 71 71 71h195c35.3 0 70.7-35.5 70.7-71 0-37-35.4-70.8-70.8-70.8h-195z" transform="matrix(-.01 -.013 -.017 .002 429.75 359.52)"/><path d="M212.6-453.5c-35.4 0-71 35.4-71 70.8s35.6 71 71 71h195c35.3 0 70.7-35.5 70.7-71 0-37-35.4-70.8-70.8-70.8h-195z" transform="matrix(-.01 -.013 -.017 .002 432.585 359.663)"/><path d="M212.6-453.5c-35.4 0-71 35.4-71 70.8s35.6 71 71 71h195c35.3 0 70.7-35.5 70.7-71 0-37-35.4-70.8-70.8-70.8h-195z" transform="matrix(-.01 -.013 -.017 .002 434.858 359.752)"/><path d="M212.6-453.5c-35.4 0-71 35.4-71 70.8s35.6 71 71 71h195c35.3 0 70.7-35.5 70.7-71 0-37-35.4-70.8-70.8-70.8h-195z" transform="matrix(.018 -.002 .005 -.014 399.867 338.592)"/><path d="M212.6-453.5c-35.4 0-71 35.4-71 70.8s35.6 71 71 71h195c35.3 0 70.7-35.5 70.7-71 0-37-35.4-70.8-70.8-70.8h-195z" transform="matrix(.014 -.01 -.004 -.014 397.117 342.637)"/><path d="M212.6-453.5c-35.4 0-71 35.4-71 70.8s35.6 71 71 71h195c35.3 0 70.7-35.5 70.7-71 0-37-35.4-70.8-70.8-70.8h-195z" transform="matrix(.01 -.013 -.01 -.012 396.96 346.746)"/><path d="M212.6-453.5c-35.4 0-71 35.4-71 70.8s35.6 71 71 71h195c35.3 0 70.7-35.5 70.7-71 0-37-35.4-70.8-70.8-70.8h-195z" transform="matrix(.004 -.014 -.014 -.01 397.682 350.215)"/><path d="M212.6-453.5c-35.4 0-71 35.4-71 70.8s35.6 71 71 71h195c35.3 0 70.7-35.5 70.7-71 0-37-35.4-70.8-70.8-70.8h-195z" transform="matrix(.018 0 .008 -.013 405.433 332.91)"/><path d="M212.6-453.5c-35.4 0-71 35.4-71 70.8s35.6 71 71 71h195c35.3 0 70.7-35.5 70.7-71 0-37-35.4-70.8-70.8-70.8h-195z" transform="matrix(.018 0 .008 -.013 403.656 334.766)"/><path d="M212.6-453.5c-35.4 0-71 35.4-71 70.8s35.6 71 71 71h195c35.3 0 70.7-35.5 70.7-71 0-37-35.4-70.8-70.8-70.8h-195z" transform="matrix(.018 -.002 .005 -.014 401.203 336.495)"/><path d="M212.6-453.5c-35.4 0-71 35.4-71 70.8s35.6 71 71 71h195c35.3 0 70.7-35.5 70.7-71 0-37-35.4-70.8-70.8-70.8h-195z" transform="matrix(0 -.015 -.016 -.005 399.736 353.467)"/><path d="M212.6-453.5c-35.4 0-71 35.4-71 70.8s35.6 71 71 71h195c35.3 0 70.7-35.5 70.7-71 0-37-35.4-70.8-70.8-70.8h-195z" transform="matrix(-.004 -.014 -.017 -.003 402.69 355.36)"/><path d="M212.6-453.5c-35.4 0-71 35.4-71 70.8s35.6 71 71 71h195c35.3 0 70.7-35.5 70.7-71 0-37-35.4-70.8-70.8-70.8h-195z" transform="matrix(-.008 -.013 -.017 0 406.46 356.81)"/><path d="M212.6-453.5c-35.4 0-71 35.4-71 70.8s35.6 71 71 71h195c35.3 0 70.7-35.5 70.7-71 0-37-35.4-70.8-70.8-70.8h-195z" transform="matrix(-.017 -.004 -.01 .01 516.71 351.703)"/><path d="M212.6-453.5c-35.4 0-71 35.4-71 70.8s35.6 71 71 71h195c35.3 0 70.7-35.5 70.7-71 0-37-35.4-70.8-70.8-70.8h-195z" transform="matrix(-.017 -.005 -.012 .01 516.854 352.14)"/><path d="M212.6-453.5c-35.4 0-71 35.4-71 70.8s35.6 71 71 71h195c35.3 0 70.7-35.5 70.7-71 0-37-35.4-70.8-70.8-70.8h-195z" transform="matrix(-.018 -.003 -.01 .012 521.71 349.38)"/><path d="M212.6-453.5c-35.4 0-71 35.4-71 70.8s35.6 71 71 71h195c35.3 0 70.7-35.5 70.7-71 0-37-35.4-70.8-70.8-70.8h-195z" transform="matrix(-.017 -.005 -.012 .01 518.628 350.93)"/><path d="M212.6-453.5c-35.4 0-71 35.4-71 70.8s35.6 71 71 71h195c35.3 0 70.7-35.5 70.7-71 0-37-35.4-70.8-70.8-70.8h-195z" transform="matrix(.016 -.006 .013 .01 511.524 341.023)"/><path d="M212.6-453.5c-35.4 0-71 35.4-71 70.8s35.6 71 71 71h195c35.3 0 70.7-35.5 70.7-71 0-37-35.4-70.8-70.8-70.8h-195z" transform="matrix(.016 -.006 .013 .01 509.547 340.08)"/><path d="M212.6-453.5c-35.4 0-71 35.4-71 70.8s35.6 71 71 71h195c35.3 0 70.7-35.5 70.7-71 0-37-35.4-70.8-70.8-70.8h-195z" transform="matrix(.017 -.005 .012 .01 506.422 338.863)"/><path d="M212.6-453.5c-35.4 0-71 35.4-71 70.8s35.6 71 71 71h195c35.3 0 70.7-35.5 70.7-71 0-37-35.4-70.8-70.8-70.8h-195z" transform="matrix(.016 -.006 .013 .01 518.47 344.267)"/><path d="M212.6-453.5c-35.4 0-71 35.4-71 70.8s35.6 71 71 71h195c35.3 0 70.7-35.5 70.7-71 0-37-35.4-70.8-70.8-70.8h-195z" transform="matrix(.016 -.006 .013 .01 515.986 343.118)"/><path d="M212.6-453.5c-35.4 0-71 35.4-71 70.8s35.6 71 71 71h195c35.3 0 70.7-35.5 70.7-71 0-37-35.4-70.8-70.8-70.8h-195z" transform="matrix(.016 -.006 .013 .01 514.008 342.173)"/></g><g transform="matrix(.08 0 0 .096 438.435 288.09)"><path d="M212.6-1995v53.2h-53v35.5h53v106.3H248v-106.3h53.2v-35.5H248v-53h-35.4z" stroke="#000" stroke-width="1.2" fill="#fff133"/><ellipse rx="62" ry="57.3" stroke="#000" transform="matrix(.57 0 0 .618 93.645 -678.94)" cy="-1813.5" cx="239.2" stroke-width="1.2" fill="#fff133"/><path d="M602.4-1119.4c0 68.5-10.5 145.7-29.3 205C453-940.8 305-954 234-954 146.6-954-12-941-111-927.7c-18.8-59.3-30.5-123.3-30.5-191.8 0-273.8 105.2-390.2 367.5-496 233.3 105.8 376.6 222.2 376.6 496z" transform="matrix(1.058 0 0 1.34 -5.764 363.72)" stroke="#000" stroke-width="1.2" fill="#fff"/><path d="M567-657.3c0-44-151-79.7-336.7-79.7s-336.6 35.7-336.6 79.7v26.6c0-44 150.8-71 336.6-71S567-657 567-613v-44.3z" transform="matrix(1.17 0 0 .745 -32.833 -634.89)" stroke="#000" stroke-width="1.2" fill="#fff133"/><g stroke="#000" stroke-width="1.2" fill="#fff133"><path d="M230.3-825.6l-53 53.2 35.3 35.4-17.7 17.7-35.5-35.4-53.2 53 53.2 53.3L195-684l17.6 18v53H248v-53l17.8-18 35.4 35.6 53-53.2-53-53-35.4 35.3L248-737l35.5-35.4-53.2-53.2z" transform="matrix(1.173 0 0 .745 -33.06 -766.81)"/><path d="M221-825.6l-8.4 53.2v35.4L195-719.3v-35.4l-17.8 53 17.7 53.3V-684l17.6 18v53h17.7v-53l17.7-18v35.6l17.8-53.2-17.8-53v35.3L230.3-737v-35.4l-9.3-53.2z" transform="matrix(1.135 -.186 .294 .72 -190.034 -703.65)"/><path d="M221-825.6l-8.4 53.2v35.4L195-719.3v-35.4l-17.8 53 17.7 53.3V-684l17.6 18v53h17.7v-53l17.7-18v35.6l17.8-53.2-17.8-53v35.3L230.3-737v-35.4l-9.3-53.2z" transform="matrix(1.142 .17 -.267 .725 182.2 -778.388)"/><path d="M141.7-1020.5c0-17.7 17.7-35.4 35.5-35.4 17.7 0 35.4 17.8 35.4 35.5S195-985 195-985l70.7 70.8h-35.4l-53-53.2-53.3 53.2H88.6l70.8-71s-17.7-17.6-17.7-35.3z" transform="matrix(.926 -.095 .187 .735 28.8 -521.9)"/><path d="M141.7-1020.5c0-17.7 17.7-35.4 35.5-35.4 17.7 0 35.4 17.8 35.4 35.5S195-985 195-985l70.7 70.8h-35.4l-53-53.2-53.3 53.2H88.6l70.8-71s-17.7-17.6-17.7-35.3z" transform="matrix(.927 .09 -.18 .736 124.84 -554.076)"/><path d="M567-657.3c0-44-151-79.7-336.7-79.7s-336.6 35.7-336.6 79.7v26.6c0-44 150.8-71 336.6-71S567-657 567-613v-44.3z" transform="matrix(1.173 0 0 .745 -33.06 -674.46)"/></g><path d="M567-657.3c0-44-151-79.7-336.7-79.7s-336.6 35.7-336.6 79.7v26.6c0-44 150.8-71 336.6-71S567-657 567-613v-44.3z" transform="matrix(1.073 0 0 .745 -9.254 -386.86)" stroke="#000" stroke-width="1.2" fill="#fff133"/><g stroke="#000" stroke-width="1.2" fill="#fff133"><path d="M230.3-825.6l-53 53.2 35.3 35.4-17.7 17.7-35.5-35.4-53.2 53 53.2 53.3L195-684l17.6 18v53H248v-53l17.8-18 35.4 35.6 53-53.2-53-53-35.4 35.3L248-737l35.5-35.4-53.2-53.2z" transform="matrix(1.104 0 0 .745 -12.892 -518.78)"/><path d="M221-825.6l-8.4 53.2v35.4L195-719.3v-35.4l-17.8 53 17.7 53.3V-684l17.6 18v53h17.7v-53l17.7-18v35.6l17.8-53.2-17.8-53v35.3L230.3-737v-35.4l-9.3-53.2z" transform="matrix(1.07 -.186 .276 .72 -160.722 -455.62)"/><path d="M221-825.6l-8.4 53.2v35.4L195-719.3v-35.4l-17.8 53 17.7 53.3V-684l17.6 18v53h17.7v-53l17.7-18v35.6l17.8-53.2-17.8-53v35.3L230.3-737v-35.4l-9.3-53.2z" transform="matrix(1.075 .17 -.252 .725 189.828 -530.358)"/><path d="M141.7-1020.5c0-17.7 17.7-35.4 35.5-35.4 17.7 0 35.4 17.8 35.4 35.5S195-985 195-985l70.7 70.8h-35.4l-53-53.2-53.3 53.2H88.6l70.8-71s-17.7-17.6-17.7-35.3z" transform="matrix(.872 -.095 .176 .735 45.363 -273.87)"/><path d="M141.7-1020.5c0-17.7 17.7-35.4 35.5-35.4 17.7 0 35.4 17.8 35.4 35.5S195-985 195-985l70.7 70.8h-35.4l-53-53.2-53.3 53.2H88.6l70.8-71s-17.7-17.6-17.7-35.3z" transform="matrix(.873 .09 -.17 .736 135.81 -306.046)"/><path d="M567-657.3c0-44-151-79.7-336.7-79.7s-336.6 35.7-336.6 79.7v26.6c0-44 150.8-71 336.6-71S567-657 567-613v-44.3z" transform="matrix(1.104 0 0 .745 -12.892 -426.43)"/></g><path d="M567-657.3c0-44-151-79.7-336.7-79.7s-336.6 35.7-336.6 79.7v26.6c0-44 150.8-71 336.6-71S567-657 567-613v-44.3z" transform="matrix(1.105 0 0 .745 -16.106 -865.2)" stroke="#000" stroke-width="1.2" fill="#fff133"/><g stroke="#000" stroke-width="1.2" fill="#fff133"><path d="M230.3-825.6l-53 53.2 35.3 35.4-17.7 17.7-35.5-35.4-53.2 53 53.2 53.3L195-684l17.6 18v53H248v-53l17.8-18 35.4 35.6 53-53.2-53-53-35.4 35.3L248-737l35.5-35.4-53.2-53.2z" transform="matrix(1.08 0 0 .702 -6.168 -1031.347)"/><path d="M221-825.6l-8.4 53.2v35.4L195-719.3v-35.4l-17.8 53 17.7 53.3V-684l17.6 18v53h17.7v-53l17.7-18v35.6l17.8-53.2-17.8-53v35.3L230.3-737v-35.4l-9.3-53.2z" transform="matrix(1.046 -.176 .27 .68 -150.745 -971.77)"/><path d="M221-825.6l-8.4 53.2v35.4L195-719.3v-35.4l-17.8 53 17.7 53.3V-684l17.6 18v53h17.7v-53l17.7-18v35.6l17.8-53.2-17.8-53v35.3L230.3-737v-35.4l-9.3-53.2z" transform="matrix(1.05 .16 -.246 .684 192.09 -1042.27)"/><path d="M141.7-1020.5c0-17.7 17.7-35.4 35.5-35.4 17.7 0 35.4 17.8 35.4 35.5S195-985 195-985l70.7 70.8h-35.4l-53-53.2-53.3 53.2H88.6l70.8-71s-17.7-17.6-17.7-35.3z" transform="matrix(.853 -.09 .172 .693 50.806 -800.335)"/><path d="M141.7-1020.5c0-17.7 17.7-35.4 35.5-35.4 17.7 0 35.4 17.8 35.4 35.5S195-985 195-985l70.7 70.8h-35.4l-53-53.2-53.3 53.2H88.6l70.8-71s-17.7-17.6-17.7-35.3z" transform="matrix(.854 .086 -.165 .694 139.262 -830.684)"/><path d="M567-657.3c0-44-151-79.7-336.7-79.7s-336.6 35.7-336.6 79.7v26.6c0-44 150.8-71 336.6-71S567-657 567-613v-44.3z" transform="matrix(1.08 0 0 .702 -6.168 -944.238)"/></g><ellipse rx="375.9" ry="120.5" transform="matrix(.966 0 0 .414 12.936 -517.53)" cy="-822.1" cx="234.1" fill="#b90000"/></g><path d="M513.8-790.2l35.4-17.7 35.4 17.8s-73.3 35.5-73.3 159.5c0 88.6 125.2 106.3 125.2 212.6 0 45.5-34 88.5-69.6 88.5s-88.7-17.7-141.8-71c35.4 17.8 76 37.4 106.3 36.2 19.6-.4 55-17.8 55-53.2 0-71-122.8-107-122.8-213.2 0-124 50-159.5 50-159.5z" transform="matrix(.24 0 0 .2 381.89 336.17)" stroke="#000" stroke-width="1.2" fill="#fff"/><path d="M212.6-453.5c-35.4 0-71 35.4-71 70.8s35.6 71 71 71h195c35.3 0 70.7-35.5 70.7-71 0-37-35.4-70.8-70.8-70.8h-195z" transform="matrix(.02 0 .01 .022 454.378 384)" stroke="#000" stroke-width="18" fill="#b00"/><path d="M520.3-790.2L567-808l10 17.8s-70.7 35.5-70.7 159.5c0 88.6 126 106.3 126 212.6 0 45.5-26.8 87.3-65.4 88.5-73.5 2.3-90.5-24-141.8-71 43.2 32.4 105 47 129 34.3 29.4-15.4 35-36 35-53.8 0-71-120.8-104.4-120.8-210.7 0-124 52-159.5 52-159.5z" transform="matrix(.24 0 0 .2 381.89 336.17)" stroke="#000" stroke-width="1.2" fill="#fff"/><path d="M513.3-789.7c7-2.4 36-18.2 71.3 17.3 17.8 17.7 17.8 53 17.8 70.8l53-53s-29-87-107.5-53.7c-11.2 5-28.2 14.5-34.7 18.6z" transform="matrix(.24 0 0 .2 381.89 336.17)" stroke="#000" stroke-width="1.2" fill="#fff"/><path d="M523.8-796c8.8-2.8 36.7-6.3 64.6 18.6 17.7 17.7 19 43 19 60.6l40.6-38c3.5-3-24.8-81.2-99.2-54-4.5 2-14.8 6.3-25 13z" transform="matrix(.24 0 0 .2 381.89 336.17)" stroke="#000" stroke-width="1.2" fill="#fff"/><path d="M344.5-596.3l9.2 22.2s1.4-10 8.5-11.7l7-1.8s27 49.4 32.3 58.2c5.3 9-3.6 16.8-1.8 16.8s26.5-11.5 26.5-11.5-10.6 1-15-6.2-34.8-60-34.8-60 6-2.6 11.5-5.2c5.2-2.7 10.5 8 10.5 8L385.2-614s0 9-4.4 10.6c-4.4 1.8-8 3.6-8 3.6s-3.5-6.2-8-13.3c-4.3-7.2 4.5-14.2 4.5-14.2l-23 11.5s8 4.4 10.6 8.8l5.2 9s-3.2 1.7-8.2 3.4c-3.6 2-7.7 0-9.5-1.7z" transform="matrix(.195 -.02 .067 .173 476.436 338.935)" stroke="#000" stroke-width="1.2" fill="#fff133"/><path d="M344.5-596.3l9.2 22.2s1.4-10 8.5-11.7l7-1.8s27 49.4 32.3 58.2c5.3 9-3.6 16.8-1.8 16.8s26.5-11.5 26.5-11.5-10.6 1-15-6.2-34.8-60-34.8-60 6-2.6 11.5-5.2c5.2-2.7 10.5 8 10.5 8L385.2-614s0 9-4.4 10.6c-4.4 1.8-8 3.6-8 3.6s-3.5-6.2-8-13.3c-4.3-7.2 4.5-14.2 4.5-14.2l-23 11.5s8 4.4 10.6 8.8l5.2 9s-3.2 1.7-8.2 3.4c-3.6 2-7.7 0-9.5-1.7z" transform="matrix(-.178 .024 -.003 -.133 595.38 97.04)" stroke="#000" stroke-width="1.2" fill="#fff133"/><path d="M212.6-453.5c-35.4 0-71 35.4-71 70.8s35.6 71 71 71h195c35.3 0 70.7-35.5 70.7-71 0-37-35.4-70.8-70.8-70.8h-195z" transform="matrix(.02 0 .01 .022 457.876 383.788)" stroke="#000" stroke-width="18" fill="#b00"/><path d="M212.6-453.5c-35.4 0-71 35.4-71 70.8s35.6 71 71 71h195c35.3 0 70.7-35.5 70.7-71 0-37-35.4-70.8-70.8-70.8h-195z" transform="matrix(.035 0 .016 .022 452.67 386.727)" stroke="#000" stroke-width="18" fill="#b00"/><path d="M212.6-453.5c-35.4 0-71 35.4-71 70.8s35.6 71 71 71h195c35.3 0 70.7-35.5 70.7-71 0-37-35.4-70.8-70.8-70.8h-195z" transform="matrix(.035 0 .016 .022 455.97 386.514)" stroke="#000" stroke-width="18" fill="#b00"/><path d="M212.6-453.5c-35.4 0-71 35.4-71 70.8s35.6 71 71 71h195c35.3 0 70.7-35.5 70.7-71 0-37-35.4-70.8-70.8-70.8h-195z" transform="matrix(.043 0 .02 .022 451.35 389.865)" stroke="#000" stroke-width="18" fill="#b00"/><path d="M212.6-453.5c-35.4 0-71 35.4-71 70.8s35.6 71 71 71h195c35.3 0 70.7-35.5 70.7-71 0-37-35.4-70.8-70.8-70.8h-195z" transform="matrix(.043 0 .02 .022 455.442 389.652)" stroke="#000" stroke-width="18" fill="#b00"/><path fill="#ffe000" d="M0 0h320v480H0z"/></g></svg>