<svg xmlns="http://www.w3.org/2000/svg" viewBox="0 0 65.2 65.2" width="65.2" height="65.2">
    <path fill="#0066B3" d="M12.083 55.118c-.535 0-1.038-.208-1.416-.587-.377-.376-.584-.878-.584-1.41V12.082c0-1.102.897-2 2-2h41.035c1.104 0 2 .896 2 1.998v41.04c0 1.1-.897 1.996-2 2l-41.035-.002z" />
    <path fill="#FFF" d="M53.117 10.583c.83 0 1.5.67 1.5 1.498v41.04c0 .827-.67 1.497-1.5 1.5l-41.034-.002c-.83 0-1.5-.672-1.5-1.498V12.083c0-.83.67-1.5 1.5-1.5h41.034m0-1H12.083c-1.38.002-2.5 1.123-2.5 2.5V53.12c0 .665.258 1.293.73 1.765.472.473 1.1.733 1.768.733h41.037c1.378-.002 2.5-1.123 2.5-2.497V12.08c0-1.376-1.12-2.497-2.5-2.497z" />
    <path fill="#FFF" d="M35.74 26.104l5.064-4.375.775.084 6.633-4.8-4.725 6.722.09.843-4.483 4.994.036 14.552-3.097 1.27-4.937-7.894-4.6 3.133 1.146 6.687-.928.867-4-5.53-5.727-4.15.93-.866 6.958 1.38 2.802-4.815-7.236-5.522.748-2.547 14.553-.036" />
</svg>