<svg xmlns="http://www.w3.org/2000/svg" viewBox="0 0 56.69 56.69"><title>Standard - Airport (Prefered)</title><g id="Standard_-_Airport_Prefered_" data-name="Standard - Airport (Prefered)"><path d="M54.53,28.3A26.2,26.2,0,1,1,28.34,2,26.11,26.11,0,0,1,54.53,28.3Z" style="fill:#0066b3"/><path d="M28.34,2.61A25.58,25.58,0,1,1,2.76,28.3,25.54,25.54,0,0,1,28.34,2.61m0-1.35A26.89,26.89,0,1,0,47.43,9.18,26.69,26.69,0,0,0,28.34,1.26Zm-17.88,32L21.77,30.1l4.53-.22V41.15a17.29,17.29,0,0,0,.22,2.7c.23.9.46,2,.46,2a.79.79,0,0,1-.46.67C26.07,46.78,22,49,22,49v.45a4.88,4.88,0,0,1-.23,1.36l5.89-1.36.45,1.81s0,.45.23.45h0c.22,0,.22-.45.22-.45L29,49.48l5.89,1.36V49.48c0-.45-.23-.45-.23-.45s-4.07-2.25-4.52-2.48a3.12,3.12,0,0,1-.46-.67s.23-1.13.46-2a17.29,17.29,0,0,0,.22-2.7V29.88l4.53.22,11.31,3.16V31.91a2.33,2.33,0,0,0-1.36-1.81c-.45-.45-5.65-3.15-9.5-5.18v-3.6c0-.23-.23-.68-.45-.68H33.31c-.22,0-.45.45-.45.68v2.25a18,18,0,0,0-1.58-.9c-.91-.45-.91-.9-.91-.9V11.85c0-6.31-2-7.21-2-7.21h0s-2,.9-2,7.21v9.92s0,.45-.91.9a16.78,16.78,0,0,1-1.58.9V21.32c0-.23-.23-.68-.45-.68H22a.72.72,0,0,0-.68.68v3.6c-3.85,2-9,4.73-9.5,5.18a2.33,2.33,0,0,0-1.36,1.81v1.35Z" style="fill:#fff"/></g></svg>