<svg xmlns="http://www.w3.org/2000/svg" viewBox="0 0 16 16" width="16" height="16">
  <circle stroke-width=".4" stroke="#fff" fill="#ff3c3d" r="7.8" cy="8" cx="8"/>
  <path d="M7.683 2.88c-.064-.253.254-.253.38-.19.064.252-.253.378-.38.19m3.552 7.136c.253.062.508.126.697.189-.253.316-.571.632-.888.948-.317.315-.697.63-1.205.694-.317 0-.824-.127-1.014-.379-.19-.252-.19-.82-.254-1.263-.126-1.389-.126-2.526-.126-3.978 0-.38-.064-1.075.062-1.2.127-.127.444-.19.76-.254.445-.063.827-.063 1.144.064.19-.189.19-.884 0-1.073-.191 0-.255.125-.445.125-.19.064-.507 0-.824-.062-.508-.126-.888-.126-.825-.695.064-.126.128-.189.128-.316 0-.316-.191-.379-.446-.505h-.19c-.254.126-.507.253-.507.505 0 .127.127.19.127.316 0 .19-.063.379-.127.505-.38.127-1.014.316-1.458.252-.19 0-.317-.188-.444-.125-.255 0-.19.884 0 1.073.127 0 .19-.064.317-.127.317 0 1.396.064 1.521.317.191.252.064 1.263.064 1.642-.064 1.2 0 2.21-.126 3.41 0 .442 0 1.2-.254 1.453-.19.189-.761.316-1.142.252-.38-.063-.697-.316-.951-.568a1.964 1.964 0 0 1-.698-.757c.19-.064.444-.064.634-.127-.508-.253-1.078-.505-1.585-.758v.316c.063.631.063 1.327.127 2.021.19-.19.19-.632.317-.884.507 1.01 1.015 2.02 2.22 2.21.253.064.506.126.824.126.19.064.508.127.698.254.253.126.253.569.507.694.254-.189.317-.568.508-.694.317-.19 1.014-.254 1.395-.316 1.523-.253 1.967-1.517 2.6-2.653.128.315.128.694.253.948.128-.633.128-1.39.191-2.021V9.32c-.571.19-1.077.442-1.585.696" fill="#fff"/>
</svg>