<svg xmlns="http://www.w3.org/2000/svg" viewBox="0 0 65.2 65.2" width="65.2" height="65.2">
    <path fill="#265B3F" d="M11.784 55.118c-.535 0-1.038-.208-1.416-.587-.377-.37-.584-.87-.584-1.41V12.09c0-1.102.897-2 2-2H52.82c1.103 0 2 .896 2 1.998v41.04c0 1.1-.898 1.997-2 2H11.784z" />
    <path fill="#FFF" d="M52.818 10.583c.83 0 1.5.67 1.5 1.498v41.04c0 .83-.67 1.5-1.5 1.5H11.784c-.83 0-1.5-.67-1.5-1.5V12.09c0-.83.67-1.5 1.5-1.5h41.034m0-1H11.784c-1.38.002-2.5 1.123-2.5 2.5v41.03c0 .665.258 1.293.73 1.765.472.473 1.1.733 1.768.733h41.036c1.378-.002 2.5-1.123 2.5-2.497V12.08c0-1.376-1.12-2.497-2.5-2.497z" />
    <path fill-rule="evenodd" clip-rule="evenodd" fill="#FFF" d="M14.89 36.425l.033-.72v-1.43l3.633-1.43h1.642v-.65h2.864l-.306-.966L20 30.82v-1.6l.81-.356v-.846c0-.26.21-.31.41-.31v-.465h-.297v-.324h.296v-1.06h-.34c0-.58.87-.58.87 0h-.34v1.06h.296v.32h-.296v.46c.73 0 .915-.09.915.48l1.302-.58h1.495c-.026-.056-.04-.116-.04-.18 0-.25.206-.454.456-.454h.215v-.424H23.5v-.31h.332V25.5h3.114v.17h1.893v-.24H29v.244h.187v.66h-1.34v.218h-1.33v.426h2.21c.25 0 .455.205.455.455 0 .063-.013.124-.037.18h1.78l2.96.595.25.2 1.465-.393.95.48 6.898-1.83.84-.537.753-.2.05.16.438-.12-.04-.154.192-.05.04.155.44-.117-.04-.155.192-.05.04.15.438-.116-.042-.156.194-.05.04.152.44-.115-.045-.15.217-.058.08.29.31-.085-.126-.473.62-.167.127.47.2-.053-.08-.293.515-.136.476 1.77-.517.137-.08-.29-.2.053.124.474-.62.168-.126-.473-.315.085.078.29-.213.058-.045-.155-.44.12.04.16-.19.05-.04-.153-.438.118.04.156-.19.05-.042-.153-.435.117.04.154-.19.05-.044-.156-.44.117.044.155-.756.206-.993-.04-8.107 2.16-.98 1.338-2.176.842h6.99v.65h2.985l2.485.982 2.616 2.624-1.834 1.01h-.62L43.7 39.36l-2.522 1.037H20.3l-2.54-1.037-1.444-1.87h-.826l-.6-1.062z" />
</svg>