<svg xmlns="http://www.w3.org/2000/svg" width="65.2" height="65.2" viewBox="0 0 65.2 65.2">
    <path fill="#0f0" d="M46.08 6.28c-2.837 0-5.485.652-7.77 1.988-2.11 1.186-3.997 2.713-5.63 4.55l-1.637 1.842 6.955 6.363 1.68-1.972c.864-1.01 1.79-1.75 2.814-2.28l.014-.01h.014c1.037-.55 2.042-.8 3.148-.8 1.693 0 2.44.39 3.016 1.09l.03.04.032.04c.75.84 1.08 1.7 1.08 3 0 .87-.175 1.58-.54 2.28l-.02.04-.018.04c-.425.89-.98 1.81-1.672 2.74-.74.96-1.545 1.94-2.422 2.95l-.02.03-.02.03c-.966 1.17-1.826 2.44-2.58 3.79-.797 1.39-1.42 2.9-1.882 4.54l-.006.03-.007.02c-.47 1.81-.51 3.76-.19 5.81l.32 2.12h9.89l-.32-2.78c-.15-1.32-.05-2.39.24-3.28v-.022c.34-1.113.82-2.13 1.42-3.077.72-1.066 1.49-2.09 2.29-3.066l.01-.01c.94-1.13 1.81-2.27 2.62-3.407.93-1.24 1.71-2.57 2.33-3.97.7-1.58 1.03-3.32 1.03-5.14 0-3.945-1.36-7.46-4.04-9.875-2.62-2.434-6.18-3.61-10.2-3.61zm-.55 38.99c-1.73 0-3.47.745-4.667 1.996-1.264 1.28-1.883 3.092-1.883 4.896 0 1.76.644 3.53 1.85 4.807l.025.02.026.02c1.22 1.21 2.94 1.89 4.65 1.89 1.72 0 3.44-.69 4.66-1.9 1.27-1.27 1.97-3.07 1.97-4.86 0-1.82-.67-3.65-1.97-4.92-1.19-1.24-2.92-1.98-4.64-1.98z" />
    <path fill="#0f0" d="M18.914 6.28c-2.837 0-5.485.652-7.77 1.988-2.11 1.186-3.997 2.713-5.63 4.55L3.877 14.66l6.955 6.363 1.68-1.972c.864-1.01 1.79-1.75 2.814-2.28l.014-.01h.014c1.036-.55 2.042-.8 3.148-.8 1.693 0 2.44.39 3.016 1.09l.03.04.032.04c.75.84 1.08 1.7 1.08 3 0 .87-.175 1.58-.54 2.28l-.02.04-.018.04c-.424.89-.978 1.8-1.666 2.73-.74.96-1.548 1.95-2.428 2.96l-.02.03-.02.03c-.966 1.17-1.826 2.44-2.58 3.79-.797 1.39-1.42 2.9-1.882 4.54l-.006.03-.007.02c-.468 1.81-.503 3.76-.188 5.81l.326 2.12h9.89l-.31-2.78c-.15-1.32-.04-2.39.24-3.28l.01-.012.01-.01c.35-1.113.82-2.13 1.43-3.077.73-1.066 1.49-2.09 2.3-3.066l.01-.01c.95-1.13 1.82-2.27 2.63-3.407.93-1.24 1.71-2.57 2.33-3.97.71-1.58 1.04-3.32 1.04-5.14 0-3.945-1.35-7.46-4.04-9.875-2.62-2.434-6.18-3.61-10.2-3.61zm-.55 38.99c-1.73 0-3.47.745-4.667 1.996-1.264 1.28-1.883 3.092-1.883 4.896 0 1.76.644 3.53 1.85 4.807l.025.02.02.02c1.21 1.21 2.94 1.89 4.65 1.89 1.71 0 3.44-.69 4.65-1.9 1.26-1.27 1.96-3.07 1.96-4.86 0-1.82-.67-3.65-1.98-4.92-1.2-1.24-2.92-1.98-4.64-1.98z" />
    <path d="M15.757 42.004q-.412-2.677.137-4.805.618-2.2 1.647-3.99 1.03-1.86 2.34-3.43 1.38-1.58 2.54-3.09 1.17-1.58 1.92-3.16.83-1.58.83-3.44 0-2.75-1.71-4.67-1.64-1.99-4.94-1.99-2.26 0-4.32 1.09-1.99 1.03-3.57 2.88L7.4 14.46q2.2-2.47 5.01-4.05 2.818-1.643 6.52-1.643 5.358 0 8.51 2.95 3.23 2.88 3.23 8.03 0 2.27-.822 4.12-.827 1.85-2.06 3.5-1.17 1.65-2.54 3.3-1.306 1.58-2.47 3.297-1.1 1.714-1.72 3.704-.617 1.92-.342 4.323h-4.95zm-1.442 10.16q0-1.992 1.167-3.16 1.167-1.234 2.883-1.234t2.883 1.235q1.235 1.167 1.235 3.158 0 1.853-1.235 3.09-1.167 1.165-2.883 1.165t-2.883-1.166q-1.167-1.236-1.167-3.09z" />
    <path d="M42.923 42.004q-.412-2.677.137-4.805.618-2.2 1.647-3.99 1.03-1.86 2.334-3.43 1.38-1.58 2.54-3.09 1.17-1.58 1.93-3.16.83-1.58.83-3.44 0-2.75-1.71-4.67-1.64-1.99-4.94-1.99-2.26 0-4.32 1.09-1.99 1.03-3.57 2.88l-3.22-2.95q2.2-2.47 5.01-4.05 2.81-1.64 6.52-1.64 5.35 0 8.51 2.95 3.23 2.88 3.23 8.03 0 2.26-.82 4.12-.824 1.85-2.06 3.5-1.17 1.64-2.54 3.29-1.303 1.58-2.47 3.29-1.1 1.71-1.72 3.7-.62 1.92-.34 4.325h-4.95zm-1.442 10.16q0-1.992 1.17-3.16 1.17-1.234 2.89-1.234t2.89 1.235q1.24 1.167 1.24 3.158 0 1.853-1.23 3.09-1.17 1.165-2.88 1.165t-2.88-1.166q-1.16-1.236-1.16-3.09z" />
</svg>