<svg xmlns="http://www.w3.org/2000/svg" xmlns:xlink="http://www.w3.org/1999/xlink" viewBox="0 0 16 16" width="16" height="16"><circle cx="8" cy="8" r="7.8" fill="#009697" stroke="#fff" stroke-width=".4"/><g transform="rotate(-45 8.05 8.05)"><path fill="#fff" d="M8.04 5.7l-1.52.4v3.27l1.52.4 1.53-.4V6.1l-1.53-.4z"/><g id="b" fill="#fff"><path id="a" d="M9.8 6.78h1.42v2.05h-1.4z"/><use xlink:href="#a" transform="translate(1.5)"/><use transform="translate(3)" xlink:href="#a"/></g><g fill="none" stroke="#fff" color="#000"><path d="M10.44 10.24a3.4 3.4 0 0 1-2.4 1 3.4 3.4 0 0 1-2.4-1"/><path d="M11.4 11.2a4.74 4.76 0 0 1-3.36 1.4 4.74 4.76 0 0 1-3.35-1.4"/><path d="M12.4 12.2a6.17 6.2 0 0 1-4.36 1.83 6.17 6.2 0 0 1-4.36-1.82"/></g><use transform="translate(-8)" xlink:href="#b"/></g></svg>