<svg xmlns="http://www.w3.org/2000/svg" viewBox="0 0 65.2 65.2" width="65.2" height="65.2">
    <path fill="#103C68" d="M11.19 55.118c-.534 0-1.037-.208-1.415-.587-.377-.372-.584-.874-.584-1.41V12.086c0-1.102.9-2 2-2h41.04c1.105 0 2 .896 2 1.998v41.04c0 1.1-.896 1.997-2 2H11.194z" />
    <path fill="#FFF" d="M52.225 10.583c.83 0 1.5.67 1.5 1.498v41.04c0 .83-.67 1.5-1.5 1.5H11.19c-.827 0-1.5-.67-1.5-1.5V12.087c0-.83.673-1.5 1.5-1.5h41.036m0-1H11.19c-1.378.002-2.5 1.123-2.5 2.5V53.12c0 .665.26 1.293.73 1.765.474.473 1.1.733 1.77.733h41.035c1.378-.002 2.5-1.123 2.5-2.497V12.08c0-1.376-1.12-2.497-2.5-2.497z" />
    <path fill="#FFF" d="M45.788 35.642h-2.63v1.336l-9.835 5.002-.832-13.777 5.8-1.127h-5.863l-.304-5.033c.86-.19 1.504-.953 1.504-1.87 0-1.056-.86-1.915-1.916-1.915s-1.915.86-1.915 1.916c0 .916.648 1.68 1.506 1.87l-.303 5.032H25.07l5.86 1.127-.834 13.805-9.834-5.02v-1.345h-2.63l2.63 3.447v-1.336l11.45 9.19 11.45-9.19v1.336l2.632-3.448zM31.02 20.172c0-.378.31-.687.69-.687s.687.31.687.688-.31.69-.688.69-.69-.31-.69-.69z" />
</svg>