<?xml version="1.0" encoding="utf-8"?>
<!-- Generator: Adobe Illustrator 14.0.0, SVG Export Plug-In  -->
<!DOCTYPE svg PUBLIC "-//W3C//DTD SVG 1.1//EN" "http://www.w3.org/Graphics/SVG/1.1/DTD/svg11.dtd" [
	<!ENTITY ns_flows "http://ns.adobe.com/Flows/1.0/">
]>
<svg version="1.1"
	 xmlns="http://www.w3.org/2000/svg" xmlns:xlink="http://www.w3.org/1999/xlink" xmlns:a="http://ns.adobe.com/AdobeSVGViewerExtensions/3.0/"
	 x="0px" y="0px" width="72px" height="72px" viewBox="-0.999 0 72 72" enable-background="new -0.999 0 72 72"
	 xml:space="preserve">
<defs>
</defs>
<line opacity="0.25" fill="none" stroke="#FFFFFF" stroke-width="0.5" x1="0.001" y1="71.816" x2="72.001" y2="72"/>
<line opacity="0.25" fill="none" stroke="#FFFFFF" stroke-width="0.5" x1="71.001" y1="72" x2="71.001" y2="0"/>
<line opacity="0.15" fill="none" stroke="#FFFFFF" stroke-width="0.5" x1="0.001" y1="18" x2="72.001" y2="18"/>
<line opacity="0.15" fill="none" stroke="#FFFFFF" stroke-width="0.5" x1="0.001" y1="36.033" x2="72.001" y2="36"/>
<line opacity="0.15" fill="none" stroke="#FFFFFF" stroke-width="0.5" x1="0.001" y1="54" x2="72.001" y2="54"/>
<line opacity="0.15" fill="none" stroke="#FFFFFF" stroke-width="0.5" x1="54.001" y1="0" x2="54.001" y2="72"/>
<line opacity="0.15" fill="none" stroke="#FFFFFF" stroke-width="0.5" x1="36.001" y1="0" x2="36.001" y2="72"/>
<line opacity="0.15" fill="none" stroke="#FFFFFF" stroke-width="0.5" x1="18.001" y1="0" x2="18.001" y2="72"/>
<line opacity="0.05" fill="none" stroke="#FFFFFF" stroke-width="0.5" x1="63.001" y1="0" x2="63.001" y2="72"/>
<line opacity="0.05" fill="none" stroke="#FFFFFF" stroke-width="0.5" x1="45.001" y1="0" x2="45.001" y2="72"/>
<line opacity="0.05" fill="none" stroke="#FFFFFF" stroke-width="0.5" x1="27.001" y1="0" x2="27.001" y2="72"/>
<line opacity="0.05" fill="none" stroke="#FFFFFF" stroke-width="0.5" x1="9.001" y1="0" x2="9.001" y2="72"/>
<line opacity="0.05" fill="none" stroke="#FFFFFF" stroke-width="0.5" x1="72.001" y1="9" x2="0.001" y2="9"/>
<line opacity="0.05" fill="none" stroke="#FFFFFF" stroke-width="0.5" x1="0.001" y1="27" x2="72.001" y2="27"/>
<line opacity="0.05" fill="none" stroke="#FFFFFF" stroke-width="0.5" x1="0.001" y1="44.766" x2="72.001" y2="45"/>
<line opacity="0.05" fill="none" stroke="#FFFFFF" stroke-width="0.5" x1="0.001" y1="63.084" x2="72.001" y2="63"/>
</svg>
