<svg xmlns="http://www.w3.org/2000/svg" width="50" height="50" viewBox="0 0 50 50">
    <path fill="#FFF" d="M25 0C11.193 0 0 11.193 0 25s11.193 25 25 25 25-11.193 25-25S38.807 0 25 0zM11.435 13.485c.97 0 1.744.78 1.744 1.745 0 .965-.78 1.743-1.75 1.743s-1.75-.78-1.75-1.743c0-.966.78-1.745 1.74-1.745zm2.874 5.745c-.96.02-1.69.04-1.85.992v11.465c.16.953.89.973 1.85.99v.543H8.55v-.543c.957-.017 1.677-.037 1.853-.99V20.22c-.176-.952-.896-.97-1.853-.99v-.53h5.755v.53zm18.5.01c-1.11.02-1.89.034-1.89 1.493V31.18c0 1.46.773 1.478 1.884 1.498v.508h-3.92l-.013-7.065h-8.41l-.003 7.08-3.926.01v-.52c1.11-.02 1.9-.04 1.9-1.493V20.74c0-1.46-.79-1.48-1.893-1.504v-.56h3.93l.005 6.596h8.415l.02-6.58c.4.006 2.974 0 3.92 0l-.008.55zm4.7 14.29c-1.08 0-2.208-.246-3.188-.704l-.418-3.038h.48c.353 1.56 1.52 3.078 3.244 3.078 1.603 0 2.854-1.123 2.854-2.765 0-3.87-6.166-2.72-6.166-7.64 0-2.68 1.912-4.08 4.45-4.08.853 0 1.71.2 2.54.33l.33 2.66h-.48c-.23-1.46-1.185-2.304-2.685-2.304-1.58 0-2.494 1.134-2.494 2.658 0 3.876 6.41 2.816 6.413 7.6 0 2.706-2.437 4.22-4.89 4.22z" />
</svg>