<svg xmlns="http://www.w3.org/2000/svg" width="50" height="50" viewBox="0 0 50 50">
    <circle cx="25" cy="25" r="25" />
    <path fill="#FFF" d="M8.554 19.23c.957.02 1.677.038 1.853.99v11.467c-.176.953-.896.974-1.853.99v.543h5.755v-.543c-.96-.018-1.69-.037-1.85-.99V20.222c.16-.953.89-.972 1.85-.992v-.53H8.55v.53zM36 21.71c0-1.523.917-2.657 2.497-2.657 1.5 0 2.458.85 2.687 2.31h.48L41.33 18.7c-.83-.13-1.686-.323-2.54-.323-2.54 0-4.454 1.397-4.454 4.082 0 4.91 6.164 3.76 6.164 7.64 0 1.64-1.25 2.76-2.855 2.76-1.726 0-2.892-1.52-3.244-3.078h-.48l.42 3.037c.98.46 2.108.703 3.19.703 2.455 0 4.893-1.516 4.893-4.22-.004-4.785-6.415-3.725-6.415-7.6zm-7.096-3.022l-.02 6.578H20.47l-.002-6.596H16.54v.56c1.104.022 1.897.045 1.897 1.504v10.448c0 1.46-.793 1.478-1.896 1.498v.522s3.93-.01 3.93-.007l.008-7.075h8.415l.013 7.065h3.92v-.508c-1.11-.02-1.886-.037-1.886-1.498V20.73c0-1.46.775-1.474 1.887-1.494l.005-.553c-.946 0-3.517.005-3.92 0zm-17.47-1.715c.97 0 1.745-.778 1.745-1.743 0-.966-.78-1.745-1.75-1.745-.967 0-1.747.78-1.747 1.745 0 .964.78 1.743 1.744 1.743z" />
</svg>