<svg xmlns="http://www.w3.org/2000/svg" width="50" height="50" viewBox="0 0 50 50">
    <path fill="#0097D1" d="M24.996.955c13.26 0 24.05 10.787 24.05 24.045 0 13.26-10.79 24.046-24.05 24.046C11.74 49.046.956 38.26.956 25S11.74.955 24.996.955m0-.955C11.21 0 0 11.215 0 25c0 13.78 11.21 25 24.996 25C38.786 50 50 38.78 50 25 50 11.215 38.785 0 24.996 0z" />
    <path fill="#0097D1" d="M11.435 16.973c.967 0 1.744-.78 1.744-1.744 0-.97-.78-1.75-1.75-1.75-.965 0-1.745.78-1.745 1.743 0 .963.78 1.743 1.744 1.743zm-2.88 2.257c.957.02 1.677.038 1.85.992v11.465c-.173.953-.893.975-1.85.99v.543h5.753v-.542c-.953-.017-1.683-.038-1.848-.99V20.222c.165-.954.895-.973 1.848-.993v-.53H8.554v.53zM36 21.71c0-1.523.917-2.658 2.497-2.658 1.5 0 2.456.85 2.685 2.31h.48L41.33 18.7c-.83-.13-1.687-.323-2.54-.323-2.54 0-4.455 1.396-4.455 4.08 0 4.917 6.163 3.768 6.163 7.642 0 1.64-1.252 2.76-2.855 2.76-1.727 0-2.892-1.52-3.246-3.08h-.482l.418 3.04c.98.46 2.102.704 3.184.704 2.454 0 4.892-1.52 4.892-4.225 0-4.78-6.418-3.72-6.418-7.596zm-7.097-3.022l-.02 6.578h-8.41l-.004-6.594h-3.93v.56c1.1.02 1.89.044 1.89 1.502v10.448c0 1.46-.79 1.476-1.895 1.498v.524s3.924-.01 3.926-.007l.004-7.075h8.41l.013 7.064h3.92v-.506c-1.11-.02-1.888-.038-1.888-1.498v-10.45c0-1.457.777-1.473 1.886-1.493l.003-.558c-.944 0-3.516.005-3.918 0z" />
</svg>
