<svg xmlns="http://www.w3.org/2000/svg" viewBox="0 0 50 50">
    <path d="M24.995.955c13.26 0 24.05 10.787 24.05 24.045 0 13.26-10.79 24.046-24.05 24.046C11.74 49.046.955 38.26.955 25 .955 11.742 11.74.955 24.995.955m0-.955C11.21 0 0 11.216 0 25c0 13.78 11.21 25 24.995 25C38.785 50 50 38.78 50 25 50 11.216 38.784 0 24.995 0z" />
    <path d="M11.434 16.973c.967 0 1.744-.78 1.744-1.744 0-.967-.777-1.746-1.744-1.746-.964 0-1.744.78-1.744 1.745 0 .963.78 1.743 1.744 1.743zM8.553 19.23c.958.02 1.678.04 1.852.993v11.464c-.174.953-.894.975-1.852.99v.543h5.754v-.542c-.953-.017-1.683-.038-1.848-.99V20.222c.164-.954.894-.973 1.847-.993v-.53H8.553v.53zM36 21.71c0-1.523.917-2.658 2.497-2.658 1.498 0 2.456.85 2.685 2.31h.48l-.333-2.662c-.83-.13-1.687-.323-2.54-.323-2.538 0-4.453 1.396-4.453 4.08 0 4.917 6.162 3.768 6.162 7.642 0 1.64-1.252 2.764-2.855 2.764-1.727 0-2.893-1.518-3.246-3.078h-.48l.417 3.038c.98.46 2.102.706 3.184.706 2.455 0 4.893-1.518 4.893-4.224C42.41 24.526 36 25.586 36 21.71zM28.903 18.688l-.02 6.578h-8.41l-.005-6.594H16.54v.56c1.104.02 1.896.043 1.896 1.502v10.448c0 1.46-.792 1.477-1.895 1.497v.523s3.926-.01 3.928-.007l.004-7.075h8.412l.013 7.065h3.92v-.507c-1.11-.02-1.887-.038-1.887-1.497V20.734c0-1.46.777-1.474 1.887-1.494l.005-.552c-.945 0-3.518.006-3.92 0z" />
</svg>