<svg xmlns="http://www.w3.org/2000/svg" viewBox="0 0 529.5 143.7"><radialGradient id="a" cx="347.433" cy="-3.889" r="239.925" gradientTransform="matrix(.5 0 0 -.5 -73.1 37.4)" gradientUnits="userSpaceOnUse"><stop offset="0" stop-color="#008E89"/><stop offset="1" stop-color="#00B140"/></radialGradient><path fill="url(#a)" d="M22.8 124.4l55-83.4c.2-1 .4-2 .7-3v-.1l-59.8 82.3c1.3 1.4 2.7 2.8 4.1 4.2zM8 104.8c.9 1.7 1.9 3.4 2.9 5l68.5-74.5c.6-1.3 1.3-2.6 2.1-3.7L8 104.8zm129.4-63.3c-.7-1.6-1.5-3.1-2.4-4.7l-14 13.8c-.3.9-.6 1.8-1 2.6l17.4-11.7zm-24.6 20.7l31.1 13.9c.1-1.9.1-4.4.1-4.7l-30.3-9.9c-.3.2-.6.5-.9.7zm28.8-8.8L118 56.8c-.3.4-.6.9-1 1.3l25.6-.1c-.2-1.6-.6-3.1-1-4.6z"/><path fill="url(#a)" d="M127.7 26.2c-1.2-1.5-2.5-2.9-3.8-4.3l-1.7 15.4-8.2-23.9c-1.9-1.3-3.8-2.6-5.8-3.8l7 15.8-18.1-21c-2.4-.9-4.9-1.7-7.4-2.3L108 21.3 78 .2c-2-.2-5-.3-7.6-.2l31.5 20L59 1c-2.3.4-4.6.9-6.8 1.6l45.1 17.5L40.7 7c-2.1 1-4.1 2.1-6.1 3.3l59 10.5-68.9-3.2c-1.8 1.6-3.5 3.2-5.1 4.9l71.1-.5-78.5 9.8c-1.3 1.9-2.4 3.8-3.5 5.8l79.3-14L3.4 49.8c-.6 1.9-1.1 3.8-1.6 5.7l83.4-29.7L.1 67.9C0 69.6 0 72 0 73.9l82.8-45.5L1.5 86.6c.4 1.9.9 3.7 1.4 5.5l79.6-61.9c4.1-5 10.3-8.2 17.2-8.2 12.3 0 22.2 9.9 22.2 22.2 0 1.3-.1 2.5-.3 3.7l6.1-21.7z"/><path fill="url(#a)" d="M77.7 46.9c-.1-.8-.2-1.7-.2-2.5l-44.5 88c1.5 1 3.1 1.9 4.7 2.8l40-88.3zm25.2 19.3c-.4.1-.8.1-1.1.1l30.6 44.8c1-1.5 1.9-3.1 2.8-4.6l-32.3-40.3zm5.7-1.6c-.3.1-.7.3-1 .4l32.9 29.3c.5-1.6 1-3.2 1.4-4.8l-33.3-24.9zm16.1 56.3L97.3 66.3c-.5-.1-.9-.1-1.4-.2l25.1 58.6c1.2-1.3 2.5-2.5 3.7-3.8zm-50.4 22.9l7.9-86.1c-.4-.5-.7-1-1-1.5l-12.4 87.5c1.7.1 4.4.1 5.5.1zm17.1-79c-.4-.2-.8-.4-1.3-.5l15 71.4c1.7-.9 3.3-1.8 4.9-2.8L91.4 64.8zM79.2 52.6c-.3-.6-.5-1.3-.7-2l-28.4 89.8c1.8.6 3.6 1.1 5.4 1.5l23.7-89.3zm7.1 9.3c-.4-.3-.8-.7-1.2-1l2.4 81.2c1.9-.4 3.7-.9 5.6-1.5l-6.8-78.7z"/><path fill="#4B4B4B" d="M171 44.8h5.2v54H171v-54zm19.3 0h5.2v23.1h29.3V44.8h5.2v54h-5.2V72.7h-29.3v26.1h-5.2v-54zm49.6 40.7l4.6-1.7c2.4 7.5 7.9 11.4 15.5 11.4 8.1 0 13.4-3.7 13.4-9.8 0-5.6-2.7-8.5-14.2-12.1-11.6-3.6-17.5-6.8-17.5-15.7 0-7.7 6.9-13.9 16.8-13.9 10.1 0 16 5.2 18.5 12.4l-4.4 2c-2.7-7-7.4-9.8-14.2-9.8-7.2 0-11.6 3.9-11.6 8.8 0 6.1 3.6 8.1 15 11.7 11.2 3.6 16.8 7.3 16.8 16.1 0 9-8 14.7-18.8 14.7-10.2.2-17.3-5.3-19.9-14.1zm66.9-40.7h6.7l18.1 47.3h.1l18-47.3h6.9v54h-5.2V53.6h-.1c-.7 2.4-2 6-3.4 9.5l-14 35.8h-4.7l-14-35.8c-1.3-3.5-2.2-5.8-3.4-9.6h-.1v45.3h-4.8v-54h-.1zm60.4 45c0-7.6 6.5-13.1 26.1-16.1v-2c0-5.3-2.8-7.9-7.8-7.9-6.1 0-10.4 2.6-14.4 6.1l-2.7-3.1c4.6-4.2 9.9-7.2 17.5-7.2 8.6 0 12.3 4.6 12.3 12.3v17.4c0 4.7.3 7.5 1.1 9.5h-5.2c-.5-1.6-.9-3.3-.9-5.5-4.5 4-9.4 6.1-15.2 6.1-6.8.1-10.8-3.6-10.8-9.6zm26-.6v-12c-16.5 2.8-21.1 6.9-21.1 11.9 0 4 2.7 6.1 7 6.1 5.5.1 10.2-2.2 14.1-6zM410 60.3h5v7.6h.1c3-4.7 7.7-8.3 15.3-8.3h.9l-.5 4.7s-1.4-.1-1.5-.1c-6.3 0-11.2 3.5-14.2 9.6v25h-5l-.1-38.5zm28.7-15.5h5v35.8L462 60.3h5.9l-12.6 13.6 14.1 24.9H464l-12-21-8.3 8.9v12.1h-5v-54zm38.7 1.2h5.3v5.4h-5.3V46zm.2 14.3h5v38.5h-5V60.3zm20.3 29.5V64.6h-6.7v-4.3h6.7V46.5h5v13.8h10v4.3h-10v24.2c0 4.1 1.3 6.3 6.1 6.3 1.5 0 2.9-.1 4-.5v4.3c-1.2.2-3.2.4-5 .4-7.3 0-10.1-2.8-10.1-9.5zM519 61h-2.2v-.6h5.1v.6h-2.2v6.3h-.7V61zm4.1-.7h.9l2.3 6.1 2.3-6.1h.9v6.9h-.7v-5.8c-.1.3-.3.8-.4 1.2l-1.8 4.6h-.6l-1.8-4.6c-.2-.4-.3-.7-.4-1.2v5.8h-.6v-6.9h-.1z"/></svg>