<svg xmlns="http://www.w3.org/2000/svg" width="50" height="50" viewBox="0 0 50 50">
    <circle fill="#0097D1" cx="25" cy="25" r="25" />
    <path fill="#FFF" d="M8.554 19.23c.957.02 1.677.038 1.853.99v11.467c-.176.953-.896.974-1.853.99v.543h5.755v-.542c-.96-.018-1.69-.038-1.85-.99V20.22c.16-.953.89-.972 1.85-.992v-.53H8.55v.53zM36 21.71c0-1.523.917-2.657 2.497-2.657 1.5 0 2.458.85 2.686 2.31h.48L41.33 18.7c-.83-.13-1.686-.323-2.54-.323-2.54 0-4.454 1.397-4.454 4.082 0 4.91 6.164 3.76 6.164 7.64 0 1.64-1.25 2.76-2.855 2.76-1.726 0-2.892-1.52-3.245-3.08h-.48l.417 3.04c.98.46 2.102.703 3.184.703 2.46 0 4.9-1.518 4.9-4.223-.002-4.78-6.414-3.72-6.414-7.594zm-7.095-3.022l-.02 6.578h-8.413l-.004-6.596h-3.926v.56c1.103.022 1.896.045 1.896 1.504V31.18c0 1.46-.793 1.48-1.896 1.5v.522s3.924-.01 3.926-.007l.004-7.075h8.414l.013 7.065h3.91v-.507c-1.11-.02-1.886-.038-1.886-1.498V20.733c0-1.46.775-1.474 1.886-1.494l.005-.56c-.942 0-3.514.004-3.915 0zm-17.47-1.715c.97 0 1.744-.778 1.744-1.743 0-.966-.78-1.745-1.75-1.745-.968 0-1.748.78-1.748 1.745 0 .964.78 1.743 1.744 1.743z" />
</svg>