<svg xmlns="http://www.w3.org/2000/svg" width="50" height="50" viewBox="0 0 50 50">
    <path fill="#FFF" d="M8.554 19.23c.957.02 1.677.04 1.853.992v11.466c-.176.953-.896.974-1.853.99v.543h5.755v-.54c-.96-.02-1.69-.04-1.85-.99V20.22c.16-.953.89-.972 1.85-.992v-.53H8.55v.53zM36 21.71c0-1.523.917-2.657 2.497-2.657 1.5 0 2.458.85 2.686 2.31h.48L41.33 18.7c-.83-.128-1.686-.322-2.54-.322-2.54 0-4.454 1.397-4.454 4.082 0 4.916 6.164 3.768 6.164 7.642 0 1.642-1.25 2.765-2.855 2.765-1.726 0-2.892-1.52-3.245-3.078h-.48l.417 3.03c.98.46 2.102.7 3.184.7 2.46 0 4.9-1.518 4.9-4.22 0-4.786-6.41-3.727-6.41-7.6zm-7.095-3.022l-.02 6.578h-8.413l-.004-6.596h-3.926v.56c1.103.022 1.896.045 1.896 1.504V31.18c0 1.46-.793 1.48-1.896 1.5v.522s3.924-.01 3.926-.007l.004-7.075h8.414l.013 7.065h3.91v-.507c-1.11-.02-1.89-.038-1.89-1.498V20.734c0-1.46.775-1.474 1.886-1.494l.004-.552c-.94 0-3.513.005-3.914 0zm-17.47-1.715c.97 0 1.744-.778 1.744-1.743 0-.966-.78-1.745-1.75-1.745s-1.75.78-1.75 1.745c0 .965.78 1.743 1.742 1.743z" />
    <path fill="#FFF" d="M24.995.955c13.26 0 24.05 10.787 24.05 24.045 0 13.26-10.79 24.046-24.05 24.046C11.74 49.046.955 38.26.955 25 .955 11.742 11.74.955 24.995.955m0-.955C11.21 0 0 11.216 0 25c0 13.78 11.21 25 24.995 25C38.785 50 50 38.78 50 25 50 11.216 38.784 0 24.995 0z" />
    <path fill="#FFF" d="M11.434 16.973c.967 0 1.744-.78 1.744-1.744 0-.97-.777-1.75-1.744-1.75-.964 0-1.744.78-1.744 1.74s.78 1.74 1.744 1.74zm-2.88 2.257c.957.02 1.677.04 1.85.993v11.464c-.173.953-.893.975-1.85.99v.543h5.753v-.542c-.953-.017-1.683-.038-1.848-.99V20.222c.16-.954.89-.973 1.84-.993v-.53H8.55v.53zM36 21.71c0-1.523.917-2.658 2.497-2.658 1.498 0 2.456.85 2.685 2.31h.48L41.33 18.7c-.83-.13-1.688-.323-2.54-.323-2.54 0-4.454 1.396-4.454 4.08 0 4.917 6.162 3.768 6.162 7.642 0 1.64-1.252 2.76-2.855 2.76-1.727 0-2.893-1.52-3.246-3.08h-.48l.417 3.04c.98.46 2.102.7 3.184.7 2.455 0 4.893-1.52 4.893-4.226 0-4.78-6.41-3.72-6.41-7.595zm-7.097-3.022l-.02 6.578h-8.41l-.005-6.594H16.54v.56c1.104.02 1.896.043 1.896 1.502v10.448c0 1.46-.792 1.477-1.895 1.497v.52l3.93-.01.01-7.08h8.41l.018 7.063h3.92v-.507c-1.11-.02-1.887-.038-1.887-1.497V20.73c0-1.46.778-1.474 1.888-1.494l.006-.55c-.946 0-3.52.01-3.92 0z" />
</svg>