<svg xmlns="http://www.w3.org/2000/svg" xmlns:xlink="http://www.w3.org/1999/xlink" xmlns:a="http://ns.adobe.com/AdobeSVGViewerExtensions/3.0/" version="1.1" x="0px" y="0px" width="69px" height="48px" viewBox="21.1 21.1 69 48" enable-background="new 21.1 21.1 69 48" xml:space="preserve">
<defs>
</defs>
<circle fill="#FFFFFF" cx="45" cy="45" r="45"/>
<g>
	<path fill="#009DDC" d="M57.045 53.223c-1.036 0-2.112-0.237-3.05-0.676l-0.4-2.912h0.461c0.339 1.5 1.5 2.9 3.1 2.9 c1.536 0 2.734-1.075 2.734-2.648c0-3.711-5.904-2.611-5.904-7.321c0-2.571 1.835-3.909 4.266-3.909 c0.819 0 1.6 0.2 2.4 0.309l0.317 2.549h-0.458c-0.219-1.399-1.137-2.212-2.573-2.212c-1.514 0-2.392 1.087-2.392 2.5 c0 3.7 6.1 2.7 6.1 7.279C61.732 51.8 59.4 53.2 57 53.223L57.045 53.223z M52.54 39.5 c-1.063 0.02-1.807 0.034-1.807 1.431v10.01c0 1.4 0.7 1.4 1.8 1.435v0.484h-3.754v0.002l-0.007-0.002h0.007l-0.013-6.768 h-8.06l-0.004 6.778c-0.001-0.002-3.762 0.007-3.762 0.007v-0.502c1.055-0.021 1.815-0.036 1.815-1.435v-10.01 c0-1.397-0.76-1.418-1.815-1.44v-0.535h3.762l0.004 6.317h8.06l0.018-6.301c0.384 0 2.8 0 3.8 0L52.54 39.53L52.54 39.53z M34.806 39.521c-0.913 0.02-1.612 0.037-1.771 0.951v10.984c0.159 0.9 0.9 0.9 1.8 0.949v0.52h-5.514v-0.52 c0.917-0.016 1.607-0.036 1.775-0.949V40.473c-0.167-0.914-0.857-0.932-1.775-0.951v-0.507h5.514V39.521L34.806 39.521z M32.053 34.017c0.927 0 1.7 0.7 1.7 1.672c0 0.924-0.744 1.671-1.671 1.671c-0.924 0-1.671-0.747-1.671-1.671 C30.382 34.8 31.1 34 32.1 34.017L32.053 34.017z M45.046 21.099c-13.208 0-23.946 10.745-23.946 23.9 C21.1 58.3 31.8 69 45 69C58.256 69 69 58.3 69 45.049C69 31.8 58.3 21.1 45 21.099L45.046 21.099z"/>
</g>
</svg>
