<svg xmlns="http://www.w3.org/2000/svg" width="50" height="50" viewBox="0 0 50 50">
    <circle fill="#0097D1" cx="25" cy="25" r="25" />
    <path fill="#FFF" d="M8.575 19.25c.957.02 1.675.04 1.85.992v11.44c-.175.95-.893.973-1.85.99v.54h5.744v-.54c-.96-.017-1.68-.04-1.85-.99v-11.44c.16-.953.89-.97 1.84-.99v-.53H8.57v.53zm2.875-2.252c.966 0 1.742-.778 1.742-1.74 0-.964-.775-1.74-1.74-1.74-.963 0-1.742.776-1.742 1.74 0 .962.78 1.74 1.74 1.74zm17.432 16.18v-.002h-.008m7.096-11.45c0-1.52.916-2.653 2.493-2.653 1.495 0 2.453.847 2.68 2.306h.478l-.33-2.66c-.83-.13-1.68-.32-2.53-.32-2.53 0-4.442 1.39-4.442 4.07 0 4.9 6.15 3.76 6.15 7.62 0 1.635-1.25 2.756-2.85 2.756-1.722 0-2.884-1.514-3.236-3.07H33.9l.42 3.032c.977.457 2.097.703 3.177.703 2.45 0 4.883-1.514 4.883-4.213 0-4.773-6.4-3.716-6.4-7.583z" />
    <path fill="#FFF" d="M28.888 18.71l-.02 6.564h-8.395l-.004-6.58h-3.92v.557c1.1.03 1.89.05 1.89 1.5v10.43c0 1.46-.79 1.48-1.89 1.5v.525s3.91-.01 3.91-.006l.002-7.06h8.395l.014 7.045h3.91v-.506c-1.105-.02-1.88-.04-1.88-1.496V20.75c0-1.456.774-1.47 1.88-1.49l.007-.55c-.94 0-3.51.005-3.91 0z" />
</svg>