<svg xmlns="http://www.w3.org/2000/svg" viewBox="0 0 53.039 53"><defs><radialGradient id="a" cx="347.433" cy="-3.889" r="239.925" gradientUnits="userSpaceOnUse" gradientTransform="matrix(.1 0 0 -.1 -8.8 18.1)"><stop offset="0" stop-color="#008E89"/><stop offset="1" stop-color="#00B140"/></radialGradient></defs><path fill="url(#a)" d="M14.548 39.28L27.93 18.985c.05-.243.098-.487.17-.73v-.024L13.55 38.26c.317.34.657.682.998 1.022zm-3.6-4.77c.22.414.46.828.704 1.217L28.32 17.6c.146-.317.317-.634.51-.9L10.948 34.51zm31.485-15.402c-.17-.39-.365-.755-.584-1.144l-3.41 3.358c-.08.22-.15.438-.25.633l4.23-2.847zm-5.986 5.036l7.568 3.383c.024-.463.024-1.07.024-1.144l-7.38-2.41c-.08.05-.15.123-.22.17zm7.008-2.14l-5.742.827c-.073.1-.146.22-.244.32l6.22-.02c-.05-.39-.15-.75-.25-1.12z"/><path fill="url(#a)" d="M40.073 15.385c-.292-.365-.608-.706-.925-1.047l-.413 3.748-1.996-5.816c-.47-.316-.93-.633-1.42-.925l1.7 3.845-4.41-5.11c-.59-.22-1.19-.413-1.8-.56l4.45 4.672-7.3-5.134c-.49-.048-1.22-.073-1.85-.048l7.66 4.866-10.44-4.623c-.56.097-1.12.22-1.655.39L32.67 13.9 18.9 10.713c-.51.243-.997.51-1.484.803L31.77 14.07l-16.764-.774c-.44.39-.85.78-1.24 1.192l17.3-.12-19.1 2.383c-.32.47-.587.93-.855 1.41l19.3-3.4-20.59 6.37c-.14.47-.26.93-.39 1.39l20.3-7.23-20.7 10.24c-.03.41-.03 1-.03 1.46l20.15-11.07L9.37 30.09c.097.462.22.9.34 1.338l19.37-15.06c.997-1.217 2.506-1.995 4.185-1.995 2.994 0 5.403 2.41 5.403 5.4 0 .317-.025.61-.073.9l1.48-5.28z"/><path fill="url(#a)" d="M27.907 20.422c-.025-.195-.05-.414-.05-.61L17.03 41.227c.365.243.754.462 1.143.68l9.734-21.484zm6.13 4.696c-.096.024-.193.024-.266.024l7.45 10.9c.25-.364.46-.753.68-1.118l-7.86-9.806zm1.388-.39c-.073.025-.17.073-.243.098l8.005 7.13c.122-.39.244-.78.34-1.17l-8.102-6.058zm3.918 13.7l-6.667-13.286c-.122-.024-.22-.024-.34-.05l6.107 14.26c.292-.316.608-.608.9-.924zM27.08 44L29 23.05c-.096-.122-.17-.244-.242-.365l-3.017 21.29c.42.025 1.08.025 1.34.025zm4.16-19.223c-.097-.05-.195-.097-.316-.122l3.65 17.374c.413-.22.803-.44 1.192-.69L31.24 24.77zm-2.968-2.967c-.073-.147-.122-.318-.17-.488l-6.91 21.85c.437.147.875.268 1.313.366l5.767-21.73zM30 24.072c-.098-.073-.196-.17-.293-.244l.584 19.758c.47-.097.9-.22 1.37-.365L30 24.08z"/></svg>