<svg xmlns="http://www.w3.org/2000/svg" viewBox="0 0 20 20" width="20" height="20">
    <g transform="matrix(.18182 0 0 .18182 4 4)">
        <path d="M61.146 49.25A32.5 32.5 0 0 1 16.75 61.146L33 33z" fill="#00a9cb" />
        <path d="M16.75 61.146A32.5 32.5 0 0 1 .778 37.242a32.5 32.5 0 0 1 9.24-27.223L33 33z" fill="#103c68" />
        <path d="M10.02 10.02A32.5 32.5 0 0 1 33 .5V33z" fill="#fdba4d" />
        <path d="M33 .5a32.5 32.5 0 0 1 28.146 16.25 32.5 32.5 0 0 1 0 32.5L33 33z" fill="#c84623" />
        <circle r="32.5" cy="33" cx="33" fill="none" stroke="#fff" />
    </g>
</svg>