<?xml version="1.0" standalone="no"?>
<!DOCTYPE svg PUBLIC "-//W3C//DTD SVG 20010904//EN"
 "http://www.w3.org/TR/2001/REC-SVG-20010904/DTD/svg10.dtd">
<svg version="1.0" xmlns="http://www.w3.org/2000/svg"
 width="16.000000pt" height="16.000000pt" viewBox="0 0 16.000000 16.000000"
 preserveAspectRatio="xMidYMid meet">
<metadata>
Created by potrace 1.11, written by Peter Selinger 2001-2013
</metadata>
<g transform="translate(0.000000,16.000000) scale(0.002286,-0.002286)"
fill="#000000" stroke="none">
<path d="M3510 6847 c123 -79 199 -128 435 -277 200 -126 255 -161 370 -235
138 -89 477 -303 524 -332 30 -18 52 -33 49 -33 -7 0 -131 53 -218 93 -30 14
-190 85 -355 157 -165 73 -421 187 -570 253 -148 66 -304 134 -345 152 -41 18
-100 44 -130 58 -30 13 -129 57 -220 97 l-165 73 -105 -21 c-58 -12 -130 -29
-160 -38 l-55 -16 50 -20 c28 -11 450 -175 940 -364 490 -190 899 -349 910
-354 11 -5 59 -23 107 -41 49 -18 87 -34 85 -35 -2 -2 -158 33 -347 77 -190
43 -385 89 -435 100 -49 11 -97 22 -105 24 -8 2 -123 29 -255 59 -320 74 -810
188 -1188 276 l-307 71 -78 -42 c-146 -78 -203 -111 -200 -115 3 -3 23 -7 93
-19 17 -3 53 -10 80 -15 28 -5 66 -12 85 -14 41 -7 77 -13 145 -26 79 -15 347
-62 380 -66 16 -2 37 -6 45 -9 8 -2 33 -7 55 -10 22 -3 60 -10 85 -15 25 -5
97 -19 160 -30 63 -11 126 -22 140 -24 20 -4 165 -29 515 -91 17 -3 43 -7 60
-11 32 -6 177 -32 390 -69 189 -34 186 -33 306 -55 58 -11 125 -23 150 -26 24
-3 46 -8 49 -11 4 -4 -48 -2 -335 12 -44 3 -143 7 -220 10 -77 3 -176 8 -220
10 -44 2 -138 7 -210 10 -71 3 -175 7 -230 10 -133 7 -284 14 -425 20 -383 17
-548 25 -655 30 -49 3 -142 7 -205 10 -161 7 -293 13 -450 21 -74 3 -165 7
-201 9 l-67 3 -116 -112 c-64 -61 -116 -113 -116 -116 0 -3 87 -4 192 -4 330
3 2119 15 2628 18 438 3 514 -1 346 -19 -48 -5 -71 -8 -156 -19 -19 -3 -55 -7
-80 -10 -269 -34 -543 -67 -575 -72 -22 -2 -58 -7 -80 -10 -22 -2 -51 -7 -65
-9 -14 -2 -54 -7 -90 -11 -73 -8 -73 -8 -150 -18 -30 -4 -71 -9 -90 -11 -29
-4 -193 -24 -405 -50 -22 -3 -56 -7 -75 -10 -19 -3 -54 -7 -77 -10 -24 -3 -62
-7 -85 -10 -24 -3 -59 -7 -78 -10 -19 -3 -55 -7 -80 -10 -25 -3 -61 -8 -80
-10 -19 -3 -55 -7 -80 -10 -25 -3 -79 -10 -120 -15 -41 -5 -95 -12 -120 -15
-25 -3 -61 -7 -80 -10 -19 -2 -55 -7 -80 -10 -25 -3 -61 -8 -80 -10 -19 -3
-55 -7 -80 -10 -67 -8 -109 -13 -285 -35 -88 -12 -176 -23 -195 -25 -19 -2
-73 -10 -120 -16 -47 -6 -92 -11 -101 -11 -8 0 -28 -21 -44 -46 -48 -77 -134
-226 -132 -228 1 -1 36 5 77 12 41 7 116 20 165 29 131 22 147 25 175 30 14 3
39 8 55 11 17 2 66 11 110 19 44 8 96 17 115 20 19 3 46 7 60 10 14 3 39 7 55
10 17 3 41 7 55 10 14 3 52 10 85 15 33 5 71 12 85 15 38 7 203 36 225 39 11
2 34 6 50 9 17 4 46 9 65 12 19 3 58 10 85 15 28 5 66 12 85 15 48 8 236 41
400 70 74 14 151 27 170 30 19 3 69 12 110 20 41 8 95 17 120 20 24 4 47 8 50
10 3 1 27 6 55 9 27 4 83 14 125 22 41 8 91 17 110 20 19 3 85 14 145 25 235
42 332 59 390 69 33 5 70 12 81 14 12 2 39 7 60 11 21 3 103 17 183 31 79 14
145 24 147 22 1 -2 -54 -21 -124 -42 -193 -57 -220 -66 -607 -186 -198 -62
-416 -129 -485 -150 -69 -21 -222 -68 -340 -105 -327 -102 -1077 -334 -1145
-355 -50 -15 -532 -164 -830 -257 -44 -14 -100 -31 -125 -38 -25 -7 -101 -31
-170 -52 l-125 -39 -11 -44 c-7 -25 -23 -84 -37 -132 -13 -49 -21 -88 -16 -88
7 0 98 32 369 128 177 63 1118 398 1235 440 243 87 867 309 940 335 61 22 602
214 965 344 262 93 374 132 377 130 1 -1 -116 -61 -260 -132 -144 -71 -557
-275 -917 -453 -360 -178 -808 -400 -995 -492 -328 -162 -1447 -716 -1687
-835 l-118 -58 -1 -91 c-1 -151 -1 -177 4 -183 3 -2 37 14 77 36 39 23 73 41
75 41 2 0 30 15 62 34 32 18 90 50 128 71 58 32 239 131 500 275 28 15 210
115 405 223 195 107 375 206 400 219 25 14 142 78 260 143 118 65 235 129 260
143 25 13 164 90 310 170 146 79 285 156 310 170 25 14 90 49 145 80 55 30
190 104 300 165 223 122 269 147 370 202 39 21 75 41 80 45 23 16 189 102 180
92 -8 -7 -997 -717 -1265 -907 -25 -18 -225 -161 -445 -319 -1053 -754 -1230
-881 -1640 -1174 -242 -173 -442 -316 -444 -318 -4 -4 57 -246 64 -253 6 -5
123 84 660 504 17 13 77 60 135 104 58 45 119 92 135 105 17 13 199 155 405
315 206 161 389 302 405 315 131 103 1126 875 1147 891 258 194 886 693 926
737 116 126 312 248 472 292 351 97 714 18 982 -214 159 -137 273 -319 327
-521 31 -117 45 -288 30 -372 -16 -93 14 1 100 308 150 535 159 568 170 609
10 39 10 40 -52 110 -96 109 -117 130 -118 117 -1 -6 -2 -14 -3 -18 -1 -5 -6
-46 -10 -93 -5 -47 -10 -92 -11 -100 -2 -8 -6 -44 -9 -80 -7 -69 -14 -123 -21
-180 -2 -19 -7 -62 -10 -95 -6 -65 -16 -129 -19 -132 -1 -2 -12 25 -23 60 -12
34 -74 215 -138 402 -64 187 -140 410 -169 495 l-53 155 -64 44 c-81 55 -203
130 -207 127 -1 -2 30 -75 69 -162 39 -87 102 -231 141 -319 63 -145 93 -212
106 -240 8 -16 -24 20 -187 210 -85 99 -158 182 -161 185 -3 3 -18 21 -34 40
-16 19 -52 62 -81 95 -109 125 -331 382 -357 413 -28 34 -106 66 -263 110
-127 36 -125 38 -44 -46 84 -86 256 -265 315 -328 72 -76 328 -346 384 -403
30 -32 62 -66 70 -77 14 -18 14 -18 -5 -3 -11 9 -121 88 -245 175 -124 87
-299 210 -390 274 -91 64 -194 136 -230 161 -36 25 -121 86 -190 134 -69 49
-165 117 -215 151 -49 35 -96 68 -104 75 -9 8 -71 14 -195 16 l-181 5 85 -55z"/>
<path d="M2206 3666 l-1730 -1723 26 -44 c13 -24 35 -62 47 -84 13 -22 32 -55
44 -74 l20 -34 41 44 c167 181 269 292 312 338 27 30 60 66 74 81 14 15 63 68
110 120 47 51 101 109 120 130 19 21 53 57 75 81 22 24 67 73 100 109 33 36
103 112 155 169 52 57 110 120 128 140 19 20 52 56 75 81 42 44 243 264 262
286 25 27 203 220 225 244 14 14 66 71 115 125 50 54 101 111 115 125 29 31
71 77 230 250 63 69 119 130 125 136 5 6 53 57 105 114 52 57 122 133 156 169
33 36 85 93 115 126 29 32 63 69 74 80 11 12 61 66 111 121 51 55 105 113 120
130 16 17 63 68 104 114 41 46 101 111 133 144 31 34 69 84 83 111 14 28 35
65 46 83 11 17 18 32 16 32 -2 -1 -781 -776 -1732 -1724z"/>
<path d="M6152 4832 c-294 -290 -334 -333 -352 -380 -11 -29 -20 -55 -20 -58
0 -3 182 117 405 267 223 150 405 278 405 286 0 14 -39 95 -82 170 l-24 42
-332 -327z"/>
<path d="M3475 4644 c-182 -250 -338 -465 -347 -477 -9 -12 -85 -116 -169
-232 -83 -115 -175 -241 -204 -280 -28 -38 -254 -349 -501 -689 -247 -341
-634 -874 -860 -1185 l-412 -566 77 -80 c42 -44 86 -88 98 -98 l23 -18 103
158 c57 87 193 293 302 458 109 165 253 383 320 485 220 335 409 621 580 880
93 140 223 338 290 440 67 102 224 340 350 530 125 190 256 388 290 440 34 52
130 197 212 322 126 190 153 237 167 293 9 37 15 69 14 71 -2 1 -152 -202
-333 -452z"/>
<path d="M3753 4778 c-9 -15 -91 -176 -498 -983 -169 -335 -392 -776 -495
-980 -103 -203 -297 -586 -430 -850 -133 -264 -339 -671 -457 -904 -168 -331
-212 -426 -202 -433 61 -38 202 -118 209 -118 5 0 12 10 16 23 4 12 21 54 39
92 18 39 53 115 78 170 25 55 59 132 77 170 18 39 84 185 147 325 63 140 128
284 145 320 16 36 50 110 75 165 42 93 299 660 356 785 14 30 80 177 147 325
67 149 132 293 145 320 13 28 43 95 68 150 25 55 61 135 81 178 20 43 36 80
36 82 0 1 20 45 44 96 24 52 61 135 84 184 22 50 53 119 70 155 16 36 38 85
50 110 11 25 68 151 126 280 100 219 107 239 105 292 -2 62 -3 65 -16 46z"/>
<path d="M3806 4490 c-3 -8 -19 -58 -35 -110 -25 -82 -123 -392 -262 -830 -22
-69 -49 -154 -60 -190 -43 -137 -262 -830 -394 -1245 -37 -115 -74 -232 -82
-260 -9 -27 -24 -75 -34 -105 -10 -30 -43 -134 -73 -230 -30 -96 -112 -355
-181 -575 -114 -358 -154 -486 -201 -635 -7 -25 -14 -46 -14 -48 0 -13 240
-76 250 -65 5 4 20 53 35 108 14 55 38 143 52 195 14 52 26 102 28 110 2 8 58
220 125 470 66 250 141 529 165 620 24 91 76 285 115 431 39 146 72 276 75
288 2 12 9 36 14 54 10 28 33 117 126 472 31 116 84 315 185 695 45 168 97
364 116 435 18 72 47 178 63 237 16 58 25 110 21 115 -5 4 -13 24 -18 43 -6
23 -11 30 -16 20z"/>
<path d="M6729 4366 c-2 -2 -29 -7 -59 -10 -30 -3 -65 -8 -78 -11 -13 -2 -56
-9 -95 -14 -40 -6 -88 -13 -107 -15 -30 -5 -254 -36 -360 -51 -19 -3 -46 -7
-60 -10 -26 -4 -50 -8 -155 -21 -33 -4 -63 -9 -67 -10 -5 -1 -19 -2 -33 -3
-22 -1 -75 -46 -75 -64 0 -4 269 -6 598 -4 l597 3 -2 30 c-1 16 -9 64 -19 107
-17 76 -18 77 -49 77 -17 0 -34 -2 -36 -4z"/>
<path d="M3937 4214 c-3 -16 -9 -49 -12 -74 -4 -25 -8 -56 -10 -70 -13 -88
-27 -189 -30 -210 -2 -14 -7 -47 -10 -75 -3 -27 -8 -61 -10 -75 -3 -14 -7 -43
-10 -65 -3 -22 -8 -51 -10 -65 -2 -14 -7 -45 -10 -70 -4 -25 -8 -56 -10 -70
-5 -29 -85 -600 -91 -646 -2 -18 -15 -108 -29 -200 -13 -93 -27 -189 -30 -214
-3 -25 -7 -58 -10 -75 -3 -16 -7 -48 -10 -70 -3 -22 -12 -85 -20 -140 -13 -91
-19 -131 -30 -205 -2 -14 -7 -47 -10 -75 -4 -27 -15 -106 -25 -175 -10 -69
-22 -150 -25 -180 -4 -30 -8 -57 -10 -60 -1 -3 -6 -36 -10 -75 -4 -38 -8 -72
-10 -75 -2 -3 -6 -32 -9 -65 -4 -33 -9 -69 -11 -80 -2 -11 -7 -42 -10 -70 -3
-27 -8 -59 -10 -70 -2 -11 -7 -40 -10 -65 -3 -25 -7 -54 -9 -65 -2 -11 -7 -45
-10 -76 -4 -31 -9 -67 -11 -80 -3 -13 -7 -42 -10 -64 -3 -22 -7 -53 -10 -70
-3 -16 -7 -46 -9 -65 -3 -19 -7 -51 -10 -70 -3 -19 -10 -71 -16 -115 -16 -110
-19 -136 -26 -168 l-6 -27 81 -1 c192 -3 187 -3 187 24 1 20 7 97 19 220 9 86
14 141 20 207 3 36 8 85 10 110 3 25 7 77 10 115 3 39 8 88 10 110 4 38 10
109 20 222 6 69 13 146 19 208 3 28 8 84 12 125 3 41 8 86 9 100 5 46 17 175
20 215 2 22 6 72 10 110 4 39 8 93 11 120 2 28 6 70 9 95 2 25 7 79 10 120 3
41 8 86 10 100 2 14 7 63 10 110 4 47 8 96 10 110 2 14 7 61 10 105 3 44 7 98
10 120 2 22 6 67 9 100 3 33 8 85 11 115 3 30 7 75 10 100 2 25 7 79 11 120 4
41 8 89 10 105 1 17 5 66 9 110 3 44 8 91 10 105 2 14 7 61 10 105 4 44 8 96
10 115 2 19 7 76 10 125 4 50 8 92 10 95 2 3 6 50 10 105 4 55 9 103 12 107 2
5 -7 26 -20 49 l-25 41 -5 -28z"/>
<path d="M4125 3942 c2 -42 6 -178 10 -302 3 -124 8 -283 10 -355 6 -176 15
-475 20 -675 3 -91 7 -239 10 -330 2 -91 7 -253 10 -360 3 -107 8 -256 10
-330 3 -74 7 -227 10 -340 3 -113 8 -257 10 -320 2 -63 7 -230 11 -370 4 -140
7 -282 8 -314 1 -33 6 -61 12 -63 5 -2 63 12 129 29 l120 33 -1 55 c-1 59 -12
225 -19 275 -2 16 -7 71 -11 120 -8 113 -10 132 -19 230 -9 109 -14 158 -20
235 -3 36 -7 85 -10 110 -3 25 -7 77 -10 115 -3 39 -7 94 -10 122 -10 107 -20
214 -30 338 -3 39 -8 90 -10 115 -2 25 -7 79 -10 120 -3 41 -8 91 -10 110 -3
19 -7 71 -10 115 -3 44 -7 98 -10 120 -2 22 -7 72 -10 110 -3 39 -7 93 -10
120 -4 47 -12 133 -21 235 -3 43 -7 89 -19 240 -3 36 -8 83 -10 105 -2 22 -7
72 -10 110 -3 39 -8 88 -10 110 -2 22 -7 81 -10 130 -4 50 -8 100 -10 111 -2
12 -6 61 -10 110 -4 49 -9 98 -10 109 -1 11 -3 29 -4 41 0 11 -14 30 -30 42
l-29 21 3 -77z"/>
<path d="M5454 3976 c-10 -8 -17 -16 -14 -19 3 -3 154 -71 335 -152 182 -81
497 -222 700 -312 204 -91 384 -172 401 -179 l30 -13 0 111 -1 110 -35 13
c-19 8 -217 73 -440 145 -223 73 -425 138 -449 146 -149 50 -502 164 -504 164
-2 0 -12 -6 -23 -14z"/>
<path d="M4367 3852 c-2 -4 29 -162 69 -352 40 -190 75 -356 78 -370 2 -14 14
-70 25 -125 12 -55 31 -144 41 -199 11 -54 22 -101 24 -105 2 -3 7 -24 10 -46
4 -21 22 -111 41 -200 18 -88 41 -194 49 -235 9 -41 23 -106 31 -145 22 -100
23 -104 34 -165 6 -30 13 -64 16 -75 4 -21 46 -217 114 -540 22 -104 42 -203
45 -220 3 -16 15 -73 26 -125 12 -52 30 -137 41 -187 10 -51 28 -136 40 -188
l20 -94 57 31 c50 28 161 95 170 103 2 2 -3 27 -11 57 -9 29 -25 87 -36 128
-11 41 -124 455 -251 920 -127 465 -240 879 -251 920 -11 41 -65 239 -120 440
-55 201 -116 424 -135 495 -67 246 -72 261 -99 273 -13 6 -26 8 -28 4z"/>
<path d="M5202 3832 c-10 -7 195 -197 512 -475 12 -10 39 -35 62 -55 22 -20
73 -66 114 -102 40 -36 78 -69 84 -75 6 -5 49 -44 96 -85 47 -41 105 -93 130
-116 25 -23 92 -83 150 -134 58 -51 139 -123 180 -160 176 -158 215 -190 217
-183 2 5 16 55 33 113 24 83 27 107 17 116 -6 7 -167 127 -357 268 -190 141
-352 262 -360 269 -114 91 -841 627 -851 627 -8 0 -20 -4 -27 -8z"/>
<path d="M4640 3766 c0 -4 29 -73 732 -1714 l450 -1053 88 91 87 91 -300 597
c-165 328 -455 908 -644 1287 -190 380 -351 693 -357 697 -11 8 -56 11 -56 4z"/>
<path d="M4920 3761 c0 -4 48 -77 108 -163 59 -87 204 -299 322 -472 118 -174
287 -421 375 -549 88 -129 266 -390 395 -580 129 -190 238 -346 242 -346 7 -1
128 198 128 210 0 5 -50 70 -111 146 -61 76 -125 156 -143 177 -17 22 -44 56
-61 76 -16 20 -43 54 -60 75 -16 21 -281 351 -587 734 -459 572 -563 696 -583
697 -14 1 -25 -2 -25 -5z"/>
</g>
</svg>
