<svg xmlns="http://www.w3.org/2000/svg" viewBox="0 0 97.49 36.49"><defs><radialGradient id="a" cx="2.4" cy="1.44" r="60.8" gradientTransform="matrix(.5 0 0 .5 24.3 9.3)" gradientUnits="userSpaceOnUse"><stop offset="0" stop-color="#008e89" /><stop offset="1" stop-color="#00b140" /></radialGradient></defs><title>Janes logo</title><path fill="url(#a)" d="M5.79 31.57l13.93-21.13a5.59 5.59 0 0 1 .17-.76L4.73 30.5q.51.56 1.06 1.07zM2 26.62q.34.66.73 1.28L20.13 9a5.62 5.62 0 0 1 .53-.94zm32.81-16.04q-.28-.6-.6-1.18l-3.55 3.51a5.59 5.59 0 0 1-.25.66zm-6.24 5.24l7.89 3.51v-1.19l-7.67-2.51zm7.32-2.25l-6 .88-.25.33h6.49q-.13-.63-.24-1.21z" /><path fill="url(#a)" d="M32.36 6.68q-.47-.57-1-1.1l-.43 3.89-2.07-6.06q-.71-.51-1.48-1l1.77 4-4.57-5.28A18.11 18.11 0 0 0 22.7.55l4.64 4.86L19.75.06A18.68 18.68 0 0 0 17.83 0l8 5.07L15 .3q-.88.16-1.72.4l11.38 4.42-14.35-3.31q-.8.39-1.55.84L23.7 5.31l-17.46-.8Q5.57 5.1 5 5.75l18-.12L3.07 8.11q-.48.71-.89 1.47L22.28 6 .87 12.68c-.15.47-.28 1-.4 1.44L21.6 6.6 0 17.27v1.53L21 7.26.39 22q.15.71.35 1.4L20.92 7.71a5.62 5.62 0 0 1 9.9 4.48z" /><path fill="url(#a)" d="M19.7 11.93a5.66 5.66 0 0 1 0-.64L8.38 33.6q.58.37 1.18.7zm6.37 4.9h-.29l7.75 11.35q.38-.57.71-1.18zm1.44-.41l-.27.11L35.58 24q.2-.6.36-1.23zm4.08 14.27l-7-13.84-.35-.05 6.35 14.84q.54-.46 1-.95zm-12.77 5.79l2-21.81q-.14-.18-.26-.37l-3.15 22.17c.46.02 1.14.02 1.41.01zm4.35-20.01l-.32-.14 3.81 18.1q.63-.33 1.24-.71zm-3.1-3.09q-.1-.25-.18-.5l-7.18 22.75q.67.21 1.36.38zm1.8 2.35l-.31-.26.61 20.59q.72-.16 1.41-.37z" /><path fill="#58595b" d="M42.8 18.09l.91-.69a2.73 2.73 0 0 0 2.37 1.4c1.44 0 2.41-.71 2.41-2.74V6.19h1.3v9.89c0 2.55-1.39 3.87-3.65 3.87a3.7 3.7 0 0 1-3.34-1.86zm9.2-.64c0-1.9 1.62-3.28 6.51-4v-.49a1.74 1.74 0 0 0-2-2A5.23 5.23 0 0 0 53 12.47l-.68-.78a6.13 6.13 0 0 1 4.34-1.79c2.15 0 3.08 1.15 3.08 3.07v4.36a6.64 6.64 0 0 0 .26 2.36h-1.3a4.3 4.3 0 0 1-.22-1.37 5.5 5.5 0 0 1-3.8 1.53c-1.68.01-2.68-.9-2.68-2.4zm6.51-.15v-3c-4.12.69-5.27 1.72-5.27 3 0 1 .68 1.53 1.75 1.53a5 5 0 0 0 3.52-1.53zm3.77-7.22h1.26v1.51a5.27 5.27 0 0 1 3.67-1.7 2.57 2.57 0 0 1 2.86 2.85v7h-1.25V13c0-1.35-.6-2-1.92-2a4.85 4.85 0 0 0-3.36 1.68v7h-1.26zm9.78 4.8c0-3.41 2.19-5 4.21-5 2.24 0 3.92 1.72 3.92 5v.24h-6.87c0 2.37 1.37 3.7 3 3.7a3.25 3.25 0 0 0 3-1.75l.78.62a4.25 4.25 0 0 1-3.85 2.19c-2.25.01-4.19-1.72-4.19-5zm6.94-.75C78.85 12.3 78 11 76.26 11c-1.39 0-2.68 1-2.92 3.18zm3-6.22h-.6V6.19H83v1.59l-.84 2h-.58zm1.16 10.25l.8-.73a3.76 3.76 0 0 0 3 1.39c1.64 0 2.5-.6 2.5-1.68s-.77-1.48-2.65-1.92c-2.21-.55-3.34-1.13-3.34-2.81 0-1.37 1.19-2.52 3.27-2.52a4.73 4.73 0 0 1 3.56 1.39l-.71.84a3.83 3.83 0 0 0-2.81-1.19c-1.5 0-2.08.69-2.08 1.42 0 .93.66 1.31 2.34 1.72 2.41.58 3.65 1.17 3.65 3s-1.57 2.76-3.74 2.76a4.61 4.61 0 0 1-3.79-1.67zM43.63 24.9h1.91a4.37 4.37 0 0 1 .85.08 2.16 2.16 0 0 1 .68.25 1.2 1.2 0 0 1 .45.45 1.39 1.39 0 0 1 .16.69 1.37 1.37 0 0 1-.25.79 1.29 1.29 0 0 1-.77.5 1.75 1.75 0 0 1 1 .46 1.31 1.31 0 0 1 .34 1 1.64 1.64 0 0 1-.17.78 1.56 1.56 0 0 1-.48.55 2.11 2.11 0 0 1-.73.32 3.75 3.75 0 0 1-.91.1h-2.08zm1.82 2.47a1.43 1.43 0 0 0 .91-.23.79.79 0 0 0 .28-.65.65.65 0 0 0-.29-.59 1.68 1.68 0 0 0-.88-.18h-.78v1.65zm.13 2.63a1.77 1.77 0 0 0 1-.25.86.86 0 0 0 .36-.76.76.76 0 0 0-.35-.69 1.9 1.9 0 0 0-1-.22h-.89V30zm3.5 1.84h.17a.77.77 0 0 0 .57-.21 1.36 1.36 0 0 0 .32-.55l.08-.28-1.76-4.42h1.07l.78 2.2q.1.29.2.62l.2.64.17-.63.17-.62.68-2.2h1l-1.62 4.68a4.8 4.8 0 0 1-.3.68 2.24 2.24 0 0 1-.38.52 1.49 1.49 0 0 1-.49.33 1.69 1.69 0 0 1-.64.11h-.32l-.26-.07.19-.82zm6.78-6.94h1.06v6h-1.06zm2.76 0h1.06v2.4h2.42v-2.4h1.06v6h-1.07v-2.67h-2.41v2.65h-1.06zm6.44 4.48a2.66 2.66 0 0 0 .73.49 2 2 0 0 0 .82.19 1.23 1.23 0 0 0 .78-.21.67.67 0 0 0 .26-.56.65.65 0 0 0-.07-.31.7.7 0 0 0-.19-.22 1.64 1.64 0 0 0-.29-.18l-.37-.16-.82-.36a2.8 2.8 0 0 1-.43-.23 1.89 1.89 0 0 1-.39-.33 1.49 1.49 0 0 1-.38-1 1.48 1.48 0 0 1 .15-.66 1.68 1.68 0 0 1 .42-.53 1.92 1.92 0 0 1 .63-.36 2.46 2.46 0 0 1 .81-.13 2.54 2.54 0 0 1 1 .21 2.6 2.6 0 0 1 .83.55l-.54.68a2.65 2.65 0 0 0-.6-.37 1.7 1.7 0 0 0-.69-.14 1.13 1.13 0 0 0-.68.19.6.6 0 0 0-.26.52.54.54 0 0 0 .08.3.79.79 0 0 0 .21.22 1.72 1.72 0 0 0 .31.17l.36.15.81.34a2.8 2.8 0 0 1 .48.26 1.76 1.76 0 0 1 .38.34 1.47 1.47 0 0 1 .25.44 1.69 1.69 0 0 1 .09.58 1.63 1.63 0 0 1-.15.68 1.64 1.64 0 0 1-.42.56 2.09 2.09 0 0 1-.68.38 2.67 2.67 0 0 1-.9.14 3.06 3.06 0 0 1-1.16-.23 3 3 0 0 1-1-.65zm6.99-4.48h1.17l1.08 2.94.39 1.16.38-1.13 1.06-2.94h1.17v6h-1v-4.69L76 27.6l-1 2.71h-.49l-1-2.71-.47-1.36v4.63h-1zm6.7 4.77a1.24 1.24 0 0 1 .63-1.11 5 5 0 0 1 2-.55 1.21 1.21 0 0 0 0-.33.83.83 0 0 0-.14-.28.65.65 0 0 0-.24-.2.92.92 0 0 0-.38-.07 1.72 1.72 0 0 0-.65.13 4 4 0 0 0-.61.31l-.38-.7a4.55 4.55 0 0 1 .83-.41 2.82 2.82 0 0 1 1-.17 1.54 1.54 0 0 1 1.26.5 2.21 2.21 0 0 1 .41 1.44v2.65h-.86l-.08-.49a3.28 3.28 0 0 1-.64.43 1.62 1.62 0 0 1-.74.17 1.32 1.32 0 0 1-1-.36 1.27 1.27 0 0 1-.41-.96zm1-.08A.52.52 0 0 0 80 30a.74.74 0 0 0 .46.14 1 1 0 0 0 .5-.13 2.38 2.38 0 0 0 .47-.36v-1a4.77 4.77 0 0 0-.77.15 2.11 2.11 0 0 0-.5.21.74.74 0 0 0-.27.26.62.62 0 0 0-.12.31zm4.15-3.2h.87l.07.79a1.88 1.88 0 0 1 .57-.67 1.26 1.26 0 0 1 1.2-.14l-.18.91-.22-.05h-.25a1 1 0 0 0-.56.21 1.58 1.58 0 0 0-.5.72v2.74h-1zm3.58-1.96h1v4l1.66-2.06h1.15l-1.53 1.82 1.69 2.65h-1.09l-1.15-1.94-.7.8v1.14h-1zM93 25.61a.67.67 0 0 1-.47-.16.55.55 0 0 1-.18-.43.56.56 0 0 1 .18-.43.73.73 0 0 1 .93 0 .56.56 0 0 1 .18.43.55.55 0 0 1-.18.43.67.67 0 0 1-.46.16zm-.53.78h1v4.48h-1zm2.68.83h-.64v-.78h.69l.13-1.22h.88v1.22h1.14v.83h-1.14v2.13q0 .78.63.78h.24l.22-.07.18.78-.41.11a2.37 2.37 0 0 1-.5.05 1.64 1.64 0 0 1-.66-.12 1.12 1.12 0 0 1-.44-.33 1.38 1.38 0 0 1-.25-.51 2.61 2.61 0 0 1-.08-.66zM92.36 6.71h-.84v-.23h1.92v.23h-.84v2.36h-.25zm1.53-.23h.32l.87 2.27.92-2.27h.33v2.59H96V6.9c0 .12-.1.29-.16.46l-.67 1.72H95l-.67-1.72c-.06-.17-.11-.28-.16-.46v2.17h-.23z" /></svg>