<svg xmlns="http://www.w3.org/2000/svg" viewBox="0 0 31.354248898843764 31.354248898843764">
   <path d="M6.5,12.52665234955035h18.354248898843764h5v5v7.327596549293414a5,5 0 0 1 -5,5h-18.354248898843764a5,5 0 0 1 -5,-5v-7.327596549293414v-5h5z" fill="rgba(38, 91, 63, 1)"  stroke="#fff" stroke-width="1.5"/>
   <path d="M6.5,1.5h6.202427942196437h5v5v1.02665234955035v5h-5h-6.202427942196437h-5v-5v-1.02665234955035a5,5 0 0 1 5,-5z" fill="rgba(0, 102, 179, 1)"  stroke="#fff" stroke-width="1.5"/>
   <path d="M22.702427942196437,1.5h2.1518209566473274a5,5 0 0 1 5,5v1.02665234955035v5h-5h-2.1518209566473274h-5v-5v-1.02665234955035v-5h5z" fill="rgba(16, 60, 104, 1)"  stroke="#fff" stroke-width="1.5"/>
   <rect x='1.5' y='1.5' width='28.354248898843764' height='28.354248898843764' rx='5' ry='5' stroke='#fff' stroke-width='3' fill='none'/>
</svg>