<svg xmlns="http://www.w3.org/2000/svg" viewBox="0 0 59.65623579765469 59.65623579765469">
<defs>
   <linearGradient id="patternMulti" x2="0%" y2="100%">
        <stop id="stop1" offset="33%" stop-color="red" />
        <stop id="stop2" offset="33%" stop-color="#FF6" />
        <stop id="stop3" offset="66%" stop-color="#FF6" />
        <stop id="stop4" offset="66%" stop-color="#F60" />
      </linearGradient>
	  <linearGradient id="patternDouble" x2="0%" y2="100%">
        <stop id="stop1" offset="33%" stop-color="green" />
        <stop id="stop2" offset="33%" stop-color="#F60" />
        <stop id="stop3" offset="66%" stop-color="#F60" />
      </linearGradient>
</defs>
   <path d="M6.5,28.23216759466806h46.65623579765469h5v5v19.92406820298663a5,5 0 0 1 -5,5h-46.65623579765469a5,5 0 0 1 -5,-5v-19.92406820298663v-5h5z" 
   fill="rgba(38, 91, 63, 1)"  stroke="#fff" stroke-width="1.5"/>
   <path d="M6.5,1.5h39.0456966606563h5v5v16.73216759466806v5h-5h-39.0456966606563h-5v-5v-16.73216759466806a5,5 0 0 1 5,-5z" 
   fill="rgba(0, 102, 179, 1)"  stroke="#fff" stroke-width="1.5"/>
   <path d="M55.5456966606563,1.5h-2.3894608630016094a5,5 0 0 1 5,5v16.73216759466806v5h-5h2.3894608630016094h-5v-5v-16.73216759466806v-5h5z" 
   fill="rgba(16, 60, 104, 1)"  stroke="#fff" stroke-width="1.5"/>
   <rect  x='1.5' y='1.5' width='56.65623579765469' height='56.65623579765469' rx='5' ry='5' stroke='#fff' stroke-width='3' fill='none'/>
</svg>